<?xml version="1.0" encoding="UTF-8"?>
<svg xmlns="http://www.w3.org/2000/svg" xmlns:xlink="http://www.w3.org/1999/xlink" id="a" width="865.76" height="682.89" viewBox="0 0 865.76 682.89">
  <defs>
    <clipPath id="b">
      <circle cx="604.63" cy="493.88" r="79.99" fill="none"></circle>
    </clipPath>
    <clipPath id="c">
      <circle cx="264.14" cy="351.49" r="79.99" fill="none"></circle>
    </clipPath>
    <clipPath id="d">
      <path d="M277.77,572.58s8.83,5.15,13.23-2.92l32.31,17.15-50.32-.3,4.78-13.93Z" fill="none"></path>
    </clipPath>
    <clipPath id="e">
      <path d="M247.32,572.58s-8.82,5.15-13.23-2.92l-32.31,17.15,50.32-.3-4.78-13.93Z" fill="none"></path>
    </clipPath>
  </defs>
  <g>
    <rect x="51.49" y="80.47" width="517.34" height="329.77" rx="14.52" ry="14.52" fill="#fbe493"></rect>
    <path d="M554.31,410.74H66.01c-8.28,0-15.02-6.74-15.02-15.02V94.99c0-8.28,6.74-15.02,15.02-15.02h488.3c8.28,0,15.02,6.74,15.02,15.02V395.72c0,8.28-6.74,15.02-15.02,15.02ZM66.01,80.97c-7.73,0-14.02,6.29-14.02,14.02V395.72c0,7.73,6.29,14.02,14.02,14.02h488.3c7.73,0,14.02-6.29,14.02-14.02V94.99c0-7.73-6.29-14.02-14.02-14.02H66.01Z" fill="#002346"></path>
  </g>
  <g>
    <rect x="51.49" y="97.16" width="517.34" height="265.82" fill="#e6e7e8"></rect>
    <path d="M569.33,363.48H50.99V96.66H569.33V363.48Zm-517.34-1H568.33V97.66H51.99V362.48Z" fill="#002346"></path>
  </g>
  <g>
    <path d="M402.75,197.86c.03-6.85,5.57-12.39,12.42-12.41h386.69c6.84,.02,12.39,5.57,12.41,12.41v40H402.75v-40Z" fill="#fbe493"></path>
    <path d="M814.77,238.36H402.25v-40.5c.03-7.09,5.82-12.89,12.92-12.91h386.69c7.1,.02,12.89,5.81,12.91,12.91v40.5Zm-411.52-1h410.52v-39.5c-.02-6.55-5.36-11.89-11.91-11.91H415.17c-6.55,.02-11.89,5.36-11.92,11.91v39.5Z" fill="#002346"></path>
  </g>
  <g>
    <path d="M801.81,452.95H415.11c-6.84-.02-12.39-5.57-12.41-12.41V237.9h411.52v202.64c-.02,6.84-5.57,12.39-12.41,12.41Z" fill="#fff"></path>
    <path d="M801.81,453.45H415.11c-7.1-.02-12.89-5.81-12.91-12.91V237.4h412.52v203.14c-.02,7.1-5.81,12.89-12.91,12.91ZM403.2,238.4v202.14c.02,6.55,5.37,11.89,11.91,11.91h386.7c6.55-.02,11.89-5.36,11.91-11.91V238.4H403.2Z" fill="#002346"></path>
  </g>
  <g>
    <path d="M347.5,266.98c.02-6.84,5.57-12.39,12.41-12.41h386.7c6.84,.02,12.39,5.57,12.41,12.41v39.95H347.5v-39.95Z" fill="#e6e7e8"></path>
    <path d="M759.52,307.43H347v-40.45c.02-7.1,5.81-12.89,12.91-12.91h386.7c7.1,.02,12.89,5.81,12.91,12.91v40.45Zm-411.52-1h410.52v-39.45c-.02-6.55-5.36-11.89-11.91-11.91H359.91c-6.55,.02-11.89,5.36-11.91,11.91v39.45Z" fill="#002346"></path>
  </g>
  <g>
    <path d="M746.5,522.06H359.85c-6.85-.01-12.4-5.56-12.41-12.41v-202.63h411.51v202.63c-.02,6.86-5.59,12.42-12.45,12.41Z" fill="#fff"></path>
    <path d="M746.51,522.56H359.85c-7.11-.01-12.9-5.8-12.91-12.91v-203.13h412.51v203.13c-.02,7.12-5.82,12.91-12.94,12.91Zm-398.57-215.04v202.13c.01,6.56,5.35,11.9,11.91,11.91h386.66c6.57,0,11.92-5.34,11.94-11.91v-202.13H347.94Z" fill="#002346"></path>
  </g>
  <path d="M292.23,336.09c.03-6.85,5.57-12.39,12.42-12.41h386.69c6.84,.02,12.39,5.57,12.41,12.41v40H292.23v-40Z" fill="#fafafa"></path>
  <path d="M691.27,591.18H304.58c-6.84-.02-12.39-5.57-12.41-12.41v-202.64h411.51v202.64c-.02,6.84-5.57,12.39-12.41,12.41Z" fill="#e6e6e6"></path>
  <g>
    <path d="M164.76,116.57H704c11.19,0,20.26,9.08,20.27,20.27v465.58H144.5V136.84c0-11.19,9.07-20.26,20.26-20.27Z" fill="#fff"></path>
    <path d="M724.77,602.92H144V136.84c0-11.45,9.31-20.76,20.76-20.77H704c11.45,0,20.76,9.32,20.77,20.77v466.08Zm-579.77-1H723.77V136.84c0-10.9-8.87-19.76-19.77-19.77H164.76c-10.9,0-19.76,8.87-19.76,19.77v465.08Z" fill="#002346"></path>
  </g>
  <g>
    <rect x="144.5" y="146.97" width="579.75" height="98.4" fill="#f69074"></rect>
    <path d="M724.75,245.87H144v-99.4H724.75v99.4Zm-579.75-1H723.75v-97.4H145v97.4Z" fill="#002346"></path>
  </g>
  <g>
    <rect x="688.1" y="156.38" width="24.2" height="24.2" fill="#fbe493"></rect>
    <path d="M712.8,181.08h-25.2v-25.2h25.2v25.2Zm-24.2-1h23.2v-23.2h-23.2v23.2Z" fill="#002346"></path>
  </g>
  <g>
    <rect x="652.2" y="156.38" width="24.2" height="24.2" fill="#fbe493"></rect>
    <path d="M676.9,181.08h-25.2v-25.2h25.2v25.2Zm-24.2-1h23.2v-23.2h-23.2v23.2Z" fill="#002346"></path>
  </g>
  <g>
    <rect x="616.3" y="156.38" width="24.2" height="24.2" fill="#fbe493"></rect>
    <path d="M641,181.08h-25.2v-25.2h25.2v25.2Zm-24.2-1h23.2v-23.2h-23.2v23.2Z" fill="#002346"></path>
  </g>
  <g>
    <rect x="229.99" y="573.26" width="24.2" height="7.58" fill="#f69074"></rect>
    <path d="M254.69,581.34h-25.2v-8.58h25.2v8.58Zm-24.2-1h23.2v-6.58h-23.2v6.58Z" fill="#002346"></path>
  </g>
  <g>
    <rect x="196.09" y="573.26" width="24.2" height="7.58" fill="#f69074"></rect>
    <path d="M220.79,581.34h-25.2v-8.58h25.2v8.58Zm-24.2-1h23.2v-6.58h-23.2v6.58Z" fill="#002346"></path>
  </g>
  <g>
    <rect x="162.19" y="573.26" width="24.2" height="7.58" fill="#f69074"></rect>
    <path d="M186.89,581.34h-25.2v-8.58h25.2v8.58Zm-24.2-1h23.2v-6.58h-23.2v6.58Z" fill="#002346"></path>
  </g>
  <path d="M376.5,203.03h-7.38l-1,3.48h-6.72l7.9-21.06h7.11l7.9,21.06h-6.75l-1.06-3.48Zm-1.36-4.54l-2.31-7.62-2.33,7.59,4.64,.03Z" fill="#002346"></path>
  <path d="M386.02,185.45h5.91v7.3c.56-.6,1.24-1.06,2-1.37,.78-.32,1.62-.48,2.46-.47,1.76-.04,3.44,.69,4.61,2,1.31,1.62,1.96,3.68,1.82,5.76,.04,1.5-.24,3-.82,4.39-.48,1.16-1.28,2.15-2.32,2.85-.97,.62-2.1,.94-3.25,.93-.98,0-1.95-.22-2.82-.66-.82-.48-1.54-1.12-2.11-1.88v2.26h-5.47v-21.11Zm5.85,13.39c-.08,1.01,.18,2.02,.74,2.86,.46,.56,1.15,.89,1.88,.88,.67-.02,1.29-.34,1.69-.88,.55-.87,.8-1.9,.7-2.92,.08-.94-.17-1.87-.69-2.65-.41-.52-1.04-.83-1.7-.83-.75-.03-1.47,.3-1.94,.88-.53,.78-.77,1.72-.68,2.66h0Z" fill="#002346"></path>
  <path d="M404.88,198.93c-.06-2.17,.8-4.26,2.37-5.76,1.73-1.58,4.02-2.41,6.36-2.3,2.59-.18,5.12,.8,6.91,2.67,2.66,3.25,2.47,7.97-.44,11-1.77,1.58-4.1,2.39-6.47,2.24-2.14,.1-4.24-.56-5.94-1.85-1.81-1.46-2.84-3.68-2.79-6Zm5.86,0c-.08,1.07,.22,2.13,.83,3,.95,1.15,2.64,1.31,3.79,.36,.13-.11,.25-.23,.36-.36,.62-.9,.91-2,.81-3.09,.1-1.03-.15-2.06-.72-2.92-.48-.62-1.22-.99-2-1-.82-.02-1.6,.35-2.11,1-.66,.86-.99,1.92-.93,3h-.03Z" fill="#002346"></path>
  <path d="M441.29,206.51h-5.46v-2.47c-.66,.89-1.5,1.63-2.46,2.17-.95,.46-2,.68-3.06,.64-1.41,.08-2.78-.44-3.78-1.44-1.01-1.25-1.5-2.84-1.37-4.44v-9.67h5.84v8.45c-.06,.71,.13,1.41,.53,2,.38,.42,.93,.64,1.5,.61,.66,0,1.28-.3,1.69-.81,.54-.86,.78-1.88,.68-2.89v-7.36h5.84l.05,15.21Z" fill="#002346"></path>
  <path d="M451.89,185.45v5.85h3.21v4.27h-3.21v5.48c-.04,.44,.03,.89,.19,1.3,.22,.33,.6,.52,1,.47,.62-.03,1.23-.16,1.81-.37l.44,4c-1.33,.31-2.69,.47-4.05,.48-1.1,.06-2.2-.13-3.21-.56-.69-.37-1.24-.97-1.54-1.69-.39-1.19-.56-2.45-.49-3.7v-5.38h-2.16v-4.3h2.16v-2.8l5.85-3.05Z" fill="#002346"></path>
  <path d="M481.78,185.45h6.49v12.55c0,1.2-.19,2.39-.58,3.53-.73,2.1-2.35,3.77-4.42,4.58-1.47,.49-3.01,.72-4.56,.69-1.13,0-2.26-.08-3.38-.22-1.04-.1-2.06-.39-3-.85-.86-.45-1.63-1.07-2.25-1.82-.62-.7-1.09-1.52-1.38-2.41-.37-1.15-.57-2.36-.59-3.57v-12.54h6.48v12.85c-.05,.98,.29,1.95,.95,2.68,.71,.69,1.67,1.05,2.65,1,.97,.07,1.92-.27,2.63-.94,.69-.72,1.06-1.7,1-2.7l-.04-12.83Z" fill="#002346"></path>
  <path d="M491.15,202.3l5.81-.54c.17,.58,.52,1.1,1,1.47,.51,.32,1.09,.48,1.69,.46,.65,.04,1.29-.14,1.82-.51,.32-.2,.51-.55,.51-.93,0-.43-.26-.83-.66-1-.82-.29-1.66-.49-2.52-.61-1.43-.21-2.85-.54-4.22-1-.8-.3-1.5-.83-2-1.52-.55-.7-.84-1.57-.83-2.46-.01-.94,.3-1.85,.88-2.58,.63-.78,1.47-1.36,2.41-1.69,1.33-.4,2.73-.59,4.12-.54,1.35-.05,2.69,.09,4,.42,.81,.25,1.56,.7,2.16,1.3,.64,.68,1.14,1.48,1.45,2.36l-5.55,.54c-.1-.43-.35-.82-.71-1.08-.5-.32-1.09-.48-1.69-.45-.51-.04-1.01,.08-1.44,.35-.28,.2-.45,.52-.45,.86,0,.37,.23,.71,.57,.85,.81,.28,1.65,.45,2.5,.5,1.48,.12,2.94,.43,4.34,.93,.87,.34,1.63,.93,2.18,1.69,.49,.7,.75,1.54,.74,2.4-.01,.91-.29,1.81-.79,2.57-.62,.9-1.5,1.6-2.52,2-1.49,.54-3.08,.79-4.67,.72-2.05,.17-4.12-.24-5.95-1.18-1.13-.79-1.91-1.98-2.18-3.33Z" fill="#002346"></path>
  <g>
    <circle cx="264.14" cy="351.49" r="84.43" fill="#f69074"></circle>
    <path d="M264.14,436.42c-46.83,0-84.93-38.1-84.93-84.93s38.1-84.93,84.93-84.93,84.93,38.1,84.93,84.93-38.1,84.93-84.93,84.93Zm0-168.86c-46.28,0-83.93,37.65-83.93,83.93s37.65,83.93,83.93,83.93,83.93-37.65,83.93-83.93-37.65-83.93-83.93-83.93Z" fill="#002346"></path>
  </g>
  <g>
    <circle cx="604.63" cy="493.88" r="84.43" fill="#fbe493"></circle>
    <path d="M604.63,578.81c-46.83,0-84.93-38.1-84.93-84.93s38.1-84.93,84.93-84.93,84.93,38.1,84.93,84.93-38.1,84.93-84.93,84.93Zm0-168.86c-46.28,0-83.93,37.65-83.93,83.93s37.65,83.93,83.93,83.93,83.93-37.65,83.93-83.93-37.65-83.93-83.93-83.93Z" fill="#002346"></path>
  </g>
  <g>
    <path d="M597.32,343.42h-221.72c-4.05,0-7.33-3.28-7.33-7.33h0c0-4.03,3.28-7.3,7.31-7.31h221.74c4.03,0,7.3,3.28,7.31,7.31h0c.01,4.04-3.25,7.32-7.29,7.33,0,0,0,0-.01,0h-.01Z" fill="#e6e7e8"></path>
    <path d="M597.34,343.92h-221.74c-4.32,0-7.83-3.51-7.83-7.83,0-4.3,3.51-7.8,7.81-7.81h221.74c4.3,0,7.8,3.51,7.81,7.81,.01,4.31-3.48,7.82-7.79,7.83Zm-221.76-14.64c-3.75,0-6.8,3.06-6.81,6.81,0,3.77,3.06,6.83,6.83,6.83h221.73c3.76-.01,6.81-3.07,6.8-6.83,0-3.75-3.06-6.81-6.81-6.81h-221.74Z" fill="#002346"></path>
  </g>
  <g>
    <path d="M545.83,374.21h-170.23c-4.04,.01-7.32-3.25-7.33-7.29,0,0,0,0,0-.01h0c0-4.04,3.29-7.32,7.33-7.32h170.23c4.04,0,7.32,3.28,7.33,7.32h0c0,4.04-3.26,7.31-7.3,7.32h-.01l-.02-.02Z" fill="#e6e7e8"></path>
    <path d="M545.65,374.73l-.02-.02h-170.05c-2.08,0-4.03-.81-5.5-2.27-1.48-1.47-2.3-3.43-2.3-5.52,0-4.32,3.52-7.83,7.83-7.83h170.23c4.31,0,7.82,3.51,7.83,7.82,0,2.09-.81,4.05-2.28,5.53-1.47,1.48-3.43,2.29-5.52,2.29h-.21Zm-170.05-1.02h170.44l.02,.02c1.75-.05,3.38-.76,4.61-2,1.29-1.29,1.99-3,1.99-4.82,0-3.76-3.07-6.82-6.83-6.82h-170.23c-3.76,0-6.82,3.06-6.83,6.82,0,1.83,.72,3.54,2.01,4.82,1.29,1.28,2.99,1.98,4.8,1.98h.02Z" fill="#002346"></path>
  </g>
  <g>
    <path d="M408.58,485.81h84.58c4.05,0,7.33-3.28,7.33-7.33h0c0-4.04-3.27-7.31-7.31-7.31h-84.6c-4.04,0-7.31,3.27-7.31,7.31h0c-.01,4.04,3.25,7.32,7.29,7.33h.02Z" fill="#e6e7e8"></path>
    <path d="M493.16,486.31h-84.6c-4.31-.01-7.8-3.52-7.79-7.83,0-4.31,3.5-7.81,7.81-7.81h84.6c4.31,0,7.81,3.5,7.81,7.81s-3.51,7.83-7.83,7.83Zm-84.58-14.64c-3.75,0-6.81,3.06-6.81,6.81,0,3.76,3.04,6.82,6.79,6.83l.02,.5v-.5h84.58c3.77,0,6.83-3.06,6.83-6.83s-3.05-6.81-6.81-6.81h-84.6Z" fill="#002346"></path>
  </g>
  <g>
    <path d="M314.59,485.81h58.36c4.04,0,7.31-3.27,7.31-7.31h0c0-4.04-3.27-7.31-7.31-7.31h-58.36c-4.04,0-7.31,3.27-7.31,7.31h0c-.01,4.04,3.25,7.32,7.29,7.33h0l.02-.02Z" fill="#e6e7e8"></path>
    <path d="M314.77,486.33h-.2c-4.31-.01-7.8-3.53-7.79-7.83,0-4.31,3.5-7.81,7.81-7.81h58.36c4.31,0,7.81,3.5,7.81,7.81s-3.5,7.81-7.81,7.81h-58.16l-.02,.02Zm-.18-14.64c-3.75,0-6.81,3.06-6.81,6.81,0,3.7,2.94,6.72,6.62,6.83l.19-.02h58.36c3.75,0,6.81-3.06,6.81-6.81s-3.06-6.81-6.81-6.81h-58.36Z" fill="#002346"></path>
  </g>
  <g>
    <path d="M271.5,516.59h221.66c4.04,.02,7.32-3.24,7.34-7.28,0,0,0,0,0-.01h0c0-4.05-3.28-7.33-7.33-7.33h-221.67c-4.04,0-7.31,3.27-7.31,7.31h0c0,4.04,3.27,7.31,7.31,7.31Z" fill="#e6e7e8"></path>
    <path d="M493.19,517.09h-221.69c-4.31,0-7.81-3.5-7.81-7.81s3.5-7.81,7.81-7.81h221.67c4.32,0,7.83,3.51,7.83,7.83-.02,4.31-3.52,7.79-7.81,7.79Zm-221.69-14.62c-3.75,0-6.81,3.06-6.81,6.81s3.06,6.81,6.81,6.81h221.69c3.75,0,6.8-3.04,6.81-6.78,0-3.77-3.06-6.84-6.83-6.84h-221.67Z" fill="#002346"></path>
  </g>
  <g>
    <path d="M180.8,131.77c0,3.87-3.13,7-7,7s-7-3.13-7-7,3.13-7,7-7h0c3.87,0,7,3.13,7,7h0Z" fill="#fff"></path>
    <path d="M173.8,139.27c-4.14,0-7.5-3.36-7.5-7.5s3.36-7.5,7.5-7.5,7.5,3.36,7.5,7.5-3.36,7.5-7.5,7.5Zm0-14c-3.58,0-6.5,2.92-6.5,6.5s2.92,6.5,6.5,6.5,6.5-2.92,6.5-6.5-2.92-6.5-6.5-6.5Z" fill="#002346"></path>
  </g>
  <g>
    <circle cx="197.71" cy="131.77" r="7.04" fill="#fff"></circle>
    <path d="M197.71,139.31c-4.16,0-7.54-3.38-7.54-7.54s3.38-7.54,7.54-7.54,7.54,3.38,7.54,7.54-3.38,7.54-7.54,7.54Zm0-14.08c-3.61,0-6.54,2.93-6.54,6.54s2.93,6.54,6.54,6.54,6.54-2.93,6.54-6.54-2.93-6.54-6.54-6.54Z" fill="#002346"></path>
  </g>
  <g>
    <circle cx="221.64" cy="131.79" r="7.04" transform="translate(56.04 329.44) rotate(-80.78)" fill="#fff"></circle>
    <path d="M221.65,139.33c-.41,0-.82-.03-1.22-.1-1.99-.32-3.73-1.4-4.91-3.03-1.18-1.63-1.65-3.63-1.33-5.62,.32-1.99,1.4-3.73,3.03-4.91,1.63-1.18,3.63-1.65,5.62-1.33,1.99,.32,3.73,1.4,4.91,3.03,1.18,1.63,1.65,3.63,1.33,5.62-.32,1.99-1.4,3.73-3.03,4.91-1.3,.94-2.82,1.42-4.39,1.42Zm-.03-14.08c-1.36,0-2.68,.42-3.81,1.24-1.42,1.02-2.35,2.53-2.63,4.26-.28,1.72,.13,3.45,1.15,4.87,1.02,1.42,2.53,2.35,4.26,2.63,1.72,.28,3.45-.13,4.87-1.15,1.42-1.02,2.35-2.53,2.63-4.26,.28-1.72-.13-3.45-1.15-4.87-1.02-1.42-2.53-2.35-4.26-2.63-.35-.06-.71-.09-1.06-.09Z" fill="#002346"></path>
  </g>
  <g>
    <circle cx="604.63" cy="493.88" r="79.99" fill="#fff"></circle>
    <path d="M604.63,574.37c-44.38,0-80.49-36.11-80.49-80.49s36.11-80.49,80.49-80.49,80.49,36.11,80.49,80.49-36.11,80.49-80.49,80.49Zm0-159.98c-43.83,0-79.49,35.66-79.49,79.49s35.66,79.49,79.49,79.49,79.49-35.66,79.49-79.49-35.66-79.49-79.49-79.49Z" fill="#002346"></path>
  </g>
  <g clip-path="url(#b)">
    <g>
      <g>
        <path d="M636.79,529.54s16,22.92,15.57,48c-.43,25.08-5.67,143.95-5.67,143.95h-19.05l-6-155.35-2.51-.15-34.44,155.55-17.77-1.89,20.66-140.67c1.39-9.05,3.85-17.89,7.35-26.35,3-7.21,7.13-15.43,12.29-21.79l29.57-1.3Z" fill="#f69074"></path>
        <path d="M585.08,722.08l-18.73-1.99,.08-.51,20.66-140.67c1.39-9.08,3.88-17.98,7.38-26.47,3.78-9.09,7.94-16.46,12.36-21.91l.14-.17,30.07-1.32,.16,.23c.16,.23,16.09,23.34,15.66,48.29-.42,24.8-5.62,142.77-5.67,143.96l-.02,.48h-20.01l-6-155.38-1.63-.1-34.44,155.57Zm-17.59-2.88l16.81,1.79,34.44-155.53,3.39,.2,6,155.32h18.09c.36-8.27,5.24-119.48,5.65-143.46,.4-23.32-13.69-45.04-15.33-47.48l-29.07,1.28c-4.31,5.36-8.37,12.59-12.08,21.49-3.48,8.41-5.94,17.24-7.32,26.23l-20.58,140.15Z" fill="#002346"></path>
      </g>
      <path d="M613.42,566.75c-.25-.01-.45-.23-.44-.48,.01-.21,.16-.39,.37-.43l12.15-2.12c.24-.07,.5,.07,.57,.31s-.07,.5-.31,.57c-.03,0-.07,.02-.1,.02l-12.16,2.12h-.08Z" fill="#002346"></path>
      <path d="M597.89,562.02c-.05,0-.11,0-.16-.03-.26-.09-.4-.38-.31-.64l5.87-16.9c.09-.26,.38-.4,.64-.31s.4,.38,.31,.64l-5.87,16.9c-.07,.21-.27,.34-.47,.34Z" fill="#002346"></path>
      <g>
        <path d="M594.84,433.09s-1.33,13.35-16.48,24.09c-16.14,11.45-4.11,43.14,25.54,41.67,32.21-1.61,45.57-43,24.56-74.42l-33.62,8.66Z" fill="#002346"></path>
        <path d="M601.84,499.4c-16.9,0-26.6-10.5-29.82-19.8-3.13-9.04-.76-18,6.05-22.83,14.79-10.49,16.26-23.6,16.27-23.73l.03-.35,34.3-8.84,.2,.29c11.39,17.03,13.43,38.63,5.19,55.02-6.12,12.17-17.1,19.52-30.14,20.18-.71,.03-1.4,.05-2.08,.05Zm-6.56-65.91c-.35,2.2-2.84,14.32-16.64,24.1-6.43,4.56-8.66,13.07-5.68,21.68,3.24,9.35,13.23,19.96,30.91,19.08,12.67-.63,23.35-7.79,29.3-19.63,8.03-15.98,6.09-37.03-4.93-53.72l-32.95,8.49Z" fill="#002346"></path>
      </g>
      <path d="M597.91,477.95l19.52-5.49,18.75,2.14-.39,.32c-10.7,8.96-25.9,10.17-37.88,3v.03Z" fill="#f9b499"></path>
      <g opacity=".2">
        <path d="M642.33,507.96h-.13c-.22-.08-.35-.31-.28-.54l4.13-13.6c.07-.23,.31-.36,.54-.29,.23,.07,.36,.31,.29,.54l-4.14,13.6c-.06,.18-.22,.29-.41,.29Z"></path>
      </g>
      <g>
        <path d="M672.79,524.1c-.09-.22-.19-.44-.29-.66l-3-6.2-8.24,8.52-22.22,19.73,.14,.23,3.93,14.07s1.14-5.09,2.12-8.99l23.36-14.24c4.21-2.61,5.97-7.84,4.2-12.46Z" fill="#f2b3c1"></path>
        <path d="M643.16,561.84l-4.45-15.92-.31-.53,22.52-20,8.71-9.01,3.31,6.84c.11,.25,.21,.47,.3,.69h0c1.85,4.85,0,10.34-4.4,13.08l-23.19,14.14c-.95,3.82-2.05,8.73-2.06,8.78l-.44,1.94Zm-3.5-16.23l3.4,12.15c.42-1.85,1.09-4.7,1.68-7.08l.05-.2,.18-.11,23.36-14.24c3.99-2.48,5.67-7.46,4-11.85-.09-.21-.18-.42-.27-.62l-2.69-5.56-7.74,8.01-21.96,19.5Z" fill="#002346"></path>
      </g>
      <path d="M643.59,562.11c-.22,0-.42-.14-.48-.36l-5.06-17.79c-.08-.27,.08-.54,.34-.62,.26-.08,.54,.08,.62,.34l5.06,17.79c.08,.27-.08,.54-.34,.62-.05,.01-.09,.02-.14,.02Z" fill="#002346"></path>
      <g>
        <path d="M672.91,518.4l-18.5-31.63c-1.77-4.36-8.67-11.02-18.21-12.17h0s-.01,0-.02,0l-18.75-2.14-19.52,5.49s-.03,.01-.05,.02c-9.33,2.25-13.79,8.39-15.05,12.91l-14.75,33.54c-.61,2.26,.73,4.59,3,5.19,.08,.02,.16,.04,.23,.06l7,1.57c1.4,.29,2.27,3.62,3.13,2.48,2.27-3.05,12.7-13.79,15.94-24.73l9.68,21.9,29.75-1.35,5.41-22.32c3.94,9.1,12.87,16.1,15.36,18.76,.97,1.05,2.47,1.44,3.83,1l8.92-3c.08-.03,.16-.05,.23-.09,2.17-.86,3.23-3.32,2.37-5.49Z" fill="#fbe493"></path>
        <path d="M581.04,534.46h-.02c-.6-.01-1.01-.62-1.5-1.33-.4-.58-.89-1.3-1.34-1.4l-7.01-1.57c-.08-.02-.17-.04-.25-.06-1.22-.33-2.25-1.11-2.88-2.21-.63-1.1-.8-2.37-.47-3.6l14.77-33.61c1.36-4.88,6.14-10.97,15.39-13.2l19.64-5.53,18.31,2.09h0s.56,.06,.56,.06c9.83,1.18,16.8,8.01,18.61,12.48l18.5,31.63c.47,1.17,.45,2.46-.05,3.62-.5,1.16-1.42,2.06-2.6,2.52-.08,.03-.17,.07-.26,.1l-8.92,3c-1.55,.5-3.25,.06-4.36-1.13-.48-.51-1.2-1.18-2.11-2.03-3.57-3.33-9.39-8.76-12.73-15.55l-5.16,21.29-30.47,1.38-9.29-21.01c-2.95,8.56-9.84,16.73-13.63,21.21-.88,1.04-1.57,1.86-1.98,2.41-.27,.36-.57,.44-.78,.44Zm36.43-61.49l-19.43,5.46c-8.9,2.15-13.44,7.91-14.75,12.58l-14.77,33.61c-.23,.89-.1,1.9,.4,2.77,.5,.87,1.31,1.48,2.27,1.74,.07,.02,.13,.03,.2,.05l7.01,1.57c.83,.17,1.43,1.04,1.95,1.81,.2,.29,.49,.71,.66,.86,.48-.62,1.16-1.44,2.03-2.46,3.92-4.65,11.23-13.3,13.84-22.11l.39-1.3,10.09,22.83,29.03-1.32,5.67-23.4,.59,1.37c3.12,7.21,9.37,13.05,13.11,16.53,.93,.86,1.66,1.55,2.16,2.08,.84,.91,2.14,1.25,3.31,.87l8.92-3c.07-.02,.14-.05,.21-.08,.93-.37,1.65-1.08,2.05-1.99,.39-.9,.41-1.9,.05-2.82l-18.48-31.6c-1.75-4.3-8.39-10.76-17.77-11.92h-.04s-18.69-2.14-18.69-2.14Z" fill="#002346"></path>
      </g>
      <path d="M597.2,508.56c-.17,0-.33-.1-.4-.26l-5.66-13c-.1-.22,0-.47,.22-.57,.22-.1,.47,0,.57,.22l5.66,13c.1,.22,0,.47-.22,.57,0,0,0,0,0,0-.05,.02-.11,.04-.17,.04Z" fill="#002346"></path>
      <g>
        <path d="M582.64,523.16l-33.08-33.73,.73-1.09c1.03-1.54,1.48-3.39,1.25-5.23l-.63-5.13s-.22-2.09-3.73-1.37l-.25-14.09c-.02-.91-.77-1.64-1.68-1.63-.91,0-1.65,.73-1.66,1.64l-.16,11.65-1.18,.5-6.68-10.31c-.46-.7-1.4-.9-2.1-.44-.02,.01-.03,.02-.05,.03-.61,.44-.81,1.26-.47,1.93l5.41,10.5c-1.36,.8-2.57,1.92-3.17,2.53-.75,.77-1.06,1.87-.8,2.92,2.18,9.05,8,10.81,8,10.81l.16-.05,27,38.62c1.9,3.82,6.53,5.38,10.35,3.48,.53-.26,1.02-.58,1.47-.95,3.18-2.63,3.74-7.29,1.27-10.59Z" fill="#f2b3c1"></path>
        <path d="M576.48,536.01c-3.03,0-5.94-1.68-7.38-4.57l-26.78-38.29-.08-.02c-.25-.08-6.12-1.95-8.34-11.17-.3-1.22,.05-2.49,.93-3.39,.45-.45,1.56-1.51,2.88-2.36l-5.2-10.09c-.46-.9-.19-1.98,.62-2.56,.52-.34,1.06-.44,1.58-.33,.53,.11,.98,.42,1.28,.87l6.45,9.96,.49-.21,.16-11.32c.01-1.18,.98-2.13,2.16-2.13h.03c1.17,0,2.13,.95,2.15,2.12l.24,13.51c1.23-.16,2.19,0,2.87,.51,.77,.56,.86,1.32,.87,1.4l.63,5.12c.24,1.96-.23,3.93-1.33,5.57l-.51,.76,32.84,33.49c2.63,3.52,2.04,8.47-1.35,11.27-.48,.4-1.01,.74-1.57,1.02-1.17,.58-2.42,.86-3.64,.86Zm-33.74-44l.21,.31,27,38.62c1.81,3.63,6.15,5.09,9.71,3.32,.49-.24,.96-.54,1.38-.89,2.97-2.45,3.5-6.79,1.21-9.88l-33.35-33.99,.96-1.43c.96-1.44,1.38-3.17,1.17-4.89l-.63-5.13s-.06-.42-.49-.73c-.54-.38-1.46-.46-2.64-.22l-.59,.12-.26-14.69c-.01-.63-.53-1.14-1.16-1.14h-.01c-.64,0-1.16,.51-1.17,1.15l-.17,11.98-1.87,.79-6.91-10.66c-.15-.23-.38-.38-.64-.44-.26-.06-.54,0-.77,.14-.44,.32-.57,.86-.34,1.32l5.63,10.92-.41,.24c-1.39,.82-2.61,1.99-3.07,2.45-.63,.65-.88,1.56-.67,2.45,1.89,7.86,6.64,10.06,7.52,10.4l.35-.12Z" fill="#002346"></path>
      </g>
      <path d="M543.33,487.26c-.23,0-.44-.17-.49-.4-.29-1.47,.13-2.95,1.06-4.05h0c-3.54,0-3.89-2.1-3.91-2.2-.12-.62,.02-1.23,.42-1.78,1.51-2.07,6.5-2.68,6.71-2.71,.27-.04,.52,.16,.55,.44,.03,.27-.16,.52-.44,.56-1.32,.16-4.97,.88-6.02,2.31-.24,.32-.31,.66-.24,1.02,.02,.09,.39,1.82,4.36,1.26,.23-.04,.46,.1,.54,.33,.08,.23-.01,.48-.22,.6-1.41,.82-2.14,2.44-1.83,4.04,.05,.27-.12,.53-.4,.59-.03,0-.06,0-.1,0Z" fill="#002346"></path>
      <g>
        <circle cx="599.38" cy="448.6" r="5.36" fill="#f2b3c1"></circle>
        <path d="M599.37,454.46c-1.34,0-2.63-.45-3.68-1.31-2.51-2.03-2.9-5.73-.86-8.24h0c2.04-2.51,5.73-2.9,8.24-.86,1.22,.99,1.97,2.39,2.14,3.94,.16,1.56-.29,3.08-1.28,4.3s-2.39,1.98-3.94,2.14c-.21,.02-.41,.03-.62,.03Zm-3.76-8.92c-1.69,2.08-1.37,5.15,.71,6.84,1.01,.82,2.28,1.19,3.57,1.06,1.29-.14,2.45-.76,3.27-1.77,.82-1.01,1.19-2.27,1.06-3.57s-.76-2.45-1.77-3.27c-2.08-1.69-5.15-1.37-6.84,.71h0Z" fill="#002346"></path>
      </g>
      <g>
        <path d="M624.22,446.47c.25,2.95,2.85,5.14,5.8,4.88,2.95-.25,5.14-2.85,4.88-5.8-.25-2.94-2.84-5.13-5.78-4.88-2.95,.25-5.15,2.85-4.9,5.8Z" fill="#f2b3c1"></path>
        <path d="M629.55,451.87c-1.38,0-2.7-.48-3.76-1.38-1.2-1.01-1.93-2.42-2.06-3.98h0c-.27-3.22,2.13-6.07,5.36-6.34,3.21-.27,6.05,2.13,6.32,5.34,.13,1.56-.35,3.08-1.36,4.28s-2.42,1.93-3.98,2.06c-.17,.01-.34,.02-.51,.02Zm-4.83-5.44c.11,1.29,.72,2.47,1.71,3.3,.99,.84,2.25,1.23,3.55,1.12,1.29-.11,2.47-.72,3.3-1.71,.84-.99,1.24-2.25,1.12-3.55-.23-2.66-2.58-4.65-5.24-4.43-2.67,.23-4.67,2.58-4.44,5.26h0Z" fill="#002346"></path>
      </g>
      <g>
        <ellipse cx="613.25" cy="434.27" rx="18.45" ry="17.22" transform="translate(-34.39 53.18) rotate(-4.83)" fill="#002346"></ellipse>
        <path d="M613.02,452c-9.68,0-17.88-6.94-18.65-16.13-.4-4.72,1.19-9.33,4.49-12.97,3.28-3.63,7.87-5.86,12.9-6.29,10.4-.88,19.55,6.32,20.37,16.06,.4,4.72-1.19,9.33-4.49,12.97-3.28,3.63-7.87,5.86-12.9,6.29-.58,.05-1.15,.07-1.72,.07Zm.46-34.46c-.54,0-1.08,.02-1.63,.07-4.78,.4-9.13,2.52-12.25,5.96-3.1,3.43-4.61,7.77-4.23,12.21,.78,9.19,9.44,15.98,19.29,15.15,4.78-.4,9.13-2.52,12.25-5.96,3.1-3.43,4.61-7.77,4.23-12.21-.73-8.67-8.49-15.22-17.66-15.22Z" fill="#002346"></path>
      </g>
      <g>
        <path d="M620.5,457.53c-1.19,1.27-2.61,2.29-4.2,3-1.47,.34-3.01,.08-4.28-.74l-2.62-1.64,.5,17.68,.29,.27c3.91,3.54,9.07,3.16,12.36-.92l.48-.59-2.53-17.06Z" fill="#f2b3c1"></path>
        <path d="M616.05,479.02c-2.19,0-4.36-.89-6.19-2.55l-.45-.42-.53-18.82,3.41,2.14c1.15,.74,2.57,.99,3.9,.68,1.44-.66,2.8-1.63,3.95-2.85l.71-.76,2.71,18.3-.62,.76c-1.67,2.07-3.89,3.31-6.27,3.5-.21,.02-.42,.02-.62,.02Zm-5.65-3.41l.14,.13c1.79,1.62,3.96,2.43,6.06,2.26,2.09-.16,4.07-1.28,5.57-3.13l.34-.42-2.35-15.86c-1.08,.99-2.3,1.8-3.65,2.4-1.68,.4-3.38,.11-4.75-.78l-1.82-1.14,.47,16.54Z" fill="#002346"></path>
      </g>
      <g>
        <path d="M628.05,436.08c.42,4.82,.28,9.67-.44,14.46-.53,3.54-2.69,6.18-5.87,8.43l-.57,.41c-3.45,2.39-7.88,2.83-11.73,1.17h0c-3.81-1.68-6.59-4.09-7.7-7.74-1.33-4.62-2.29-9.34-2.86-14.12,0,0-2.54-15.54,13.22-16.66,15.76-1.12,15.95,14.05,15.95,14.05Z" fill="#f2b3c1"></path>
        <path d="M614.27,462.05c-1.7,0-3.4-.35-5.02-1.04-4.3-1.9-6.91-4.53-7.98-8.05-1.34-4.65-2.3-9.42-2.88-14.21-.04-.27-1.11-7.15,2.88-12.2,2.36-2.99,6-4.68,10.8-5.02,4.91-.35,8.84,.81,11.7,3.45,4.56,4.2,4.77,10.6,4.78,11.08,.42,4.85,.27,9.75-.45,14.56-.51,3.41-2.44,6.19-6.08,8.76l-.57,.41c-2.17,1.5-4.67,2.27-7.2,2.27Zm-.54-39.58c-.51,0-1.04,.02-1.58,.06-4.51,.32-7.9,1.88-10.08,4.64-3.72,4.7-2.69,11.38-2.68,11.44,.57,4.75,1.53,9.48,2.85,14.06,.98,3.22,3.41,5.65,7.42,7.42,3.71,1.6,7.92,1.18,11.24-1.12l.56-.41c3.4-2.41,5.2-4.98,5.67-8.1,.71-4.74,.86-9.56,.44-14.34v-.04c0-.06-.14-6.41-4.47-10.38-2.34-2.15-5.49-3.24-9.37-3.24Z" fill="#002346"></path>
      </g>
      <g>
        <path d="M627.75,432.53s-23.09,2.82-23.26-10.85c.01,0,19.7-7.38,23.26,10.85Z" fill="#002346"></path>
        <path d="M622.92,433.28c-4.67,0-11.57-.68-15.64-4.24-2.15-1.88-3.26-4.35-3.29-7.36v-.51s.41,0,.41,0c1.34-.47,10.17-3.34,16.88,.46,3.62,2.05,5.96,5.69,6.96,10.79l.1,.53-.53,.06c-.21,.03-2.17,.26-4.89,.26Zm-17.92-11.25c.11,2.55,1.1,4.65,2.94,6.26,5.4,4.72,16.62,4.03,19.21,3.8-.99-4.53-3.13-7.75-6.36-9.58-6-3.4-13.9-1.11-15.79-.48Z" fill="#002346"></path>
      </g>
      <g>
        <path d="M598.22,435.03s7.86-4.09,7.15-12.43c0,0-8.26,1.7-7.15,12.43Z" fill="#002346"></path>
        <path d="M597.8,435.81l-.08-.73c-1.14-11.05,7.46-12.95,7.55-12.97l.55-.11,.05,.56c.73,8.57-7.33,12.87-7.42,12.92l-.65,.34Zm7.11-12.56c-1.73,.58-6.75,2.95-6.26,10.94,1.77-1.16,6.46-4.82,6.26-10.94Z" fill="#002346"></path>
      </g>
    </g>
  </g>
  <g>
    <circle cx="264.14" cy="351.49" r="79.99" fill="#fff"></circle>
    <path d="M264.14,431.98c-44.38,0-80.49-36.11-80.49-80.49s36.11-80.49,80.49-80.49,80.49,36.11,80.49,80.49-36.11,80.49-80.49,80.49Zm0-159.98c-43.83,0-79.49,35.66-79.49,79.49s35.66,79.49,79.49,79.49,79.49-35.66,79.49-79.49-35.66-79.49-79.49-79.49Z" fill="#002346"></path>
  </g>
  <g clip-path="url(#c)">
    <g>
      <polygon points="275.69 546.81 278.01 575.64 290.75 576.04 290.78 541.85 275.69 546.81" fill="#f9b499"></polygon>
      <path d="M277.77,572.58s8.83,5.15,13.23-2.92l32.31,17.15-50.32-.3,4.78-13.93Z" fill="#f69074"></path>
      <g clip-path="url(#d)">
        <path d="M317.56,576.59s-12.42,1.86-11.47,17.31l21.5-5.89-10.03-11.42Z" fill="#fff"></path>
      </g>
      <rect x="295.94" y="563.68" width="4.4" height="50.33" transform="translate(-292.52 883.38) rotate(-89.65)" fill="#fff"></rect>
      <path d="M294.83,578.05c.14-.05,.26-.14,.35-.26,1.1-1.48,2.43-2.78,3.94-3.84,.37-.22,.49-.7,.26-1.07-.01-.02-.02-.03-.03-.05-.27-.37-.78-.46-1.17-.22-1.68,1.16-3.15,2.59-4.37,4.23-.26,.35-.19,.84,.16,1.11,.01,0,.02,.02,.03,.02,.25,.16,.56,.19,.83,.08Z" fill="#fff"></path>
      <path d="M298.94,580.11c.14-.05,.26-.14,.35-.26,1.1-1.48,2.43-2.78,3.94-3.84,.37-.22,.49-.7,.26-1.07-.01-.02-.02-.03-.03-.05-.27-.37-.78-.47-1.16-.22-1.69,1.16-3.17,2.59-4.38,4.23-.26,.35-.18,.85,.17,1.1,0,0,.01,.01,.02,.02,.24,.17,.56,.21,.83,.09Z" fill="#fff"></path>
      <path d="M303.05,582.17c.14-.06,.26-.15,.35-.27,1.11-1.48,2.44-2.77,3.94-3.84,.37-.21,.49-.69,.28-1.05-.01-.02-.02-.04-.04-.06-.27-.37-.78-.47-1.17-.22-1.68,1.16-3.16,2.59-4.37,4.23-.26,.34-.2,.83,.14,1.09,.01,0,.02,.02,.04,.03,.24,.17,.56,.2,.83,.09Z" fill="#fff"></path>
      <polygon points="246.53 546.81 247.3 575.64 234.56 576.04 231.44 541.85 246.53 546.81" fill="#f9b499"></polygon>
      <path d="M247.32,572.58s-8.82,5.15-13.23-2.92l-32.31,17.15,50.32-.3-4.78-13.93Z" fill="#f69074"></path>
      <g clip-path="url(#e)">
        <path d="M207.5,576.59s12.43,1.86,11.47,17.31l-21.47-5.89,10-11.42Z" fill="#f69074"></path>
      </g>
      <rect x="201.79" y="586.66" width="50.33" height="4.4" transform="translate(-3.59 1.4) rotate(-.35)" fill="#fff"></rect>
      <path d="M230.26,578.05c-.14-.05-.26-.14-.35-.26-1.1-1.48-2.43-2.78-3.94-3.84-.37-.22-.49-.7-.26-1.07,.01-.02,.02-.03,.03-.05,.27-.37,.78-.46,1.17-.22,1.68,1.16,3.15,2.59,4.37,4.23,.26,.35,.19,.84-.16,1.11-.01,0-.02,.02-.03,.02-.25,.16-.56,.19-.83,.08Z" fill="#fff"></path>
      <path d="M226.15,580.11c-.14-.05-.26-.14-.35-.26-1.1-1.48-2.43-2.78-3.94-3.84-.37-.22-.49-.7-.26-1.07,.01-.02,.02-.03,.03-.05,.27-.37,.78-.47,1.16-.22,1.69,1.16,3.17,2.59,4.38,4.23,.26,.34,.19,.83-.15,1.09-.01,0-.03,.02-.04,.03-.24,.17-.56,.21-.83,.09Z" fill="#fff"></path>
      <path d="M222.04,582.17c-.14-.06-.26-.15-.35-.27-1.11-1.48-2.44-2.77-3.94-3.84-.37-.22-.49-.7-.27-1.07,0-.01,.02-.03,.03-.04,.27-.37,.78-.47,1.17-.22,1.68,1.16,3.16,2.59,4.37,4.23,.26,.34,.2,.83-.14,1.09-.01,0-.02,.02-.04,.03-.24,.17-.56,.2-.83,.09Z" fill="#fff"></path>
      <g>
        <path d="M260.5,435.69l11.3,125.18h22.48l-8.48-149.65-27.89-2.47-23.09-1.14-9.32,79.27c-.69,6.65,4.14,12.61,10.79,13.3,.5,.05,1,.07,1.51,.06h0c5.72-.11,10.59-4.22,11.65-9.85l11.05-54.7Z" fill="#fbe493"></path>
        <path d="M294.81,561.37h-23.47l-11.03-122.22-10.37,51.34c-1.1,5.82-6.2,10.13-12.13,10.25-.52,.01-1.05-.01-1.57-.06-3.35-.35-6.36-1.98-8.49-4.6-2.12-2.62-3.1-5.9-2.75-9.25l9.37-79.74,23.56,1.16,28.34,2.51,8.53,150.61Zm-22.55-1h21.49l-8.42-148.69-27.46-2.43-22.6-1.12-9.26,78.81c-.32,3.08,.58,6.1,2.53,8.51,1.95,2.41,4.73,3.91,7.81,4.23,.48,.05,.97,.07,1.45,.06,5.46-.11,10.16-4.08,11.17-9.44l11.73-58.07,11.57,128.14Z" fill="#002346"></path>
      </g>
      <g opacity=".2">
        <path d="M264.91,436.79s-.04,0-.06,0l-14.48-1.85c-.26-.03-.44-.27-.41-.53,.03-.26,.28-.44,.53-.41l14.48,1.85c.26,.03,.44,.27,.41,.53-.03,.24-.23,.42-.47,.42Z"></path>
      </g>
      <polygon points="298.81 563.06 269.16 563.06 267.73 549.63 297.38 549.63 298.81 563.06" fill="#f69074"></polygon>
      <polygon points="249.44 490.4 250.82 558.94 227.09 558.94 225.49 486.88 249.44 490.4" fill="#002346"></polygon>
      <rect x="224.05" y="549.63" width="29.65" height="13.43" fill="#f69074"></rect>
      <path d="M250.34,341.65l-4.7,2.16s0,7.87,12.71,7.46c13.09-.42,13.06-7.83,13.06-7.83l-5.13-1.93-15.94,.14Z" fill="#f9b499"></path>
      <g>
        <path d="M323.24,373.47l-11.03-43.48,5.46-24.37c.1-.45-.04-.93-.38-1.25-.14-.13-.31-.23-.49-.3-.7-.23-1.46,.14-1.7,.85l-2.12,6.57,2.07-11.15c.11-.57-.17-1.15-.69-1.42l-.15-.08c-.09-.04-.18-.08-.27-.11-.71-.19-1.44,.23-1.63,.93l-3.11,10.35,1.45-13.23c.06-.67-.4-1.27-1.06-1.4l-.39-.08c-.05-.01-.11-.02-.16-.02-.73-.06-1.37,.49-1.43,1.22l-1.77,12.66v-11c-.04-.63-.52-1.15-1.15-1.23l-.53-.08c-.05,0-.1-.01-.15-.01-.74-.02-1.35,.57-1.37,1.31l-.61,18.6-2.21-4.21c-.42-.79-1.28-1.25-2.17-1.17-.09,0-.18,.03-.27,.05-.92,.25-1.47,1.2-1.22,2.12l1.19,4.32c.67,2.45,1.91,4.71,3.62,6.59l3.27,3.61,1.99,36.01-13.28-8.22-17.58,10.45,35.44,16.93v-.03c1.51,.96,3.34,1.44,5.26,1.26,.62-.06,1.24-.19,1.83-.39,4.4-1.46,6.79-6.21,5.34-10.61Z" fill="#f2b3c1"></path>
        <path d="M315.26,385.01c-1.6,0-3.15-.43-4.54-1.26l-.13-.06-36.28-17.33,18.64-11.08,12.72,7.87-1.93-34.87-3.15-3.48c-1.75-1.93-3.04-4.28-3.73-6.79l-1.19-4.32c-.32-1.19,.39-2.42,1.57-2.74,.11-.03,.23-.05,.34-.06,1.1-.11,2.15,.46,2.67,1.43l1.33,2.53,.55-16.71c.01-.49,.21-.94,.57-1.28,.35-.34,.8-.52,1.31-.51,.07,0,.14,0,.21,.02l.54,.08c.86,.11,1.52,.82,1.58,1.69v3.85l.78-5.54c.08-.97,.93-1.74,1.96-1.65,.07,0,.15,.02,.22,.03l.39,.08c.91,.17,1.54,1,1.46,1.93l-.86,7.82,1.54-5.12c.12-.46,.43-.85,.85-1.1,.42-.24,.92-.31,1.39-.18,.13,.03,.25,.08,.37,.14l.16,.08c.7,.36,1.09,1.17,.95,1.95l-.73,3.94c.18-.29,.43-.52,.74-.67,.44-.22,.94-.25,1.41-.1,.25,.08,.49,.22,.68,.41,.46,.44,.66,1.1,.53,1.72l-5.43,24.25,11,43.35c.74,2.25,.56,4.66-.5,6.78-1.07,2.12-2.9,3.7-5.16,4.45-.63,.21-1.28,.35-1.94,.41-.29,.03-.57,.04-.85,.04Zm-5.07-2.75l.88,.53c1.49,.94,3.19,1.35,4.95,1.18,.59-.06,1.17-.18,1.72-.36,2-.66,3.63-2.07,4.58-3.95,.95-1.89,1.1-4.03,.44-6.03v-.03s-11.07-43.6-11.07-43.6l.03-.12,5.46-24.37c.06-.28-.03-.58-.24-.78-.08-.08-.19-.14-.31-.18-.21-.07-.44-.06-.64,.04-.2,.1-.35,.27-.42,.48l-2.12,6.56-.97-.24,2.07-11.15c.07-.36-.11-.72-.43-.88l-.16-.08s-.11-.05-.16-.06c-.44-.12-.9,.14-1.02,.58l-3.11,10.36-.98-.2,1.45-13.23c.04-.4-.25-.78-.66-.85l-.4-.08c-.54-.04-.95,.29-.99,.75l-1.77,12.69-1-.07v-11c-.02-.36-.32-.68-.71-.73l-.54-.08c-.31-.02-.52,.07-.69,.23-.16,.16-.25,.36-.26,.59l-.67,20.5-3.09-5.89c-.33-.61-.97-.97-1.68-.9-.06,0-.12,.02-.19,.04-.65,.18-1.04,.85-.87,1.51l1.19,4.32c.65,2.37,1.86,4.57,3.51,6.39l3.39,3.74,2.05,37.14-13.84-8.56-16.51,9.82,33.78,16.14-.02-.14Z" fill="#002346"></path>
      </g>
      <path d="M307.49,322.26c-.2,0-.38-.12-.46-.31-.93-2.26-2.81-3.98-5.15-4.71-.26-.08-.41-.36-.33-.63,.08-.26,.37-.41,.63-.33,2.62,.82,4.72,2.75,5.77,5.29,.11,.26-.02,.55-.27,.65-.06,.03-.13,.04-.19,.04Z" fill="#002346"></path>
      <path d="M306.89,374.4c-.26,0-.48-.2-.5-.46l-.73-9.12c-.02-.28,.18-.52,.46-.54,.27-.01,.52,.18,.54,.46l.73,9.12c.02,.28-.18,.52-.46,.54-.01,0-.03,0-.04,0Z" fill="#002346"></path>
      <g opacity=".2">
        <path d="M288,379.81c-.07,0-.14-.01-.2-.04l-6.45-3c-.24-.11-.34-.39-.23-.63,.11-.24,.39-.34,.63-.23l6.45,3c.24,.11,.34,.39,.23,.63-.08,.17-.25,.27-.43,.27Z"></path>
      </g>
      <g>
        <path d="M252.11,422.73c-.09-.48-.4-.9-.84-1.12-3.46-1.82-10.74-6.1-13.62-7.13l-11.46-16.16,9.38-22.8-16.29-5.94-8.29,28.71c-.61,2.9,1.33,6.06,3.95,8.3,5.17,5.75,14.77,12.77,16.37,13.93l.25,.21s.84,4.72,2.65,6.34c.01-.04,7.84,1.26,11.25-3.32,1.67,.81,3.54,1.11,5.38,.87,.87-.17,1.44-1,1.27-1.87Z" fill="#f2b3c1"></path>
        <path d="M234.48,427.96l-.61-.54c-1.72-1.54-2.59-5.52-2.77-6.44l-.11-.09c-1.82-1.31-11.26-8.24-16.42-13.98-3.11-2.66-4.65-5.95-4.06-8.74l8.44-29.26,17.28,6.3-9.47,23.03,11.21,15.81c2.12,.8,6.15,3.03,9.72,5.02,1.46,.81,2.8,1.56,3.82,2.09,.57,.29,.98,.84,1.1,1.47h0c.11,.55-.01,1.11-.33,1.57-.32,.46-.79,.78-1.34,.88-1.84,.24-3.66-.02-5.33-.75-2.95,3.53-8.48,3.48-11.03,3.24l-.1,.38Zm-.05-1.4c2.31,.25,7.97,.44,10.64-3.13l.25-.33,.37,.18c1.59,.77,3.35,1.05,5.1,.83,.26-.05,.51-.21,.67-.46,.17-.24,.23-.54,.17-.82h0c-.06-.33-.28-.62-.58-.77-1.02-.54-2.37-1.29-3.84-2.1-3.44-1.91-7.72-4.29-9.72-5l-.15-.05-.09-.13-11.62-16.39,9.29-22.57-15.3-5.58-8.14,28.19c-.59,2.83,1.57,5.88,3.79,7.78,5.14,5.71,14.51,12.58,16.34,13.9l.42,.34,.03,.18s.8,4.36,2.37,5.94Z" fill="#002346"></path>
      </g>
      <path d="M226.19,398.86c-.15,0-.31-.07-.41-.21l-3.11-4.29c-.16-.22-.11-.54,.11-.7,.22-.16,.53-.11,.7,.11l3.11,4.29c.16,.22,.11,.54-.11,.7-.09,.06-.19,.1-.29,.1Z" fill="#002346"></path>
      <g>
        <path d="M302.98,362.03s-8.56-10.1-21.08-14.35l-15.62-6.17-15.94,.14-21,9.83s0,0,0,0h-.01s-13.26,4.42-16,27.99l17.69,5.27,3.75,24.98,51.31,2.01,1.95-32.44,5.07,2.35,9.89-19.63Z" fill="#f69074"></path>
        <path d="M286.54,412.27l-52.22-2.05-3.76-25.08-17.78-5.3,.05-.42c2.75-23.61,15.79-28.23,16.34-28.42l.1-.03,20.97-9.82,16.15-.14,15.71,6.2c12.48,4.24,21.19,14.39,21.27,14.5l.21,.25-10.26,20.36-4.84-2.25-1.93,32.2Zm-51.35-3.02l50.41,1.98,1.96-32.69,5.3,2.46,9.52-18.9c-1.41-1.57-9.48-10.17-20.64-13.96l-15.56-6.14-15.73,.14-20.9,9.78h0s-.16,.1-.16,.1l-.05-.02c-1.43,.58-12.86,5.85-15.47,27.11l17.59,5.24,3.73,24.89Z" fill="#002346"></path>
      </g>
      <g>
        <path d="M231.27,385.79c-.26,0-.47-.2-.5-.46l-1.18-13.07c-.02-.27,.18-.52,.45-.54,.27-.03,.52,.18,.54,.45l1.18,13.07c.02,.27-.18,.52-.45,.54-.02,0-.03,0-.05,0Z" fill="#002346"></path>
      </g>
      <path d="M263.23,289.3s7.34-3.27,9.94,2.91c2.5,5.95-7.44,11.62-7.44,11.62l-2.5-14.53Z" fill="#002346"></path>
      <g>
        <path d="M249.5,313.92c.09,2.76-2.08,5.07-4.84,5.16-2.76,.09-5.07-2.08-5.16-4.84-.09-2.76,2.08-5.07,4.84-5.16,.02,0,.03,0,.05,0,2.74-.06,5.02,2.1,5.11,4.84Z" fill="#f2b3c1"></path>
        <path d="M244.5,319.58c-2.95,0-5.4-2.35-5.5-5.33-.05-1.47,.48-2.87,1.49-3.94,1.01-1.07,2.37-1.69,3.84-1.73,3.01-.09,5.58,2.32,5.67,5.32h0c.09,3.03-2.29,5.58-5.32,5.67-.06,0-.12,0-.18,0Zm0-10s-.07,0-.1,0c-1.24,.04-2.36,.54-3.18,1.42s-1.25,2.02-1.22,3.22c.08,2.48,2.19,4.45,4.64,4.36,2.48-.08,4.43-2.16,4.35-4.64-.08-2.42-2.08-4.36-4.5-4.36Z" fill="#002346"></path>
      </g>
      <g>
        <circle cx="272.66" cy="314.06" r="4.98" fill="#f2b3c1"></circle>
        <path d="M272.66,319.54c-3.02,0-5.48-2.46-5.48-5.48s2.46-5.48,5.48-5.48,5.48,2.46,5.48,5.48-2.46,5.48-5.48,5.48Zm0-9.96c-2.47,0-4.48,2.01-4.48,4.48s2.01,4.48,4.48,4.48,4.48-2.01,4.48-4.48-2.01-4.48-4.48-4.48Z" fill="#002346"></path>
      </g>
      <g>
        <path d="M264.98,325.53c-1.63,1.13-3.44,1.97-5.36,2.47-1.75,.22-3.53-.13-5.07-1l-3-1.72-1.22,16.39,.33,.27c4.34,3.6,10.61,3.64,15,.1l.64-.51-1.32-16Z" fill="#f2b3c1"></path>
        <path d="M258.22,345.15c-2.8,0-5.61-.94-7.88-2.83l-.53-.43,1.3-17.44,3.69,2.12c1.43,.81,3.12,1.15,4.76,.94,1.81-.48,3.56-1.28,5.14-2.38l.71-.5,1.41,17.13-.85,.68c-2.25,1.82-5,2.72-7.75,2.72Zm-7.38-3.71l.13,.1c4.14,3.43,10.18,3.47,14.37,.1l.43-.35-1.23-14.89c-1.49,.93-3.1,1.63-4.8,2.07-1.91,.25-3.82-.13-5.44-1.05l-2.31-1.33-1.14,15.34Z" fill="#002346"></path>
      </g>
      <g>
        <path d="M272.04,305.39c.02,4.68-.5,9.35-1.54,13.91-.76,3.38-3,5.74-6.08,7.66l-.56,.35c-3.35,2.02-7.52,2.09-10.93,.17h0c-3.4-1.93-5.78-4.49-6.53-8.11-.87-4.58-1.38-9.21-1.54-13.87,0,0-1.91-15.22,12.75-15,14.66,.22,14.43,14.89,14.43,14.89Z" fill="#f2b3c1"></path>
        <path d="M258.25,329.37c-1.92,0-3.84-.48-5.56-1.45-3.83-2.18-6.05-4.94-6.77-8.44-.87-4.59-1.39-9.29-1.55-13.96-.03-.25-.85-7.2,3.23-11.76,2.29-2.56,5.63-3.83,10.03-3.76,7.83,.12,11.47,4.31,13.16,7.81,1.79,3.72,1.77,7.36,1.77,7.58,.02,4.71-.51,9.42-1.55,14.02-.72,3.21-2.72,5.74-6.3,7.97l-.56,.35c-1.8,1.09-3.84,1.64-5.88,1.64Zm-.95-38.37c-3.91,0-6.92,1.15-8.96,3.42-3.78,4.21-2.99,10.95-2.98,11.02,.16,4.66,.67,9.3,1.54,13.84,.66,3.2,2.72,5.74,6.29,7.77,3.24,1.82,7.24,1.76,10.42-.16l.55-.35c3.34-2.08,5.2-4.41,5.86-7.35,1.03-4.52,1.54-9.17,1.53-13.8h0c0-.59,.04-14.18-13.94-14.39-.1,0-.2,0-.3,0Z" fill="#002346"></path>
      </g>
      <g>
        <path d="M245.36,312.73s2.14-16.43,1.14-19.17c0,0-7.41,6.11-1.14,19.17Z" fill="#002346"></path>
        <path d="M245.64,314.46l-.73-1.52c-6.37-13.26,1.2-19.71,1.27-19.77l.55-.45,.24,.66c1.01,2.77-.89,17.71-1.11,19.41l-.22,1.67Zm.56-19.9c-1.52,1.72-4.97,6.97-1.11,16.32,.58-4.8,1.44-13.25,1.11-16.32Z" fill="#002346"></path>
      </g>
      <g>
        <path d="M271.5,312.6s-2.45-15.72-1.77-20.24c-.01,0,7.12,6.31,1.77,20.24Z" fill="#002346"></path>
        <path d="M271.3,314.53l-.29-1.85c-.1-.63-2.37-15.29-1.81-20.13l-.05-.05,.12-.32,1.61-4.04-.61,4.05c1.26,1.31,6.61,7.83,1.71,20.6l-.67,1.75Zm-1.17-20.98c-.18,4.17,1,13.02,1.57,16.98,3.06-9.55,0-14.99-1.57-16.98Z" fill="#002346"></path>
      </g>
      <g>
        <path d="M269.08,295.35c-2.84,2.31-6.79,2.67-10,.91,0,0-14.33,8.83-18.37-.78-3.37-8,10.62-18.88,25.06-6.63l3.31,6.5Z" fill="#002346"></path>
        <path d="M247.75,300.46c-1.01,0-2-.13-2.93-.42-2.1-.67-3.64-2.14-4.57-4.37-1.43-3.4,.05-7.49,3.69-10.16,4.62-3.39,13.2-4.65,22.15,2.95l.12,.15,3.49,6.86-.31,.25c-2.94,2.39-6.95,2.8-10.3,1.1-1.21,.71-6.49,3.63-11.34,3.63Zm4.73-16.62c-3.22,0-5.98,1.03-7.95,2.47-3.26,2.39-4.61,5.99-3.36,8.96,.82,1.94,2.15,3.22,3.96,3.8,5.47,1.75,13.61-3.2,13.69-3.25l.25-.15,.25,.14c2.92,1.6,6.46,1.35,9.13-.61l-3.08-6.04c-4.6-3.88-9.07-5.32-12.89-5.32Z" fill="#002346"></path>
      </g>
    </g>
  </g>
</svg>
