<?xml version="1.0" encoding="utf-8"?>
<!-- Generator: Adobe Illustrator 27.5.0, SVG Export Plug-In . SVG Version: 6.00 Build 0)  -->
<svg version="1.1" xmlns="http://www.w3.org/2000/svg" xmlns:xlink="http://www.w3.org/1999/xlink" x="0px" y="0px"
	 viewBox="0 0 500 500" style="enable-background:new 0 0 500 500;" xml:space="preserve">
<g id="Background_Simple">
	<g>
		<path style="fill:#C6FF00;" d="M419.428,121.452c0,0-25.155-50.359-80.706-57.82c-55.551-7.461-94.331,28.91-135.209,47.562
			c-21.407,9.768-45.857,5.974-68.583,10.702c-72.665,15.117-100.038,109.829-69.77,163.691
			c26.203,46.629,72.321,70.876,142.546,76.471c70.225,5.595,119.487,12.124,182.375-33.573
			C452.969,282.789,448.776,187.665,419.428,121.452z"/>
		<path style="opacity:0.7;fill:#FFFFFF;" d="M419.428,121.452c0,0-25.155-50.359-80.706-57.82
			c-55.551-7.461-94.331,28.91-135.209,47.562c-21.407,9.768-45.857,5.974-68.583,10.702
			c-72.665,15.117-100.038,109.829-69.77,163.691c26.203,46.629,72.321,70.876,142.546,76.471
			c70.225,5.595,119.487,12.124,182.375-33.573C452.969,282.789,448.776,187.665,419.428,121.452z"/>
	</g>
</g>
<g id="Board">
	<g>
		<g>
			
				<rect x="166.014" y="140.097" style="fill:#FFFFFF;stroke:#263238;stroke-linecap:round;stroke-linejoin:round;stroke-miterlimit:10;" width="263.853" height="113.194"/>
			
				<rect x="158.84" y="136.908" style="fill:#FFFFFF;stroke:#263238;stroke-linecap:round;stroke-linejoin:round;stroke-miterlimit:10;" width="278.202" height="4.783"/>
			
				<rect x="166.014" y="249.305" style="fill:#263238;stroke:#263238;stroke-linecap:round;stroke-linejoin:round;stroke-miterlimit:10;" width="263.853" height="3.986"/>
		</g>
		<g>
			<g>
				
					<ellipse transform="matrix(0.1685 -0.9857 0.9857 0.1685 -4.8188 351.3604)" style="fill:none;stroke:#263238;stroke-miterlimit:10;" cx="205.851" cy="178.536" rx="18.111" ry="18.111"/>
				<line style="fill:none;stroke:#263238;stroke-miterlimit:10;" x1="205.522" y1="155.156" x2="205.522" y2="206.526"/>
				<line style="fill:none;stroke:#263238;stroke-miterlimit:10;" x1="181.813" y1="178.866" x2="228.572" y2="178.866"/>
			</g>
			<g>
				<line style="fill:none;stroke:#263238;stroke-miterlimit:10;" x1="279.534" y1="183.274" x2="326.294" y2="183.274"/>
				<line style="fill:none;stroke:#263238;stroke-miterlimit:10;" x1="302.585" y1="158.906" x2="302.585" y2="210.276"/>
				<path style="fill:none;stroke:#263238;stroke-miterlimit:10;" d="M285.461,165.492l7.096,5.519
					c6.317,4.913,15.134,5.017,21.565,0.253l6.903-5.114"/>
				<path style="fill:none;stroke:#263238;stroke-miterlimit:10;" d="M321.025,198.632l-7.096-5.519
					c-6.317-4.913-15.134-5.017-21.565-0.253l-6.903,5.114"/>
			</g>
			<g>
				<line style="fill:none;stroke:#263238;stroke-miterlimit:10;" x1="386.471" y1="158.406" x2="386.471" y2="201.537"/>
				<line style="fill:none;stroke:#263238;stroke-miterlimit:10;" x1="363.301" y1="180.293" x2="407.076" y2="180.293"/>
				<g>
					<line style="fill:none;stroke:#263238;stroke-miterlimit:10;" x1="366.111" y1="178.569" x2="366.111" y2="182.066"/>
					<line style="fill:none;stroke:#263238;stroke-miterlimit:10;" x1="368.654" y1="178.569" x2="368.654" y2="182.066"/>
					<line style="fill:none;stroke:#263238;stroke-miterlimit:10;" x1="371.198" y1="178.569" x2="371.198" y2="182.066"/>
					<line style="fill:none;stroke:#263238;stroke-miterlimit:10;" x1="373.742" y1="178.569" x2="373.742" y2="182.066"/>
					<line style="fill:none;stroke:#263238;stroke-miterlimit:10;" x1="376.286" y1="178.569" x2="376.286" y2="182.066"/>
					<line style="fill:none;stroke:#263238;stroke-miterlimit:10;" x1="378.829" y1="178.569" x2="378.829" y2="182.066"/>
					<line style="fill:none;stroke:#263238;stroke-miterlimit:10;" x1="381.373" y1="178.569" x2="381.373" y2="182.066"/>
					<line style="fill:none;stroke:#263238;stroke-miterlimit:10;" x1="383.917" y1="178.569" x2="383.917" y2="182.066"/>
					<line style="fill:none;stroke:#263238;stroke-miterlimit:10;" x1="389.004" y1="178.569" x2="389.004" y2="182.066"/>
					<line style="fill:none;stroke:#263238;stroke-miterlimit:10;" x1="391.548" y1="178.569" x2="391.548" y2="182.066"/>
					<line style="fill:none;stroke:#263238;stroke-miterlimit:10;" x1="394.092" y1="178.569" x2="394.092" y2="182.066"/>
					<line style="fill:none;stroke:#263238;stroke-miterlimit:10;" x1="396.636" y1="178.569" x2="396.636" y2="182.066"/>
					<line style="fill:none;stroke:#263238;stroke-miterlimit:10;" x1="399.18" y1="178.569" x2="399.18" y2="182.066"/>
					<line style="fill:none;stroke:#263238;stroke-miterlimit:10;" x1="401.723" y1="178.569" x2="401.723" y2="182.066"/>
					<line style="fill:none;stroke:#263238;stroke-miterlimit:10;" x1="404.267" y1="178.569" x2="404.267" y2="182.066"/>
				</g>
				<g>
					<line style="fill:none;stroke:#263238;stroke-miterlimit:10;" x1="384.722" y1="199.396" x2="388.22" y2="199.396"/>
					<line style="fill:none;stroke:#263238;stroke-miterlimit:10;" x1="384.722" y1="196.852" x2="388.22" y2="196.852"/>
					<line style="fill:none;stroke:#263238;stroke-miterlimit:10;" x1="384.722" y1="194.308" x2="388.22" y2="194.308"/>
					<line style="fill:none;stroke:#263238;stroke-miterlimit:10;" x1="384.722" y1="191.764" x2="388.22" y2="191.764"/>
					<line style="fill:none;stroke:#263238;stroke-miterlimit:10;" x1="384.722" y1="189.221" x2="388.22" y2="189.221"/>
					<line style="fill:none;stroke:#263238;stroke-miterlimit:10;" x1="384.722" y1="186.677" x2="388.22" y2="186.677"/>
					<line style="fill:none;stroke:#263238;stroke-miterlimit:10;" x1="384.722" y1="184.133" x2="388.22" y2="184.133"/>
					<line style="fill:none;stroke:#263238;stroke-miterlimit:10;" x1="384.722" y1="176.502" x2="388.22" y2="176.502"/>
					<line style="fill:none;stroke:#263238;stroke-miterlimit:10;" x1="384.722" y1="173.958" x2="388.22" y2="173.958"/>
					<line style="fill:none;stroke:#263238;stroke-miterlimit:10;" x1="384.722" y1="171.414" x2="388.22" y2="171.414"/>
					<line style="fill:none;stroke:#263238;stroke-miterlimit:10;" x1="384.722" y1="168.871" x2="388.22" y2="168.871"/>
					<line style="fill:none;stroke:#263238;stroke-miterlimit:10;" x1="384.722" y1="166.327" x2="388.22" y2="166.327"/>
					<line style="fill:none;stroke:#263238;stroke-miterlimit:10;" x1="384.722" y1="163.783" x2="388.22" y2="163.783"/>
					<line style="fill:none;stroke:#263238;stroke-miterlimit:10;" x1="384.722" y1="161.239" x2="388.22" y2="161.239"/>
				</g>
			</g>
			<line style="fill:none;stroke:#263238;stroke-miterlimit:10;" x1="184.982" y1="216.995" x2="224.918" y2="216.995"/>
			<line style="fill:none;stroke:#263238;stroke-miterlimit:10;" x1="184.982" y1="221.919" x2="224.918" y2="221.919"/>
			<line style="fill:none;stroke:#263238;stroke-miterlimit:10;" x1="184.982" y1="226.843" x2="224.918" y2="226.843"/>
			<line style="fill:none;stroke:#263238;stroke-miterlimit:10;" x1="184.982" y1="231.767" x2="224.918" y2="231.767"/>
			<line style="fill:none;stroke:#263238;stroke-miterlimit:10;" x1="286.191" y1="216.995" x2="326.127" y2="216.995"/>
			<line style="fill:none;stroke:#263238;stroke-miterlimit:10;" x1="286.191" y1="221.919" x2="326.127" y2="221.919"/>
			<line style="fill:none;stroke:#263238;stroke-miterlimit:10;" x1="286.191" y1="226.843" x2="326.127" y2="226.843"/>
			<line style="fill:none;stroke:#263238;stroke-miterlimit:10;" x1="286.191" y1="231.767" x2="326.127" y2="231.767"/>
			<line style="fill:none;stroke:#263238;stroke-miterlimit:10;" x1="368.799" y1="216.995" x2="408.736" y2="216.995"/>
			<line style="fill:none;stroke:#263238;stroke-miterlimit:10;" x1="368.799" y1="221.919" x2="408.736" y2="221.919"/>
			<line style="fill:none;stroke:#263238;stroke-miterlimit:10;" x1="368.799" y1="226.843" x2="408.736" y2="226.843"/>
			<line style="fill:none;stroke:#263238;stroke-miterlimit:10;" x1="368.799" y1="231.767" x2="408.736" y2="231.767"/>
			<line style="fill:none;stroke:#263238;stroke-miterlimit:10;" x1="234.766" y1="190.736" x2="274.702" y2="190.736"/>
			<line style="fill:none;stroke:#263238;stroke-miterlimit:10;" x1="234.766" y1="195.66" x2="274.702" y2="195.66"/>
			<line style="fill:none;stroke:#263238;stroke-miterlimit:10;" x1="234.766" y1="200.583" x2="274.702" y2="200.583"/>
			<line style="fill:none;stroke:#263238;stroke-miterlimit:10;" x1="234.766" y1="205.507" x2="274.702" y2="205.507"/>
			<line style="fill:none;stroke:#263238;stroke-miterlimit:10;" x1="324.486" y1="154.082" x2="364.423" y2="154.082"/>
			<line style="fill:none;stroke:#263238;stroke-miterlimit:10;" x1="324.486" y1="159.005" x2="364.423" y2="159.005"/>
			<line style="fill:none;stroke:#263238;stroke-miterlimit:10;" x1="324.486" y1="163.929" x2="364.423" y2="163.929"/>
			<line style="fill:none;stroke:#263238;stroke-miterlimit:10;" x1="324.486" y1="168.853" x2="364.423" y2="168.853"/>
		</g>
	</g>
</g>
<g id="Table_3">
	<g>
		
			<rect x="43.054" y="253" style="fill:#263238;stroke:#263238;stroke-linecap:round;stroke-linejoin:round;stroke-miterlimit:10;" width="51.513" height="43.271"/>
		
			<rect x="74.305" y="301.765" style="fill:#263238;stroke:#263238;stroke-linecap:round;stroke-linejoin:round;stroke-miterlimit:10;" width="51.513" height="2.747"/>
		
			<rect x="62.285" y="284.251" style="fill:#707070;stroke:#263238;stroke-linecap:round;stroke-linejoin:round;stroke-miterlimit:10;" width="9.959" height="19.918"/>
		
			<rect x="37.216" y="308.446" style="fill:#707070;stroke:#263238;stroke-linecap:round;stroke-linejoin:round;stroke-miterlimit:10;" width="137.367" height="91.39"/>
		<g>
			
				<rect x="34.84" y="309.111" style="fill:#707070;stroke:#263238;stroke-linecap:round;stroke-linejoin:round;stroke-miterlimit:10;" width="4.631" height="92.889"/>
			
				<rect x="171.831" y="309.111" style="fill:#707070;stroke:#263238;stroke-linecap:round;stroke-linejoin:round;stroke-miterlimit:10;" width="4.631" height="92.889"/>
			
				<rect x="30.969" y="303.567" style="fill:#707070;stroke:#263238;stroke-linecap:round;stroke-linejoin:round;stroke-miterlimit:10;" width="151.998" height="8.729"/>
		</g>
	</g>
</g>
<g id="Character_3">
	<g>
		<path style="fill:#FFFFFF;stroke:#263238;stroke-linecap:round;stroke-linejoin:round;stroke-miterlimit:10;" d="M251.643,219.059
			c0,0-5.521,3.432-7.312,7.908c-1.79,4.477-9.251,27.636-11.191,30.621c-1.94,2.984-1.94,7.61,0.298,10.147
			c2.238,2.537,5.969,4.178,9.102,1.194c3.133-2.984,4.029-8.953,7.013-15.966s5.521-26.89,7.013-30.919
			c1.492-4.029,1.791-7.461,1.791-7.461L251.643,219.059z"/>
		<g>
			<g>
				<path style="fill:#263238;stroke:#263238;stroke-linecap:round;stroke-linejoin:round;stroke-miterlimit:10;" d="
					M296.706,277.285c0,0,0.895,11.863,0.448,17.906c-0.448,6.043-4.477,44.136-4.477,44.136l-5.819,51.407h-8.953l-6.491-75.804
					l-8.729,75.58h-9.177c0,0-5.372-47.602-6.938-59.017c-1.567-11.415-0.672-20.859-0.672-21.53c0-0.671-2.014-15.891-2.014-20.144
					c0-4.253,0.597-8.655,0.597-8.655l-0.373-1.641c0,0,16.563,4.477,27.978,1.791c11.415-2.686,22.606-6.267,22.606-6.267
					L296.706,277.285z"/>
				<path style="fill:none;stroke:#263238;stroke-linecap:round;stroke-linejoin:round;stroke-miterlimit:10;" d="M286.858,390.734
					l2.686,9.177c0,0,0.671,1.119-0.448,1.791c-1.119,0.671-13.653,0-13.653,0s-1.119-0.448-0.895-2.014
					c0.224-1.567,3.357-8.953,3.357-8.953H286.858z"/>
				<path style="fill:none;stroke:#263238;stroke-linecap:round;stroke-linejoin:round;stroke-miterlimit:10;" d="M262.685,390.51
					l0.816,8.369c0.051,0.521-0.089,1.042-0.393,1.468l0,0c-0.406,0.569-1.062,0.906-1.761,0.906h-17.34
					c-1.763,0-5.157-0.06-4.824-1.791c0.002-0.011,0.004-0.023,0.007-0.034c0.224-1.119,14.318-8.919,14.318-8.919H262.685z"/>
			</g>
			<polyline style="fill:none;stroke:#6B6B6B;stroke-linecap:round;stroke-linejoin:round;stroke-miterlimit:10;" points="
				271.414,314.93 269.176,305.487 261.118,299.891 			"/>
		</g>
		<path style="fill:#FFFFFF;stroke:#263238;stroke-linecap:round;stroke-linejoin:round;stroke-miterlimit:10;" d="M248.51,230.549
			c0,0,0,16.445,0,17.49c0,1.045-5.372,24.024-5.819,26.262c-0.448,2.238,0,4.327,1.791,6.864c1.79,2.537,8.505,5.073,23.128,6.267
			c14.623,1.194,25.516-4.178,28.5-7.61c2.984-3.432-0.448-9.997-1.492-19.249c-1.044-9.251-1.343-38.529-5.521-40.469
			c-4.178-1.94-17.607-8.356-17.607-8.356s-7.61,0-12.683,2.238c-5.073,2.238-8.654,6.715-8.654,6.715"/>
		<path style="fill:#FFFFFF;stroke:#263238;stroke-linecap:round;stroke-linejoin:round;stroke-miterlimit:10;" d="M270.594,208.764
			c0,0,2.984-0.298,4.029,2.387c1.045,2.686-2.238,18.95-2.238,18.95s-7.311-5.222-9.102-5.222c-1.791,0-9.997,5.222-9.997,5.222
			s2.686-11.191,5.073-15.518c2.387-4.327,8.953-6.715,11.639-5.969L270.594,208.764z"/>
		<path style="fill:#FFFFFF;stroke:#263238;stroke-linecap:round;stroke-linejoin:round;stroke-miterlimit:10;" d="M271.19,207.271
			c0,0,0.597,1.492-2.089,8.654c-2.686,7.162-4.029,13.28-5.67,11.639c-1.641-1.641-3.581-10.296-3.581-10.296
			S268.504,211.002,271.19,207.271z"/>
		<g>
			<g>
				<path style="fill:#FFFFFF;stroke:#263238;stroke-linecap:round;stroke-linejoin:round;stroke-miterlimit:10;" d="
					M247.194,195.708c0,0,1.455,7.901,2.911,12.267c1.455,4.366,3.327,10.812,8.317,12.267c4.99,1.455,6.445-2.287,8.525-3.95
					c2.079-1.663,5.406-7.277,5.406-9.98c0-2.703-0.208-8.733-1.247-10.812c-1.04-2.079-2.911-4.158-8.317-5.198
					C257.382,189.262,252.392,190.094,247.194,195.708z"/>
				<path style="fill:#263238;stroke:#263238;stroke-linecap:round;stroke-linejoin:round;stroke-miterlimit:10;" d="
					M270.689,201.322c0,0-3.119,1.247-3.95-0.624c-0.832-1.871-2.287-4.574-2.287-4.574s-6.445,2.703-10.396,2.911
					c-3.95,0.208-8.317-2.287-8.94-4.99c-0.624-2.703,1.663-8.732,6.861-12.059c5.198-3.327,16.01-4.782,19.336,0.416
					c3.327,5.198,3.535,9.772,3.535,13.307c0,3.535-0.208,6.03-0.208,6.03S272.56,200.49,270.689,201.322z"/>
			</g>
			<path style="fill:#FFFFFF;stroke:#263238;stroke-linecap:round;stroke-linejoin:round;stroke-miterlimit:10;" d="
				M269.441,202.777c0,0,1.871-4.782,3.742-4.158c1.871,0.624,2.079,4.366,1.04,6.653c-1.04,2.287-3.742,3.119-4.366,2.703"/>
			<path style="fill:none;stroke:#263238;stroke-linecap:round;stroke-linejoin:round;stroke-miterlimit:10;" d="M255.456,205.309
				c0,0,7.522-0.53,9.111-0.318c1.589,0.212,1.377,2.013,0.953,4.026c-0.424,2.013-2.86,3.178-5.721,2.648
				c-2.86-0.53-3.496-2.966-4.026-3.39c-0.53-0.424-0.742-0.848-1.377-0.53c-0.636,0.318-0.53,2.543-1.271,3.496
				c-0.742,0.953-2.754,1.695-4.979,0.53c-2.225-1.165-2.119-4.556-2.119-5.721s1.165-1.059,1.695-0.953
				C248.252,205.203,255.456,205.309,255.456,205.309z"/>
			
				<line style="fill:none;stroke:#263238;stroke-linecap:round;stroke-linejoin:round;stroke-miterlimit:10;" x1="265.626" y1="205.415" x2="270.288" y2="200.648"/>
			
				<line style="fill:none;stroke:#263238;stroke-linecap:round;stroke-linejoin:round;stroke-miterlimit:10;" x1="246.557" y1="204.991" x2="248.358" y2="202.767"/>
			<path style="fill:none;stroke:#263238;stroke-linecap:round;stroke-linejoin:round;stroke-miterlimit:10;" d="M254.291,208.911
				c0,0-0.424,1.271-0.636,2.331c-0.212,1.059,0.636,3.178,1.907,2.966s1.589-0.848,1.589-0.848"/>
			<path style="fill:none;stroke:#263238;stroke-linecap:round;stroke-linejoin:round;stroke-miterlimit:10;" d="M262.978,203.826
				c0,0-1.907-0.742-4.344,0.212"/>
			<path style="fill:none;stroke:#263238;stroke-linecap:round;stroke-linejoin:round;stroke-miterlimit:10;" d="M253.231,204.25
				c0,0-1.589-1.377-3.39-0.106"/>
		</g>
		<path style="fill:#FFFFFF;stroke:#263238;stroke-linecap:round;stroke-linejoin:round;stroke-miterlimit:10;" d="M284.769,218.313
			c0,0,6.416,1.94,9.251,4.327c2.835,2.387,7.401,21.157,8.744,30.11c1.343,8.953,3.428,16.693,1.637,17.738
			c-1.791,1.045-29.779-2.604-29.779-2.604l-0.895-4.327l18.244-3.795c0,0-10.186-19.961-10.485-25.482
			c-0.298-5.521,1.194-8.654,1.194-8.654"/>
		<g>
			<polygon style="fill:#C6FF00;stroke:#263238;stroke-linecap:round;stroke-linejoin:round;stroke-miterlimit:10;" points="
				254.926,253.261 262.834,272.659 249.405,277.583 241.049,258.782 			"/>
			<polygon style="fill:#C6FF00;stroke:#263238;stroke-linecap:round;stroke-linejoin:round;stroke-miterlimit:10;" points="
				241.049,258.782 231.499,251.769 240.004,271.466 249.405,277.583 			"/>
		</g>
		<g>
			<path style="fill:#FFFFFF;stroke:#263238;stroke-linecap:round;stroke-linejoin:round;stroke-miterlimit:10;" d="
				M273.727,263.557c0,0-10.743-2.984-11.937-3.88c-1.194-0.895-11.191,3.134-11.788,3.134c-0.597,0-0.448,0.746,0.149,1.044
				c0.597,0.298,7.162-1.492,7.162-1.492s-6.267,3.283-6.267,4.029c0,0.746,0.597,1.194,0.597,1.194s0.149,1.343,0.895,1.641
				c0.746,0.298,8.356-1.194,8.356-1.194s-5.969,2.238-5.223,2.686c0.746,0.448,1.492,0.448,2.387,0
				c0.895-0.448,6.267-2.089,6.267-2.089s4.029,1.194,6.267,0.597c2.238-0.597,4.029-1.343,4.029-1.343L273.727,263.557z"/>
			
				<line style="fill:none;stroke:#263238;stroke-linecap:round;stroke-linejoin:round;stroke-miterlimit:10;" x1="251.643" y1="267.586" x2="259.104" y2="265.497"/>
		</g>
		<g>
			<path style="fill:#FFFFFF;stroke:#263238;stroke-linecap:round;stroke-linejoin:round;stroke-miterlimit:10;" d="M233.14,257.589
				c0,0,5.073,3.73,5.969,4.924c0.895,1.194,0.597,2.387,0.597,2.387l-3.283-1.343c0,0,4.178,3.73,4.327,4.327
				c0.149,0.597,1.641,3.134-0.149,2.835c-1.791-0.298-7.162-3.133-8.207-4.626c-1.044-1.492-1.343-8.505-1.343-8.505
				S231.499,256.096,233.14,257.589z"/>
			
				<line style="fill:none;stroke:#263238;stroke-linecap:round;stroke-linejoin:round;stroke-miterlimit:10;" x1="240.75" y1="268.78" x2="234.782" y2="265.198"/>
			<path style="fill:none;stroke:#263238;stroke-linecap:round;stroke-linejoin:round;stroke-miterlimit:10;" d="M241.347,270.123
				c0,0-5.372-2.387-6.416-3.283"/>
			
				<line style="fill:none;stroke:#263238;stroke-linecap:round;stroke-linejoin:round;stroke-miterlimit:10;" x1="236.423" y1="263.557" x2="234.633" y2="262.363"/>
		</g>
	</g>
</g>
<g id="Table_2">
	<g>
		
			<rect x="269.094" y="317.459" style="fill:#FFFFFF;stroke:#263238;stroke-linecap:round;stroke-linejoin:round;stroke-miterlimit:10;" width="4.164" height="84.541"/>
		
			<rect x="458.986" y="317.459" style="fill:#FFFFFF;stroke:#263238;stroke-linecap:round;stroke-linejoin:round;stroke-miterlimit:10;" width="4.164" height="84.541"/>
		
			<rect x="265.612" y="312.473" style="fill:#FFFFFF;stroke:#263238;stroke-linecap:round;stroke-linejoin:round;stroke-miterlimit:10;" width="203.388" height="7.85"/>
	</g>
</g>
<g id="Table_1">
	<g>
		
			<rect x="55.869" y="317.459" style="fill:#FFFFFF;stroke:#263238;stroke-linecap:round;stroke-linejoin:round;stroke-miterlimit:10;" width="4.164" height="84.541"/>
		
			<rect x="245.761" y="317.459" style="fill:#FFFFFF;stroke:#263238;stroke-linecap:round;stroke-linejoin:round;stroke-miterlimit:10;" width="4.164" height="84.541"/>
		
			<rect x="52.387" y="312.473" style="fill:#FFFFFF;stroke:#263238;stroke-linecap:round;stroke-linejoin:round;stroke-miterlimit:10;" width="203.387" height="7.85"/>
	</g>
</g>
<g id="Character_5">
	<g>
		<g>
			<g>
				<polygon style="fill:#707070;stroke:#263238;stroke-linecap:round;stroke-linejoin:round;stroke-miterlimit:10;" points="
					401.797,332.277 411.358,393.534 416.48,393.847 417.687,333.783 				"/>
				<path style="fill:#FFFFFF;stroke:#263238;stroke-linecap:round;stroke-linejoin:round;stroke-miterlimit:10;" d="
					M411.358,393.534l-0.024,6.814c-0.002,0.576,0.448,1.053,1.023,1.084l3.753,0.203c0.669,0.036,1.21-0.539,1.133-1.205
					l-0.763-6.584L411.358,393.534z"/>
			</g>
			<g>
				<polygon style="fill:#707070;stroke:#263238;stroke-linecap:round;stroke-linejoin:round;stroke-miterlimit:10;" points="
					439.152,332.425 428.537,393.467 423.41,393.671 423.235,333.593 				"/>
				<path style="fill:#FFFFFF;stroke:#263238;stroke-linecap:round;stroke-linejoin:round;stroke-miterlimit:10;" d="
					M428.537,393.467l-0.121,6.813c-0.01,0.576-0.47,1.043-1.046,1.062l-3.757,0.124c-0.67,0.022-1.199-0.564-1.107-1.228
					l0.903-6.566L428.537,393.467z"/>
			</g>
			<g>
				<path style="fill:#C6FF00;stroke:#263238;stroke-linecap:round;stroke-linejoin:round;stroke-miterlimit:10;" d="
					M398.781,273.089c0,0-16.005,31.025-16.441,33.643c-0.436,2.618,2.182,6.545,6.763,6.108c4.581-0.436,16.507-0.655,16.507-0.655
					l0.218-4.145l-13.744-1.745l8.29-6.545L398.781,273.089z"/>
				
					<line style="fill:none;stroke:#263238;stroke-linecap:round;stroke-linejoin:round;stroke-miterlimit:10;" x1="392.084" y1="306.295" x2="390.412" y2="309.568"/>
			</g>
			<g>
				<path style="fill:#C6FF00;stroke:#263238;stroke-linecap:round;stroke-linejoin:round;stroke-miterlimit:10;" d="
					M441.631,273.758c0,0,16.302,30.356,16.739,32.973c0.436,2.618-2.182,6.545-6.763,6.108c-4.581-0.436-15.285-0.655-15.285-0.655
					l-0.218-4.145l7.432-1.745l-5.202-6.629L441.631,273.758z"/>
				
					<line style="fill:none;stroke:#263238;stroke-linecap:round;stroke-linejoin:round;stroke-miterlimit:10;" x1="443.535" y1="306.295" x2="450.298" y2="309.568"/>
			</g>
			<path style="fill:#C6FF00;stroke:#263238;stroke-linecap:round;stroke-linejoin:round;stroke-miterlimit:10;" d="
				M413.985,264.922c0,0-5.249,2.779-10.497,5.557c-5.249,2.779-4.398,1.22-4.707,2.609c-0.309,1.389,1.774,49.568,1.774,49.568
				s3.973,3.907,14.511,4.94c15.746,1.544,22.538-3.396,22.538-3.396s4.028-48.744,4.028-50.442c0-1.698-6.498-4.977-10.666-6.983
				C426.798,264.768,422.167,263.07,413.985,264.922z"/>
			<path style="fill:#263238;stroke:#263238;stroke-linecap:round;stroke-linejoin:round;stroke-miterlimit:10;" d="
				M419.599,231.956c0,0-6.804,2.994-8.981,7.892c-2.177,4.899,1.361,16.329,0.544,19.323c-0.816,2.994-4.627,2.722-4.627,2.722
				s1.633,9.253,10.886,10.342c9.253,1.089,13.336-0.272,17.146-4.355c3.81-4.082,2.994-4.082,2.994-4.082s-1.633,0-2.449-4.627
				c-0.816-4.627,0.272-17.69-3.81-23.406C427.219,230.051,420.959,230.323,419.599,231.956z"/>
			<path style="fill:#707070;stroke:#263238;stroke-linecap:round;stroke-linejoin:round;stroke-miterlimit:10;" d="
				M400.555,322.656c0,0-1.389,15.437-0.926,17.444s5.249,5.249,14.974,5.557c9.725,0.309,21.92,0.772,24.853-2.779
				c2.933-3.551-1.852-18.679-1.852-18.679S411.669,326.361,400.555,322.656z"/>
			<g>
				<g>
					<path style="fill:none;stroke:#263238;stroke-linecap:round;stroke-linejoin:round;stroke-miterlimit:10;" d="M420.092,264.626
						c0,0,0.228-1.599,5.026-0.228"/>
				</g>
			</g>
		</g>
		<g>
			<path style="fill:#263238;stroke:#263238;stroke-linecap:round;stroke-linejoin:round;stroke-miterlimit:10;" d="M400.33,401.069
				L400.33,401.069c-0.595-0.048-1.038-0.569-0.99-1.164l3.166-58.374l3.64,0.294l-4.652,58.254
				C401.446,400.673,400.924,401.117,400.33,401.069z"/>
			<path style="fill:#263238;stroke:#263238;stroke-linecap:round;stroke-linejoin:round;stroke-miterlimit:10;" d="
				M439.576,401.069L439.576,401.069c0.595-0.048,1.038-0.569,0.99-1.164l-3.165-58.374l-3.641,0.294l4.652,58.254
				C438.46,400.673,438.981,401.117,439.576,401.069z"/>
			<path style="fill:#263238;stroke:#263238;stroke-linecap:round;stroke-linejoin:round;stroke-miterlimit:10;" d="
				M443.309,295.576c-7.599,1.14-14.85,1.662-24.588,1.814c-8.258-0.148-15.388-0.668-23.002-1.811
				c-1.251-0.188-2.328,0.876-2.128,2.125c1.183,7.373,4.532,28.603,4.532,32.671c0,4.94-1.698,9.571-1.698,11.732
				c0,2.161,0.926,3.859,2.47,4.477c0.713,0.285,8.804,0.306,19.743,0.247c12.664,0.059,20.76,0.038,21.473-0.247
				c1.544-0.617,2.47-2.315,2.47-4.477c0-2.161-1.698-6.792-1.698-11.732c0-4.068,3.349-25.302,4.532-32.673
				C445.614,296.462,444.55,295.39,443.309,295.576z M435.387,340.805c-0.549,0.218-6.79,0.234-16.551,0.189
				c-8.431,0.045-14.668,0.029-15.217-0.189c-1.19-0.471-1.904-1.767-1.904-3.417c0-1.649,1.309-5.184,1.309-8.954
				c0-0.887-0.211-2.847-0.534-5.321l3.092,3.343c0.854,0.923,2.054,1.448,3.312,1.448h21.198c1.178,0,2.309-0.46,3.152-1.283
				l3.225-3.148c-0.296,2.303-0.487,4.118-0.487,4.962c0,3.77,1.309,7.304,1.309,8.954
				C437.291,339.038,436.577,340.334,435.387,340.805z M439.475,303.5c-0.518,3.196-1.574,9.805-2.391,15.489l-3.134,1.908
				c-1.725,1.05-3.707,1.606-5.727,1.606h-17.222c-1.964,0-3.892-0.525-5.584-1.521l-3.506-2.062
				c-0.815-5.667-1.865-12.234-2.381-15.418c-0.154-0.953,0.676-1.765,1.64-1.621c5.869,0.872,11.364,1.269,17.729,1.382
				c7.505-0.116,13.095-0.515,18.952-1.385C438.809,301.735,439.628,302.554,439.475,303.5z"/>
		</g>
	</g>
</g>
<g id="Character_4">
	<g>
		<g>
			<g>
				<polygon style="fill:#FFFFFF;stroke:#263238;stroke-linecap:round;stroke-linejoin:round;stroke-miterlimit:10;" points="
					322.283,277.525 322.283,269.189 334.169,269.189 334.169,278.142 				"/>
				<path style="fill:#FFFFFF;stroke:#263238;stroke-linecap:round;stroke-linejoin:round;stroke-miterlimit:10;" d="
					M316.417,258.537c0,0-1.852-0.463-1.852,2.47c0,2.933,2.47,4.94,3.396,4.785c0.926-0.154-0.463-5.712-0.618-6.792
					C317.188,257.92,316.417,258.537,316.417,258.537z"/>
				<path style="fill:#FFFFFF;stroke:#263238;stroke-linecap:round;stroke-linejoin:round;stroke-miterlimit:10;" d="
					M339.579,258.537c0,0,1.852-0.463,1.852,2.47c0,2.933-2.47,4.94-3.396,4.785c-0.926-0.154,0.463-5.712,0.617-6.792
					C338.807,257.92,339.579,258.537,339.579,258.537z"/>
				<path style="fill:#263238;stroke:#263238;stroke-linecap:round;stroke-linejoin:round;stroke-miterlimit:10;" d="
					M339.624,246.908c0,0,1.16-0.58-0.145-3.336c-1.305-2.756-3.771-3.191-3.771-3.191s1.015-0.58,1.015-1.16
					c0-0.58-1.305-0.725-5.221,0.435c-3.916,1.16-3.971,4.525-3.971,4.525s-0.082-0.05-0.233-0.114
					c-0.95-0.455-4.624-2.1-6.384-1.22c-2.03,1.015,0.29,0.725,0.29,0.725s-3.626,0.435-5.801,3.481
					c-2.175,3.046-0.58,3.336-0.145,3.336c0.435,0,0.87-1.305,0.87-1.305v2.756c0,0,0.051,0.246,0.145,0.618
					c-0.615,4.097,0.462,8.725,1.068,11.638c0.772,3.705,3.859,7.255,6.175,8.027c2.316,0.772,9.417,0,9.417,0
					s2.316-2.161,4.477-6.02c1.231-2.198,1.859-5.499,2.002-8.703c0.45-0.908,1.174-2.71,1.371-5.27
					C341.074,248.358,339.624,246.908,339.624,246.908z"/>
				<path style="fill:#C6FF00;stroke:#263238;stroke-linecap:round;stroke-linejoin:round;stroke-miterlimit:10;" d="
					M335.867,262.607c0,0-6.544-3.524-12.967-0.772c-3.733,1.599-6.483,5.557-6.483,5.557s4.785-1.544,10.034-1.544
					c5.249,0,12.504,0.926,12.504,0.926S337.719,264.151,335.867,262.607z"/>
				<g>
					<g>
						<path style="fill:#C6FF00;stroke:#263238;stroke-linecap:round;stroke-linejoin:round;stroke-miterlimit:10;" d="
							M302.06,277.272c0,0-17.003,26.842-17.439,29.46c-0.436,2.618,2.181,6.545,6.763,6.108s21.597-0.655,21.597-0.655l0.218-4.145
							l-13.744-1.745l8.29-6.545L302.06,277.272z"/>
						
							<line style="fill:none;stroke:#263238;stroke-linecap:round;stroke-linejoin:round;stroke-miterlimit:10;" x1="299.455" y1="306.295" x2="292.693" y2="309.568"/>
					</g>
					<g>
						<path style="fill:#C6FF00;stroke:#263238;stroke-linecap:round;stroke-linejoin:round;stroke-miterlimit:10;" d="
							M354.391,276.191c0,0,17.225,27.922,17.662,30.54c0.436,2.618-2.182,6.545-6.763,6.108
							c-4.581-0.436-21.597-0.655-21.597-0.655l-0.218-4.145l13.744-1.745l-8.29-6.545L354.391,276.191z"/>
						
							<line style="fill:none;stroke:#263238;stroke-linecap:round;stroke-linejoin:round;stroke-miterlimit:10;" x1="357.219" y1="306.295" x2="363.981" y2="309.568"/>
					</g>
					<path style="fill:#C6FF00;stroke:#263238;stroke-linecap:round;stroke-linejoin:round;stroke-miterlimit:10;" d="
						M321.356,264.922c0,0-5.249,2.779-10.497,5.557c-5.249,2.779-8.49,5.403-8.799,6.792c-0.309,1.389,5.866,45.384,5.866,45.384
						s3.973,3.907,14.511,4.94c15.746,1.544,22.538-3.396,22.538-3.396s9.417-46.311,9.417-48.009c0-1.698-11.886-7.41-16.054-9.417
						C334.169,264.768,329.538,263.07,321.356,264.922z"/>
				</g>
			</g>
			<g>
				<g>
					<polygon style="fill:#FFFFFF;stroke:#263238;stroke-linecap:round;stroke-linejoin:round;stroke-miterlimit:10;" points="
						298.973,335.469 317.343,394.182 322.437,393.564 314.873,334.08 					"/>
					<path style="fill:#FFFFFF;stroke:#263238;stroke-linecap:round;stroke-linejoin:round;stroke-miterlimit:10;" d="
						M317.343,394.182l1.207,6.706c0.102,0.567,0.631,0.955,1.202,0.881l3.728-0.478c0.665-0.085,1.093-0.749,0.897-1.39
						l-1.94-6.338L317.343,394.182z"/>
				</g>
				<g>
					<polygon style="fill:#FFFFFF;stroke:#263238;stroke-linecap:round;stroke-linejoin:round;stroke-miterlimit:10;" points="
						355.607,335.469 337.237,394.182 332.143,393.564 339.707,334.08 					"/>
					<path style="fill:#FFFFFF;stroke:#263238;stroke-linecap:round;stroke-linejoin:round;stroke-miterlimit:10;" d="
						M337.237,394.182l-1.207,6.706c-0.102,0.567-0.631,0.955-1.202,0.881l-3.728-0.478c-0.665-0.085-1.093-0.749-0.897-1.39
						l1.94-6.338L337.237,394.182z"/>
				</g>
				<path style="fill:#FFFFFF;stroke:#263238;stroke-linecap:round;stroke-linejoin:round;stroke-miterlimit:10;" d="
					M323.672,328.522c0,0-16.826-5.249-19.913-3.705s-6.175,5.557-5.094,10.034c1.081,4.477,10.343,9.88,12.349,10.034
					c2.007,0.154,12.813,0,12.813,0L323.672,328.522z"/>
				<path style="fill:#FFFFFF;stroke:#263238;stroke-linecap:round;stroke-linejoin:round;stroke-miterlimit:10;" d="
					M331.942,328.522c0,0,16.826-5.249,19.913-3.705c3.087,1.544,6.175,5.557,5.094,10.034c-1.081,4.477-10.343,9.88-12.349,10.034
					c-2.007,0.154-12.813,0-12.813,0L331.942,328.522z"/>
				<path style="fill:#FFFFFF;stroke:#263238;stroke-linecap:round;stroke-linejoin:round;stroke-miterlimit:10;" d="
					M307.926,322.656c0,0-1.389,15.437-0.926,17.444s5.249,5.249,14.974,5.557c9.725,0.309,21.92,0.772,24.853-2.779
					c2.933-3.551-1.852-18.679-1.852-18.679S319.041,326.361,307.926,322.656z"/>
			</g>
		</g>
		<g>
			<path style="fill:#263238;stroke:#263238;stroke-linecap:round;stroke-linejoin:round;stroke-miterlimit:10;" d="
				M307.701,401.069L307.701,401.069c-0.595-0.048-1.038-0.569-0.99-1.164l3.166-58.374l3.64,0.294l-4.652,58.254
				C308.817,400.673,308.296,401.117,307.701,401.069z"/>
			<path style="fill:#263238;stroke:#263238;stroke-linecap:round;stroke-linejoin:round;stroke-miterlimit:10;" d="
				M346.948,401.069L346.948,401.069c0.595-0.048,1.038-0.569,0.99-1.164l-3.165-58.374l-3.641,0.294l4.652,58.254
				C345.832,400.673,346.353,401.117,346.948,401.069z"/>
			<path style="fill:#263238;stroke:#263238;stroke-linecap:round;stroke-linejoin:round;stroke-miterlimit:10;" d="
				M350.642,295.576c-7.599,1.14-14.851,1.662-24.588,1.814c-8.258-0.148-15.388-0.668-23.002-1.811
				c-1.251-0.188-2.328,0.876-2.128,2.125c1.183,7.373,4.532,28.603,4.532,32.671c0,4.94-1.698,9.571-1.698,11.732
				c0,2.161,0.926,3.859,2.47,4.477c0.713,0.285,8.804,0.306,19.743,0.247c12.664,0.059,20.76,0.038,21.473-0.247
				c1.544-0.617,2.47-2.315,2.47-4.477c0-2.161-1.698-6.792-1.698-11.732c0-4.068,3.35-25.302,4.532-32.673
				C352.947,296.462,351.884,295.39,350.642,295.576z M342.72,340.805c-0.549,0.218-6.79,0.234-16.55,0.189
				c-8.431,0.045-14.668,0.029-15.217-0.189c-1.19-0.471-1.904-1.767-1.904-3.417c0-1.649,1.309-5.184,1.309-8.954
				c0-0.887-0.211-2.847-0.534-5.321l3.092,3.343c0.854,0.923,2.054,1.448,3.312,1.448h21.198c1.178,0,2.309-0.46,3.151-1.283
				l3.225-3.148c-0.296,2.303-0.487,4.118-0.487,4.962c0,3.77,1.309,7.304,1.309,8.954
				C344.624,339.038,343.91,340.334,342.72,340.805z M346.809,303.5c-0.518,3.196-1.574,9.805-2.391,15.489l-3.134,1.908
				c-1.726,1.05-3.707,1.606-5.727,1.606h-17.222c-1.964,0-3.892-0.525-5.584-1.521l-3.506-2.062
				c-0.815-5.667-1.865-12.234-2.381-15.418c-0.154-0.953,0.676-1.765,1.64-1.621c5.869,0.872,11.364,1.269,17.729,1.382
				c7.505-0.116,13.095-0.515,18.952-1.385C346.142,301.735,346.962,302.554,346.809,303.5z"/>
		</g>
		<g>
			<polygon style="fill:#757575;stroke:#263238;stroke-linecap:round;stroke-linejoin:round;stroke-miterlimit:10;" points="
				310.377,295.866 316.313,317.962 320.931,317.303 315.984,296.855 			"/>
			<polygon style="fill:#757575;stroke:#263238;stroke-linecap:round;stroke-linejoin:round;stroke-miterlimit:10;" points="
				333.793,316.643 338.081,296.855 344.017,296.195 338.41,317.962 			"/>
			<polygon style="fill:#757575;stroke:#263238;stroke-linecap:round;stroke-linejoin:round;stroke-miterlimit:10;" points="
				304.818,331.873 312.686,348.304 312.686,355.56 304.111,337.751 			"/>
			<polygon style="fill:#757575;stroke:#263238;stroke-linecap:round;stroke-linejoin:round;stroke-miterlimit:10;" points="
				348.973,331.873 341.105,348.304 341.105,355.56 349.68,337.751 			"/>
			<path style="fill:#C6FF00;stroke:#263238;stroke-linecap:round;stroke-linejoin:round;stroke-miterlimit:10;" d="
				M335.251,312.356c0,0-14.182-0.99-18.469,0.33c-4.287,1.319-6.596,4.617-6.266,9.894c0.33,5.277-2.638,25.725-2.309,31.002
				c0.33,5.277,2.309,8.575,10.884,10.224c8.575,1.649,17.48,0.989,22.427-0.99c4.947-1.979,7.308-9.532,4.287-17.48
				c-3.021-7.948-2.275-20.143-3.594-26.079C340.891,313.321,337.559,312.686,335.251,312.356z"/>
			<path style="fill:#C6FF00;stroke:#263238;stroke-linecap:round;stroke-linejoin:round;stroke-miterlimit:10;" d="
				M343.254,352.122c0.019,0.121-0.229,3.272-0.261,3.391c-2.323,8.805-14.749,7.408-21.642,6.261
				c-3.435-0.572-8.575-2.303-9.9-5.986c-1.451-4.04,0.433-9.017,1.146-13.047c0.444-2.509,0.697-10.198,3.53-11.486
				c2.869-1.304,20.081-3.13,22.693,2.088C341.743,339.182,342.21,345.34,343.254,352.122z"/>
			
				<rect x="323.691" y="318.475" style="fill:#263238;stroke:#263238;stroke-linecap:round;stroke-linejoin:round;stroke-miterlimit:10;" width="6.521" height="3.652"/>
			<path style="fill:#263238;stroke:#263238;stroke-linecap:round;stroke-linejoin:round;stroke-miterlimit:10;" d="
				M313.519,342.993h28.17c0,0,0.261,3.652-3.392,4.435c-4.206,0.9-8.844,0.734-13.119,0.74
				C321.349,348.173,313.077,348.743,313.519,342.993z"/>
		</g>
	</g>
</g>
<g id="Character_2">
	<g>
		<g>
			<g>
				<polygon style="fill:#C6FF00;stroke:#263238;stroke-linecap:round;stroke-linejoin:round;stroke-miterlimit:10;" points="
					188.572,332.64 198.133,393.897 203.255,394.21 204.462,334.146 				"/>
				<path style="fill:#FFFFFF;stroke:#263238;stroke-linecap:round;stroke-linejoin:round;stroke-miterlimit:10;" d="
					M198.133,393.897l-0.024,6.814c-0.002,0.576,0.448,1.053,1.023,1.084l3.753,0.203c0.669,0.036,1.21-0.539,1.133-1.205
					l-0.763-6.584L198.133,393.897z"/>
			</g>
			<g>
				<polygon style="fill:#C6FF00;stroke:#263238;stroke-linecap:round;stroke-linejoin:round;stroke-miterlimit:10;" points="
					225.927,332.788 215.312,393.83 210.185,394.034 210.009,333.956 				"/>
				<path style="fill:#FFFFFF;stroke:#263238;stroke-linecap:round;stroke-linejoin:round;stroke-miterlimit:10;" d="
					M215.312,393.83l-0.121,6.813c-0.01,0.576-0.47,1.043-1.046,1.062l-3.757,0.124c-0.67,0.022-1.199-0.564-1.107-1.229
					l0.903-6.566L215.312,393.83z"/>
			</g>
			<g>
				<path style="fill:#FFFFFF;stroke:#263238;stroke-linecap:round;stroke-linejoin:round;stroke-miterlimit:10;" d="
					M185.556,273.452c0,0-16.005,31.025-16.441,33.643c-0.436,2.618,2.182,6.545,6.763,6.108c4.581-0.436,16.507-0.655,16.507-0.655
					l0.218-4.145l-13.744-1.745l8.29-6.545L185.556,273.452z"/>
				
					<line style="fill:none;stroke:#263238;stroke-linecap:round;stroke-linejoin:round;stroke-miterlimit:10;" x1="178.859" y1="306.659" x2="177.187" y2="309.931"/>
			</g>
			<g>
				<path style="fill:#FFFFFF;stroke:#263238;stroke-linecap:round;stroke-linejoin:round;stroke-miterlimit:10;" d="
					M228.585,272.779c0,0,16.123,31.698,16.559,34.316c0.436,2.618-2.182,6.545-6.763,6.108c-4.581-0.436-15.285-0.655-15.285-0.655
					l-0.218-4.145l7.432-1.745l-4.693-6.506L228.585,272.779z"/>
				
					<line style="fill:none;stroke:#263238;stroke-linecap:round;stroke-linejoin:round;stroke-miterlimit:10;" x1="230.31" y1="306.659" x2="237.073" y2="309.931"/>
			</g>
			<path style="fill:#FFFFFF;stroke:#263238;stroke-linecap:round;stroke-linejoin:round;stroke-miterlimit:10;" d="M200.76,265.286
				c0,0-5.249,2.779-10.497,5.557c-5.249,2.779-4.398,1.22-4.707,2.609c-0.309,1.389,1.774,49.568,1.774,49.568
				s3.973,3.907,14.511,4.94c15.746,1.544,22.538-3.396,22.538-3.396s4.028-48.744,4.028-50.442c0-1.698-6.498-4.977-10.666-6.983
				C213.572,265.131,208.941,263.433,200.76,265.286z"/>
			<path style="fill:#C6FF00;stroke:#263238;stroke-linecap:round;stroke-linejoin:round;stroke-miterlimit:10;" d="M187.33,323.02
				c0,0-1.389,15.437-0.926,17.444c0.463,2.007,5.249,5.249,14.974,5.557c9.725,0.309,21.92,0.772,24.853-2.779
				c2.933-3.551-1.852-18.679-1.852-18.679S198.444,326.724,187.33,323.02z"/>
			<g>
				<path style="fill:#263238;stroke:#263238;stroke-linecap:round;stroke-linejoin:round;stroke-miterlimit:10;" d="
					M208.009,235.059c0,0-5.027-2.97-10.281,2.742c-5.255,5.712,0.228,17.136,0.914,19.878c0.685,2.742-9.139,18.278-9.139,25.361
					c0,7.083,8.454,13.937,21.934,12.566c13.48-1.371,15.08-8.454,13.252-16.907c-1.828-8.454-3.884-17.364-3.884-21.02
					c0-3.656,3.199-11.881,0.228-19.878C218.062,229.804,210.751,232.089,208.009,235.059z"/>
				<g>
					<path style="fill:none;stroke:#808080;stroke-linecap:round;stroke-linejoin:round;stroke-miterlimit:10;" d="M200.698,259.049
						l6.169,5.94c0,0-6.397,15.308-7.083,19.421c-0.685,4.112,2.97,7.997,7.997,7.54c5.026-0.457,8.225-4.798,7.997-8.454
						c-0.229-3.656-3.884-18.735-3.884-18.735s4.798-2.285,7.768-7.083"/>
					<path style="fill:none;stroke:#263238;stroke-linecap:round;stroke-linejoin:round;stroke-miterlimit:10;" d="M206.867,264.99
						c0,0,0.229-1.599,5.027-0.229"/>
				</g>
			</g>
		</g>
		<g>
			<path style="fill:#263238;stroke:#263238;stroke-linecap:round;stroke-linejoin:round;stroke-miterlimit:10;" d="
				M187.104,401.432L187.104,401.432c-0.595-0.048-1.038-0.569-0.99-1.164l3.166-58.374l3.641,0.294l-4.652,58.254
				C188.22,401.037,187.699,401.48,187.104,401.432z"/>
			<path style="fill:#263238;stroke:#263238;stroke-linecap:round;stroke-linejoin:round;stroke-miterlimit:10;" d="
				M226.351,401.432L226.351,401.432c0.595-0.048,1.038-0.569,0.99-1.164l-3.166-58.374l-3.641,0.294l4.652,58.254
				C225.235,401.037,225.756,401.48,226.351,401.432z"/>
			<path style="fill:#263238;stroke:#263238;stroke-linecap:round;stroke-linejoin:round;stroke-miterlimit:10;" d="
				M230.084,295.939c-7.599,1.14-14.851,1.663-24.588,1.814c-8.258-0.149-15.388-0.668-23.002-1.811
				c-1.251-0.188-2.328,0.876-2.128,2.125c1.183,7.373,4.532,28.603,4.532,32.671c0,4.94-1.698,9.571-1.698,11.732
				c0,2.161,0.926,3.859,2.47,4.477c0.713,0.285,8.804,0.307,19.743,0.247c12.664,0.059,20.76,0.038,21.473-0.247
				c1.544-0.617,2.47-2.316,2.47-4.477c0-2.161-1.698-6.792-1.698-11.732c0-4.068,3.35-25.302,4.532-32.673
				C232.389,296.826,231.325,295.753,230.084,295.939z M222.162,341.168c-0.549,0.218-6.79,0.234-16.55,0.189
				c-8.431,0.045-14.668,0.029-15.217-0.189c-1.19-0.471-1.904-1.767-1.904-3.416c0-1.649,1.309-5.184,1.309-8.954
				c0-0.887-0.211-2.847-0.534-5.321l3.092,3.343c0.854,0.923,2.054,1.448,3.312,1.448h21.198c1.178,0,2.309-0.461,3.152-1.283
				l3.225-3.148c-0.296,2.303-0.487,4.118-0.487,4.962c0,3.77,1.309,7.304,1.309,8.954
				C224.066,339.401,223.352,340.697,222.162,341.168z M226.25,303.863c-0.518,3.196-1.575,9.805-2.391,15.489l-3.134,1.908
				c-1.725,1.05-3.707,1.606-5.727,1.606h-17.222c-1.964,0-3.892-0.525-5.584-1.521l-3.506-2.062
				c-0.815-5.667-1.865-12.234-2.381-15.418c-0.154-0.953,0.676-1.765,1.64-1.622c5.869,0.872,11.364,1.269,17.729,1.382
				c7.505-0.116,13.095-0.515,18.952-1.385C225.583,302.098,226.403,302.917,226.25,303.863z"/>
		</g>
	</g>
</g>
<g id="Character_1">
	<g>
		<g>
			<g>
				<polygon style="fill:#FFFFFF;stroke:#263238;stroke-linecap:round;stroke-linejoin:round;stroke-miterlimit:10;" points="
					109.057,264.373 109.057,256.037 120.944,256.037 120.944,264.99 				"/>
				<path style="fill:#FFFFFF;stroke:#263238;stroke-linecap:round;stroke-linejoin:round;stroke-miterlimit:10;" d="
					M103.191,245.385c0,0-1.852-0.463-1.852,2.47s2.47,4.94,3.396,4.785c0.926-0.154-0.463-5.712-0.617-6.792
					C103.963,244.768,103.191,245.385,103.191,245.385z"/>
				<path style="fill:#FFFFFF;stroke:#263238;stroke-linecap:round;stroke-linejoin:round;stroke-miterlimit:10;" d="
					M126.354,245.385c0,0,1.852-0.463,1.852,2.47s-2.47,4.94-3.396,4.785c-0.926-0.154,0.463-5.712,0.618-6.792
					C125.582,244.768,126.354,245.385,126.354,245.385z"/>
				<path style="fill:#263238;stroke:#263238;stroke-linecap:round;stroke-linejoin:round;stroke-miterlimit:10;" d="
					M111.373,230.72c0,0-5.249,0.772-7.41,5.403c-2.161,4.631-0.618,11.115,0.154,14.819c0.772,3.705,3.859,7.255,6.175,8.027
					c2.315,0.772,9.416,0,9.416,0s2.316-2.161,4.477-6.02c2.161-3.859,2.47-11.115,1.544-15.283
					c-0.926-4.168-4.168-8.336-6.638-8.645c-2.47-0.309-4.785,2.007-4.785,2.007S113.38,230.411,111.373,230.72z"/>
				<path style="fill:#FFFFFF;stroke:#263238;stroke-linecap:round;stroke-linejoin:round;stroke-miterlimit:10;" d="
					M122.642,262.829c0,0-8.953-1.389-12.967-0.772c-4.014,0.617-6.483,5.557-6.483,5.557s4.785-1.544,10.034-1.544
					c5.249,0,12.504,0.926,12.504,0.926S124.494,264.373,122.642,262.829z"/>
				<g>
					<g>
						<path style="fill:#FFFFFF;stroke:#263238;stroke-linecap:round;stroke-linejoin:round;stroke-miterlimit:10;" d="
							M88.835,277.494c0,0-17.003,26.842-17.439,29.46c-0.436,2.618,2.182,6.545,6.763,6.108c4.581-0.436,21.597-0.654,21.597-0.654
							l0.218-4.145l-13.743-1.745l8.29-6.545L88.835,277.494z"/>
						
							<line style="fill:none;stroke:#263238;stroke-linecap:round;stroke-linejoin:round;stroke-miterlimit:10;" x1="86.23" y1="306.517" x2="79.467" y2="309.79"/>
					</g>
					<g>
						<path style="fill:#FFFFFF;stroke:#263238;stroke-linecap:round;stroke-linejoin:round;stroke-miterlimit:10;" d="
							M141.166,276.413c0,0,17.225,27.922,17.662,30.54c0.436,2.618-2.182,6.545-6.763,6.108
							c-4.581-0.436-21.597-0.654-21.597-0.654l-0.218-4.145l13.744-1.745l-8.29-6.545L141.166,276.413z"/>
						
							<line style="fill:none;stroke:#263238;stroke-linecap:round;stroke-linejoin:round;stroke-miterlimit:10;" x1="143.993" y1="306.517" x2="150.756" y2="309.79"/>
					</g>
					<path style="fill:#FFFFFF;stroke:#263238;stroke-linecap:round;stroke-linejoin:round;stroke-miterlimit:10;" d="
						M108.131,265.144c0,0-5.248,2.779-10.497,5.557c-5.249,2.779-8.49,5.403-8.799,6.792c-0.309,1.389,5.866,45.384,5.866,45.384
						s3.972,3.907,14.511,4.94c15.746,1.544,22.538-3.396,22.538-3.396s9.417-46.311,9.417-48.009c0-1.698-11.886-7.41-16.054-9.417
						C120.944,264.99,116.313,263.292,108.131,265.144z"/>
				</g>
			</g>
			<g>
				<g>
					<polygon style="fill:#C6FF00;stroke:#263238;stroke-linecap:round;stroke-linejoin:round;stroke-miterlimit:10;" points="
						85.748,335.691 104.118,394.404 109.212,393.786 101.648,334.302 					"/>
					<path style="fill:#FFFFFF;stroke:#263238;stroke-linecap:round;stroke-linejoin:round;stroke-miterlimit:10;" d="
						M104.118,394.404l1.207,6.706c0.102,0.567,0.631,0.955,1.202,0.881l3.728-0.478c0.665-0.085,1.093-0.749,0.897-1.39
						l-1.94-6.338L104.118,394.404z"/>
				</g>
				<g>
					<polygon style="fill:#C6FF00;stroke:#263238;stroke-linecap:round;stroke-linejoin:round;stroke-miterlimit:10;" points="
						142.382,335.691 124.012,394.404 118.918,393.786 126.482,334.302 					"/>
					<path style="fill:#FFFFFF;stroke:#263238;stroke-linecap:round;stroke-linejoin:round;stroke-miterlimit:10;" d="
						M124.012,394.404l-1.207,6.706c-0.102,0.567-0.631,0.955-1.202,0.881l-3.728-0.478c-0.665-0.085-1.093-0.749-0.897-1.39
						l1.94-6.338L124.012,394.404z"/>
				</g>
				<path style="fill:#C6FF00;stroke:#263238;stroke-linecap:round;stroke-linejoin:round;stroke-miterlimit:10;" d="
					M110.447,328.744c0,0-16.826-5.249-19.914-3.705c-3.087,1.544-6.175,5.557-5.094,10.034c1.081,4.477,10.343,9.88,12.349,10.034
					c2.007,0.154,12.813,0,12.813,0L110.447,328.744z"/>
				<path style="fill:#C6FF00;stroke:#263238;stroke-linecap:round;stroke-linejoin:round;stroke-miterlimit:10;" d="
					M118.717,328.744c0,0,16.826-5.249,19.914-3.705c3.087,1.544,6.175,5.557,5.094,10.034c-1.081,4.477-10.343,9.88-12.35,10.034
					c-2.007,0.154-12.812,0-12.812,0L118.717,328.744z"/>
				<path style="fill:#C6FF00;stroke:#263238;stroke-linecap:round;stroke-linejoin:round;stroke-miterlimit:10;" d="
					M94.701,322.878c0,0-1.389,15.437-0.926,17.444c0.463,2.007,5.248,5.249,14.974,5.557c9.725,0.309,21.92,0.772,24.853-2.779
					s-1.852-18.679-1.852-18.679S105.816,326.583,94.701,322.878z"/>
			</g>
		</g>
		<g>
			<path style="fill:#263238;stroke:#263238;stroke-linecap:round;stroke-linejoin:round;stroke-miterlimit:10;" d="M94.476,401.29
				L94.476,401.29c-0.595-0.048-1.038-0.569-0.99-1.164l3.165-58.374l3.641,0.294L95.64,400.3
				C95.592,400.895,95.071,401.339,94.476,401.29z"/>
			<path style="fill:#263238;stroke:#263238;stroke-linecap:round;stroke-linejoin:round;stroke-miterlimit:10;" d="M133.723,401.29
				L133.723,401.29c0.595-0.048,1.038-0.569,0.99-1.164l-3.166-58.374l-3.64,0.294l4.652,58.254
				C132.606,400.895,133.128,401.339,133.723,401.29z"/>
			<path style="fill:#263238;stroke:#263238;stroke-linecap:round;stroke-linejoin:round;stroke-miterlimit:10;" d="
				M137.417,295.798c-7.599,1.14-14.85,1.662-24.588,1.814c-8.258-0.149-15.388-0.668-23.002-1.811
				c-1.251-0.188-2.328,0.876-2.128,2.125c1.183,7.373,4.532,28.603,4.532,32.671c0,4.94-1.698,9.571-1.698,11.732
				c0,2.161,0.926,3.859,2.47,4.477c0.713,0.285,8.804,0.306,19.743,0.247c12.664,0.059,20.76,0.038,21.473-0.247
				c1.544-0.617,2.47-2.316,2.47-4.477c0-2.161-1.698-6.792-1.698-11.732c0-4.068,3.349-25.302,4.532-32.673
				C139.722,296.684,138.658,295.612,137.417,295.798z M129.495,341.027c-0.549,0.218-6.79,0.234-16.55,0.189
				c-8.431,0.045-14.668,0.029-15.217-0.189c-1.19-0.471-1.904-1.767-1.904-3.417c0-1.649,1.309-5.184,1.309-8.954
				c0-0.887-0.211-2.847-0.534-5.321l3.092,3.343c0.854,0.923,2.054,1.448,3.312,1.448h21.198c1.178,0,2.309-0.461,3.151-1.283
				l3.225-3.148c-0.296,2.303-0.487,4.118-0.487,4.962c0,3.77,1.309,7.304,1.309,8.954
				C131.399,339.26,130.685,340.556,129.495,341.027z M133.583,303.721c-0.518,3.196-1.574,9.806-2.391,15.489l-3.134,1.908
				c-1.725,1.05-3.707,1.606-5.727,1.606H105.11c-1.964,0-3.892-0.525-5.584-1.521l-3.506-2.062
				c-0.815-5.667-1.865-12.234-2.381-15.418c-0.154-0.953,0.676-1.765,1.64-1.622c5.869,0.872,11.364,1.269,17.729,1.382
				c7.505-0.116,13.095-0.515,18.951-1.385C132.917,301.957,133.737,302.776,133.583,303.721z"/>
		</g>
	</g>
</g>
<g id="Floor_1_">
	
		<line style="fill:none;stroke:#263238;stroke-linecap:round;stroke-linejoin:round;stroke-miterlimit:10;" x1="16" y1="402" x2="485" y2="402"/>
</g>
</svg>
