<?xml version="1.0" encoding="utf-8"?>
<!-- Generator: Adobe Illustrator 27.5.0, SVG Export Plug-In . SVG Version: 6.00 Build 0)  -->
<svg version="1.1" xmlns="http://www.w3.org/2000/svg" xmlns:xlink="http://www.w3.org/1999/xlink" x="0px" y="0px"
	 viewBox="0 0 1700 1270" style="enable-background:new 0 0 1700 1270;" xml:space="preserve">
<g id="background">
	<g>
		
			<rect x="215" y="-215" transform="matrix(-1.836970e-16 1 -1 -1.836970e-16 1485 -215)" style="fill:#FFFFFF;" width="1270" height="1700"/>
	</g>
</g>
<g id="shadow">
	<g style="opacity:0.11;">
		<path style="fill:#272525;" d="M441.712,1017.265c-30.659,0.488-61.316,0.859-91.964,0.951
			c-54.618,0.164-126.207-7.952-166.973,22.949c-20.527,15.558-13.771,46.586,18.789,52.087c9.214,1.557,19.134,1.386,27.777,4.036
			c8.645,2.65,15.493,9.866,10.696,15.377c-2.452,2.817-7.173,4.327-11.699,5.511c-28.623,7.485-60.347,8.435-88.822,16.169
			c-67.658,18.378-55.977,55.318,5.531,67.24c55.313,10.722,116.826,9.239,173.852,9.965
			c333.754,4.248,668.408,9.294,1000.312-5.028c71.58-3.089,142.745-6.99,214.016-10.627c32.617-1.662,73.441-5.998,73.57-15.714
			c0.09-6.766-21.443-11.81-42.668-14.451c-37.171-4.624-85.696-8.648-78.671-23.776c2.563-5.519,14.661-10.582,31.467-13.169
			c12.98-1.998,27.91-2.526,41.982-3.729c14.072-1.203,28.5-3.412,34.417-7.348c15.933-10.6-24.192-16.909-52.437-17.877
			c-33.829-1.159-61.411-8.609-49.749-19.851c8.123-7.83,34.563-13.127,42.603-20.964c3.233-3.152,3.229-6.542,1.08-9.773
			c-21.471-32.278-133.642-29.51-175.444-31.927c-77.335-4.47-155.018-5.324-232.597-5.724
			c-175.985-0.908-351.975,0.608-527.923,2.963C546.497,1015.257,494.101,1016.431,441.712,1017.265z"/>
	</g>
</g>
<g id="object">
	<g>
		<g>
			<polygon style="fill:#677B91;" points="499.433,360.632 519.112,391.732 526,504 568,574 546,583 478,522 488.285,445.166 			"/>
		</g>
		<g>
			<g>
				<g>
					<path style="fill:#273140;" d="M488.524,1024.022l24.247,15.544l8.414,12.355c0,0-8.623,4.32-13.469,5.525
						c-4.846,1.205-43.269-2.899-43.269-2.899l-1.041-22.5L488.524,1024.022z"/>
				</g>
				<g>
					<path style="fill:#273140;" d="M367.357,1040.993l11.984,13.436c0,0,9.749,18.213,4.86,17.934
						c-4.889-0.279-31.454,1.145-33.242-1.9c-1.788-3.045-15.895-13.66-17.738-15.727c-1.844-2.067,0.04-19.16,0.04-19.16
						L367.357,1040.993z"/>
				</g>
				<g>
					<path style="fill:#2E4661;" d="M435.879,683.564l-30.111,183.064l-38.411,174.365l-34.219-1.956l6.594-184.031
						c0,0-24.665-169.142-24.749-219.172L435.879,683.564z"/>
				</g>
				<g>
					<polygon style="fill:#2E4661;" points="511.421,692.588 497.646,1030.463 462.429,1032.092 443.701,860.419 416.431,708.923 
						489.212,615.188 					"/>
				</g>
				<g>
					<g>
						<polygon style="fill:none;" points="362.115,373.607 362.116,373.607 362.115,373.607 						"/>
					</g>
					<g>
						<path style="fill:#677B91;" d="M497.012,515.995c-0.495-91.733,30.988-129.62-3.748-162.03c0,0-61.017-30.644-108.044-9.344
							c-0.652,0.295-1.301,0.599-1.948,0.907l-21.157,28.079c0,0-39.201,137.111-39.201,137.111s-68.303,176.64-51.757,181.483
							c18.747,5.488,114.498-17.825,130.94-13.536c16.441,4.289,65.498,23.571,116.795,16.823
							C562.869,689.703,497.507,607.728,497.012,515.995z"/>
					</g>
				</g>
				<g>
					<polygon style="fill:#FFFFFF;" points="448.263,342.147 435.61,340.107 431.805,352.491 452.154,490.742 473.668,436.896 
						478.607,353.434 					"/>
				</g>
				<g>
					<polygon style="fill:#FFFFFF;" points="449.803,536.801 402.003,678.384 438.439,691.169 464.766,694.335 458.273,561.247 
											"/>
				</g>
				<g>
					<g>
						<path style="fill:#E7CAAD;" d="M465.383,349.771c-8.753-0.749-17.505-1.499-26.258-2.248
							c-0.179-7.004,0.203-14.021,1.14-20.964c-7.32-2.464-15.79-6.192-17.162-13.793c-0.432-2.394-0.05-4.852,0.332-7.254
							c1.579-9.932,0.066-20.396,4.738-29.796c1.548-3.115,1.129-6.972,2.953-9.933c3.201-5.197,9.518-7.536,15.517-8.661
							c15.309-2.87,32.074,0.23,44.107,10.12c3.202,2.632,6.109,5.809,7.557,9.693c2.233,5.989,0.712,12.648-0.828,18.851
							c-1.422,5.726-2.843,11.451-4.264,17.177c-1.635,6.585-4.022,14.079-10.312,16.624c-3.34,1.352-7.308,1.023-10.322,2.997
							C467.266,336.065,468.095,344.025,465.383,349.771z"/>
					</g>
					<g>
						<path style="fill:#3A3029;" d="M519.296,224.968c-1.932-0.429-3.901-0.923-5.877-1.883
							c-6.236-3.032-10.455-8.764-17.091-11.642c-13.423-5.822-30.568-5.779-44.206-0.705c-13.052,4.856-30.644,6.196-42.427,12.962
							c-4.92,2.825-8.819,7.19-11.838,11.993c-10.461,16.643-10.215,39.394,0.605,55.807c2.427,3.682,5.318,7.039,8.351,10.241
							c6.278,6.627,13.79,14.816,22.335,17.188c0.1-7.617-7.158-31.534-1.394-37.853c7.643-8.379,21.919-7.557,32.116-6.168
							c12.149,1.655,22.355-1.84,34.494-0.72c6.183,0.571,13.137,2.111,18.056-1.68c5.686-4.382,17.912-18.543,20.936-24.856
							c2.648-5.527,1.331-12.527-2.672-17.167C527.228,226.478,523.341,225.866,519.296,224.968z"/>
					</g>
				</g>
			</g>
		</g>
		<g>
			<g>
				<g>
					<path style="fill:#96432B;" d="M686.045,563.023l18.311-9.4c-1.857-13.868-5.066-27.572-9.614-40.95l-20.513-0.332
						c-23.305-0.378-37.117-26.221-24.483-45.807l11.121-17.24c-8.596-11.214-18.207-21.496-28.706-30.746l-17.989,10.001
						c-20.372,11.325-45.255-4.149-44.106-27.429l1.01-20.467c-6.461-2.651-13.08-5.015-19.849-7.068
						c-6.768-2.053-13.586-3.765-20.43-5.151l-10.532,17.578c-11.979,19.994-41.267,19.034-51.912-1.701L458.952,366
						c-13.868,1.857-27.572,5.066-40.95,9.614l-0.333,20.513c-0.378,23.305-26.221,37.117-45.807,24.483l-17.24-11.121
						c-11.214,8.596-21.496,18.207-30.746,28.706l10.001,17.99c11.325,20.372-4.149,45.255-27.429,44.107l-20.467-1.01
						c-2.651,6.461-5.015,13.08-7.068,19.848c-2.053,6.768-3.765,13.586-5.151,20.43l17.578,10.532
						c19.994,11.98,19.034,41.267-1.701,51.912l-18.311,9.401c1.857,13.868,5.066,27.572,9.614,40.95l20.513,0.332
						c23.305,0.378,37.118,26.221,24.483,45.807l-11.121,17.24c8.597,11.214,18.208,21.496,28.706,30.746l17.99-10.001
						c20.371-11.325,45.255,4.149,44.106,27.429l-1.01,20.467c6.461,2.651,13.08,5.015,19.849,7.068
						c6.768,2.053,13.585,3.765,20.43,5.151l10.532-17.578c11.979-19.994,41.266-19.034,51.912,1.701l9.4,18.311
						c13.868-1.857,27.572-5.066,40.95-9.614l0.333-20.513c0.378-23.305,26.221-37.118,45.807-24.483l17.24,11.121
						c11.214-8.596,21.496-18.207,30.746-28.706l-10.001-17.989c-11.325-20.372,4.149-45.255,27.429-44.107l20.467,1.01
						c2.651-6.461,5.015-13.08,7.068-19.849c2.053-6.768,3.765-13.585,5.151-20.43l-17.578-10.532
						C664.351,602.956,665.311,573.669,686.045,563.023z M527.689,492.403c2.329-7.678,11.254-11.149,18.147-7.042
						c27.43,16.345,46.325,43.455,52.743,73.955l-87.361,6.512c-0.73-1.021-1.528-2.009-2.409-2.95
						c-0.62-0.662-1.266-1.283-1.931-1.873L527.689,492.403z M419.388,492.453c20.933-15.885,47.16-24.332,74.191-22.939
						c8.023,0.413,13.532,8.251,11.199,15.939l-20.813,68.605c-2.718,0.368-5.394,1.126-7.942,2.276l-56.717-44.337
						C412.942,507.022,412.953,497.337,419.388,492.453z M505.115,582.513c0,9.539-7.733,17.272-17.272,17.272
						c-9.539,0-17.272-7.733-17.272-17.272s7.733-17.272,17.272-17.272C497.382,565.241,505.115,572.974,505.115,582.513z
						 M399.563,625.157c-6.777,4.749-16.155,1.604-18.825-6.228c-7.378-21.638-8.289-45.708-1.145-69.255
						c1.559-5.138,3.451-10.084,5.645-14.821c3.324-7.177,12.54-9.297,18.772-4.426l56.276,43.993
						c-0.856,2.926-1.239,5.963-1.145,8.992L399.563,625.157z M505.993,694.193c-16.519,2.698-33.893,1.758-50.991-3.429
						c-17.253-5.234-32.339-14.219-44.635-25.791c-5.705-5.369-5.031-14.63,1.385-19.126l58.255-40.818
						c5.414,4.299,12.048,6.374,18.647,6.19l26.769,66.138C518.391,684.693,513.802,692.918,505.993,694.193z M599.882,598.221
						c-0.806,5.714-2.06,11.439-3.788,17.134c-7.224,23.813-21.595,43.494-40.05,57.413c-6.446,4.862-15.771,2.179-18.8-5.306
						l-27.072-66.887c2.691-3.319,4.535-7.107,5.527-11.074l71.014-5.293C594.561,583.622,600.981,590.428,599.882,598.221z"/>
				</g>
			</g>
			<g style="opacity:0.16;">
				<g>
					<path style="fill:#2E4661;" d="M487.843,726.967c-79.652,0-144.454-64.802-144.454-144.454
						c0-79.652,64.802-144.454,144.454-144.454s144.454,64.802,144.454,144.454C632.297,662.166,567.495,726.967,487.843,726.967z
						 M487.843,466.57c-63.932,0-115.943,52.012-115.943,115.943s52.012,115.943,115.943,115.943s115.943-52.012,115.943-115.943
						S551.774,466.57,487.843,466.57z"/>
				</g>
			</g>
		</g>
		<g>
			<polygon style="fill:#7D8EA1;" points="387.79,343.145 254.223,411.561 248.902,455.943 350.372,543.684 368.673,520.523 
				312.964,442.452 385.283,418.893 401.851,363.977 			"/>
		</g>
		<g>
			<polygon style="fill:#E7CAAD;" points="555.103,597.936 570.504,593.993 576.555,585.426 559.99,570.409 547.29,580.142 			"/>
		</g>
		<g>
			<polygon style="fill:#E7CAAD;" points="366.774,522.926 387.086,531.992 387,547 376.93,560.244 362,551 355.811,536.801 			"/>
		</g>
		<g>
			<g>
				<g>
					<polygon style="fill:#B99A6F;" points="778.93,965.222 782.071,1010.139 773.058,1021.562 773.604,1029.374 796.698,1022.853 
						807.165,1018.196 799.102,954.684 					"/>
				</g>
				<g>
					<path style="fill:#273140;" d="M782.071,1010.139l-31.355,28.686l1.796,11.649l24.411-1.707l32.81-21.919l0.792-16.736
						l-3.134-2.724c0,0-30.222,16.832-32.243,15.992C773.127,1022.539,782.071,1010.139,782.071,1010.139z"/>
				</g>
				<g>
					<polygon style="fill:#B99A6F;" points="912.147,964.732 918.932,1009.244 910.878,1021.363 912.058,1029.104 934.544,1020.726 
						944.598,1015.233 942.9,952.123 					"/>
				</g>
				<g>
					<path style="fill:#273140;" d="M918.932,1009.244l-28.918,31.141l2.738,11.464l24.191-3.688l30.918-24.515l-0.572-16.745
						l-3.345-2.461c0,0-28.752,19.235-30.835,18.562C911.026,1022.331,918.932,1009.244,918.932,1009.244z"/>
				</g>
				<g>
					<polygon style="fill:#273140;" points="762.45,765.044 773.031,982.662 814.996,984.388 847.67,615.419 755.092,554.563 					
						"/>
				</g>
				<g>
					<polygon style="fill:#273140;" points="925.167,583.303 921.896,759.498 951.208,966.055 908.755,977.618 846.211,755.21 
						808.282,560.432 					"/>
				</g>
				<g>
					<path style="fill:#A0A4A9;" d="M750,382c0,0-31,21-34,36s5,60,17,95s21,137,9,169c35-12,89-37,140-37s73-60,73-60
						s-78-169-111-195S799,367,750,382z"/>
				</g>
				<g>
					<polygon style="fill:#C5CCCC;" points="789.441,367.821 794.155,367.174 802.575,498.721 766.304,448.883 750.753,391.027 
						753.984,381.482 					"/>
				</g>
				<g>
					<polygon style="fill:#273140;" points="788.483,367.649 792.857,368.435 801.534,503.911 825.041,442.655 813.097,433.736 
						827.46,401.549 793.083,362.154 					"/>
				</g>
				<g>
					<polygon style="fill:#273140;" points="757.659,381.347 753.903,382.451 769.137,441.227 802.932,500.67 751.348,453.597 
						756.323,435.812 734.616,427.908 750.644,378.307 					"/>
				</g>
				<g>
					<g>
						<path style="fill:#B99A6F;" d="M784.101,302.273c-21.634-33.423-66.477-7.761-68.35,27.242
							c-1.222,22.833,22.003,46.309,45.506,46.949c0.304,0.811,0.571,1.574,0.738,2.235c0.86,3.403,2.113,6.658,3.463,9.936
							c0.503,1.222,18.832-7.251,20.873-8.205c0.714-0.334,1.501-0.746,1.749-1.476c0.476-1.401-1.669-4.647-2.143-5.954
							c-0.56-1.544-1.119-3.088-1.679-4.632c9.534-7.986,13.581-20.962,12.644-32.917
							C795.961,323.441,790.602,312.316,784.101,302.273z"/>
					</g>
					<g>
						<g>
							<path style="fill:#363636;" d="M744.437,277.061c-1.935,3.268-2.043,7.183-1.916,10.885c0.076,2.211,0.232,4.479,1.197,6.447
								c3.85,7.851,11.97,5.376,18.995,6.471c8.665,1.35,16.937,5.742,23.065,11.644c9.596,9.241,9.995,24.095,10.201,36.863
								c0.073,4.499-0.337,11.317,3.905,14.294c4.31,3.025,11.914,0.506,15.438-2.475c3.22-2.724,5.403-6.825,9.265-8.5
								c4.088-1.773,10.318-1.327,11.331-5.733c0.282-1.226,0.003-2.569,0.453-3.739c1.521-3.955,8.362-1.462,11.093-4.662
								c1.68-1.968,0.893-5.079-0.409-7.371c-1.302-2.293-3.085-4.502-3.225-7.127c-0.121-2.257,1.011-4.345,1.485-6.543
								c0.936-4.342-0.97-9.221-4.606-11.79c-6.76-4.775-16.638-1.1-23.684-5.421c-3.671-2.251-5.873-6.265-7.974-10.06
								c-2.101-3.794-4.477-7.756-8.294-9.733c-4.716-2.443-10.162-0.478-14.983-3.567c-2.833-1.815-5.095-4.531-8.126-5.97
								c-3.995-1.897-11.004-2.378-15.477-2.741C755.077,267.659,748.099,270.876,744.437,277.061z"/>
						</g>
						<g>
							<path style="fill:#363636;" d="M728.39,342.944c2.759,12.083,11.96,23.603,9.045,35.564
								c-2.941,12.071-16.4,17.455-28.141,20.959c-1.931,0.576-26.188,8.536-26.689,8.512
								c-16.122-0.767-10.048-14.472-14.219-22.243c-5.996-11.172-20.33,2.305-23.55-8.991c2.315-1.02,2.8-4.284,1.901-6.711
								c-0.899-2.428-2.751-4.359-4.093-6.572c-3.299-5.439-3.218-12.761,0.199-18.006c6.818-10.466,23.749-11.022,28.995-22.401
								c3.253-7.057,0.574-15.455,1.261-23.255c1.329-15.082,15.822-21.764,25.637-30.861c10.361-9.603,20.764-16.038,35.192-17.167
								c17.886-1.399,34.991,12.92,32.449,31.019c-3.26,23.213-37.678,29.819-38.722,52.826
								C727.544,338.087,727.838,340.527,728.39,342.944z"/>
						</g>
					</g>
				</g>
			</g>
			<g>
				<polygon style="fill:#A9ADB3;" points="721.071,407.98 708,425 727,583 690,702 713,708 764,605 747,495 				"/>
			</g>
			<g>
				<g>
					<g>
						<g>
							<path style="fill:#578AB5;" d="M895.369,638.063l-1.792-17.575c-5.851-1.422-11.799-2.579-17.834-3.452
								c-6.035-0.873-12.067-1.448-18.081-1.742l-6.698,16.347c-7.619,18.594-32.706,21.573-44.466,5.28l-10.386-14.388
								c-11.58,3.381-22.844,7.892-33.657,13.502l2.376,17.527c2.699,19.912-17.538,35.035-35.869,26.805l-16.136-7.244
								c-8.444,8.781-15.962,18.305-22.485,28.453l10.856,14.037c12.294,15.895,2.33,39.11-17.661,41.149l-17.575,1.792
								c-1.422,5.851-2.579,11.799-3.452,17.834c-0.873,6.035-1.448,12.067-1.742,18.081l16.347,6.698
								c18.594,7.619,21.573,32.706,5.279,44.467l-14.388,10.386c3.381,11.58,7.892,22.844,13.502,33.657l17.527-2.375
								c19.913-2.699,35.035,17.537,26.805,35.869l-7.244,16.136c8.781,8.444,18.305,15.962,28.453,22.485l14.037-10.856
								c15.895-12.294,39.11-2.33,41.149,17.661l1.792,17.576c5.851,1.422,11.799,2.579,17.834,3.451
								c6.035,0.873,12.067,1.448,18.081,1.743l6.698-16.348c7.619-18.594,32.706-21.573,44.467-5.279l10.386,14.388
								c11.58-3.381,22.844-7.892,33.657-13.502l-2.376-17.527c-2.699-19.912,17.538-35.035,35.87-26.805l16.136,7.244
								c8.444-8.781,15.962-18.305,22.485-28.453l-10.856-14.037c-12.294-15.895-2.33-39.11,17.661-41.149l17.575-1.792
								c1.422-5.85,2.579-11.799,3.452-17.834s1.448-12.067,1.742-18.081l-16.347-6.698c-18.594-7.619-21.573-32.706-5.279-44.466
								l14.388-10.386c-3.381-11.58-7.892-22.844-13.502-33.657l-17.527,2.376c-19.912,2.699-35.035-17.537-26.805-35.869
								l7.244-16.136c-8.781-8.444-18.305-15.962-28.453-22.485l-14.036,10.856C920.623,668.018,897.408,658.054,895.369,638.063z
								 M925.072,814.36c-6.092,42.123-45.178,71.332-87.301,65.24c-42.123-6.092-71.332-45.178-65.241-87.301
								c6.092-42.123,45.178-71.332,87.301-65.241C901.955,733.15,931.164,772.237,925.072,814.36z"/>
						</g>
					</g>
				</g>
				<g style="opacity:0.29;">
					<g>
						<path style="fill:#A0A4A9;" d="M839.45,887.371c-46.341-5.156-79.847-47.052-74.691-93.392
							c5.156-46.341,47.052-79.847,93.392-74.691c46.341,5.156,79.847,47.052,74.691,93.392
							C927.687,859.021,885.791,892.527,839.45,887.371z M856.306,735.875c-37.195-4.139-70.821,22.754-74.96,59.949
							s22.755,70.821,59.949,74.96c37.195,4.138,70.821-22.755,74.96-59.949C920.394,773.64,893.501,740.013,856.306,735.875z"/>
					</g>
				</g>
			</g>
			<g>
				<polygon style="fill:#A9ADB3;" points="817.109,372.607 858,384 974,497 943,640 911,634 918.478,494.742 857,456 				"/>
			</g>
			<g>
				<path style="fill:#B99A6F;" d="M915,635l-19,26c0,0,8,18,9,19s16,0,16,0l1.964-18.984c0,0,5.798-1.714,6.417-1.365
					c0.619,0.349,3.986-21.457,3.986-21.457L915,635z"/>
			</g>
			<g>
				<polygon style="fill:#B99A6F;" points="690,702 716,698 727,713 703,731 690,727 686,708 				"/>
			</g>
		</g>
		<g>
			<g>
				<g>
					<polygon style="fill:#2E4661;" points="1267,395 1188,460 1112,408 1092,427 1163,504 1195,516 1236,499 					"/>
				</g>
				<g>
					<polygon style="fill:#2E4661;" points="1202.008,690.149 1202.008,818.136 1236.914,1024.661 1270.85,1024.661 
						1263.093,842.376 1285.394,693.058 					"/>
				</g>
				<g>
					<path style="fill:#2E4661;" d="M1267.237,395.247l72.332-24.283c0,0,21.805,63.87,45.027,165.552
						s-25.535,226.902-25.535,226.902s-160.17-47.291-192.226-55.393l50.489-180.864L1267.237,395.247z"/>
				</g>
				<g>
					<polygon style="fill:#2E4661;" points="1264.632,710.239 1370.664,1024.037 1406.275,1017.53 1373.477,841.792 
						1370.654,660.578 					"/>
				</g>
				<g>
					<g>
						<path style="fill:#B99A6F;" d="M1255.969,292.837c20.391,2.838,40.642-12.743,60.537-7.256
							c12.935,3.567,22.531,15.87,25.681,29.236c1.468,6.23,1.696,12.932-0.524,18.888c-1.44,3.866-3.856,7.277-6.633,10.267
							c-3.713,3.997-8.146,7.231-12.99,9.622c2.296,4.3,4.981,8.392,8.014,12.207c-9.684,3.005-14.364,23.833-24.049,26.839
							c-1.735-5.566-8.475-28.955-10.211-34.52c-2.832-0.342-5.637-0.93-8.364-1.83c-16.494-5.443-29.448-21.04-32.064-38.605
							C1254.141,309.455,1255.023,301.084,1255.969,292.837z"/>
					</g>
					<g>
						<polygon style="fill:#363636;" points="1260.741,299.354 1324.584,295.942 1333.736,345.134 1352.55,332.099 
							1348.474,252.314 1259.19,244.581 1219,264.777 1219.16,287.643 1252.264,313.193 						"/>
					</g>
				</g>
				<g>
					<path style="fill:#FFFFFF;" d="M1293.825,379.517l72.332-24.283c0,0,21.805,63.87,45.027,165.552
						c23.223,101.682-25.535,226.902-25.535,226.902s-141.274-79.523-173.33-87.625l31.593-148.632L1293.825,379.517z"/>
				</g>
				<g>
					<path style="fill:#9E6652;" d="M1255.104,517.418c-3.93,13.313-8.176,28.32-6.145,41.579c0,0,7.84,18.934,8.64,18.216
						c0.065-0.586,10.548-8.337,13.691-14.364c5.362-10.283,7.1-23.384,7.84-35.268c2.626-42.174,2.419-84.842,11.773-126.051
						c8.438-2.077,15.886-7.801,11.248-16.744c-16.488,5.259-20.156,41.536-24.484,56.198
						C1270.146,466.462,1262.625,491.94,1255.104,517.418z"/>
				</g>
				<g>
					<polygon style="fill:#363636;" points="1236.914,1024.661 1206.856,1038.035 1206.856,1046.394 1240.792,1048.901 
						1271.819,1044.722 1270.85,1024.661 					"/>
				</g>
				<g>
					<polygon style="fill:#363636;" points="1375.41,1022.743 1362.607,1043.297 1353.948,1054.815 1365.319,1062.672 
						1391.535,1052.086 1411.11,1027.811 1405.055,1017.326 					"/>
				</g>
				<g>
					<path style="fill:#2E4661;" d="M1412.603,522.559c-23.142-103.175-44.897-167.976-44.897-167.976l-72.355,24.701l-0.135,0.361
						c1.346,4.237,2.763,8.455,3.957,12.741c4.714,16.918,7.94,34.244,9.552,51.756c2.833,30.779,1.613,62.203-1.007,92.969
						c-2.514,29.52-7.106,58.871-13.849,87.709c-8.915,38.123-21.844,75.041-37.857,110.587
						c65.14,17.129,141.796,37.362,141.796,37.362S1435.746,625.734,1412.603,522.559z"/>
				</g>
			</g>
			<g>
				<g>
					<path style="fill:#EECA41;" d="M1266.332,555.873c-16.684-6.445-19.786-28.715-5.499-39.474l12.616-9.501
						c-3.217-10.244-7.434-20.186-12.621-29.707l-15.554,2.43c-17.671,2.76-31.493-14.975-24.5-31.436l6.155-14.489
						c-7.966-7.355-16.577-13.874-25.724-19.496l-12.295,9.914c-13.923,11.226-34.761,2.778-36.935-14.974l-1.912-15.608
						c-5.232-1.16-10.546-2.082-15.932-2.75c-5.386-0.668-10.765-1.071-16.121-1.225l-5.666,14.667
						c-6.445,16.684-28.715,19.786-39.474,5.499l-9.501-12.616c-10.244,3.217-20.186,7.435-29.707,12.622l2.43,15.554
						c2.76,17.671-14.975,31.493-31.436,24.5l-14.489-6.155c-7.355,7.966-13.873,16.577-19.496,25.724l9.914,12.295
						c11.226,13.923,2.778,34.761-14.975,36.936l-15.607,1.911c-1.16,5.232-2.082,10.546-2.75,15.932
						c-0.668,5.386-1.071,10.765-1.225,16.121l14.667,5.666c16.683,6.445,19.786,28.714,5.499,39.474l-12.617,9.502
						c3.217,10.243,7.435,20.186,12.622,29.707l15.554-2.43c17.671-2.76,31.493,14.975,24.5,31.437l-6.155,14.488
						c7.966,7.355,16.577,13.874,25.724,19.496l12.295-9.914c13.923-11.226,34.761-2.778,36.936,14.974l1.912,15.608
						c5.232,1.16,10.545,2.082,15.932,2.75c5.386,0.668,10.765,1.072,16.121,1.225l5.666-14.668
						c6.445-16.684,28.714-19.786,39.474-5.5l9.502,12.617c10.243-3.217,20.186-7.434,29.707-12.621l-2.43-15.554
						c-2.76-17.671,14.975-31.493,31.436-24.5l14.489,6.155c7.356-7.966,13.874-16.577,19.496-25.724l-9.914-12.295
						c-11.226-13.923-2.778-34.761,14.975-36.935l15.608-1.912c1.159-5.231,2.082-10.545,2.75-15.932
						c0.668-5.386,1.071-10.765,1.225-16.121L1266.332,555.873z M1117.955,489.973c0.302,0.037,0.602,0.077,0.902,0.118
						c3.084,0.423,4.951,3.634,3.798,6.525l-9.551,23.947c-4.092,10.26-15.727,15.26-25.986,11.168l-27.602-11.008
						c-3.074-1.226-3.997-5.118-1.826-7.617C1072.165,496.442,1094.403,487.052,1117.955,489.973z M1123.847,552.137
						c1.235,7.529-5.182,13.945-12.71,12.71c-4.559-0.748-8.236-4.425-8.984-8.984c-1.235-7.529,5.182-13.945,12.71-12.71
						C1119.422,543.901,1123.099,547.578,1123.847,552.137z M1041.444,549.601c0.254-2.048,0.601-4.061,1.031-6.039
						c0.625-2.872,3.716-4.469,6.446-3.38l30.047,11.983c10.26,4.092,15.26,15.727,11.168,25.986l-13.36,33.499
						c-1.147,2.877-4.7,3.949-7.216,2.143C1049.826,599.628,1038.244,575.406,1041.444,549.601z M1101.073,626.112
						c-0.02-0.003-0.041-0.005-0.061-0.008c-3.05-0.381-4.881-3.598-3.742-6.453l13.301-33.349
						c4.092-10.26,15.727-15.26,25.986-11.168l29.215,11.652c2.745,1.095,3.872,4.402,2.334,6.925
						C1154.505,616.028,1128.694,629.537,1101.073,626.112z M1181.505,563.225c-0.002,0.019-0.005,0.038-0.007,0.057
						c-0.357,2.858-3.371,4.573-6.047,3.506l-31.25-12.464c-9.614-3.835-14.299-14.737-10.465-24.351l10.918-27.377
						c1.026-2.572,4.125-3.628,6.489-2.187C1172.056,513.157,1184.715,537.342,1181.505,563.225z"/>
				</g>
				<g style="opacity:0.29;">
					<g>
						<path style="fill:#2E4661;" d="M1102,636c-43.722-3.97-73.606-40.555-69.635-84.277c3.97-43.722,42.771-76.062,86.493-72.091
							c46.367,4.211,76.084,42.531,72.092,86.493C1186.978,609.846,1145.722,639.97,1102,636z M1119.869,467.038
							c-50.732-4.607-95.753,32.918-100.36,83.649c-4.607,50.732,32.918,95.753,83.649,100.359
							c50.732,4.607,95.753-32.918,100.359-83.649C1208.125,516.666,1170.601,471.645,1119.869,467.038z"/>
					</g>
				</g>
			</g>
			<g>
				<polygon style="fill:#334E66;" points="1373.517,378.307 1391.983,438.06 1348,540 1197,566 1188.496,536.801 1310.282,489.444 
					1331,395 				"/>
			</g>
			<g>
				<polygon style="fill:#B99A6F;" points="1189.25,539.838 1174,538 1163,549 1166.836,563.353 1178.667,567.191 1195.379,560.432 
									"/>
			</g>
			<g>
				<polygon style="fill:#B99A6F;" points="1113,404 1102,400 1083,411 1087,426 1104,437 1118,424 				"/>
			</g>
		</g>
	</g>
</g>
</svg>
