<?xml version="1.0" encoding="utf-8"?>
<!-- Generator: Adobe Illustrator 27.5.0, SVG Export Plug-In . SVG Version: 6.00 Build 0)  -->
<svg version="1.1" xmlns="http://www.w3.org/2000/svg" xmlns:xlink="http://www.w3.org/1999/xlink" x="0px" y="0px"
	 viewBox="0 0 750 500" style="enable-background:new 0 0 750 500;" xml:space="preserve">
<g id="BACKGROUND">
</g>
<g id="OBJECTS">
	<g>
		<path style="fill:#B1CBDB;" d="M664.349,326.938c0-17.967-119.333-32.532-266.538-32.532s-266.539,14.565-266.539,32.532
			c0,5.672,11.895,11.004,32.801,15.646c-47.265,5.87-76.423,13.92-76.423,22.8c0,17.967,119.333,32.532,266.538,32.532
			s266.538-14.565,266.538-32.532c0-5.671-11.895-11.004-32.801-15.646C635.192,343.868,664.349,335.819,664.349,326.938z"/>
		<polygon style="fill:#B1CBDB;" points="312.415,341.725 338.706,373.233 563.106,343.115 571.526,332.33 624.099,310.061 
			528.537,299.184 		"/>
		<g>
			<g>
				<path style="fill:#3D6EBE;" d="M426.315,232.155c2.448,0.604,120.617,17.688,122.343,18.115
					c3.212,0.793,3.841,3.004,4.599,6.224l19.221,73.393l-10.124,12.679l-122.235-16.948l-20.363-76.273
					c-0.12-0.447-0.143-0.919-0.256-1.368C415.784,233.132,422.336,231.172,426.315,232.155z"/>
				<path style="opacity:0.23;fill:#221248;" d="M540.957,263.482l12.683-5.525l18.838,71.93l-10.124,12.679l-122.235-16.948
					l-20.363-76.273c-0.12-0.447-0.143-0.919-0.256-1.368c-0.126-0.504-0.238-0.991-0.341-1.466L540.957,263.482z"/>
				<g>
					<path style="fill:#221248;" d="M572.64,331.638l-17.578-74.723c-0.757-3.22-3.192-5.852-6.403-6.646
						c-3.979-0.983-9.418,0.285-6.761,16.406c0.075,0.457,0.136,0.921,0.256,1.368l20.363,76.272L572.64,331.638z"/>
					<path style="fill:#221248;" d="M572.64,331.638l-17.578-74.723c-0.757-3.22-3.192-5.852-6.403-6.646
						c-3.979-0.983-9.418,0.285-6.761,16.406c0.075,0.457,0.136,0.921,0.256,1.368l20.363,76.272L572.64,331.638z"/>
				</g>
				<path style="fill:#F3C7A1;" d="M571.526,332.33l-17.477-75.321c-3.299-9.285-14.809-6.454-10.837,9.545
					c0.112,0.449,0.13,0.921,0.24,1.37l19.654,75.191L571.526,332.33z"/>
				<polygon style="opacity:0.23;fill:#221248;" points="479.51,253.742 489.861,256.699 517.957,337.119 501.053,335.245 				"/>
			</g>
			<g>
				<path style="fill:#221248;" d="M506.507,327.264c-1.141-2.969-41.102-148.184-41.907-150.278
					c-1.498-3.895-4.363-4.335-8.513-4.777l-94.882,2.269l-14.277,14.664l40.429,135.539l98.665,13.495
					c0.579,0.079,1.173,0.035,1.753,0.105C506.941,340.599,508.363,332.09,506.507,327.264z"/>
				<path style="opacity:0.23;fill:#221248;" d="M449.275,188.702l4.921-16.742l-92.99,2.518l-14.277,14.664l40.429,135.539
					l98.665,13.495c0.579,0.079,1.173,0.035,1.753,0.105c0.651,0.079,1.278,0.143,1.888,0.197L449.275,188.702z"/>
				<g>
					<path style="fill:#221248;" d="M358.989,174.551l96.287-4.534c4.149,0.442,7.827,3.075,9.324,6.97
						c1.856,4.826,1.124,11.832-19.471,11.042c-0.584-0.022-1.174-0.026-1.753-0.105l-98.665,1.292L358.989,174.551z"/>
					<path style="fill:#221248;" d="M358.989,174.551l96.287-4.534c4.149,0.442,7.827,3.075,9.324,6.97
						c1.856,4.826,1.124,11.832-19.471,11.042c-0.584-0.022-1.174-0.026-1.753-0.105l-98.665,1.292L358.989,174.551z"/>
				</g>
				<path style="fill:#F3C7A1;" d="M358.298,176.053l97.02-4.755c12.14,2.669,10.407,17.521-10.243,15.064
					c-0.58-0.069-1.174-0.018-1.752-0.085l-97.2,2.01L358.298,176.053z"/>
				<polygon style="opacity:0.5;fill:#221248;" points="423.319,206.423 431.452,194.048 448.457,230.083 479.28,298.453 
					482.316,340.454 413.891,326.79 				"/>
			</g>
			<g>
				<g>
					<g>
						<path style="fill:#EDB74A;" d="M332.42,372.579l6.07,0.696l143.508-33.085c1.732-0.401,1.557-2.469-0.231-2.735
							l-139.909-20.774l-141.5,19.226"/>
						<path style="fill:#F3C7A1;" d="M466.804,299.036c0,0-3.197,29.076,4.323,41.334l-136.949,32.092l-11.435-18.721l13.933-25.318
							L466.804,299.036z"/>
						<g>
							<g style="opacity:0.57;">
								<polygon style="fill:#F9EDDD;" points="330.759,335.132 458.795,309.33 331.04,336.489 330.759,335.132 								"/>
							</g>
							<g style="opacity:0.57;">
								<polygon style="fill:#F9EDDD;" points="329.582,341.836 460.287,314.369 329.874,343.191 329.582,341.836 								"/>
							</g>
							<g style="opacity:0.57;">
								<polygon style="fill:#F9EDDD;" points="329.275,349.92 463.244,321.763 329.566,351.275 329.275,349.92 								"/>
							</g>
							<g style="opacity:0.57;">
								<polygon style="fill:#F9EDDD;" points="328.542,355.834 464.278,328.822 328.82,357.192 328.542,355.834 								"/>
							</g>
							<g style="opacity:0.57;">
								<polygon style="fill:#F9EDDD;" points="328.544,361.009 461.88,334.878 328.818,362.368 328.544,361.009 								"/>
							</g>
							<g style="opacity:0.57;">
								<polygon style="fill:#F9EDDD;" points="330.758,366.185 461.176,339.862 331.04,367.542 330.758,366.185 								"/>
							</g>
						</g>
						<path style="opacity:0.52;fill:#F3C7A1;" d="M466.419,301.766l-0.217,4.47l-101.982,26.878
							c-14.571,3.207-26.404,14.336-30.723,26.23c-1.333,3.673-1.948,7.523-1.215,11.262l-8.481-24.341l3.805-14.174
							L466.419,301.766z"/>
						<path style="fill:#A56F11;" d="M330.983,369.567l150.742-31.788c0.807-0.173,1.582,0.402,1.652,1.224l0,0
							c0.057,0.68-0.395,1.299-1.06,1.451L333.25,373.981L330.983,369.567z"/>
						<path style="fill:#A56F11;" d="M355.054,310.597l-17.334,20.404l141.832-30.192c0.524-0.112,0.923-0.539,0.998-1.069l0,0
							c0.116-0.819-0.566-1.53-1.389-1.448L355.054,310.597z"/>
						<g>
							<path style="fill:#EDB74A;" d="M317.621,335.427l20.849-6.347l3.321-1.011l137.488-29.616
								c0.283-0.061,0.264-0.471-0.023-0.506L320.99,278.832l-141.5,19.226"/>
							<path style="opacity:0.63;fill:#EDB74A;" d="M317.621,335.427l20.849-6.347l3.321-1.011l137.488-29.616
								c0.283-0.061,0.264-0.471-0.023-0.506L320.99,278.832l-141.5,19.226"/>
						</g>
						<path style="fill:#EDB74A;" d="M341.792,328.069c0,0-18.745,11.866-7.995,42.253c0.591,1.669-0.871,3.344-2.602,2.97
							l-156.098-33.656c-2-0.431-3.76-1.614-4.895-3.316c-4.561-6.838-13.982-25.196,6.63-36.874
							c1.617-0.916,3.511-1.23,5.338-0.892L341.792,328.069z"/>
						<path style="fill:#EDB74A;" d="M327.048,332.895l14.743-4.826l3.576-0.909c0,0-18.078,14.735-6.662,46.073l-5.456,0.748
							l-6.479-18.603L327.048,332.895z"/>
					</g>
				</g>
				<path style="fill:#EDB74A;" d="M185.985,310.672l-8.197,7.165l105.053,28.324l39.373-15.749
					c5.785-2.314,11.697-4.299,17.706-5.946l80.88-22.167l-56.63,0.241L185.985,310.672z"/>
				<g>
					<g>
						<g>
							<path style="fill:#F9EDDD;" d="M180.361,282.446l-23.828-1.733c0,0,6.196,14.551,1.095,32.111l122.237,20.593l18.36-12.832
								l-0.479-23.675c0,0-3.265-8.719-5.304-8.469C290.402,288.69,180.361,282.446,180.361,282.446z"/>
							<path style="opacity:0.38;fill:#F3C7A1;" d="M168.947,278.759l-11.42,3.891l116.392,23.13
								c2.379,0.473,3.872,3.872,3.027,7.122c-1.184,4.555-4.968,9.954-16.133,10.59l-47.286-3.397l68.583,12.533l15.257-20.095
								l1.091-17.995l-33.11-3.102L168.947,278.759z"/>
							<polyline style="fill:#3D6EBE;" points="280.344,294.302 283.854,303.411 153.719,281.458 152.949,278.633 282.405,294.779 
															"/>
							<polyline style="fill:#3D6EBE;" points="294.329,326.902 281.838,331.013 155.309,310.333 155.423,313.97 279.865,333.417 
								295.734,328.19 							"/>
							<polyline style="opacity:0.18;fill:#3D6EBE;" points="280.344,294.302 283.854,303.411 153.719,281.458 152.949,278.633 
								282.405,294.779 							"/>
							<polyline style="opacity:0.18;fill:#3D6EBE;" points="294.329,326.902 281.838,331.013 155.309,310.333 155.423,313.97 
								279.865,333.417 295.734,328.19 							"/>
							<polygon style="fill:#3D6EBE;" points="305.518,313.852 281.557,300.358 152.949,278.633 304.203,257.439 421.18,270.861 
								394.686,285.419 							"/>
							<path style="fill:#3D6EBE;" d="M281.557,300.358c0,0,12.804,16.684-1.693,33.059l140.936-31.118
								c0,0,17.849-18.245,0.379-31.438L281.557,300.358z"/>
							<path style="fill:#3D6EBE;" d="M281.557,300.358c0,0,12.804,16.684-1.693,33.059l140.936-31.118
								c0,0,17.849-18.245,0.379-31.438L281.557,300.358z"/>
							<path style="opacity:0.39;fill:#3D6EBE;" d="M281.557,300.358c0,0,12.804,16.684-1.693,33.059l140.936-31.118
								c0,0,17.849-18.245,0.379-31.438L281.557,300.358z"/>
						</g>
						<g>
							
								<line style="opacity:0.97;fill:none;stroke:#F9EDDD;stroke-width:0.5067;stroke-miterlimit:10;" x1="159.612" y1="284.793" x2="281.949" y2="306.145"/>
							
								<line style="opacity:0.97;fill:none;stroke:#F9EDDD;stroke-width:0.5067;stroke-miterlimit:10;" x1="159.727" y1="287.487" x2="281.789" y2="308.687"/>
							
								<line style="opacity:0.97;fill:none;stroke:#F9EDDD;stroke-width:0.5067;stroke-miterlimit:10;" x1="159.842" y1="290.181" x2="281.63" y2="311.228"/>
							
								<line style="opacity:0.97;fill:none;stroke:#F9EDDD;stroke-width:0.5067;stroke-miterlimit:10;" x1="159.957" y1="292.875" x2="281.47" y2="313.77"/>
							
								<line style="opacity:0.97;fill:none;stroke:#F9EDDD;stroke-width:0.5067;stroke-miterlimit:10;" x1="160.072" y1="295.57" x2="281.31" y2="316.312"/>
							
								<line style="opacity:0.97;fill:none;stroke:#F9EDDD;stroke-width:0.5067;stroke-miterlimit:10;" x1="160.187" y1="298.264" x2="281.15" y2="318.853"/>
							
								<line style="opacity:0.97;fill:none;stroke:#F9EDDD;stroke-width:0.5067;stroke-miterlimit:10;" x1="160.302" y1="300.958" x2="280.991" y2="321.395"/>
							
								<line style="opacity:0.97;fill:none;stroke:#F9EDDD;stroke-width:0.5067;stroke-miterlimit:10;" x1="160.416" y1="303.652" x2="280.831" y2="323.937"/>
							
								<line style="opacity:0.97;fill:none;stroke:#F9EDDD;stroke-width:0.5067;stroke-miterlimit:10;" x1="160.531" y1="306.346" x2="280.671" y2="326.479"/>
							
								<line style="opacity:0.97;fill:none;stroke:#F9EDDD;stroke-width:0.5067;stroke-miterlimit:10;" x1="160.646" y1="309.04" x2="280.511" y2="329.02"/>
						</g>
					</g>
					<path style="opacity:0.71;fill:#3D6EBE;" d="M278.405,272.226l-26.925,6.138l136.033-0.585l41.743,8.126
						c0,0-2.98-19.594-5.937-21.813C420.361,261.875,278.405,272.226,278.405,272.226z"/>
				</g>
				<g>
					<g>
						<path style="fill:#7FC2B5;" d="M158.65,258.104c0.818,3.348,2.262,6.897,4.54,10.604c4.501,7.324,12.597,10.193,21.192,10.062
							l207.883-1.011l16.431-48.808l-226.377-0.538C166.71,228.38,154.944,242.94,158.65,258.104z"/>
						<path style="opacity:0.34;fill:#7FC2B5;" d="M408.697,228.951l-216.001-0.513l0.302,0.399c0,0,159.399,2.63,188.91,48.952
							l6.025-0.03L408.697,228.951z"/>
						<path style="fill:#F3C7A1;" d="M445.389,228.96c0,0-15.219,30.604,0.909,46.903l-55.288,1.801
							c-2.299,0.075-4.495-0.967-5.87-2.811c-5.807-7.785-18.658-29.511,4.175-45.531L445.389,228.96z"/>
						<g>
							<defs>
								<path id="SVGID_1_" d="M445.389,228.96c0,0-15.219,30.604,0.909,46.903l-58.468,0.059c0,0-26.805-26.751,1.485-46.6
									L445.389,228.96z"/>
							</defs>
							<clipPath id="SVGID_00000003820651096577878060000005924500544622175367_">
								<use xlink:href="#SVGID_1_"  style="overflow:visible;"/>
							</clipPath>
							<g style="clip-path:url(#SVGID_00000003820651096577878060000005924500544622175367_);">
								<g>
									<polygon style="fill:#F3C7A1;" points="362.954,232.151 442.474,231.234 362.973,233.226 362.954,232.151 									"/>
								</g>
								<g>
									<polygon style="fill:#F3C7A1;" points="362.847,235.836 442.365,234.742 362.869,236.91 362.847,235.836 									"/>
								</g>
								<g>
									<polygon style="fill:#F3C7A1;" points="362.741,239.52 442.257,238.25 362.766,240.594 362.741,239.52 									"/>
								</g>
								<g>
									<polygon style="fill:#F3C7A1;" points="362.635,243.204 442.149,241.757 362.662,244.279 362.635,243.204 									"/>
								</g>
								<g>
									<polygon style="fill:#F3C7A1;" points="362.528,246.889 442.04,245.265 362.558,247.963 362.528,246.889 									"/>
								</g>
								<g>
									<polygon style="fill:#F3C7A1;" points="362.422,250.573 441.932,248.773 362.454,251.647 362.422,250.573 									"/>
								</g>
								<g>
									<polygon style="fill:#F3C7A1;" points="362.316,254.258 441.824,252.281 362.35,255.332 362.316,254.258 									"/>
								</g>
								<g>
									<polygon style="fill:#F3C7A1;" points="362.21,257.942 441.715,255.788 362.246,259.016 362.21,257.942 									"/>
								</g>
								<g>
									<polygon style="fill:#F3C7A1;" points="362.103,261.627 441.607,259.296 362.142,262.7 362.103,261.627 									"/>
								</g>
								<g>
									<polygon style="fill:#F3C7A1;" points="361.997,265.311 441.499,262.804 362.038,266.385 361.997,265.311 									"/>
								</g>
								<g>
									<polygon style="fill:#F3C7A1;" points="361.891,268.995 441.39,266.312 361.934,270.069 361.891,268.995 									"/>
								</g>
								<g>
									<polygon style="fill:#F3C7A1;" points="361.784,272.68 441.282,269.819 361.83,273.753 361.784,272.68 									"/>
								</g>
								<g>
									<polygon style="fill:#F3C7A1;" points="361.678,276.364 441.174,273.327 361.726,277.438 361.678,276.364 									"/>
								</g>
							</g>
						</g>
						<path style="opacity:0.46;fill:#D0859F;" d="M403.029,236.308l39.454-0.133c1.502-4.384,2.905-7.214,2.905-7.214
							l-50.017,0.324c-4.389,0.028-8.59,1.895-11.484,5.195c-17.518,19.977,2.886,40.343,2.886,40.343l0,0l0,0
							c1.222-0.036,2.785,1.701,2.365,0.554C382.606,257.536,381.947,236.504,403.029,236.308z"/>
						<path style="fill:#7FC2B5;" d="M449.936,275.687c-0.764-0.741-1.437-1.52-2.07-2.316l-56.004,2.015
							c-2.131,0.077-4.147-0.952-5.338-2.72c-5.635-8.368-13.869-25.611,1.252-39.799c1.411-1.324,3.278-2.061,5.212-2.089
							l55.512-0.79c0.36-0.771,0.585-1.207,0.585-1.207l-56.909,0.519c0.002-0.001,0.004-0.003,0.005-0.004l-0.305,0.003
							c-1.664,0.016-3.279,0.562-4.611,1.56l0,0c-18.507,14.684-9.362,33.464-3.45,42.136c2.037,2.987,5.421,4.763,9.036,4.719
							l1.633-0.02C394.481,277.691,449.936,275.687,449.936,275.687z"/>
					</g>
					<path style="fill:#EDB74A;" d="M371.564,229.343l-10.203,0.159c-23.808,24.979,0.417,48.456,0.417,48.456l9.046-0.217
						C370.222,277.084,346.426,248.566,371.564,229.343z"/>
					<path style="fill:#EDB74A;" d="M192.553,229.343l-10.117,0.159c-17.154,24.979-1.801,48.456-1.801,48.456l10.123-0.217
						C190.156,277.084,173.416,251.524,192.553,229.343z"/>
				</g>
				<g>
					<g>
						<g>
							<path style="fill:#AF5099;" d="M369.658,190.157H173.104c-2.278,0-4.124-1.847-4.124-4.124v-42.767
								c0-2.278,1.847-4.124,4.124-4.124h196.553c2.278,0,4.124,1.847,4.124,4.124v42.767
								C373.782,188.311,371.935,190.157,369.658,190.157z"/>
							<rect x="168.98" y="140.774" style="opacity:0.45;fill:#AF5099;" width="204.164" height="2.079"/>
							<rect x="168.98" y="186.446" style="opacity:0.45;fill:#AF5099;" width="204.164" height="2.079"/>
							<rect x="184.506" y="139.141" style="opacity:0.45;fill:#AF5099;" width="21.441" height="50.276"/>
							<rect x="211.863" y="139.141" style="opacity:0.45;fill:#AF5099;" width="9.612" height="50.276"/>
							<rect x="353.819" y="139.141" style="opacity:0.45;fill:#AF5099;" width="9.612" height="50.276"/>
						</g>
						<path style="opacity:0.45;fill:#AF5099;" d="M370.424,139.141h-26.658c0.442,34.75-44.377,48.029-63.467,48.029H169.282
							c0.527,1.758,1.693,2.987,3.055,2.987h198.086c1.855,0,3.358-2.268,3.358-5.066v-40.884
							C373.782,141.41,372.279,139.141,370.424,139.141z"/>
					</g>
				</g>
				<g>
					<g>
						<g>
							<g>
								<g>
									<path style="fill:#D0859F;" d="M289.9,136.918l105.445-29.57l1.482,0l0.246-1.638l-117.413-1.626l-82.543,3.153
										l-0.398,0.014c-0.007,0-0.014,0.002-0.02,0.002l-0.057,0.002c-2.894,0.166-5.536,2.787-6.987,6.942
										c-0.006,0.018-0.011,0.035-0.017,0.053c-0.007,0.02-0.015,0.038-0.022,0.058c-0.041,0.119-0.07,0.233-0.109,0.352
										c-0.16,0.482-0.312,0.96-0.445,1.43c-0.061,0.214-0.111,0.423-0.166,0.635c-0.1,0.384-0.195,0.765-0.277,1.141
										c-0.049,0.225-0.093,0.447-0.136,0.67c-0.069,0.356-0.132,0.708-0.186,1.056c-0.034,0.218-0.067,0.435-0.095,0.649
										c-0.046,0.351-0.082,0.695-0.114,1.037c-0.018,0.196-0.039,0.394-0.053,0.587c-0.027,0.383-0.041,0.757-0.051,1.128
										c-0.004,0.14-0.013,0.284-0.014,0.422c-0.005,0.505,0.004,0.999,0.028,1.482c0.005,0.099,0.016,0.193,0.022,0.291
										c0.024,0.382,0.053,0.759,0.093,1.127c0.018,0.165,0.041,0.324,0.062,0.486c0.038,0.294,0.078,0.585,0.125,0.868
										c0.011,0.066,0.018,0.137,0.029,0.202c0.019,0.11,0.045,0.215,0.066,0.324c0.046,0.241,0.094,0.479,0.145,0.712
										c0.029,0.127,0.058,0.253,0.088,0.378c0.481,2.014,1.169,3.747,1.887,5.161c1.482,2.919,3.679,4.57,5.979,4.511
										l82.648-0.236l0.053,0.083l117.937,1.334l0.031-2.579L289.9,136.918z"/>
									<path style="opacity:0.35;fill:#D0859F;" d="M289.9,136.918l105.445-29.57l1.482,0l0.246-1.638l-117.413-1.626
										l-82.543,3.153l-0.398,0.014c-0.007,0-0.014,0.002-0.02,0.002l-0.057,0.002c-2.894,0.166-5.536,2.787-6.987,6.942
										c-0.006,0.018-0.011,0.035-0.017,0.053c-0.007,0.02-0.015,0.038-0.022,0.058c-0.041,0.119-0.07,0.233-0.109,0.352
										c-0.16,0.482-0.312,0.96-0.445,1.43c-0.061,0.214-0.111,0.423-0.166,0.635c-0.1,0.384-0.195,0.765-0.277,1.141
										c-0.049,0.225-0.093,0.447-0.136,0.67c-0.069,0.356-0.132,0.708-0.186,1.056c-0.034,0.218-0.067,0.435-0.095,0.649
										c-0.046,0.351-0.082,0.695-0.114,1.037c-0.018,0.196-0.039,0.394-0.053,0.587c-0.027,0.383-0.041,0.757-0.051,1.128
										c-0.004,0.14-0.013,0.284-0.014,0.422c-0.005,0.505,0.004,0.999,0.028,1.482c0.005,0.099,0.016,0.193,0.022,0.291
										c0.024,0.382,0.053,0.759,0.093,1.127c0.018,0.165,0.041,0.324,0.062,0.486c0.038,0.294,0.078,0.585,0.125,0.868
										c0.011,0.066,0.018,0.137,0.029,0.202c0.019,0.11,0.045,0.215,0.066,0.324c0.046,0.241,0.094,0.479,0.145,0.712
										c0.029,0.127,0.058,0.253,0.088,0.378c0.481,2.014,1.169,3.747,1.887,5.161c1.482,2.919,3.679,4.57,5.979,4.511
										l82.648-0.236l0.053,0.083l117.937,1.334l0.031-2.579L289.9,136.918z"/>
									<path style="fill:#F3C7A1;" d="M394.684,139.917c0,0-5.834-16.391,0.741-32.533l-111.087-1.235
										c-3.552-0.129-6.954,0.358-9.143,4.288c-1.599,2.87-2.876,6.857-2.679,12.169c0.032,0.864,0.091,1.683,0.175,2.459
										c0.814,7.583,5.427,13.245,10.831,13.668L394.684,139.917z"/>
									<path style="opacity:0.96;fill:#F9EDDD;" d="M271.038,122.419c0.032-0.883,0.091-1.719,0.175-2.512
										c0.814-7.745,5.427-13.528,10.831-13.961l113.381,1.008c0,0-1.984,3.574-2.675,9.043l-107.387-1.151
										c-5.404,0.433-10.017,6.216-10.831,13.961c-0.083,0.793-0.143,1.629-0.175,2.512c-0.065,1.777,0.031,3.407,0.243,4.901
										c-0.312-0.411-0.607-0.866-0.882-1.372C272.117,131.916,270.841,127.844,271.038,122.419z"/>
									<g>
										<g style="opacity:0.76;">
											<polygon style="fill:#F9EDDD;" points="278.532,131.807 390.013,133.805 278.519,132.762 278.532,131.807 											"/>
										</g>
										<g style="opacity:0.76;">
											<polygon style="fill:#F9EDDD;" points="275.587,128.9 390.049,130.999 275.574,129.855 275.587,128.9 											"/>
										</g>
										<g style="opacity:0.76;">
											<polygon style="fill:#F9EDDD;" points="275.394,126.086 390.085,128.193 275.381,127.041 275.394,126.086 											"/>
										</g>
										<g style="opacity:0.76;">
											<polygon style="fill:#F9EDDD;" points="274.51,123.249 387.83,124.724 274.502,124.204 274.51,123.249 											"/>
										</g>
										<g style="opacity:0.76;">
											<polygon style="fill:#F9EDDD;" points="275.466,120.474 390.158,122.58 275.453,121.429 275.466,120.474 											"/>
										</g>
										<g style="opacity:0.76;">
											<polygon style="fill:#F9EDDD;" points="274.585,117.637 390.194,119.774 274.572,118.592 274.585,117.637 											"/>
										</g>
										<g style="opacity:0.76;">
											<polygon style="fill:#F9EDDD;" points="275.08,114.846 390.23,116.968 275.066,115.801 275.08,114.846 											"/>
										</g>
										<g style="opacity:0.76;">
											<polygon style="fill:#F9EDDD;" points="276.033,112.071 390.266,114.162 276.02,113.026 276.033,112.071 											"/>
										</g>
										<g style="opacity:0.76;">
											<polygon style="fill:#F9EDDD;" points="278.821,109.358 390.302,111.356 278.808,110.313 278.821,109.358 											"/>
										</g>
									</g>
								</g>
							</g>
							<path style="fill:#D0859F;" d="M277.601,104.27c0.253-0.216,0.21,0.197,0.327-0.107l-81.208,3.088
								c-2.942,0.169-5.64,2.821-7.103,7.057c-1.827,5.291-1.935,9.851-1.285,13.562c1.174,6.704,5.001,11.167,9.21,11.059
								l79.896-0.191C269.797,135.379,264.788,115.23,277.601,104.27z"/>
						</g>
					</g>
				</g>
				<g>
					<g>
						<g>
							<path style="fill:#DA6A2C;" d="M427.56,229.343H198.009c-2.149,0-3.891-1.742-3.891-3.891v-31.403
								c0-2.149,1.742-3.891,3.891-3.891H427.56c2.149,0,3.891,1.742,3.891,3.891v31.403
								C431.452,227.601,429.71,229.343,427.56,229.343z"/>
							<rect x="194.118" y="193.115" style="fill:#DA6A2C;" width="236.594" height="4.436"/>
							<rect x="194.118" y="221.949" style="fill:#DA6A2C;" width="236.594" height="4.436"/>
						</g>
						<path style="opacity:0.19;fill:#DA6A2C;" d="M427.56,190.157h-30.893c-3.898,20.992-22.295,36.892-44.417,36.892H194.468
							c0.611,1.35,1.963,2.294,3.541,2.294H427.56c2.149,0,3.891-1.742,3.891-3.891v-31.403
							C431.452,191.899,429.71,190.157,427.56,190.157z"/>
					</g>
				</g>
				<polygon style="opacity:0.46;fill:#D0859F;" points="417.404,250.045 412.228,244.13 410.702,277.223 415.258,277.678 				"/>
				<g>
					<polygon style="fill:#AF5099;" points="412.228,244.13 423.319,244.13 423.319,291.034 412.228,286.274 					"/>
					<rect x="412.228" y="244.13" style="opacity:0.29;fill:#AF5099;" width="11.09" height="1.479"/>
				</g>
				<path style="opacity:0.52;fill:#F3C7A1;" d="M407.969,333.489l-10.974-1.704c0,0,8.133,11.946,9.835,21.294l6.606-0.456
					L407.969,333.489z"/>
				<g>
					<path style="fill:#3D6EBE;" d="M394.484,332.114c0,0,8.42-4.638,14.931,21.341l86.361,23.76l-0.739-8.133l17.745-0.739
						l-76.154-19.963c0,0-5.915-21.441-16.266-22.181L394.484,332.114z"/>
					<path style="opacity:0.13;fill:#3D6EBE;" d="M396.995,331.785c0,0,8.128,0.866,12.42,21.669l27.212-5.075
						c0,0-5.176-19.963-16.266-22.181L396.995,331.785z"/>
				</g>
			</g>
		</g>
	</g>
</g>
<g id="TEXTS">
	
		<text transform="matrix(0.9663 -0.2034 0.0114 0.9999 312.3184 318.5893)" style="fill:#7FC2B5; font-family:'Amatic-Bold'; font-size:25.2753px; letter-spacing:1.013;">mythology</text>
	
		<text transform="matrix(1.0656 0.0026 -0.0025 1 198.2678 264.6238)" style="fill:#FFFFFF; font-family:'Amatic-Bold'; font-size:36.7196px; letter-spacing:2.815;"> modern art</text>
	
		<text transform="matrix(1.0656 0.0026 -0.0025 1 245.0732 216.8103)" style="fill:#DA6A2C; font-family:'Amatic-Bold'; font-size:22.1221px; letter-spacing:0.938;">art of photography</text>
	
		<text transform="matrix(1.0656 0 0 1 229.0478 177.9736)" style="fill:#D0859F; font-family:'Amatic-Bold'; font-size:37.1077px; letter-spacing:2.815;">biology</text>
	<text transform="matrix(1.0656 -6.393600e-04 6.000000e-04 1 208.3273 133.1745)"><tspan x="0" y="0" style="fill:#AF5099; font-family:'Amatic-Bold'; font-size:27.0563px; letter-spacing:1.877;">P</tspan><tspan x="16.45" y="-2.14" style="fill:#AF5099; font-family:'Amatic-Bold'; font-size:27.0563px; letter-spacing:1.877;">o</tspan><tspan x="33.469" y="-1.998" style="fill:#AF5099; font-family:'Amatic-Bold'; font-size:27.0563px; letter-spacing:1.877;">e</tspan><tspan x="49.188" y="-2.711" style="fill:#AF5099; font-family:'Amatic-Bold'; font-size:27.0563px; letter-spacing:1.877;">m</tspan><tspan x="73.917" y="-2.283" style="fill:#AF5099; font-family:'Amatic-Bold'; font-size:27.0563px; letter-spacing:1.877;">s</tspan></text>
</g>
</svg>
