<?xml version="1.0" encoding="utf-8"?>
<!-- Generator: Adobe Illustrator 27.5.0, SVG Export Plug-In . SVG Version: 6.00 Build 0)  -->
<svg version="1.1" id="Layer_1" xmlns="http://www.w3.org/2000/svg" xmlns:xlink="http://www.w3.org/1999/xlink" x="0px" y="0px"
	 viewBox="0 0 3000 2000" style="enable-background:new 0 0 3000 2000;" xml:space="preserve">
<rect style="fill:#FFFFFF;" width="3000" height="2000"/>
<g>
	<g>
		<g>
			<path style="fill:#EDDAD3;" d="M2880.298,781.864c0,0-83.201,37.85-112.765,30.577c-13.668-3.362-31.671-22.231-48.776-44.411
				c-5.641-7.304-11.17-14.969-16.433-22.558c-0.015-0.015-0.015-0.031-0.015-0.031c-20.986-30.301-37.436-59.349-37.436-59.349
				s-62.034-72.7-12.254-105.106c0,0,18.065-6.771,34.656,11.012c16.604,17.779,36.081,54.98,40.434,64.466
				c4.351,9.475,65.285,97.367,68.443,99.344c3.16,1.981,29.783-5.024,51.135-6.802c34.81-2.907,27.902-4.373,27.902-4.373
				L2880.298,781.864z"/>
		</g>
		<rect x="2639.508" y="669.259" style="fill:#E8734D;" width="240.79" height="177.098"/>
		<rect x="2639.508" y="669.259" style="fill:#C96443;" width="240.79" height="79.529"/>
		<path style="fill:#E8734D;" d="M2423.231,1181.713l-19.526-3.408c-29.526-5.152-49.286-33.267-44.134-62.793l22.197-127.197
			c5.154-29.527,33.269-49.287,62.795-44.135l19.526,3.409c29.526,5.152,49.286,33.266,44.135,62.797l-22.197,127.193
			C2480.873,1167.105,2452.759,1186.865,2423.231,1181.713z"/>
		<g>
			<g>
				<path style="fill:#EEA886;" d="M2886.707,706.919c0,0-29.823-6.713-37.882-0.475s2.576,9.246,2.576,9.246
					s-10.47-3.152-13.744,4.766c-3.274,7.919,9.356,10.794,9.356,10.794s-8.549-0.299-8.776,8.658c-0.228,8.958,10.757,9,10.757,9
					s-12.157,6.176-3.434,13.491c14.73,12.351,36.436,7.599,36.436,7.599s5.1-1.642,4.711-10.284c0,0,12.839-3.175,7.224-17.11
					c0,0,10.072-11.122-0.557-18.017C2893.374,724.589,2903.377,712.114,2886.707,706.919z"/>
			</g>
		</g>
		<g>
			<path style="fill:#202338;" d="M2732.012,1675.587c0,0,22.979,24.129,46.305,29.184c23.326,5.055,39.644,11.503,39.818,25.348
				c0.176,13.845-67.128,22.971-93.824,9.013c-39.838-20.834-43.889-14.554-48.306-24.967c-4.416-10.413,5.306-38.259,5.019-41.57
				C2680.669,1668.504,2732.012,1675.587,2732.012,1675.587z"/>
		</g>
		<g>
			<path style="fill:#2F6B8C;" d="M2729.43,1664.045c0,0,3.033,11.305,2.582,11.542c-0.449,0.236-52.564,6.078-50.988-2.993
				c1.277-7.354,3.104-15.351,3.104-15.351L2729.43,1664.045z"/>
		</g>
		<g>
			<path style="fill:#202338;" d="M2472.458,1681.879c0,0,16.901,23.503,39.512,28.924c22.293,5.342,36.739,15.518,37.831,28.974
				c1.091,13.456-52.56,31.075-90.254,7.441c-24.77-15.53-34.008-14.647-38.996-24.516c-4.99-9.868,2.613-37.527,2.113-40.729
				C2422.045,1678.011,2472.458,1681.879,2472.458,1681.879z"/>
		</g>
		<g>
			<path style="fill:#2F6B8C;" d="M2471.768,1670.26c0,0,1.114,11.357,0.69,11.619c-0.422,0.261-50.09,9.047-49.794,0.093
				c0.235-7.113,3.147-15.958,3.147-15.958L2471.768,1670.26z"/>
		</g>
		<g>
			<path style="fill:#323657;" d="M2676.865,985.201c0,0,24.135,175.305,33.992,234.568
				c11.523,69.292,15.431,126.543,18.645,162.409c4.041,45.107,1.798,275.955,4.629,289.143c2.828,13.19-57.069,6.334-57.069,6.334
				s-43.927-300.948-55.968-348.986c-11.211-44.733-42.049-229.144-52.277-216.929c-10.229,12.214-43.355,222.287-50.93,257.565
				c-7.576,35.277-38.17,313-38.17,313s-50.911,11.059-64.801,0c0,0,3.104-247.643,7.931-313.786
				c1.841-25.208-15.944-301.767,26.681-413.294C2472.053,896.286,2676.865,985.201,2676.865,985.201z"/>
		</g>
		<path style="fill:#EDDAD3;" d="M2606.057,564.768c0,0,63.862,13.203,71.438,19.916c8.227,7.144,22.735,77.089,23.601,96.573
			c0.866,19.483-7.699,100.873-15.925,131.177c-8.226,30.309-6.349,188.496-2.666,213.385c0,0-125.063,25.942-251.488,9.49
			c0,0,18.819-138.275,13.759-179.803c-6.482-53.205-22.081-175.787-22.081-175.787s16.891-82.537,28.147-92.059
			c11.258-9.525,89.513-25.024,89.513-25.024L2606.057,564.768z"/>
		<path style="fill:#C2B2AB;" d="M2463.851,731.336c0,0-12.061,78.486-11.216,83.518
			C2453.479,819.886,2398.032,799.091,2463.851,731.336z"/>
		<path style="fill:#EEA886;" d="M2579.656,367.299c0,0,76.818-28.426,72.017,73.661c-4.801,102.087-22.805,112.461-73.338,98.203
			c-50.534-14.257-54.768-78.689-61.35-109.683C2510.405,398.487,2554.536,371.758,2579.656,367.299z"/>
		<path style="fill:#EEA886;" d="M2618.704,580.932c0,0-39.906,32.368-78.35-18.296c0,0,1.692-41.096-10.066-79.479
			c-11.76-38.383,80.439,51.182,80.439,51.182c-0.967,0.681-1.153,4.517-0.601,9.868c0.469,4.538,1.463,10.156,2.959,15.861
			C2616.454,572.9,2615.668,570.62,2618.704,580.932z"/>
		<path style="fill:#163342;" d="M2527.665,480.114c0,0-0.22-27.27,11.121-29.78c11.339-2.51,17.183,13.254,17.183,13.254l9.13-0.49
			c0,0-8.162-27.636,2.65-33.971c10.812-6.335,75.488-0.771,83.605-10.075c8.117-9.304-3.654-64.563-21.301-69.983
			c-17.646-5.425-65.848-16.425-96.458,10.833c0,0-27.42,0.179-27.359,33.04C2506.277,414.651,2518.437,465.327,2527.665,480.114z"
			/>
		<path style="fill:#A77860;" d="M2613.086,560.067c-59.544-10.008-68.443-43.87-68.576-44.399
			c23.147,29.85,65.617,28.538,65.617,28.538C2610.596,548.744,2611.59,554.362,2613.086,560.067z"/>
		<path style="fill:#EEA886;" d="M2551.624,438.753c-3.394-8.993-22.554-7.86-20.593,6.401
			c1.963,14.262,17.797,36.224,24.156,32.107C2561.546,473.141,2556.301,451.159,2551.624,438.753z"/>
		<path style="fill:#EEA886;" d="M2519.636,567.009c0,0,36.015,72.797,89.033,66.906c53.019-5.891,22.287-56.688,17.219-64.793
			C2625.888,569.122,2594.075,548.705,2519.636,567.009z"/>
		<path style="fill:#C2B2AB;" d="M2452.635,814.854c0,0,61.17,65.003,81.22,80.837c0,0-73.313-97.414-78.901-107.877
			C2454.953,787.814,2435.862,790.253,2452.635,814.854z"/>
		<path style="fill:#E8734D;" d="M2676.685,583.686c-10.107-5.934-20.463-6.977-20.463-6.977
			c0.267,0.771,28.002,84.125,10.554,183.687c-23.03,131.415-111.574,242.098-256.056,320.078l8.394,15.553
			c83.354-44.99,148.696-100.207,194.212-164.121c36.554-51.33,60.442-108.293,71.007-169.312
			C2702.313,658.706,2677.826,586.979,2676.685,583.686z"/>
		<g>
			<g>
				<g>
					<g>
						<g>
							<path style="fill:#EEA886;" d="M2594.68,995.14c0,0-5.9-0.498-8.373-1.977c0,0-4.295-3.031-7.478-5.004
								c-1.012-0.622-1.906-1.14-2.521-1.416c-2.563-1.152-8.531-2.911-13.911-7.405c-5.374-4.483-23.583-29.807-23.583-29.807
								l10.894-13.729l8.366-14.304c0,0,42.39,6.561,47.882,10.16c0.535,0.358,1.051,0.728,1.508,1.113
								c4.354,3.502,6.123,7.935,8.2,10.032c0.758,0.774,7.773,8.985,7.219,12.164c-0.765,4.417-3.084,7.164-5.897,8.39
								c0,0-1.877,8.576-6.514,12.242c0,0-1.477,7.965-8.543,10.884C2601.928,986.481,2599.522,994.396,2594.68,995.14z"/>
						</g>
					</g>
				</g>
			</g>
		</g>
		<path style="fill:#EDDAD3;" d="M2486.002,585.897c8.376,3.242,17.247,23.503,10.65,63.241
			c-7.078,42.632-21.153,60.843-26.812,70.805c-5.657,9.966-36.776,71.393-31.182,79.471c5.591,8.082,58.421,60.202,61.479,64.447
			c3.058,4.246,62.042,57.637,62.042,57.637l-30.029,41.963c0,0-127.368-99.488-137.307-109.418
			c-9.938-9.935-39.64-30.803-28.653-65.501c11.166-35.267,31.233-117.828,34.798-124.279
			C2404.554,657.807,2430.633,564.456,2486.002,585.897z"/>
	</g>
	<g>
		<g>
			<path style="fill:#223247;" d="M793.331,408.982c0,0-16.136-35.304-48.75-19.837c-32.61,15.465-27.234,62.304-15.129,82.087
				c12.103,19.785,55.392,49.034,41.313,84.673c-14.078,35.639-31.898,63.207-31.898,63.207s87.413-3.951,97.166-50.391
				C845.781,522.284,793.331,408.982,793.331,408.982z"/>
		</g>
		<path style="fill:#F08D29;" d="M967.808,827.646c-2.649-12.944-4.714-12.508-6.176-31.205
			c-1.461-18.701-3.331-108.048-3.769-119.043c-0.439-10.996-2.549-62.773-14.406-84.419
			c-12.113-22.112-51.411-35.482-51.411-35.482s20.324,108.451,20.097,130.982c-0.069,6.78,2.096,19.112,5.23,33.31
			c0.023,0.11,0.046,0.223,0.069,0.337c0.658,3.128,0.68,5.803,0.384,8.237c-0.996,8.102-5.611,13.521-2.776,24.157l-0.058,5.678
			c0.281,1.061,0.565,2.13,0.846,3.203c3.995,15.338,7.691,31.693,9.418,39.029c0.362,1.523,0.639,2.659,0.811,3.313
			c2.646,9.917-0.584,4.642,4.111,29.478C930.18,835.222,972.919,852.594,967.808,827.646z"/>
		<path style="fill:#8E4F3A;" d="M745.574,898.373c0,0-33.603,43.691-42.72,95.526c-9.114,51.834,5.383,225.806,4.988,251.425
			c-0.396,25.617-24.232,89.369-19.463,137.627c4.765,48.26,44.524,291.213,44.524,291.213l31.295-5.768
			c0,0-3.73-252.081-0.75-272.337c2.981-20.257,8.956-94.096,10.148-102.437c1.192-8.341,75.646-227.365,75.646-264.736
			C849.242,991.515,826.603,837.404,745.574,898.373z"/>
		<path style="fill:#8E4F3A;" d="M914.382,915.454c0,0,55.211,210.711,61.764,239.906c6.553,29.193,16.048,53.271,16.048,65.666
			c0,28.76,11.145,84.162,11.145,84.162l60.148,339.665h-34.475c0,0-85.283-222.052-94.878-272.383
			c-7.387-38.738-8.791-87.391-14.752-104.072c-5.957-16.683-107.08-198.833-107.08-198.833S744.185,854.284,914.382,915.454z"/>
		<path style="fill:#292C47;" d="M992.193,1221.025c0,0-127.7,54.826-317.832,54.826c0,0,8.341-247.706,35.983-309.746
			c27.642-62.041,208.441-34.129,208.441-34.129S992.193,1169.045,992.193,1221.025z"/>
		<g>
			<path style="fill:#F08D29;" d="M934.164,710.116c-14.321,33.168-0.815,44.233-7.36,77.401c-6.561,33.168-6.549,123.6-5.33,142.03
				c1.243,18.42-179.622,64.473-217.701,30.892c0,0,9.906-34.687,22.412-71.703c1.549-4.57,3.134-9.183,4.745-13.765
				c6.207-17.674,12.806-34.956,18.989-48.359c4.003-8.678,6.111-47.285,1.604-58.754c-1.738-4.427-10.375-19.899-20.304-37.222
				c-4.157-7.22-8.529-14.778-12.729-21.977c-11.821-20.281-22.235-37.852-22.235-37.852s-10.51-85.387,11.644-102.585
				c7.572-5.876,21.316-10.489,35.783-14.128c5.43-1.356,10.983-2.577,16.332-3.673c16.64-3.443,31.449-5.676,35.783-7.178
				c9.41-3.278,36.809-4.705,56.064-1.84c0,0,29.476,13.921,39.713,15.969c10.24,2.048,49.965,53.655,56.926,72.479
				C955.472,648.695,948.5,676.95,934.164,710.116z"/>
		</g>
		<g>
			<path style="fill:#8E4F3A;" d="M865.935,507.388c0,0-0.742,6.782-1.63,16.348c-0.412,4.351-0.858,9.298-1.304,14.422
				c-1.242,15.34-2.307,32.399-1.715,40.929c0,0-30.653,30.68-65.479-35.835c0,0,14.659-27.423,3.611-64.798
				C788.375,441.079,865.935,507.388,865.935,507.388z"/>
		</g>
		<path style="fill:#8E4F3A;" d="M772.254,547.966c0,0,37.083,60.205,78.942,57.67c57.937-3.505,27.431-52.561,27.431-52.561
			s-14.421-8.27-18.482-9.05c-4.058-0.781-63.975-1.541-63.975-1.541L772.254,547.966z"/>
		<g>
			<path style="fill:#F08D29;" d="M749.523,559.274c0,0-38.636-6.676-59.737,27.698c-24.146,39.336-23.747,57.435-27.469,77.286
				c-3.518,18.745-15.06,48.925-16.521,54.188c-1.461,5.265-29.492,58.904-17.882,81.628
				c11.668,22.841,121.985,39.613,123.289,44.422c0.827,3.06,13.044-38.74,13.044-38.74s-16.217-3.448-31.872-8.62
				c-19.043-6.289-38.14-18.318-35.521-28.09c5.765-21.531,25.215-70.697,30.588-80.913
				C732.81,677.917,780.233,573.951,749.523,559.274z"/>
		</g>
		<path style="fill:#51578C;" d="M1034.183,1641.247c0,0,12.033-10.702,18.04-11.967c6.01-1.265,11.702-0.948,14.232,1.898
			c2.53,2.846,9.822,14.229,13.763,17.707c3.941,3.481,32.087,30.674,38.729,32.572c6.641,1.897,35.417,0.316,33.833,17.076
			c-1.581,16.759-24.981,24.032-66.721,20.236c-41.744-3.793-36.682-13.596-60.083-18.656c-23.4-5.059-24.98-16.759-20.87-30.989
			c4.111-14.23,20.685-28.388,18.97-32.182C1022.365,1633.15,1034.183,1641.247,1034.183,1641.247z"/>
		<path style="fill:#51578C;" d="M739.274,1671.599c0,0,13.329-6.049,22.208-5.733c8.879,0.318,7.926,5.759,10.149,9.063
			c2.218,3.306,23.15,35.017,28.857,40.726c5.707,5.706,26.003,11.732,23.15,26.003c-2.854,14.271-28.542,19.979-60.252,15.855
			c-31.714-4.122-47.254-33.613-52.327-40.273c-5.076-6.659,12.048-49.472,17.125-52.485
			C733.256,1661.742,739.274,1671.599,739.274,1671.599z"/>
		<path style="fill:#C9B9B3;" d="M948.735,667.434c0,0-8.449,30.246-15.371,45.243c-6.926,15-5.741,33.458-5.195,44.708
			c0.55,11.248,0.258,24.477-3.33,43.243c0,0,0.519,15.95,3.657,15.821C928.495,816.45,943.143,776.31,948.735,667.434z"/>
		<g>
			<path style="fill:#51578C;" d="M768.439,391.281c0,0-18.154,9.078-17.147,35.637c1.007,26.561,27.042,47.062,38.329,41.659
				C800.907,463.171,768.439,391.281,768.439,391.281z"/>
		</g>
		<g>
			<path style="fill:#8E4F3A;" d="M883.421,350.935c0,0,35.302,23.198,32.28,72.285c-3.026,49.086-19.5,98.173-29.588,102.544
				c-10.087,4.373-53.022-11.633-61.533-16.142c-9.641-5.104-26.331-23.643-29.691-29.359c-3.365-5.715-38.891-83.604-4.596-113.19
				C824.584,337.485,842.405,336.141,883.421,350.935z"/>
		</g>
		<g>
			<path style="fill:#223247;" d="M855.18,409.436c0,0,30.275,11.127,60.694,8.421c0,0,9.91-86.759-77-86.759
				c-86.91,0-74.135,86.742-72.454,98.51c1.681,11.768,17.609,54.032,36.221,63.823c0,0-6.634-44.658,5.807-52.726
				C820.889,432.634,848.792,422.884,855.18,409.436z"/>
		</g>
		<g>
			<path style="fill:#8E4F3A;" d="M826.269,431.289c-1.773-9.874-11.099-19.164-21.854-9.079
				c-10.76,10.087,7.395,35.302,15.128,33.958C827.276,454.825,828.622,444.401,826.269,431.289z"/>
		</g>
		<g>
			<path style="fill:#C44747;" d="M912.025,744.032H743.851c-0.964,0-1.746-0.782-1.746-1.746v-35.192
				c0-0.963,0.781-1.745,1.745-1.745h168.175V744.032z"/>
			<path style="fill:#E68E35;" d="M889.963,782.714H721.788c-0.964,0-1.745-0.781-1.745-1.745v-35.192
				c0-0.964,0.781-1.745,1.745-1.745h168.175V782.714z"/>
			<path style="fill:#58A668;" d="M912.025,821.397H743.85c-0.963,0-1.745-0.781-1.745-1.745v-35.192
				c0-0.964,0.781-1.745,1.745-1.745h168.175V821.397z"/>
			<path style="fill:#E55353;" d="M985.575,744.032H817.404c-0.964,0-1.745-0.781-1.745-1.746v-35.192
				c0-0.963,0.781-1.745,1.745-1.745h168.171V744.032z"/>
			<path style="fill:#FAE6DE;" d="M985.575,739.802H822.049c-0.964,0-1.745-0.781-1.745-1.745v-26.734
				c0-0.963,0.781-1.745,1.745-1.745h163.526V739.802z"/>
			<path style="fill:#5084C7;" d="M975.73,705.349H750.051c-1.116,0-2.021-0.904-2.021-2.021v-34.643
				c0-1.116,0.905-2.021,2.021-2.021H975.73V705.349z"/>
			<path style="fill:#5E9BEB;" d="M975.73,705.349h-95.052c-0.726,0-1.314-0.588-1.314-1.314v-36.056
				c0-0.726,0.588-1.314,1.315-1.314h95.051V705.349z"/>
			<path style="fill:#FAE6DE;" d="M975.73,701.119h-92.414c-0.725,0-1.314-0.588-1.314-1.313v-27.597
				c0-0.726,0.588-1.314,1.314-1.314h92.414V701.119z"/>
			<path style="fill:#FAA146;" d="M963.513,782.714H795.342c-0.964,0-1.745-0.781-1.745-1.745v-35.192
				c0-0.964,0.781-1.745,1.745-1.745h168.171V782.714z"/>
			<path style="fill:#6DBD7D;" d="M985.575,821.397H817.404c-0.964,0-1.745-0.781-1.745-1.745v-35.192
				c0-0.964,0.781-1.745,1.745-1.745h168.171V821.397z"/>
			<path style="fill:#FAE6DE;" d="M963.513,778.732H799.987c-0.963,0-1.745-0.781-1.745-1.745v-27.23
				c0-0.964,0.781-1.745,1.745-1.745h163.525V778.732z"/>
			<path style="fill:#FAE6DE;" d="M985.575,816.848H822.049c-0.964,0-1.745-0.781-1.745-1.745v-26.094
				c0-0.964,0.781-1.745,1.745-1.745h163.526V816.848z"/>
		</g>
		<g>
			<path style="fill:#8E4F3A;" d="M750.304,809.726c0,0-14.548,7.71-10.433,13.26c4.119,5.547,10.268,12.236,10.268,12.236
				L750.304,809.726z"/>
			<path style="fill:#8E4F3A;" d="M869.962,822.039l-69.158-7.274c6.314-2.915,16.57-8.233,14.706-11.287
				c-2.661-4.359-23.12,2.682-31.164,2.728c-7.368,0.044-17.051,4.174-18.628,4.867l-17.005-1.788l1.427,25.936
				c0,0,36.275,7.762,46.797,9.527c17.109,2.869,71.804-12.592,72.977-15.621C872.035,823.664,869.962,822.039,869.962,822.039z"/>
		</g>
		<path style="fill:#F08D29;" d="M764.247,805.755c0,0-6.08,31.758-16.217,45.16c0,0-66.247-23.906-82.699-30.059l41.317-36.348
			C706.649,784.509,729.518,798.083,764.247,805.755z"/>
		<path style="fill:#8E4F3A;" d="M977.299,807.751c0,0,1.181,24.669-13.64,30.117c-14.825,5.449-31.833,2.947-39.252-0.231
			c-7.418-3.179-26.234-12.607-20.343-19.924C922.98,794.238,977.299,807.751,977.299,807.751z"/>
		<path style="fill:#8E4F3A;" d="M972.631,824.858c0,0,19.19-0.283,17.432-7.195c-1.757-6.911-15.197-3.13-15.197-3.13
			L972.631,824.858z"/>
		<path style="fill:#613628;" d="M864.306,523.735c-0.412,4.351-0.858,9.298-1.304,14.422
			c-29.495-10.721-41.667-30.565-41.667-30.565C828.914,513.785,864.306,523.735,864.306,523.735z"/>
	</g>
	<g>
		<g>
			<g>
				<path style="fill:#424773;" d="M1686.441,1484.672c0,0-14.209,26.098-16.244,30.057c-2.034,3.957-43.289-18.849-43.289-18.849
					l8.652-34.141C1635.56,1461.739,1682.423,1478.754,1686.441,1484.672z"/>
			</g>
		</g>
		<g>
			<g>
				<path style="fill:#8B92DB;" d="M1671.963,1511.395c0,0,7.676,21.757,18.378,33.97c10.698,12.216,57.768,36.46,62.901,46.894
					c3.707,7.536,5.123,32.849-72.369,1.758c-55.057-22.089-83.648-27.316-86.291-38.46c-2.642-11.145,33.1-62.729,33.1-62.729
					S1638.211,1502.498,1671.963,1511.395z"/>
			</g>
		</g>
		<g>
			<path style="fill:#8B92DB;" d="M1269.367,1625.562c0,0-11.488,40.417-14.673,54.068c-3.186,13.654,1.588,49.376-1.596,63.027
				c-3.186,13.651-11.098,17.574-17.455,15.743c-6.358-1.83-22.558-7.214-36.362-23.482c-13.802-16.268-8.391-46.295-10.054-65.473
				c-1.557-17.955-9.529-27.435,5.98-42.362c19.976-19.228,22.648-30.244,22.648-30.244L1269.367,1625.562z"/>
		</g>
		<g>
			<path style="fill:#E3E3E3;" d="M1550.624,1061.003c0,0-7.019,78.864-14.014,126.09c-6.444,43.532-42.839,181.026-55.566,199.102
				c-23.166,32.899-75.973,87.821-86.918,102.269c-17.832,23.539-123.802,164.175-123.802,164.175s-29.726-6.582-68.649-43.513
				c0,0,110.552-125.156,127.04-162.186c12.525-28.131,66.678-109.182,66.417-122.22c-0.441-21.767,15.061-263.931,37.075-307.118
				C1454.22,974.416,1550.624,1061.003,1550.624,1061.003z"/>
		</g>
		<g>
			<path style="fill:#E3E3E3;" d="M1617.494,1014.085c0,0,137.672,124.796,154.55,153.128c16.878,28.332,27.73,31.951,20.496,62.093
				c-7.237,30.14-112.105,273.294-113.936,280.916c-2.012,8.382-55.473-16.79-60.295-17.393
				c-4.822-0.602,22.489-73.352,32.737-102.892c10.244-29.538,41.725-130.491,50.165-145.563
				c8.438-15.068-169.696-107.303-188.382-129.607C1494.141,1092.463,1521.04,988.968,1617.494,1014.085z"/>
		</g>
		<path style="fill:#D88A51;" d="M1626.908,1025.892c0,0-88.625,97.774-234.223,150.391l23.06-86.796L1626.908,1025.892z"/>
		<g>
			<path style="fill:#EEA886;" d="M1745.509,524.301c13.979-29.653,52.077-168.18,52.077-168.18l-30.215-3.748
				c0,0-20.058,34.288-43.305,96.997c-6.938,18.712-35.252,53.475-36.637,56.657c-1.388,3.182-55.653,70.425-77.284,82.639
				c-10.109,5.71-32.019,20.36-46.108,38.115c-14.094,17.739-4.034,38.907-4.034,38.907c38.152,39.53,94.066-23.183,94.066-23.183
				S1720.101,578.209,1745.509,524.301z"/>
		</g>
		<path style="fill:#323657;" d="M1635.63,815.548c0,0-2.607,19.605-15.767,26.352l-11.337-21.482L1635.63,815.548z"/>
		<path style="fill:#323657;" d="M1439.214,903.287c-1.856,33.472-9.164,68.768-24.34,104.96c0,0-47.603,19.672-70.584-10.156
			c-9.052-11.742-16.943-51.217-20.277-101.564c-5.146-77.526,0.548-180.839,29.542-248.387
			C1353.554,648.141,1447.294,758.607,1439.214,903.287z"/>
		<path style="fill:#979FF0;" d="M1439.214,903.287c-1.856,33.472-9.164,68.768-24.34,104.96c0,0-47.603,19.672-70.584-10.156
			c-9.052-11.742-16.943-51.217-20.277-101.564L1439.214,903.287z"/>
		<path style="fill:#EEA886;" d="M1831.562,274.151c-2.588-0.16-15.729,22.889-21.209,32.718c-0.177-0.137-0.353-0.272-0.534-0.404
			c5.011-12.717,18.401-46.725,19.659-50.032c1.549-4.079-3.034-6.984-5.55-5.623c-2.35,1.271-19.182,36.912-25.258,49.9
			c-0.104-0.039-0.203-0.077-0.308-0.116c5.441-13.959,20.901-53.749,21.178-55.936c0.339-2.655-5.011-4.476-6.533-2.892
			c-2.177,2.273-20.985,42.68-26.973,55.607c-0.289-0.046-0.577-0.09-0.857-0.133c2.646-11.168,9.875-41.682,10.751-45.618
			c1.073-4.83-1.638-5.93-5.379-3.502c-3.361,2.183-14.671,43.486-16.94,51.878c-3.111,7.324-5.065,26.456-8.567,22.72
			c-3.965-4.23-18.582-27.094-24.45-24.703c-5.872,2.392,5.983,15.354,8.102,20.264c1.589,3.673,6.715,15.607,13.482,21.174
			c7.96,6.545,4.55,23.667,4.55,23.667l27.522,3.38c0,0,2.438-8.583,4.076-12.192c1.3-2.855,14.655-18.247,17.982-35.185
			c0.053-0.273,0.092-0.544,0.122-0.814h0.004c0,0,10.718-23.813,16.267-33.248C1838.253,275.633,1833.568,274.276,1831.562,274.151
			z"/>
		<g>
			<path style="fill:#EEA886;" d="M1149.537,1052.468c0,0-24.769,46.54-23.688,50.867c1.08,4.33,3.814,5.372,6.322,1.105
				c2.506-4.265,25.302-44.352,25.302-44.352s-19.576,59.457-19.521,63.206c0.03,2.195,5.188,4.511,6.751,2.338
				c1.565-2.173,24.531-60.15,24.531-60.15s-18.17,55.541-17.129,58.64c0.914,2.711,6.245,3.709,7.892-0.331
				c1.648-4.04,21.596-54.774,21.596-54.774s-10.537,41.138-7.993,43.229c1.556,1.279,5.907,3.479,8.273-7.208
				c2.369-10.687,10.76-35.416,10.76-35.416L1149.537,1052.468z"/>
		</g>
		<g>
			<g>
				<path style="fill:#EEA886;" d="M1186.805,1002.952c0,0-9.174,14.854-19.458,14.219c-8.745-0.542-20.634,4.695-24.297,6.301
					c-4.899,2.148-22.408,3.552-19.745,9.303c2.663,5.751,28.946-1.014,34.729-1.405c5.786-0.395-9.879,19.327-9.775,24.971
					c0.102,5.644,35.723,27.26,44.835,12.6c9.114-14.659,8.688-35.706,10.827-38c2.14-2.293,7.074-10.431,7.074-10.431
					L1186.805,1002.952z"/>
			</g>
		</g>
		<path style="fill:#D44040;" d="M1519.029,604.215c0,0,50.669,9.942,73.292-3.838c8.622,6.005,26.98,87.169,29.815,105.762
			c2.835,18.594,2.992,97.516-1.78,127.423c-4.772,29.907,22.997,167.057,10.548,189.014c0,0-103.587,90.352-226.505,87.574
			c0,0-1-171.271-10.122-210.571c-11.688-50.35-39.249-166.284-39.249-166.284s-12.837-77.684-0.094-83.997
			c27.492-13.619,100.875-40.371,100.875-40.371L1519.029,604.215z"/>
		<path style="fill:#EEA987;" d="M1532.819,618.415c0,0-16.821,9.67-77.012-9.487c0,0-2.6-39.579-17.822-75.173
			c-15.223-35.597,82.394,40.801,82.394,40.801c-0.858,0.753-0.643,4.451,0.438,9.525c0.915,4.302,2.445,9.589,4.468,14.906
			C1529.831,610.947,1528.847,608.841,1532.819,618.415z"/>
		<path style="fill:#A77860;" d="M1525.285,598.987c-58.124-3.474-70.139-35.029-70.322-35.523
			c25.266,26.242,65.73,20.036,65.73,20.036C1521.609,587.801,1523.263,593.671,1525.285,598.987z"/>
		<g>
			<path style="fill:#EEA886;" d="M1330.021,887.747c-22.154,24.166-122.56,138.342-122.56,138.342l-22.845-20.037
				c0,0,29.425-53.644,70.578-112.677c11.414-16.372,26.524-54.888,28.759-57.547c2.232-2.657,35.791-81.434,39.63-105.976
				c1.525-9.739,10.76-38.494,16.755-62.984c6.707-27.409,70.139-40.849,70.139-40.849c52.376,16.584-19.137,119.22-19.137,119.22
				S1361.073,853.877,1330.021,887.747z"/>
		</g>
		<path style="fill:#D44040;" d="M1393.586,756.919L1315.2,743.09c0,0,1.622-81.087,56.223-107.578
			c54.599-26.488,84.385-26.584,84.385-26.584L1393.586,756.919z"/>
		<g>
			<path style="fill:#323657;" d="M1390.642,886.533l-12.117-11.99c45.451-53.355,60.152-109.625,43.699-167.25
				c-12.31-43.11-42.726-75.2-42.984-75.475l16.636-7.17c1.173,1.238,29.294,30.886,42.736,77.966
				c7.935,27.792,9.21,55.88,3.786,83.48C1435.661,820.378,1417.681,854.794,1390.642,886.533z"/>
		</g>
		<path style="fill:#D44040;" d="M1624.705,577.227l36.567,70.914c0,0-28.927,23.231-39.194,83.447
			c-8.545,50.096-53.318-124.511-53.318-124.511S1589.099,605.24,1624.705,577.227z"/>
		<g>
			<path style="fill:#323657;" d="M1635.63,815.548l-13.935,7.136c7.067-90.321-5.012-134.479-15.357-165.43
				c-11.133-33.316-28.856-52.179-29.003-52.323l16.328-7.137C1596.286,600.36,1653.485,650.443,1635.63,815.548z"/>
		</g>
		<path style="fill:#EEA987;" d="M1539.718,606.955c0,0,57.311,75.969,9.307,94.314c-62.628,23.935-114.642-89.049-114.642-89.049
			S1470.505,597.411,1539.718,606.955z"/>
		<g>
			<path style="fill:#EEA886;" d="M1504.773,413.573c0,0,48.607,5.327,52.064,93.384c3.816,97.131-68.37,83.333-88.578,68.663
				c-20.21-14.669-40.232-50.446-45.949-78.972C1416.593,468.121,1408.851,389.923,1504.773,413.573z"/>
		</g>
		<g>
			<path style="fill:#323657;" d="M1553.6,469.367c0,0-7.018-31.466-45.213-18.197c-38.194,13.271-70.825,50.473-62.771,99.456
				c0,0-69.56-79.653-32.722-123.881C1449.734,382.517,1538.868,383.161,1553.6,469.367z"/>
		</g>
		<g>
			<path style="fill:#E8734D;" d="M1498.747,455.09c0,0,49.239,33.358,61.291,32.353
				C1560.038,487.443,1556.488,427.475,1498.747,455.09z"/>
		</g>
		<path style="fill:#EEA886;" d="M1449.724,506.294c-4.161-8.139-16.107-18.034-18.534-4.417
			c-2.425,13.619,15.334,40.69,20.055,35.658C1455.967,532.503,1457.388,521.28,1449.724,506.294z"/>
		<path style="fill:#323657;" d="M1379.241,631.819c0,0,7.122-5.963,16.636-7.17
			C1395.876,624.649,1386.247,631.911,1379.241,631.819z"/>
	</g>
	<g>
		<g>
			<path style="fill:#163342;" d="M2200.701,1674.94c0,0,7.511,18.101,13.841,25.276c6.33,7.174,30.572,19.999,30.703,41.308
				c0.142,23.105-40.863,16.693-56.903,15.849c-16.035-0.844-17.251-13.188-24.004-26.271c-6.753-13.084-13.555-10.867-14.824-21.42
				c-1.266-10.55,5.172-34.172,5.172-34.172L2200.701,1674.94z"/>
		</g>
		<path style="fill:#EEA886;" d="M2078.909,361.664c0,0,73.889-27.342,69.27,70.851c-4.618,98.191-21.935,108.17-70.538,94.457
			c-48.608-13.713-52.682-75.686-59.011-105.497C2012.3,391.661,2054.748,365.95,2078.909,361.664z"/>
		<path style="fill:#E8734D;" d="M2028.901,470.174c0,0-0.212-26.23,10.698-28.646c10.906-2.413,16.524,12.75,16.524,12.75
			l8.783-0.473c0,0-7.849-26.581,2.55-32.674c10.398-6.095,72.608-0.74,80.414-9.69c7.807-8.949-3.515-62.101-20.484-67.317
			c-16.975-5.216-63.337-15.797-92.778,10.421c0,0-25.611,0.488-26.638,21.345C2006.943,396.745,2020.025,455.951,2028.901,470.174z
			"/>
		<path style="fill:#EEA886;" d="M2051.944,430.392c-3.262-8.652-21.69-7.563-19.805,6.157c1.888,13.717,17.12,34.843,23.234,30.882
			C2061.488,463.467,2056.447,442.324,2051.944,430.392z"/>
		<g>
			<path style="fill:#163342;" d="M1907.793,1674.94c0,0-7.506,18.101-13.84,25.276c-6.33,7.174-30.572,19.999-30.703,41.308
				c-0.143,23.105,40.867,16.693,56.902,15.849c16.037-0.844,17.251-13.188,24.005-26.271c6.752-13.084,13.556-10.867,14.824-21.42
				c1.265-10.55-5.172-34.172-5.172-34.172L1907.793,1674.94z"/>
		</g>
		<g>
			<path style="fill:#2F6B8C;" d="M1907.098,1668.257l-1.485,11.644c0,0,25.585,8.606,49.431,0.482l-1.38-15.197L1907.098,1668.257z
				"/>
		</g>
		<g>
			<path style="fill:#2F6B8C;" d="M2201.044,1668.257l1.431,10.746c0,0-25.123,9.281-48.969,1.157l0.969-14.975L2201.044,1668.257z"
				/>
		</g>
		<g>
			<path style="fill:#1D3B54;" d="M2190.911,1376.615c0,28.487,21.427,293.953,21.427,293.953
				c-2.849,9.496-61.032,9.119-70.527,4.372c-9.498-4.749-36.409-268.649-38.163-297.372
				c-1.754-28.728-53.165-247.696-61.486-246.746c-8.326,0.95-36.018,237.814-42.663,259.654
				c-6.648,21.841-34.391,284.464-34.391,284.464c-27.48,5.545-67.497-1.256-67.497-1.256s4.945-271.387,6.138-279.413
				c1.761-11.879-0.081-43.896,4.749-114.951c4.322-63.562,19.939-201.947,29.842-276.889c0.354-2.664,0.689-5.229,1.019-7.679
				c1.938-14.586,3.392-25.304,4.088-30.443c0.304-2.223,0.47-3.407,0.47-3.407c2.664-1.227,5.456-2.359,8.363-3.405
				c69.547-24.987,203.685,1.463,203.685,1.463s0.076,0.658,0.227,1.9c0.181,1.505,0.457,3.867,0.819,6.924
				c0.772,6.61,1.923,16.448,3.245,27.867c0.008,0.083,0.02,0.166,0.027,0.249c0.038,0.342,0.081,0.696,0.119,1.044
				c4.68,40.642,11.294,100.15,10.676,106.341C2170.126,1112.778,2190.911,1348.127,2190.911,1376.615z"/>
		</g>
		<g>
			<path style="fill:#EAD8CF;" d="M1890.719,929.826c0,0-104.814-129.771-105.049-157.939
				c-0.107-13.021,18.382-56.433,34.359-76.838c5.261-6.724,10.872-13.435,16.475-19.886c0.008-0.015,0.023-0.021,0.023-0.021
				c22.373-25.739,44.658-47.12,44.658-47.12s57.43-68.303,97.855-31.076c0,0-1.185,25.023-13.337,43.958
				c-12.149,18.951-27.576,33.345-35.087,39.415c-7.503,6.063-74.776,76.73-75.83,80.013c-1.054,3.284,14.566,42.941,24.488,60.102
				c14.147,24.479,43.347,81.293,43.347,81.293L1890.719,929.826z"/>
		</g>
		<g>
			<path style="fill:#EAD8CF;" d="M2210.546,930.143c0,0,116.282-119.611,119.098-147.639c1.3-12.957-13.129-57.881-27.169-79.666
				c-4.622-7.178-9.595-14.375-14.578-21.313c-0.008-0.017-0.023-0.023-0.023-0.023c-19.916-27.683-40.147-51.018-40.147-51.018
				s-50.923-73.283-94.593-39.92c0,0-1.116,25.026,9.248,44.997c10.359,19.983,24.404,35.733,31.326,42.466
				c6.91,6.726,67.42,83.266,68.17,86.631c0.746,3.367-18.443,41.424-29.896,57.603c-16.336,23.08-49.381,78.288-49.381,78.288
				L2210.546,930.143z"/>
		</g>
		<g>
			<path style="fill:#EEA987;" d="M2109.573,552.144c0,0,12.037,2.705-38.989,50.552c0,0-35.395-39.278-34.164-45.902
				C2037.654,550.171,2109.573,552.144,2109.573,552.144z"/>
		</g>
		<g>
			<path style="fill:#EAD8CF;" d="M2213.315,603.444l-36.071,129.417c-11.576,39.183-18.117,78.569-20.07,113.052
				c-1.508,26.633-0.135,111.354-0.135,111.354s-50.042,18.369-131.718,13.213c0,0-88.833,22.285-81.668-31.574
				c18.954-142.574,0.415-201.357-2.066-215.668c0,0-11.925-69.248-20.462-127.266c24.723-9.204,130.329-44.71,130.329-44.71
				l57.284,0.625C2108.739,551.886,2189.3,575.823,2213.315,603.444z"/>
		</g>
		<path style="fill:#385369;" d="M2170.118,759.847c0,0-34.041-15.909-45.815-69.672l-120.133-1.308
			c0,0-35.943,71.447-55.341,75.259c0,0,3.78,78.444,1.357,108.745c-2.419,30.299-9.694,87.609-9.694,87.609
			s6.857,52.315,218.639,16.721c0,0-2.291-125.906-1.949-131.284C2157.523,840.538,2169.237,763.006,2170.118,759.847z"/>
		<path style="fill:#385369;" d="M2124.067,690.173c0,0,14.117-72.956,45.013-115.456c0,0-2.969-3.542-10.956-4.866
			c0,0-33.529,47.813-46.904,120.181C2097.841,762.402,2124.067,690.173,2124.067,690.173z"/>
		<path style="fill:#385369;" d="M2005.382,688.879c0,0-8.168-65.888-38.129-109.053c0,0,5.068-3.326,13.087-4.474
			c0,0,26.096,41.024,37.89,113.667C2030.024,761.662,2005.382,688.879,2005.382,688.879z"/>
		<g>
			<path style="fill:#EEA987;" d="M2038.031,556.336c0,0,12.636-12.479,0.761-61.781c-3.13-13.025,69.37,15.7,69.37,15.7
				s-0.58,10.783-0.516,21.591c0.023,4.845,0.185,9.679,0.581,13.571c0.296,2.923,0.73,5.301,1.343,6.722
				C2112.823,559.635,2064.596,575.352,2038.031,556.336z"/>
		</g>
		<path style="fill:#385369;" d="M2213.403,595.508c-30.152,8.741-31.468,122.804-31.468,122.804s-8.388,28.298-11.952,53.715
			c-3.312,23.648-6.926,180.549-7.456,204.634c0,0-29.139,18.722-108.68,17.29c0,0-83.064-5.735-118.378-19.47
			c2.642-22.968,6.549-58.313,9.049-82.428c1.884-18.201,3.503-34.91,4.157-44.478c2.011-29.515-8.787-134.324-8.787-134.324
			c12.528-106.009-9.349-122.956-9.349-122.956c14.497-9.527,101.507-32.491,101.507-32.491
			c17.528,76.175,39.998,91.29,39.998,91.29c32.491-32.289,48.454-93.441,48.454-93.441
			C2175.467,566.436,2213.403,595.508,2213.403,595.508z"/>
		<path style="fill:#EEA886;" d="M2190.5,900.735c0,0-3.792,4.13-8.276,4.551c-7.748,0.729-17.601-7.127-24.746,1.663
			c-7.141,8.793,13.913,40.894,20.521,44.23c6.606,3.334,19.7-5.228,32.383-25.548C2223.067,905.313,2190.5,900.735,2190.5,900.735z
			"/>
		<path style="fill:#EEA886;" d="M2160.304,904.365c0,0-14.985,7.214-30.66,17.411c-13.752,8.945-28.376,21.582-25.935,25.321
			c3.338,5.112,13.675-6.316,27.907-14.209c13.105-7.266,11.756-3.494,11.756-3.494s0.327-1.098-12.39,9.779
			c-13.672,11.694-28.204,26.025-25.247,29.411c1.854,2.127,1.881,2.569,7.534-0.805c-2.827,2.684-2.5,3.899-1.5,5.276
			c5.172,7.122,27.934-6.699,36.971-12.19c-6.918,4.265-11.532,8.183-5.702,10.487c6.664,2.634,37.951-18.459,49.888-24.862
			C2205.943,939.503,2160.304,904.365,2160.304,904.365z"/>
		<path style="fill:#EEA886;" d="M1912.681,902.44c0,0,3.8,4.142,8.299,4.564c7.773,0.729,17.655-7.151,24.819,1.668
			c7.164,8.817-13.956,41.015-20.582,44.36c-6.625,3.345-19.758-5.243-32.479-25.623
			C1880.017,907.03,1912.681,902.44,1912.681,902.44z"/>
		<path style="fill:#EEA886;" d="M1942.965,906.08c0,0,15.032,7.235,30.753,17.461c13.794,8.974,28.457,21.646,26.011,25.398
			c-3.346,5.128-13.717-6.335-27.991-14.251c-13.145-7.288-11.79-3.505-11.79-3.505s-0.327-1.1,12.428,9.81
			c13.714,11.729,28.284,26.102,25.323,29.497c-1.865,2.132-1.888,2.577-7.56-0.807c2.838,2.691,2.507,3.911,1.507,5.292
			c-5.191,7.145-28.019-6.718-37.083-12.227c6.938,4.276,11.564,8.209,5.723,10.52c-6.688,2.642-38.068-18.515-50.038-24.937
			C1897.188,941.322,1942.965,906.08,1942.965,906.08z"/>
		<path style="fill:#EAD8CF;" d="M1922.621,901.729c0,0-7.732,14.105-31.902,28.098c0,0-49.008-60.049-71.327-95.033h67.916
			C1887.308,834.793,1917.314,889.529,1922.621,901.729z"/>
		<path style="fill:#EAD8CF;" d="M2182.601,900.55c0,0,4.177,16.713,27.945,29.594c0,0,65.264-70.862,72.704-79.717l-57.152-19.572
			C2226.098,830.855,2195.914,876.997,2182.601,900.55z"/>
		<path style="fill:#A77860;" d="M2108.228,545.416c-43.136-0.558-57.003-33.354-57.422-34.378
			c22.728,23.023,56.841,20.807,56.841,20.807C2107.67,536.69,2107.831,541.524,2108.228,545.416z"/>
		<path style="fill:#D1C1B9;" d="M2108.228,545.416c0,0-8.222,10.379-30.691,19.765l10.095,22.041l28.838-32.899L2108.228,545.416z"
			/>
		<path style="fill:#D1C1B9;" d="M2042.492,545.782c0,0,8.314,13.19,35.044,19.399l-11.849,25.075l-30.629-33.666L2042.492,545.782z
			"/>
	</g>
	<g>
		<path style="fill:#EEA886;" d="M476.823,1012.289c0,0-3.3,14.943-9.089,30.18c-2.823,7.43-4.218,56.182-3.934,62.49
			c0.24,5.289,3.749,2.161,5.541-1.325c1.027-1.999,4.223-18.852,7.339-27.813c2.619-7.524,4.88-10.339,6.207-7.9
			c1.327,2.438,3.732,33.77,0.861,47.151c-2.869,13.385,0.121,44.232,7.168,39.774c7.047-4.457,23.535-60.245,22.149-81.253
			c-1.386-21.007-8.897-47.341-8.897-47.341L476.823,1012.289z"/>
		<g>
			<path style="fill:#548AD1;" d="M510.958,1032.057l-44.089-3.859c0,0-5.262-50.282-10.91-98.571
				c-1.821-15.626-3.691-31.047-5.43-44.481c-0.021-0.187-0.052-0.372-0.073-0.558c-0.02-0.166-0.04-0.342-0.061-0.529
				c-2.183-16.795-4.157-30.365-5.584-37.179c-2.763-13.165-10.364-45.899-15.184-72.788c-1.582-8.853-2.917-17.976-4.053-26.912
				c-0.01-0.019,0-0.031,0-0.031c-4.521-35.66-5.678-68.185-5.678-68.185s-39.25-98.024,18.399-103.65c0,0,11.635,3.825,16.351,8.17
				c13.269,12.235,30.757,86.864,31.1,99.368c0.269,10.156,15.182,112.669,15.399,116.299c0.423,7.041,3.878,54.522,5.284,75.363
				C509.718,923.195,510.958,1032.057,510.958,1032.057z"/>
		</g>
		<g>
			<path style="fill:#202338;" d="M497.903,1675.105c0,0,23.11,24.268,46.571,29.352c23.462,5.084,39.873,11.569,40.05,25.494
				c0.175,13.925-67.517,23.102-94.366,9.065c-40.069-20.953-44.143-14.637-48.585-25.11c-4.443-10.473,5.336-38.478,5.047-41.809
				C446.263,1667.979,497.903,1675.105,497.903,1675.105z"/>
		</g>
		<g>
			<path style="fill:#2F6B8C;" d="M495.305,1663.496c0,0,3.051,11.369,2.598,11.609c-0.452,0.24-52.867,6.114-51.283-3.009
				c1.285-7.399,3.121-15.44,3.121-15.44L495.305,1663.496z"/>
		</g>
		<g>
			<path style="fill:#202338;" d="M236.85,1681.433c0,0,16.999,23.639,39.738,29.09c22.423,5.376,36.952,15.607,38.05,29.142
				c1.098,13.534-52.861,31.257-90.775,7.485c-24.913-15.623-34.204-14.732-39.223-24.658c-5.018-9.925,2.629-37.742,2.126-40.965
				C186.147,1677.546,236.85,1681.433,236.85,1681.433z"/>
		</g>
		<g>
			<path style="fill:#2F6B8C;" d="M236.154,1669.747c0,0,1.121,11.427,0.696,11.687c-0.425,0.26-50.381,9.099-50.083,0.094
				c0.237-7.152,3.167-16.051,3.167-16.051L236.154,1669.747z"/>
		</g>
		<g>
			<path style="fill:#323657;" d="M442.438,980.732c0,0,24.273,176.319,34.187,235.923c11.591,69.691,15.521,127.274,18.753,163.346
				c4.065,45.368,1.81,277.55,4.655,290.815c2.846,13.266-57.399,6.371-57.399,6.371s-44.18-302.685-56.289-351.002
				c-11.275-44.991-42.292-230.469-52.581-218.184c-10.289,12.286-43.604,223.573-51.225,259.056
				c-7.618,35.483-38.39,314.808-38.39,314.808s-51.206,11.121-65.175,0c0,0,3.123-249.073,7.978-315.598
				c1.85-25.354-16.038-303.511,26.832-415.682C236.443,891.303,442.438,980.732,442.438,980.732z"/>
		</g>
		<path style="fill:#4977B5;" d="M444.543,989.152l2.736,26.472c0,0-73.952,29.963-253.984,29.98v-30.295L444.543,989.152z"/>
		<path style="fill:#548AD1;" d="M446.341,988.598c0,0-132.382,42.466-259.539,25.918c0,0,27.292-122.462,22.205-164.234
			c-2.14-17.613-5.284-42.795-8.531-68.651c-1.531-12.204-3.094-24.563-4.582-36.342c-4.923-39.063-9.091-71.806-9.091-71.806
			s22.235-86.514,33.561-96.089c11.325-9.589,84.775-21.667,84.775-21.667l66.086,2.142c0,0,64.227,13.289,71.848,20.031
			c8.274,7.188,21.379,77.66,23.735,97.135c3.521,29.107-7.747,101.457-16.021,131.935
			C442.513,837.446,461.689,967.211,446.341,988.598z"/>
		<path style="fill:#548AD1;" d="M400.291,564.387c0,0,3.855-17.57-51.146-21.645c-55.003-4.073-92.211,8.289-93.247,24.071
			c-1.036,15.782,139.338,55.176,139.338,55.176L400.291,564.387z"/>
		<path style="fill:#EEA886;" d="M383.945,574.123c0,0-18.523,8.161-78.807-18.398c0,0,1.706-41.328-10.125-79.934
			c-11.821-38.609,80.907,51.473,80.907,51.473c-0.878,0.62-1.117,3.867-0.744,8.5c0.043,0.466,0.083,0.94,0.135,1.427
			c0.475,4.561,1.479,10.22,2.979,15.95C381.68,566.046,380.884,563.76,383.945,574.123z"/>
		<g>
			<g>
				<path style="fill:#F08D29;" d="M269.042,1076.51c-28.28,0-51.287-25.512-51.287-56.87c0-31.359,23.006-56.87,51.287-56.87
					c28.28,0,51.288,25.511,51.288,56.87C320.33,1050.998,297.322,1076.51,269.042,1076.51z M269.042,975.312
					c-21.729,0-39.41,19.885-39.41,44.328c0,24.442,17.68,44.327,39.41,44.327c21.731,0,39.411-19.885,39.411-44.327
					C308.453,995.197,290.773,975.312,269.042,975.312z"/>
			</g>
			<rect x="140.973" y="1195.626" style="fill:#D47C24;" width="256.138" height="127.822"/>
			<path style="fill:#F08D29;" d="M152.769,1347.339c0,0-1.088-28.675,0-182.771c1.133-160.075,117.648-157.685,117.648-157.685
				s116.515-2.39,117.645,157.685c1.089,154.097,0,182.771,0,182.771H152.769z"/>
			<rect x="179.354" y="1195.626" style="fill:#D47C24;" width="182.124" height="127.822"/>
			<rect x="179.354" y="1195.626" style="fill:#C27120;" width="182.124" height="35.538"/>
		</g>
		<path style="fill:#446FA8;" d="M249.227,675.808c-6.67,26.311-48.752,105.822-48.752,105.822
			c-1.531-12.204-3.094-24.563-4.582-36.342C218.119,714.385,249.227,675.808,249.227,675.808z"/>
		<path style="fill:#446FA8;" d="M455.959,929.626c-1.821-15.626-3.691-31.047-5.43-44.481c-0.021-0.187-0.052-0.372-0.073-0.558
			c-0.02-0.166-0.04-0.342-0.061-0.529c-1.418-12.7-1.23-66.211,1.81-82.624c3.082-16.64,13.403-81.268,13.403-81.268
			C468.007,788.083,455.959,929.626,455.959,929.626z"/>
		<g>
			<path style="fill:#EEA886;" d="M383.797,356.401c0,0,49.827,14.238,37.719,106.847c-13.355,102.15-86.3,74.852-104.794,55.919
				c-18.491-18.934-33.022-59.881-33.902-90.703C281.94,397.643,287.81,314.571,383.797,356.401z"/>
		</g>
		<g>
			<path style="fill:#EB4747;" d="M424.843,423.401c0,0-1.713-34.124-43.981-27.079c-42.269,7.045-83.001,40.084-83.33,92.691
				c0,0-58.449-95.628-12.07-135.254C331.84,314.131,424.843,330.717,424.843,423.401z"/>
		</g>
		<g>
			<path style="fill:#272A45;" d="M370.087,398.695c0,0,45.483,43.64,58.253,44.739C428.34,443.434,435.339,380.155,370.087,398.695
				z"/>
		</g>
		<path style="fill:#EEA886;" d="M309.735,443.434c-2.894-9.245-13.605-21.714-18.572-7.92
			c-4.967,13.794,8.754,45.243,14.584,40.828C311.578,471.93,315.065,460.458,309.735,443.434z"/>
		<path style="fill:#A77860;" d="M378.289,553.14c-49.808,2.678-67.534-41.028-67.534-41.028
			c27.674,32.67,63.697,23.839,64.42,23.652c0.043,0.466,0.083,0.94,0.135,1.427C375.785,541.751,376.789,547.411,378.289,553.14z"
			/>
		<path style="fill:#5E9BEB;" d="M273.676,979.09c0,0,115.638-7.52,152.869-24.283c0,0,3.621-83.468,4.138-95.362l-23.835-30.509
			l-100.788,8.274l-37.017,34.129L273.676,979.09z"/>
		<g>
			<g>
				<g>
					<g>
						<g>
							<path style="fill:#EEA886;" d="M244.534,999.394c0,0-3.325-4.941-3.723-7.811c0,0-0.327-5.278-0.787-9.016
								c-0.15-1.185-0.306-2.215-0.477-2.869c-0.711-2.736-3.091-8.523-2.955-15.572c0.13-7.039,8.521-37.268,8.521-37.268
								l17.624-0.104l16.488-2.45c0,0,21.553,37.373,22.189,43.949c0.058,0.644,0.092,1.281,0.079,1.881
								c-0.004,5.62-2.367,9.8-2.703,12.75c-0.131,1.083-2.149,11.753-4.994,13.323c-3.942,2.18-7.558,2.092-10.29,0.658
								c0,0-7.909,3.932-13.704,2.601c0,0-7.176,3.861-13.914,0.156C255.89,999.623,248.168,1002.723,244.534,999.394z"/>
						</g>
					</g>
				</g>
			</g>
		</g>
		<path style="fill:#548AD1;" d="M265.923,579.903c7.62,4.852,12.393,26.575-1.928,64.473
			c-15.365,40.659-32.828,55.855-40.369,64.571c-7.539,8.716-50.309,63.187-46.383,72.258c3.928,9.07,45.791,70.868,47.973,75.656
			c2.18,4.788,56.751,67.991,56.751,67.991l-50.425,29.955c0,0-100.405-116.584-108.254-128.336
			c-7.849-11.75-33.043-38.175-15.384-70.239c17.947-32.591,53.974-110.081,58.758-115.746
			C171.447,634.82,211.974,545.558,265.923,579.903z"/>
	</g>
</g>
</svg>
