<?xml version="1.0" encoding="utf-8"?>
<!-- Generator: Adobe Illustrator 27.5.0, SVG Export Plug-In . SVG Version: 6.00 Build 0)  -->
<svg version="1.1" xmlns="http://www.w3.org/2000/svg" xmlns:xlink="http://www.w3.org/1999/xlink" x="0px" y="0px"
	 viewBox="0 0 750 500" style="enable-background:new 0 0 750 500;" xml:space="preserve">
<g id="BACKGROUND">
	<rect style="fill:#FFFFFF;" width="750" height="500"/>
</g>
<g id="OBJECTS">
	<g>
		<path style="fill:#DBDDDF;" d="M573.042,400.294c-0.012,3.258,37.08,3.796,51.579,1.726c11.901-1.699,0.829-4.575-21.005-4.575
			C584.78,397.445,573.047,398.866,573.042,400.294z"/>
		<rect x="580.867" y="359.63" style="fill:#7A3F17;" width="40.791" height="8.033"/>
		<polygon style="fill:#69340F;" points="613.813,400.345 588.712,400.345 584.921,367.662 617.603,367.662 		"/>
		<polygon style="fill:#572B0C;" points="617.022,372.677 617.603,367.662 584.921,367.662 585.503,372.677 		"/>
		<g>
			<path style="fill:#00877A;" d="M568.306,297.67c-0.984,3.139-5.251,0.775-5.481,6.128c-0.146,3.429,2.007,5.757,4.179,8.065
				c2.152,2.305,4.346,4.596,4.297,8.042c-0.015,4.171-4.6,4.4-5.409,8.519c-0.888,4.448,5.195,12.527,12.027,20.923
				c2.766,3.426,5.684,6.905,8.266,10.281h5.526c-0.272-2.361-0.517-4.956-0.707-7.772c-0.938-13.175-0.633-30.815,0.766-48.361
				c1.366-17.552,3.672-35.017,5.718-48.058c1.012-6.523,1.947-11.945,2.613-15.737c0.68-3.79,1.069-5.956,1.069-5.956
				c-3.76-0.702-5.952,3.963-7.49,9.198c-1.562,5.229-2.475,11.006-4.004,12.493c-4.693,4.574-9.524-3.827-13.367,1.365
				c-3.63,4.998,2.52,11.828,0.162,15.181c-2.432,3.521-10.184-5.575-14.545,2.195c-2.535,4.581-0.333,8.625,2.208,12.398
				C566.658,290.353,569.531,293.871,568.306,297.67z"/>
			<path style="fill:#009E8F;" d="M591.723,359.63h4.82c1.887-4.034,4.471-7.998,7.175-11.676
				c5.919-8.111,12.149-14.769,11.424-18.664c-0.678-3.583-5.19-4.074-4.944-7.843c0.241-3.135,2.615-5.004,5.029-6.828
				c2.394-1.823,4.804-3.596,5.135-6.63c0.517-4.74-4.002-3.302-4.502-6.276c-0.578-3.634,2.854-6.318,6.085-9.168
				c3.214-2.859,6.211-5.879,4.782-10.459c-2.404-7.882-12.07-1.671-13.594-5.413c-1.467-3.699,6.25-8.27,4.171-13.751
				c-2.15-5.829-9.237,0.464-12.368-5.138c-1.029-1.845-0.148-7.525,0.127-12.89c0.251-5.368-0.09-10.439-3.877-11.146
				c0,0-0.394,2.165-1.083,5.953c-0.669,3.792-1.606,9.213-2.619,15.736c-2.048,13.041-4.353,30.505-5.716,48.058
				c-1.395,17.546-1.696,35.187-0.755,48.361C591.204,354.673,591.451,357.268,591.723,359.63z"/>
			<path style="fill:#2BAEA2;" d="M592.61,359.63c-1.08-9.436-1.357-18.975-1.261-28.497c0.116-10.28,0.687-20.559,1.552-30.812
				c0.85-10.255,2.021-20.485,3.397-30.686c1.131-10.469,2.499-20.919,4.089-31.341l-0.05-0.009
				c-2.14,10.324-4.061,20.699-5.749,31.119c-1.38,10.227-2.554,20.484-3.406,30.773c-0.868,10.287-1.441,20.604-1.557,30.937
				c-0.095,9.506,0.177,19.038,1.25,28.516H592.61z"/>
		</g>
		<g>
			<path style="fill:#00877A;" d="M595.609,359.63h4.238c0.401-0.661,0.822-1.353,1.261-2.075c1.809-2.995,3.856-6.526,5.982-10.348
				c2.076-3.848,4.259-7.974,6.211-12.211c3.989-8.437,7.217-17.213,9.225-23.913c0.493-1.678,0.976-3.208,1.348-4.579
				c0.348-1.378,0.651-2.579,0.901-3.569c0.497-1.979,0.781-3.11,0.781-3.11c-2.976-0.673-4.6,1.585-5.773,4.136
				c-0.565,1.284-1.101,2.626-1.638,3.718c-0.53,1.094-1.051,1.939-1.664,2.2c-1.873,0.796-3.68-0.094-5.414-0.901
				c-1.733-0.814-3.393-1.55-4.912-0.633c-1.473,0.857-1.129,2.345-0.652,3.81c0.463,1.454,1.083,2.889,0.04,3.427
				c-1.058,0.556-2.888-0.658-4.948-1.662c-2.057-1.009-4.344-1.808-6.237-0.622c-2.202,1.379-0.813,3.624,0.68,5.946
				c1.505,2.308,3.293,4.722,1.863,6.044c-1.149,1.084-3.953-1.207-4.832,0.992c-0.543,1.41,0.617,3.071,1.81,4.78
				c1.174,1.702,2.366,3.452,1.672,4.929c-0.844,1.781-4.117,0.233-5.51,1.596c-1.538,1.468,0.97,6.997,3.126,13.262
				C594.17,353.77,595.107,356.833,595.609,359.63z"/>
			<path style="fill:#009E8F;" d="M618.727,359.63c3.076-0.846,5.298-1.851,5.642-3.226c0.534-2.236-2.559-4.122-1.415-6.053
				c0.944-1.606,3.077-1.854,5.251-2.102c2.157-0.26,4.37-0.51,5.247-2.227c1.39-2.662-2.268-3.123-2.043-4.984
				c0.291-2.24,3.256-2.913,6.187-3.837c2.93-0.907,5.676-2.175,5.222-5.365c-0.387-2.713-2.657-3.556-4.9-4.085
				c-2.245-0.524-4.462-0.736-4.821-1.99c-0.336-1.208,1.016-2.132,2.376-3.222c1.342-1.09,2.67-2.361,2.062-4.174
				c-0.674-1.915-2.474-2.179-4.364-2.466c-1.892-0.281-3.872-0.59-4.964-2.409c-0.358-0.595-0.312-1.65-0.134-2.924
				c0.185-1.272,0.494-2.768,0.583-4.259c0.224-2.974-0.112-5.807-3.088-6.48c0,0-0.288,1.13-0.792,3.108
				c-0.251,0.989-0.555,2.19-0.904,3.568c-0.373,1.371-0.857,2.901-1.35,4.579c-2.01,6.7-5.237,15.476-9.224,23.913
				c-1.951,4.238-4.132,8.364-6.207,12.213c-2.124,3.823-4.17,7.355-5.978,10.35c-0.438,0.721-0.857,1.412-1.257,2.072H618.727z"/>
			<path style="fill:#2BAEA2;" d="M600.661,359.63c2.245-3.712,4.463-7.447,6.563-11.253c5.281-9.591,10.009-19.533,13.603-29.9
				l1.207-4.03c0.401-1.342,0.711-2.713,1.07-4.065c0.335-1.36,0.721-2.705,1.014-4.074l0.867-4.105l-0.039-0.01l-1.188,4.017
				c-0.399,1.337-0.89,2.647-1.33,3.97c-0.464,1.316-0.877,2.646-1.381,3.946l-1.513,3.895
				c-3.565,10.286-8.257,20.153-13.509,29.692c-2.223,4.026-4.58,7.978-6.968,11.917H600.661z"/>
		</g>
	</g>
	<g>
		<path style="fill:#DBDDDF;" d="M175.534,434.577c3.476,5.807,15.71,11.833,39.033,11.088s25.625-11.337,15.344-17.69
			c-10.281-6.353-32.304-7.435-41.401-6.948C177.364,421.623,170.806,426.679,175.534,434.577z"/>
		<g>
			<g>
				<path style="fill:#030217;" d="M209.654,413.991c0,0-24.565,8.305-29.819,14.251c-5.254,5.946,16.092,6.556,21.326,6.399
					c10.094-0.302,22.33-2.204,23.916-3.091c1.586-0.888,1.318-12-0.434-14.064C222.891,415.421,211.74,413.297,209.654,413.991z"/>
				<g>
					<path style="fill:#040324;" d="M213.687,228.775H183.01c0.495,14.314,8.883,99.833,9.741,108.109
						c4.028,38.827,6.188,76.283,6.549,80.175c6.536,5.751,17.681,1.526,17.681,1.526s2.313-54.804,0.008-76.618
						C216.072,333.289,213.687,228.775,213.687,228.775z"/>
				</g>
			</g>
			<g>
				<path style="fill:#040324;" d="M214.262,419.141c0,0-24.565,8.305-29.819,14.251c-5.254,5.946,16.092,6.556,21.326,6.399
					c10.094-0.302,22.33-2.203,23.916-3.091c1.586-0.888,1.318-12-0.434-14.064C227.5,420.572,216.348,418.448,214.262,419.141z"/>
				<path style="fill:#070540;" d="M189.172,228.775c0.945,18.626,1.683,30.639,5.503,60.624
					c3.777,29.65,8.783,89.875,12.917,132.011c8.235,6.439,23.24,3.459,23.24,3.459c-5.32-60.847,4.38-148.164-5.334-196.094
					H189.172z"/>
			</g>
			<g>
				<path style="fill:#FFD2B3;" d="M204.152,139.217c0,0,0.296-8.635-0.603-8.983c-0.813-0.314-5.914,0.432-6.812-1.403
					c-0.942-1.926-0.65-10.479,0.479-17.416c0.42-2.584,1.717-9.604,7.006-11.216c5.25-1.601,13.496,0.341,15.057,7.094
					c1.561,6.753-1.932,10.92-1.971,14.355c-0.039,3.435,0.52,9.696,0.52,9.696S209.89,140.349,204.152,139.217z"/>
				<path style="fill:#FFB98B;" d="M207.68,118.839c-0.102,3.83-3.504,7.057-6.326,8.999c-2.822,1.942-4.617,0.993-4.617,0.993
					c0.898,1.835,6,1.088,6.812,1.403c0.412,0.16,0.572,2.066,0.625,4.081c0-0.001,0.001-0.001,0.001-0.002
					c6.584-14.422,12.254-10.578,12.254-10.578l-0.546-7.652C215.883,116.083,207.782,115.009,207.68,118.839z"/>
				<path style="fill:#070540;" d="M217.357,124.254c0,0-5.63-2.669-6.039-7.486c-0.179-2.102-3.824-0.984-3.824-0.984l-1.39,0.011
					c0,0-0.003-3.642-1.581-5.713c-1.282-1.683,1.409-4.526,0.984-5.169c-1.219-1.847-5.981,0.629-7.066-0.114
					c-1.085-0.743-0.053-7.343,11.639-6.056c12.125,1.335,11.602,11.631,10.675,14.516
					C219.099,118.413,217.441,120.454,217.357,124.254z"/>
				<path style="fill:#FFD2B3;" d="M207.495,115.783c0.351-1.067,1.228-3.388,3.632-3.171c3.092,0.28,0.987,7.06-2.108,6.954
					C206.894,119.493,207.222,116.613,207.495,115.783z"/>
			</g>
			<g>
				<g>
					<path style="fill:#E6E8F4;" d="M220.501,133.686c1.197,0.661,16.979,17.111,16.714,33.646
						c-0.249,15.5-10.487,51.19-10.941,61.634c-0.331,7.606-38.256,10.103-43.024,7.379c-4.768-2.724-4.622-20.525-3.713-25.407
						c0.908-4.881,10.184-45.949,11.319-50.401c1.135-4.451,5.186-14.952,11.738-19.859
						C209.246,135.695,216.926,131.712,220.501,133.686z"/>
				</g>
				<path style="fill:#070540;" d="M201.95,139.582c-1.354,0.939-5.523,3.626-5.438,6.861c0,0-5.085,6.345-7.979,14.688
					c-2.895,8.344-12.267,50.872-12.746,53.106c-0.396,1.845,1.702,10.233,2.666,10.98c1.559,1.208,8.88-7.751,9.284-9.567
					c0.404-1.816,3.417-41.989,5.574-50.503c2.157-8.514,6.473-14.85,6.302-16.042c0,0,2.685-2.941,4.132-4.644
					C205.192,142.758,203.305,138.642,201.95,139.582z"/>
				<g>
					<g>
						<g>
							<path style="fill:#FFD2B3;" d="M201.183,286.344c2.688,2.087,5.227-7.551,4.807-5.396
								c-0.615,3.161-2.285,11.343-2.425,12.671c-0.199,1.88-0.074,3.466,1.265,3.608c1.339,0.141,2.83-2.398,2.83-2.398
								s-0.95,4.41,1.394,4.658c2.344,0.248,3.961-3.652,3.961-3.652s0.868,0.814,1.431,0.919c1.81,0.337,2.609-3.283,2.609-3.283
								s0.915,1.979,2.632,0.591c1.716-1.389,3.681-7.944,4.265-11.106c0.557-3.018,1.115-8.099-0.752-12.069
								c-0.237-0.504-1.401-3.303-0.385-9.199c0.595-3.452-10.413-8.161-11.453-1.355c-0.745,4.879-5.138,9.352-5.626,9.935
								C201.74,275.056,199.096,284.724,201.183,286.344z"/>
						</g>
						<g>
							<path style="fill:#FFB98B;" d="M220.096,271.125c1.259,0.46,2.53,0.973,3.769,1.56c-0.177-0.616-0.392-1.22-0.664-1.798
								c-0.237-0.504-1.401-3.303-0.385-9.199c0.595-3.452-10.413-8.161-11.453-1.355c-0.675,4.421-4.336,8.498-5.382,9.66
								C210.799,269.28,215.348,269.391,220.096,271.125z"/>
						</g>
					</g>
					<path style="fill:#FFFFFF;" d="M225.496,150.327c-6.79,0.257-10.609,6.844-10.382,18.225
						c0.227,11.381,0.922,36.21-0.439,40.158c-1.362,3.948-5.994,54.376-5.994,54.376s7.92,3.988,15.373,2.861
						c0,0,9.144-52.422,9.281-57.296c0.205-7.266,2.482-36.764,1.973-43.216C234.789,158.85,232.291,150.07,225.496,150.327z"/>
				</g>
				<path style="fill:#FFFFFF;" d="M218.418,129.061c-1.26-0.287-15.355,7.569-17.398,9.868c0,0,0.479,8.559,0.479,10.176
					c0,0,17.182-13.483,20.855-13.653C222.353,135.452,219.677,129.348,218.418,129.061z"/>
			</g>
		</g>
	</g>
	<g>
		<path style="fill:#DBDDDF;" d="M78.771,420.081c-0.689,0.052-35.736,2.974-41.99,13.276
			c-6.254,10.302,35.736,19.981,61.049,13.429s32.162-18.166,23.824-22.484C113.315,419.985,95.15,418.837,78.771,420.081z"/>
		<g>
			<g>
				<g>
					<path style="fill:#040324;" d="M72.094,141.107c7.063,3.669,19.107,24.254,21.11,25.773c2.003,1.52,28.38-12.462,31.94-12.843
						c4.992,2.71,3.651,15.624,3.651,15.624s-33.37,20.501-39.472,19.692c-6.102-0.809-24.971-28.152-27.455-34.725
						C59.524,148.423,60.686,135.181,72.094,141.107z"/>
				</g>
				<g>
					<path style="fill:#922723;" d="M156.036,192.297l-32.819,3.163c-0.913,0.088-1.724-0.581-1.812-1.493l-4.436-46.02
						c-0.088-0.913,0.581-1.724,1.493-1.812l32.819-3.163c0.913-0.088,1.724,0.581,1.812,1.493l4.436,46.02
						C157.617,191.398,156.949,192.209,156.036,192.297z"/>
					<polygon style="fill:#FFFFFF;" points="123.787,192.601 119.655,149.724 150.798,146.722 154.761,189.697 					"/>
					<g>
						<g>
							<path style="fill:#9C9B9B;" d="M144.4,148.333l-18.157,1.75c-0.428,0.041-0.811-0.274-0.852-0.702l-0.242-2.514
								c-0.041-0.429,0.274-0.811,0.702-0.852l1.324-0.128l0.058,0.6l-1.324,0.128c-0.097,0.009-0.169,0.096-0.16,0.194l0.242,2.514
								c0.009,0.098,0.096,0.169,0.194,0.16l18.157-1.75c0.098-0.009,0.17-0.096,0.16-0.194l-0.242-2.515
								c-0.009-0.097-0.096-0.169-0.194-0.16l-1.324,0.128l-0.058-0.6l1.324-0.128c0.429-0.041,0.811,0.274,0.852,0.702l0.242,2.514
								C145.144,147.909,144.828,148.292,144.4,148.333z"/>
						</g>
						<path style="fill:#E6E8F4;" d="M140.819,142.989l-12.083,1.165c-0.946,0.091-1.639,0.932-1.548,1.878l0.114,1.184
							c0.038,0.389,0.383,0.674,0.772,0.636l14.101-1.359c0.389-0.037,0.674-0.383,0.636-0.772l-0.114-1.184
							C142.607,143.591,141.766,142.898,140.819,142.989z"/>
					</g>
				</g>
				<path style="fill:#FFB98B;" d="M143.168,143.753c0,0-0.096-1.992,0.513-2.897c0.609-0.905,3.385-0.884,4.262-0.582
					c0.876,0.301,1.925,1.774,2.511,2.41c0.586,0.636,0.71,1.534,0.176,1.856c-1.575,0.949-3.67-1.152-3.67-1.152L143.168,143.753z"
					/>
				<path style="fill:#FFB98B;" d="M154.789,150.454c-1.119,0.16-3.667,0.087-4.404,0.08c-0.737-0.007-2.158-0.025-2.359-1.243
					c-0.201-1.217,0.921-1.747,2.235-1.904c1.313-0.157,4.202-0.646,5.176,0.215C156.398,148.433,155.939,150.29,154.789,150.454z"
					/>
				<path style="fill:#FFB98B;" d="M155.226,154.039c-1.207,0.172-3.957,0.094-4.753,0.087c-0.796-0.007-2.328-0.027-2.545-1.341
					c-0.217-1.314,0.994-1.885,2.411-2.054c1.417-0.169,4.535-0.697,5.585,0.232C156.963,151.859,156.467,153.862,155.226,154.039z"
					/>
				<path style="fill:#FFB98B;" d="M155.141,157.649c-1.207,0.172-3.957,0.094-4.753,0.087c-0.796-0.007-2.328-0.027-2.545-1.341
					c-0.217-1.314,0.994-1.885,2.411-2.054c1.417-0.169,4.535-0.697,5.585,0.232C156.878,155.469,156.383,157.472,155.141,157.649z"
					/>
				<path style="fill:#FFB98B;" d="M154.487,161.007c-1.119,0.16-3.667,0.087-4.404,0.08c-0.737-0.006-2.158-0.025-2.359-1.243
					c-0.201-1.217,0.921-1.747,2.235-1.904c1.313-0.157,4.202-0.646,5.176,0.215C156.096,158.986,155.637,160.843,154.487,161.007z"
					/>
			</g>
			<g>
				<path style="fill:#040324;" d="M69.54,423.03c0,0,19.668,10.442,24.922,16.388c5.254,5.946-13.647,7.1-21.383,5.726
					c-9.943-1.766-19.66-6.065-21.246-6.953s-1.318-12,0.434-14.064C54.019,422.063,67.454,422.336,69.54,423.03z"/>
				<path style="fill:#040324;" d="M99.32,415.525c0,0,16.238,6.339,20.861,11.57c4.622,5.231-9.271,6.997-17.751,5.992
					c-8.824-1.046-17.294-3.442-18.689-4.223c-1.395-0.781-1.159-10.558,0.382-12.374C85.664,414.674,97.485,414.915,99.32,415.525z
					"/>
				<g>
					<path style="fill:#070540;" d="M46.792,243.429c-0.499,8.751-0.799,20.468,0.124,31.248
						c0.944,11.016,1.409,146.136,2.68,149.725c1.271,3.589,23.647,5.576,26.259-0.574c0,0-0.214-55.781,0.141-80.023
						c0.106-7.231,2.155-40.271,2.155-40.271s2.687,113.024,4.397,115.257c1.333,1.74,18.607,3.016,20.977-3.001
						c-0.059-16.194-5.054-152.69-5.861-172.361H46.792z"/>
				</g>
				<g>
					<path style="fill:#040324;" d="M78.151,303.535l0.123-2.898C78.167,301.639,78.122,302.611,78.151,303.535z"/>
					<path style="fill:#040324;" d="M93.929,275.06c1.824-0.165,3.455-0.288,4.923-0.305c-0.554-15.02-0.993-26.58-1.188-31.326
						H46.792c-0.471,8.272-0.764,19.195-0.015,29.472c13.814,2.83,24.343,3.385,32.54,3.192l-1.043,24.544
						C79.358,290.453,87.063,276.958,93.929,275.06z"/>
				</g>
			</g>
			<path style="fill:#070540;" d="M99.755,251.333c0.696,5.774-48.138,5.981-58.88,1.343c9.068-40.592-0.498-77.868,1.107-102.122
				c1.179-17.812,19.68-27.902,20.651-28.457c0.972-0.555,13.144,12.452,16.075,17.732
				C91.141,162.223,97.166,229.841,99.755,251.333z"/>
			<path style="fill:#040324;" d="M91.217,185.292C91.217,185.292,91.217,185.292,91.217,185.292
				c-13.669,2.01-24.832-34.186-24.832-34.186s-11.074-11.48-15.229-11.019c-4.9,0.544-8.64,2.42-9.173,10.467
				c-1.423,21.5,5.922,53.236,1.294,88.44c0.002,0.006,0.005,0.019,0.005,0.019s5.613-18.621,15.857-23.799
				c10.244-5.178,37.406,7.879,37.408,7.88C95.152,211.385,93.399,198.058,91.217,185.292z"/>
			<g>
				<path style="fill:#FFD2B3;" d="M118.56,204.941c0,0,1.738,0.341,4.828,0.366c3.272-3.966,7.694-3.605,10.184-3.389
					c2.49,0.216,11.672-2.93,11.915,0.663c0.187,2.759-6.953,2.891-6.896,3.311c0.057,0.42,5.008,0.239,8.627-0.181
					c5.484-0.637,11.211-1.895,11.899-0.133c0.478,1.223-0.86,2.637-3.067,3.303c-0.689,2.121-7.679,5.167-13.108,5.934
					c-4.796,0.678-27.241,0.284-27.241,0.284L118.56,204.941z"/>
				<path style="fill:#FFB98B;" d="M118.56,204.941l-2.859,10.158c0,0,22.445,0.394,27.241-0.284
					c5.429-0.767,12.419-3.813,13.108-5.934c0,0-2.299,0.116-6.294,1.352c-3.995,1.235-18.534,3.48-23.708,1.974
					c-5.174-1.506-3.262-6.038-2.661-6.899C120.298,205.282,118.56,204.941,118.56,204.941z"/>
				<g>
					<path style="fill:#E6E8F4;" d="M114.706,203.06c0,0,3.557,0.918,4.548,1.23c0.991,0.313-2.795,13.297-3.924,13.112
						s-6.003-0.378-6.003-0.378L114.706,203.06z"/>
				</g>
				<path style="fill:#070540;" d="M53.118,139.313c-5.571,0.895-7.152,10.808-6.359,16.74c0.793,5.932,11.882,42.121,15.374,46.429
					c3.492,4.308,45.933,16.115,48.516,16.277c2.583,0.163,7.715-16.369,5.718-16.932c-1.997-0.563-36.823-10.51-38.82-14.526
					c-1.236-2.485-9.485-30.818-11.589-37.582C63.856,142.956,58.69,138.418,53.118,139.313z"/>
			</g>
			<g>
				<path style="fill:#ACB3D8;" d="M64.686,117.964c0.858-1.266,4.795,0.386,4.795,0.386s1.697,7.582,1.635,8.559
					C71.054,127.887,61.596,122.524,64.686,117.964z"/>
				<path style="fill:#070540;" d="M67.397,108.997c0,0,1.254-10.298,2.57-13.733c1.138-2.971,11.478,0.054,14.097,0.956
					c4.914,1.693,4.074,4.031,3.777,5.288c-0.55,2.325-2.035,6.961-3.327,9.723C83.223,113.993,67.397,108.997,67.397,108.997z"/>
				<path style="fill:#FFB98B;" d="M84.147,110.354c0,0,1.563,0.002,1.47,1.46c-0.151,2.381-3.111,4.216-3.111,4.216
					S83.234,111.19,84.147,110.354z"/>
				<path style="fill:#FFB98B;" d="M63.701,120.846c1.031,4.122,10.869,15.067,11.632,12.017c1.948-8.633,5.404-15.383,5.404-15.383
					s-12.145-9.512-13.302-7.154C67.434,110.327,66.535,116.306,63.701,120.846z"/>
				<path style="fill:#FFD2B3;" d="M69.203,108.119c0,0-0.039-1.941-1.06-2.671c-1.021-0.73-2.083,1.442-2.13,3.163
					c-0.047,1.72,0.501,3.596,1.495,3.107c0,0-0.815,4.054-0.487,5.054c0.761,2.318,3.849,6.57,5.114,7.249
					c1.266,0.679,3.902,1.197,4.431,1.162c0.529-0.035,4.176-3.551,4.739-4.291c0.746-0.979,4.653-14.213,4.83-15.977
					c0.207-2.06-0.726-1.152-3.793-1.88c-3.021-0.718-5.769-4.021-8.212-2.92c-0.652,0.294-1.517,2.836-1.652,3.725
					c-0.135,0.889-1.519,1.277-1.982,1.964c-0.463,0.687-0.563,2.566-0.708,2.702C69.645,108.639,69.239,108.844,69.203,108.119z"/>
				<g>
					<path style="fill:#E6E8F4;" d="M62.068,124.022c0.101-1.602,1.247-4.681,2.722-6.18c-1.829,2.995,10.434,11.763,11.775,13.255
						c1.193,1.327,3.05,2.288,2.143,8.731C78.709,139.828,61.967,125.624,62.068,124.022z"/>
				</g>
			</g>
		</g>
	</g>
	<g>
		<path style="fill:#DBDDDF;" d="M575.422,434.525c-2.785,13.252,33.249,12.261,48.836,14.299
			c15.587,2.038,47.537,10.706,67.474-0.975c9.658-5.659,8.427-15.925-33.828-22.074
			C630.327,421.761,577.962,422.442,575.422,434.525z"/>
		<g>
			<g>
				<path style="fill:#070540;" d="M632.204,434.951c-3.972,1.988-10.639,7.077-9.359,9.282c1.91,3.132,13.625,3.001,22.041,1.795
					c8.416-1.206,18.054-3.575,23.019-5.34c2.918-1.037,3.222-9.066,2.019-13.528C669.796,427.402,635.024,433.539,632.204,434.951z
					"/>
				<path style="fill:#FFD2B3;" d="M678.426,282.214c-2.748-16.018-31.05-12.913-31.584,0.456c0,0,3.057,31.344,6.247,50.355
					c3.687,21.979,4.958,72.979,2.619,85.623c-0.594,3.21-21.903,14.959-23.578,16.499c-1.419,1.305,2.495,4.332,8.002,4.501
					c3.801,0.115,29.26-4.248,29.662-7.984c0.084-0.782-0.015-7.115,0.802-11.116c3.089-15.113,10.464-44.325,8.631-54.752
					C676.469,350.114,681.174,298.232,678.426,282.214z"/>
				<path style="fill:#FFB98B;" d="M678.271,327.212c0.155,0.037,0.306,0.082,0.459,0.121c0.511-17.958,1.156-36.604-0.305-45.118
					c-2.748-16.018-31.05-12.913-31.584,0.456c0,0,2.514,25.772,5.36,44.751C660.339,325.088,670.314,325.328,678.271,327.212z"/>
			</g>
			<g>
				<path style="fill:#070540;" d="M604.053,425.554c-3.827,1.916-10.251,6.819-9.018,8.944c1.84,3.018,13.128,2.892,21.238,1.73
					c8.11-1.162,17.397-3.444,22.181-5.145c2.812-1,3.105-8.735,1.946-13.035C640.276,418.28,606.77,424.193,604.053,425.554z"/>
				<path style="fill:#FFD2B3;" d="M648.591,278.379c-2.648-15.435-29.919-12.442-30.434,0.44c0,0,2.946,30.203,6.019,48.522
					c3.553,21.178,4.747,72.422,2.493,84.605c-0.572,3.093-21.075,12.315-22.689,13.799c-1.367,1.257,2.404,4.174,7.711,4.337
					c3.662,0.11,28.195-4.094,28.582-7.693c0.081-0.753-0.015-6.856,0.773-10.711c2.976-14.563,10.083-42.712,8.316-52.759
					C646.706,343.806,651.24,293.813,648.591,278.379z"/>
				<path style="fill:#FFB98B;" d="M624.736,331.083c6.055-2.173,22.557,0.883,23.759,10.766
					c0.048-21.152,2.074-51.945,0.097-63.471c-2.648-15.435-29.919-12.443-30.434,0.44c0,0,2.946,30.203,6.019,48.522
					C624.37,328.497,624.556,329.758,624.736,331.083z"/>
			</g>
			<path style="fill:#070540;" d="M624.068,217.598c-10.543,31.171-6.141,95.146-5.775,98.105
				c1.538,12.411,62.747,8.085,62.88,3.023c0.68-25.963-0.588-81.033-1.916-96.696C677.929,206.367,627.335,208.808,624.068,217.598
				z"/>
			<path style="fill:#6B78B7;" d="M663.082,139.442c-9.778,1.177-26.123,5.362-26.989,9.859c-1.482,9.549-6.931,12.409-10.42,18.447
				c-2.247,3.888-0.051,11.036,1.49,14.898c3.063,7.678-7.494,38.156-6.396,41.006c2.843,6.127,51.589,12.759,59.908,1.052
				c1.303-1.834-3.128-23.607-2.67-33.463c0.458-9.855,16.431-29.49,15.593-40.033C693.053,144.349,678.311,137.609,663.082,139.442
				z"/>
			<g>
				<path style="fill:#E6E8F4;" d="M668.701,137.332c2.215,0,4.328-1.517,5.856-0.953c3.437,1.27,3.645,7.825,2.629,13.68
					c0,0-2.652-3.833-3.884-3.645c-1.232,0.188-9.47,4.628-10.888,6.562c-0.466-2.559-1.72-4.77-3.02-0.192
					c-2.229-2.964-5.292-7.443-6.421-7.067s-3.187,2.529-3.598,3.292c-0.499,0.927-0.139-6.129,4.208-10.603
					c1.386-1.426,4.293-0.581,6.812-0.358C663.985,138.366,666.485,137.332,668.701,137.332z"/>
				<g>
					<path style="fill:#070540;" d="M663.461,128.149c-16.474,0.017-18.196-28.871,0.044-29.872
						c10.967-0.602,14.902,6.186,14.826,13.776C678.277,117.301,675.527,128.137,663.461,128.149z"/>
					<path style="fill:#FFD2B3;" d="M657.158,125.039c0,0,4.372,12.235-1.895,15.834c-1.479,6.323,4.475,7.633,4.774,15.699
						c3.901-8.184,15.769-11.937,12.792-17.194c-1.912-3.377-2.218-3.897-2.418-16.538
						C670.238,111.896,657.722,119.771,657.158,125.039z"/>
					<path style="fill:#FFB98B;" d="M658.52,135.151c5.185,4.221,10.154-1.182,12.142-3.76c-0.121-2.02-0.192-4.729-0.252-8.551
						c-0.173-10.944-12.688-3.069-13.252,2.199C657.158,125.039,659.081,130.463,658.52,135.151z"/>
					<path style="fill:#FFD2B3;" d="M654.021,115.76c-0.335,2.23,0.664,7.39,1.373,9.83c0.709,2.44,3.725,6.138,6.352,5.928
						c2.627-0.21,7.839-3.49,8.352-6.319c0.225-1.243,0.24-1.915,0.312-2.359c0.289,0.802,1.948,0.042,2.727-1.36
						c0.622-1.119,0.228-2.595-0.311-2.813c-1.214-0.49-2.325,0.805-2.521,1.443c0.193-2.281-0.064-4.422-1.084-5.792
						c-1.929-2.589-7.964-2.425-8.603-5.826C659.203,111.911,654.357,113.53,654.021,115.76z"/>
					<path style="fill:#070540;" d="M665.896,107.729c-3.789-1.131-9.817-6.181-5.042-14.623c5.97-10.555,21.926-4,19.978,6.543
						C678.884,110.192,668.455,108.493,665.896,107.729z"/>
				</g>
			</g>
			<g style="opacity:0.2;">
				<path style="fill:#6B78B7;" d="M635.875,150.456c-0.929,4.633-2.833,7.619-4.924,10.274c0.372-0.178,0.529-0.337,0.365-0.47
					c6.647-4.082,11.129-10.817,5.068-9.894C636.222,150.391,636.046,150.425,635.875,150.456z"/>
				<path style="fill:#6B78B7;" d="M678.005,191.24c0.354-7.601,9.929-21.015,13.91-31.593c-6.27-2.89-12.415-3.646-14.525,2.567
					c-4.893,14.407-18.141,21.692-26.391,21.636c-8.251-0.056-12.72-6.247-17.794-4.299c-5.062,1.944-7.615-1.675-7.627-1.692
					c0.473,1.801,1.065,3.483,1.585,4.786c2.483,6.224-3.984,27.43-5.937,36.755c3.488-1.476,8.994-4.184,32.179-5.864
					c24.392-1.768,27.289,6.077,27.293,6.088C679.97,212.153,677.668,198.483,678.005,191.24z"/>
			</g>
			<g>
				<g>
					<path style="fill:#E6E8F4;" d="M624.526,178.864v4.126l24.972,12.216c0.692,0.339,1.5-0.165,1.5-0.936v-1.246
						c0-0.391-0.219-0.75-0.568-0.928L624.526,178.864z"/>
					<polygon style="fill:#CBCFE6;" points="624.526,178.864 594.88,178.864 594.88,182.874 624.526,182.989 					"/>
					<path style="fill:#ACB3D8;" d="M649.993,195.312h-31.727c-0.782,0-1.552-0.201-2.234-0.583l-21.151-11.854l29.646,0.115
						L649.993,195.312z"/>
					<g>
						<path style="fill:#E6E8F4;" d="M626.581,176.563l-8.036-27.427c-0.224-0.765-0.926-1.291-1.723-1.291h-2.729
							c0.797,0,1.499,0.526,1.723,1.291l8.036,27.427c0.337,1.15-0.525,2.3-1.723,2.3h2.729
							C626.056,178.864,626.918,177.713,626.581,176.563z"/>
						<path style="fill:#ACB3D8;" d="M623.852,176.563l-8.036-27.427c-0.224-0.765-0.926-1.291-1.723-1.291h-23.176h-2.729
							c-1.198,0-2.06,1.151-1.723,2.3l8.036,27.427c0.224,0.765,0.926,1.291,1.723,1.291h2.729h23.176
							C623.327,178.864,624.189,177.713,623.852,176.563z"/>
					</g>
				</g>
				<g>
					<path style="fill:#070540;" d="M623.926,203.731c0,0-1.319-1.842-0.654-5.832c0.665-3.99,6.343-0.435,6.343-0.358
						C629.615,197.617,623.926,203.731,623.926,203.731z"/>
					<g>
						<path style="fill:#FFB98B;" d="M601.836,185.51c0,0-5.042-1.2-6.532-1.66c-1.49-0.46-5.696-5.257-6.44-6.117
							c-0.745-0.859,0.378-1.701,1.914-1.161C592.516,177.183,601.836,185.51,601.836,185.51z"/>
						<path style="fill:#FFD2B3;" d="M625.957,190.935c0,0-3.112-0.382-4.639-1.986c-1.528-1.604-1.003-2.562-4.245-3.802
							c-3.242-1.24-7.979-3.379-9.125-5.9c-1.146-2.521-1.814-4.851-3.533-5.539c-1.719-0.688-2.177,0.459-2.235,1.948
							c-0.057,1.49,0.745,4.355,0.745,4.355s-4.125-3.896-4.87-5.329c-0.745-1.432-0.63-5.73-1.432-8.194
							c-0.802-2.464-2.693-1.547-2.808-0.229c-0.115,1.318,0.286,7.563,0.286,7.563s-1.203-3.896-2.406-4.985
							c-1.203-1.089-2.063-0.458-2.235,0.573c-0.172,1.031,2.75,8.366,3.381,9.798c0.63,1.432,8.652,8.251,10.084,9.34
							c1.433,1.089,13.064,7.678,14.783,8.996c1.719,1.318,15.814,5.214,15.814,5.214S631.342,192.978,625.957,190.935z"/>
						<path style="fill:#FFB98B;" d="M620.554,195.442c-1.91,1.986-7.982-1.085-7.982-1.085l0,0
							c2.406,1.428,4.484,2.686,5.136,3.186c1.719,1.318,15.814,5.214,15.814,5.214s-2.181-9.779-7.565-11.822
							c0,0-3.112-0.382-4.639-1.986C621.318,188.948,622.464,193.456,620.554,195.442z"/>
						<path style="fill:#6B78B7;" d="M693.064,149.253c0.124,0.312,3.659,7.319-0.237,21.13
							c-2.88,10.21-15.433,38.581-18.336,42.401s-47.912-8.101-50.565-9.053c0,0,5.031-5.921,2.031-12.797
							c0,0,30.418,5.726,36.272,4.889c3.209-0.458,13.62-30.979,16.846-37.473C684.027,148.381,691.315,144.856,693.064,149.253z"/>
					</g>
				</g>
			</g>
		</g>
	</g>
	<g>
		<path style="fill:#DBDDDF;" d="M103.002,393.478c-0.011,3.011,34.26,3.507,47.656,1.595c10.996-1.57,0.766-4.227-19.408-4.227
			C113.847,390.846,103.007,392.159,103.002,393.478z"/>
		<rect x="110.232" y="355.907" style="fill:#7A3F17;" width="37.688" height="7.422"/>
		<polygon style="fill:#69340F;" points="140.672,393.526 117.48,393.526 113.977,363.328 144.175,363.328 		"/>
		<polygon style="fill:#572B0C;" points="143.637,367.962 144.175,363.328 113.977,363.328 114.515,367.962 		"/>
		<g>
			<path style="fill:#00877A;" d="M123.853,355.907h3.915c0.371-0.611,0.759-1.25,1.165-1.917c1.671-2.767,3.563-6.03,5.527-9.561
				c1.919-3.555,3.935-7.367,5.738-11.282c3.685-7.795,6.668-15.904,8.524-22.094c0.455-1.551,0.901-2.964,1.246-4.231
				c0.322-1.273,0.602-2.383,0.833-3.297c0.459-1.829,0.722-2.874,0.722-2.874c-2.749-0.622-4.25,1.464-5.334,3.821
				c-0.522,1.186-1.017,2.426-1.513,3.435c-0.489,1.011-0.971,1.791-1.538,2.032c-1.731,0.735-3.4-0.086-5.003-0.832
				c-1.601-0.752-3.134-1.432-4.538-0.585c-1.361,0.792-1.043,2.166-0.602,3.52c0.428,1.344,1.001,2.669,0.037,3.166
				c-0.978,0.514-2.668-0.608-4.571-1.535c-1.901-0.932-4.014-1.671-5.763-0.575c-2.034,1.274-0.751,3.349,0.628,5.494
				c1.39,2.132,3.043,4.363,1.721,5.585c-1.062,1.002-3.652-1.116-4.464,0.916c-0.502,1.303,0.57,2.837,1.672,4.416
				c1.085,1.573,2.186,3.19,1.545,4.554c-0.78,1.646-3.804,0.215-5.091,1.474c-1.421,1.356,0.896,6.465,2.888,12.254
				C122.523,350.493,123.389,353.323,123.853,355.907z"/>
			<path style="fill:#009E8F;" d="M145.213,355.907c2.842-0.782,4.895-1.711,5.213-2.981c0.493-2.066-2.364-3.809-1.308-5.592
				c0.872-1.484,2.843-1.713,4.852-1.943c1.993-0.24,4.037-0.471,4.848-2.058c1.284-2.46-2.096-2.886-1.888-4.605
				c0.269-2.07,3.008-2.691,5.717-3.545c2.707-0.838,5.244-2.01,4.825-4.957c-0.357-2.507-2.455-3.285-4.527-3.774
				c-2.074-0.484-4.122-0.68-4.454-1.838c-0.31-1.116,0.939-1.97,2.195-2.977c1.24-1.007,2.467-2.182,1.906-3.856
				c-0.623-1.769-2.286-2.013-4.032-2.279c-1.748-0.26-3.577-0.546-4.587-2.226c-0.331-0.549-0.288-1.524-0.124-2.702
				c0.171-1.175,0.457-2.557,0.539-3.935c0.207-2.747-0.103-5.366-2.853-5.988c0,0-0.266,1.044-0.732,2.871
				c-0.232,0.914-0.513,2.024-0.836,3.297c-0.345,1.267-0.792,2.68-1.247,4.23c-1.857,6.19-4.839,14.299-8.522,22.095
				c-1.803,3.915-3.818,7.728-5.735,11.284c-1.963,3.532-3.853,6.796-5.523,9.563c-0.404,0.666-0.792,1.304-1.162,1.914H145.213z"/>
			<path style="fill:#2BAEA2;" d="M128.521,355.907c2.075-3.43,4.124-6.881,6.064-10.397c4.88-8.862,9.248-18.047,12.568-27.626
				l1.115-3.723c0.37-1.24,0.656-2.506,0.988-3.756c0.31-1.257,0.666-2.499,0.936-3.764l0.801-3.793l-0.036-0.009l-1.098,3.712
				c-0.368,1.235-0.822,2.445-1.229,3.668c-0.428,1.216-0.811,2.445-1.276,3.646l-1.398,3.599
				c-3.294,9.504-7.629,18.62-12.481,27.434c-2.054,3.72-4.232,7.371-6.438,11.011H128.521z"/>
		</g>
		<g>
			<g>
				<path style="fill:#00877A;" d="M108.617,332.434c0.628,2.103,1.268,4.151,1.913,6.134c0.744,1.988,1.498,3.91,2.242,5.753
					c0.726,1.844,1.656,3.612,2.451,5.289c0.424,0.838,0.791,1.656,1.247,2.448c0.454,0.783,0.9,1.551,1.336,2.303
					c0.316,0.528,0.619,1.041,0.921,1.545h6.455c-1.358-4.393-2.334-8.912-3.026-13.446c-1.443-9.385-1.787-18.92-1.308-28.397
					c0.905-18.983,5.452-37.699,12.645-55.254c-3.634-1.53-9.522-0.764-15.688,5.108c-1.476,1.487-2.964,3.291-4.429,5.441
					c-0.366,0.538-0.733,1.096-1.092,1.678c-0.332,0.59-0.662,1.202-0.988,1.837c-0.652,1.269-1.289,2.629-1.907,4.081
					c-2.461,5.803-4.215,13.22-4.696,22.174c-0.451,8.821,0.479,18.141,2.34,26.871C107.548,328.19,107.979,330.331,108.617,332.434
					z"/>
			</g>
			<g>
				<path style="fill:#009E8F;" d="M125.181,355.907h5.374c0.002-0.219,0.004-0.426,0.006-0.649
					c-0.034-1.334,0.11-2.817,0.185-4.312c0.04-0.745,0.082-1.506,0.124-2.281c0.037-0.769,0.158-1.585,0.231-2.39
					c0.193-1.628,0.271-3.248,0.536-4.964c0.232-1.691,0.471-3.424,0.714-5.19c0.324-1.775,0.635-3.565,0.929-5.362
					c0.284-1.794,0.74-3.634,1.07-5.452c1.526-7.306,3.262-14.675,4.961-21.621c1.752-7.041,2.739-12.979,3.216-18.111
					c0.121-1.281,0.186-2.517,0.2-3.709c-0.006-1.187-0.012-2.325-0.017-3.421c-0.048-2.178-0.287-4.192-0.67-6.042
					c-1.292-7.299-4.868-12.046-8.549-13.593c-7.193,17.555-11.74,36.271-12.645,55.254c-0.479,9.477-0.135,19.012,1.308,28.397
					C122.847,346.994,123.823,351.514,125.181,355.907z"/>
			</g>
		</g>
	</g>
	<g>
		<g>
			<ellipse style="fill:#DBDDDF;" cx="426.266" cy="341.03" rx="52.236" ry="5.916"/>
			<g>
				<polygon style="fill:#DBDDDF;" points="292.547,349.153 496.387,349.153 555.823,387.714 236.163,387.714 				"/>
			</g>
			<g>
				<g>
					
						<rect x="417.089" y="283.853" transform="matrix(-1 -1.224647e-16 1.224647e-16 -1 854.577 584.3738)" style="fill:#ACB3D8;" width="20.399" height="16.667"/>
					<g>
						
							<rect x="423.542" y="300.521" transform="matrix(-1 -1.224647e-16 1.224647e-16 -1 853.7044 634.3576)" style="fill:#ACB3D8;" width="6.621" height="33.317"/>
						<path style="fill:#ACB3D8;" d="M461.703,332.618v2.847h-4.776v-2.513c0-2.705-2.193-4.898-4.898-4.898H402.54
							c-2.705,0-4.898,2.193-4.898,4.898v2.513h-4.776v-2.847c0-4.686,3.799-8.486,8.486-8.486h51.866
							C457.904,324.132,461.703,327.931,461.703,332.618z"/>
						<path style="fill:#070540;" d="M454.13,337.771c0-2.864,2.322-5.185,5.185-5.185c2.864,0,5.185,2.322,5.185,5.185
							c0,2.864-2.322,5.185-5.185,5.185C456.451,342.956,454.13,340.635,454.13,337.771z"/>
						<circle style="fill:#070540;" cx="426.948" cy="337.771" r="5.185"/>
						<path style="fill:#070540;" d="M390.047,337.771c0-2.864,2.322-5.185,5.185-5.185s5.185,2.322,5.185,5.185
							c0,2.864-2.321,5.185-5.185,5.185S390.047,340.635,390.047,337.771z"/>
					</g>
				</g>
				<path style="fill:#E6E8F4;" d="M386.105,280.164c0,0,0,14.608,29.443,15.521c29.443,0.913,50.67-3.599,59.799-13.554
					c9.13-9.955,7.76-22.403,8.673-44.139c0.913-21.736,1.826-44.56-15.749-46.158c-17.73-1.612-29.904,7.532-33.326,28.759
					c-3.421,21.227-0.404,38.654-12.982,43.064C409.386,268.068,384.279,268.524,386.105,280.164z"/>
				<g>
					<path style="fill:#E6E8F4;" d="M419.828,264.723c0.979-0.343,1.854-0.775,2.655-1.272c-0.173,0.068-0.339,0.143-0.518,0.206
						c-8.756,3.07-23.573,4.228-31.161,8.572C398.789,268.735,411.835,267.525,419.828,264.723z"/>
					<path style="fill:#E6E8F4;" d="M468.272,191.835c-7.037-0.64-13.194,0.422-18.281,3.253c4.643-2.028,10.067-2.74,16.144-2.188
						c17.575,1.598,16.662,24.422,15.749,46.158c-0.913,21.736,0.457,34.184-8.673,44.139c-1.961,2.138-4.484,4.024-7.523,5.66
						c4.008-1.866,7.257-4.105,9.66-6.725c9.13-9.955,7.76-22.403,8.673-44.139C484.934,216.257,485.847,193.432,468.272,191.835z"
						/>
				</g>
				<path style="fill:#ACB3D8;" d="M389.528,283.892c0,0.457,7.304,9.434,24.802,10.195s39.256-2.265,50.82-13.678
					c11.564-11.412,1.219-10.516-2.737-13.103c-3.956-2.587-59.495-1.217-68.625,4.565
					C384.659,277.654,389.528,283.892,389.528,283.892z"/>
			</g>
			<g>
				<path style="fill:#060433;" d="M476.603,210.836c0,0,0.399,1.541-4.964,1.598c-5.364,0.057,1.141-6.048,1.141-6.048
					S476.432,207.583,476.603,210.836z"/>
				<g>
					<path style="fill:#070540;" d="M391.787,346.178c0,0,3.206,10.172,2.764,13.378c-0.442,3.206-13.931,4.312-16.585,5.086
						c-2.654,0.774-19.703,5.064-24.494,0.568c-1.06-0.995-1.253-4.902,7.26-8.661c8.513-3.759,13.917-8.381,14.47-10.593
						C375.755,343.745,390.986,343.469,391.787,346.178z"/>
					<g>
						<path style="fill:#6B78B7;" d="M393.332,347.8c0,0-9.282,3.043-20.694,0c0,0-9.7-61.69-9.7-75.384
							c0-13.694,37.01-17.962,50.262-18.85c8.858-0.593,32.057-4.367,34.188,9.936c2.13,14.303-9.776,22.216-15.559,22.672
							c-5.782,0.457-36.443-2.815-39.15,0.135C390.823,288.332,391.955,312.575,393.332,347.8z"/>
						<path style="opacity:0.3;fill:#6B78B7;" d="M431.829,286.175c5.782-0.456,17.689-8.369,15.559-22.672
							c-2.13-14.303-25.329-10.53-34.188-9.936c-0.296,0.02-0.618,0.043-0.937,0.067c7.973,5.498,0.316,13.902-9.574,18.315
							c-9.891,4.413-10.51,15.79-10.51,15.79s0.001,0.002,0.001,0.002c0.134-0.72,0.298-1.211,0.497-1.429
							C395.387,283.36,426.047,286.631,431.829,286.175z"/>
					</g>
					<g>
						<path style="fill:#070540;" d="M420.929,353.773c0,0-0.114,6.391-1.027,9.13s-3.31,6.771-3.195,10.309
							c0.114,3.538,14.493,4.641,18.373,1.103c3.88-3.538,2.579-12.832,2.464-13.974s-0.867-6.454-3.035-7.938
							C432.341,350.92,422.184,352.827,420.929,353.773z"/>
						<g>
							<path style="fill:#6B78B7;" d="M441.041,255.081c-8.101,2.322-21.157,7.052-26.863,13.215
								c-6.463,6.98,5.478,81.825,5.706,86.846c0,0,11.772,3.309,17.917-1.027c0,0-0.114-60.941,0.571-63.908
								c0.685-2.967,28.987-3.195,34.465-19.172C478.315,255.058,449.142,252.759,441.041,255.081z"/>
							<path style="opacity:0.3;fill:#6B78B7;" d="M441.042,255.081c-1.257,0.36-2.641,0.785-4.091,1.257
								c15.972-0.482,32.422,20.485,24.375,26.249c5.152-2.517,9.65-6.125,11.511-11.553
								C478.315,255.058,449.142,252.759,441.042,255.081z"/>
						</g>
					</g>
					<path style="fill:#070540;" d="M472.609,244.559c-3.505-9.92,7.212-51.079-0.439-61.404
						c-8.747-11.805-44.782-10.767-56.85-3.189c-9.757,7.247-4.815,26.598-2.054,33.456c0,0,15.64,26.361,5.826,39.646
						c2.748-0.232,9.886,2.914,19.577,2.724c18.039-0.354,34.637,6.167,31.605,19.961
						C475.461,272.404,478.657,261.677,472.609,244.559z"/>
					<g>
						<path style="fill:#FFD2B3;" d="M430.334,169.05c0,0,0.743,7.42,0.532,10.089c-0.211,2.669-2.565,9.479,1.525,11.094
							c5.933,2.343,14.025-6.657,14.906-11.263c0.881-4.606-1.462-4.074-2.302-4.822c-0.841-0.747-0.419-11.283-0.419-11.283
							L430.334,169.05z"/>
						<path style="fill:#FFB98B;" d="M430.889,178.687c8.349-0.264,10.02-5.836,13.581-10.57c0.003-2.687,0.105-5.25,0.105-5.25
							l-14.242,6.184C430.334,169.05,431.001,175.724,430.889,178.687z"/>
						<path style="fill:#FFD2B3;" d="M433.389,144.84c0,0,8.504-2.709,12.387,3.024c3.882,5.733-1.257,11.754-1.45,14.835
							c-0.226,3.601-2.935,8.853-9.065,10.727c-5.567,1.702-7.636-0.127-7.768-2.465c-0.131-2.339-1.11-10.898-0.857-14.892
							C426.888,152.075,428.184,146.913,433.389,144.84z"/>
						<path style="fill:#922723;" d="M442.725,161.847c-0.206,0.521-0.878,0.385-0.89,0.066c-0.023-0.606,0.725-3.914,0.311-5.374
							c-0.269-0.949-1.712-1.6-1.732-2.603c-0.103-5.032-3.194-3.97-4.81-3.765c-6.404,0.812-6.963,0.377-7.56-0.2
							c-0.597-0.577-1.245-4.065-0.175-4.874c0.774-0.584,1.568,0.503,4.806-0.503c5.177-1.609,12.955-1.394,14.554,3.589
							c1.557,4.855-0.356,11.417-1.568,14.138C444.919,162.309,443.012,161.122,442.725,161.847z"/>
						<path style="fill:#FFD2B3;" d="M442.651,162.132c0,0,0.832-3.96,3.568-3.535c2.585,0.402,1.062,6.286-2.74,7.073
							c-0.493,0.102-0.99-0.2-1.086-0.694C442.289,164.443,442.291,163.563,442.651,162.132z"/>
					</g>
				</g>
				<g>
					<polygon style="fill:#FFFFFF;" points="298.688,235.993 505.394,235.993 528.219,250.265 263.767,250.265 					"/>
					<rect x="263.767" y="250.265" style="fill:#E6E8F4;" width="264.452" height="7.304"/>
					<g>
						<rect x="304.526" y="257.569" style="fill:#6B78B7;" width="8.958" height="98.159"/>
						<rect x="478.501" y="257.569" style="fill:#6B78B7;" width="8.958" height="98.159"/>
					</g>
					<g>
						<rect x="499.84" y="257.569" style="fill:#ACB3D8;" width="11.869" height="127.133"/>
						<rect x="499.84" y="257.568" style="opacity:0.4;fill:#6B78B7;" width="11.869" height="17.758"/>
					</g>
					<g>
						<rect x="273.581" y="257.569" style="fill:#ACB3D8;" width="11.869" height="127.133"/>
						<rect x="273.581" y="257.568" style="opacity:0.4;fill:#6B78B7;" width="11.869" height="17.758"/>
					</g>
				</g>
				<g>
					<g>
						<path style="fill:#E6E8F4;" d="M350.309,230.141c0,0-7.152-1.141-10.157,2.511c-3.005,3.652-2.853,5.136-1.598,6.048
							c1.255,0.913,15.444,1.408,19.781-0.418C360.663,237.302,355.661,230.079,350.309,230.141z"/>
						<path style="fill:#FFB98B;" d="M346.391,227.973c0,0-3.918-0.342-4.831,0.152c-0.913,0.495-3.69,5.25-3.804,6.163
							c-0.114,0.913,2.236,1.718,3.267-0.034C342.054,232.501,346.391,227.973,346.391,227.973z"/>
						<path style="fill:#FFD2B3;" d="M400.027,206.67c0,0-5.455,13.04-8.331,18.887c-1.712,3.481-29.881,4.46-31.783,4.08
							c-1.902-0.38-7.056-3.186-8.958-2.958c-1.902,0.228-5.25,0.761-6.22,1.788c-0.97,1.027-3.298,5.07-4.125,6.496
							c-0.674,1.162,2.312,1.696,3.342,0.394c0.869-1.099,2.496-2.611,3.009-3.067c0.514-0.456,2.853-1.084,3.652-0.913
							c0.799,0.171,2.454,1.312,2.454,1.826c0,0.514-4.337,2.669-5.364,3.731c-1.027,1.062,1.141,2.716,3.595,1.575
							c2.454-1.141,5.763,0.057,7.361,0.057c1.598,0,3.794-0.913,4.194-1.484c0.399-0.571,18.516,1.141,36.776-0.628
							c4.135-0.4,12.386-21.334,12.955-23.049C413.151,211.692,400.749,204.551,400.027,206.67z"/>
						<path style="opacity:0.5;fill:#FFB98B;" d="M400.027,206.67c0,0-5.455,13.04-8.331,18.887
							c-0.833,1.694-7.932,2.794-15.219,3.435c1.493,2.451,1.474,5.828-0.053,8.259c6.598,0.094,14.883,0.011,23.204-0.795
							c4.135-0.4,12.386-21.334,12.955-23.049C413.151,211.692,400.749,204.551,400.027,206.67z"/>
						<path style="fill:#FFB98B;" d="M400.028,206.67c0,0-1.285,3.072-2.936,6.9c7.462,0.899,9.863,12.761,9.556,13.466
							c2.992-5.95,5.623-12.687,5.935-13.629C413.151,211.692,400.749,204.551,400.028,206.67z"/>
						<g>
							<path style="fill:#FFB98B;" d="M346.57,232.648c-0.008,0.007-0.017,0.015-0.025,0.022c-0.001,0.001-0.001,0.001-0.002,0.002
								C346.552,232.664,346.561,232.656,346.57,232.648z"/>
							<path style="fill:#FFB98B;" d="M352.268,229.837c-1.596-0.103-3.853,1.208-5.282,2.438c0.548-0.455,2.838-1.066,3.627-0.897
								c0.799,0.171,2.454,1.312,2.454,1.826c0,0.148-0.366,0.434-0.902,0.789c0.002-0.002,0.007-0.003,0.009-0.005
								c1.549-1.07,3.176-1.755,3.575-2.04C356.148,231.663,354.037,229.951,352.268,229.837z"/>
						</g>
					</g>
					<path style="fill:#070540;" d="M415.32,179.966c-11.519,7.234-16.014,26.758-16.802,28.843
						c-0.535,1.415,8.982,4.613,14.748,4.613C410.505,206.564,405.562,187.213,415.32,179.966z"/>
				</g>
				<g>
					<path style="fill:#E6E8F4;" d="M420.189,240.034c0,0.556-15.477,1.006-34.568,1.006c-19.091,0-34.568-0.45-34.568-1.006
						c0-0.556,15.477-1.006,34.568-1.006C404.713,239.028,420.189,239.478,420.189,240.034z"/>
					<g>
						<path style="fill:#ACB3D8;" d="M417.405,237.335h-62.791c-0.571,0-1.034,0.463-1.034,1.034V239
							c0,0.571,0.463,1.034,1.034,1.034h62.791c0.571,0,1.034-0.463,1.034-1.034v-0.632
							C418.439,237.798,417.976,237.335,417.405,237.335z"/>
						<rect x="355.201" y="236.751" style="fill:#070540;" width="59.754" height="0.584"/>
					</g>
				</g>
				<g>
					<g>
						<path style="fill:#FFD2B3;" d="M458.722,206.281c-1.063,3.414-1.441,7.885-2.547,13.856
							c-0.471,2.544-32.715,9.282-40.247,9.434c-7.532,0.152-12.249-2.073-16.757-2.587c-4.508-0.514-8.198-0.163-8.921,0.318
							c-0.723,0.481-3.582,5.064-4.146,6.225c-0.685,1.408-0.723,2.86,0.419,2.663s2.168-2.397,2.168-2.397
							s-0.913,2.016,0.038,2.891c0.951,0.875,2.397-0.38,2.929-1.255c0.533-0.875,1.446-2.435,2.32-2.815s2.244,0.076,2.244,0.076
							s-3.266,2.583-3.345,3.517c-0.079,0.934,2.457,1.11,4.213-0.214c1.756-1.325,2.39-1.957,3.81-1.819
							c1.42,0.138,4.907,3.69,7.874,4.032c2.967,0.342,4.185-0.951,7.076-1.331c2.891-0.38,42.833,1.643,47.17,0.38
							c4.337-1.262,11.069-21.226,12.435-27.388C476.823,203.704,459.718,203.082,458.722,206.281z"/>
						<path style="fill:#FFB98B;" d="M393.979,232.614c0.875-0.38,2.244,0.076,2.244,0.076s2.392-1.879,3.193-2.366
							C400.317,229.777,395.411,231.806,393.979,232.614z"/>
						<path style="fill:#FFB98B;" d="M397.198,226.81c-3.577-0.229-6.333,0.084-6.947,0.492c-0.723,0.481-3.582,5.064-4.146,6.225
							c-0.685,1.407-0.723,2.86,0.419,2.663s2.168-2.397,2.168-2.397s1.866-3.9,2.973-4.638
							C392.94,228.33,394.952,227.324,397.198,226.81z"/>
					</g>
					<path style="fill:#FFB98B;" d="M473.785,215.823c0.773-2.442,1.362-4.557,1.672-5.957c1.366-6.162-15.739-6.785-16.735-3.586
						c-0.503,1.614-0.852,3.474-1.198,5.607C461.234,210.103,474.434,211.23,473.785,215.823z"/>
					<path style="fill:#070540;" d="M472.169,183.155c4.143,5.772,5.178,12.797,4.434,27.681c0,0-6.535-5.54-18.347-2.82
						c0,0,0.532-10.948,2.997-18.464C463.579,182.465,468.383,177.88,472.169,183.155z"/>
				</g>
			</g>
		</g>
		<g>
			<g>
				<g>
					<path style="fill:#D5D7E2;" d="M359.125,162.631h-49.276c-2.442,0-4.253,2.265-3.716,4.647l10.963,48.633
						c0.392,1.737,1.935,2.971,3.716,2.971h49.276c2.441,0,4.253-2.265,3.716-4.647l-10.963-48.632
						C362.449,163.865,360.906,162.631,359.125,162.631z"/>
					<path style="fill:#E6E8F4;" d="M351.697,162.631h-49.276c-2.442,0-4.253,2.265-3.716,4.647l10.964,48.633
						c0.392,1.737,1.935,2.971,3.716,2.971h49.276c2.442,0,4.253-2.265,3.716-4.647l-10.963-48.632
						C355.021,163.865,353.478,162.631,351.697,162.631z"/>
				</g>
				<path style="fill:#D5D7E2;" d="M323.794,186.501l-3.419,32.354c0.102,0.008,0.201,0.026,0.304,0.026h19.092l-4.105-32.38
					H323.794z"/>
			</g>
			<g>
				<path style="fill:#ACB3D8;" d="M327.559,241.706c-2.674,0-4.643-2.502-4.014-5.101l12.122-50.104h-14.481l-12.16,50.26
					c-0.761,3.145,1.622,6.173,4.858,6.173h36.957v-1.228H327.559z"/>
				<path style="fill:#E6E8F4;" d="M341.748,241.706h-14.189c-2.674,0-4.643-2.502-4.014-5.101l12.122-50.104h-1.395l-12.16,50.26
					c-0.761,3.145,1.622,6.173,4.858,6.173h23.871v-1.228H341.748z"/>
			</g>
		</g>
	</g>
</g>
</svg>
