<?xml version="1.0" encoding="utf-8"?>
<!-- Generator: Adobe Illustrator 27.5.0, SVG Export Plug-In . SVG Version: 6.00 Build 0)  -->
<svg version="1.1" xmlns="http://www.w3.org/2000/svg" xmlns:xlink="http://www.w3.org/1999/xlink" x="0px" y="0px"
	 viewBox="0 0 750 500" style="enable-background:new 0 0 750 500;" xml:space="preserve">
<g id="BACKGROUND">
	<g>
		<g>
			<rect style="fill:#FFFFFF;" width="750" height="500"/>
		</g>
	</g>
</g>
<g id="OBJECTS">
	<g>
		<g>
			<linearGradient id="SVGID_1_" gradientUnits="userSpaceOnUse" x1="537.8517" y1="244.798" x2="536.8242" y2="100.9327">
				<stop  offset="0" style="stop-color:#B866FA"/>
				<stop  offset="1" style="stop-color:#78DDFE"/>
			</linearGradient>
			<path style="fill:url(#SVGID_1_);" d="M537.058,140.424c8.635,0,8.65-13.42,0-13.42
				C528.423,127.004,528.409,140.424,537.058,140.424L537.058,140.424z"/>
			<g>
				
					<linearGradient id="SVGID_00000029730466399127743110000003081710424727038907_" gradientUnits="userSpaceOnUse" x1="623.1204" y1="266.025" x2="624.0709" y2="237.9853">
					<stop  offset="0" style="stop-color:#B866FA"/>
					<stop  offset="1" style="stop-color:#78DDFE"/>
				</linearGradient>
				<path style="fill:url(#SVGID_00000029730466399127743110000003081710424727038907_);" d="M623.996,250.939
					c13.817,0,13.839-21.473,0-21.473C610.179,229.466,610.156,250.939,623.996,250.939L623.996,250.939z"/>
			</g>
			<g>
				
					<linearGradient id="SVGID_00000044174606313936983450000004849180133372009131_" gradientUnits="userSpaceOnUse" x1="196.1706" y1="287.2568" x2="195.1431" y2="143.3929">
					<stop  offset="0" style="stop-color:#B866FA"/>
					<stop  offset="1" style="stop-color:#78DDFE"/>
				</linearGradient>
				<path style="fill:url(#SVGID_00000044174606313936983450000004849180133372009131_);" d="M194.27,176.959c0.7,0,1.4,0,2.101,0
					c1.201,0.045,2.321-0.205,3.361-0.751c1.081-0.352,2.017-0.953,2.807-1.804c0.851-0.79,1.452-1.726,1.804-2.807
					c0.546-1.04,0.797-2.16,0.751-3.361c-0.104-0.773-0.208-1.546-0.312-2.319c-0.414-1.478-1.162-2.761-2.243-3.849
					c-1.707-1.567-3.805-2.555-6.168-2.555c-0.7,0-1.4,0-2.101,0c-1.201-0.045-2.321,0.205-3.361,0.751
					c-1.082,0.352-2.017,0.953-2.807,1.804c-0.851,0.79-1.452,1.726-1.804,2.807c-0.546,1.04-0.797,2.16-0.751,3.361
					c0.104,0.773,0.208,1.546,0.312,2.319c0.414,1.478,1.162,2.761,2.243,3.85C189.809,175.97,191.907,176.959,194.27,176.959
					L194.27,176.959z"/>
			</g>
			<g>
				
					<linearGradient id="SVGID_00000062173212422276581930000008638842707836668856_" gradientUnits="userSpaceOnUse" x1="149.3612" y1="314.1089" x2="148.3337" y2="170.2446">
					<stop  offset="0" style="stop-color:#B866FA"/>
					<stop  offset="1" style="stop-color:#78DDFE"/>
				</linearGradient>
				<path style="fill:url(#SVGID_00000062173212422276581930000008638842707836668856_);" d="M148.833,244.229
					c5.181,0,5.19-8.052,0-8.052C143.652,236.176,143.644,244.229,148.833,244.229L148.833,244.229z"/>
			</g>
			<g>
				
					<linearGradient id="SVGID_00000108273185367321392440000002384593500587354795_" gradientUnits="userSpaceOnUse" x1="375.7294" y1="215.6824" x2="374.7019" y2="71.8182">
					<stop  offset="0" style="stop-color:#B866FA"/>
					<stop  offset="1" style="stop-color:#78DDFE"/>
				</linearGradient>
				<path style="fill:url(#SVGID_00000108273185367321392440000002384593500587354795_);" d="M375,120.275
					c8.635,0,8.65-13.42,0-13.42C366.365,106.855,366.35,120.275,375,120.275L375,120.275z"/>
			</g>
			<g>
				
					<linearGradient id="SVGID_00000176010379865135358970000004443606735869277849_" gradientUnits="userSpaceOnUse" x1="96.7104" y1="374.3314" x2="95.6829" y2="230.4669">
					<stop  offset="0" style="stop-color:#B866FA"/>
					<stop  offset="1" style="stop-color:#78DDFE"/>
				</linearGradient>
				<path style="fill:url(#SVGID_00000176010379865135358970000004443606735869277849_);" d="M96.238,317.53
					c12.09,0,12.109-18.789,0-18.789C84.148,298.741,84.128,317.53,96.238,317.53L96.238,317.53z"/>
			</g>
		</g>
		<g>
			
				<linearGradient id="SVGID_00000174603529006601741110000014819440411635779987_" gradientUnits="userSpaceOnUse" x1="375" y1="159.231" x2="375" y2="493.8546">
				<stop  offset="0" style="stop-color:#E97FB3"/>
				<stop  offset="0.212" style="stop-color:#AD97C6"/>
				<stop  offset="0.4946" style="stop-color:#64B4DE"/>
				<stop  offset="0.7295" style="stop-color:#2ECAEF"/>
				<stop  offset="0.9045" style="stop-color:#0DD7FA"/>
				<stop  offset="1" style="stop-color:#00DCFE"/>
			</linearGradient>
			<path style="fill:url(#SVGID_00000174603529006601741110000014819440411635779987_);" d="M100.045,391.393
				c0,0,2.26-101.751,63.277-114.491s51.857-100.529,127.876-100.529s64.181,65.133,149.596,23.822
				c85.415-41.311,112.446-19.866,128.559,45.894c24.859,101.453,80.603,70.11,80.603,145.305H100.045z"/>
			
				<linearGradient id="SVGID_00000003088772846180122260000002501073987731029173_" gradientUnits="userSpaceOnUse" x1="545.4692" y1="561.5565" x2="346.5777" y2="344.487">
				<stop  offset="0" style="stop-color:#E97FB3"/>
				<stop  offset="0.212" style="stop-color:#AD97C6"/>
				<stop  offset="0.4946" style="stop-color:#64B4DE"/>
				<stop  offset="0.7295" style="stop-color:#2ECAEF"/>
				<stop  offset="0.9045" style="stop-color:#0DD7FA"/>
				<stop  offset="1" style="stop-color:#00DCFE"/>
			</linearGradient>
			<path style="fill:url(#SVGID_00000003088772846180122260000002501073987731029173_);" d="M624.656,333.369H110.594
				c-9.901,28.991-10.549,58.024-10.549,58.024h549.911C649.956,358.076,639.009,345.674,624.656,333.369z"/>
		</g>
		
			<linearGradient id="SVGID_00000016784506373935734180000015356762858401013432_" gradientUnits="userSpaceOnUse" x1="358.3729" y1="336.8614" x2="358.3729" y2="507.894">
			<stop  offset="0" style="stop-color:#0E090F"/>
			<stop  offset="0.1506" style="stop-color:#160E18;stop-opacity:0.8795"/>
			<stop  offset="0.6857" style="stop-color:#2F1E33;stop-opacity:0.4515"/>
			<stop  offset="1" style="stop-color:#38243D;stop-opacity:0.2"/>
		</linearGradient>
		
			<ellipse style="opacity:0.14;fill:url(#SVGID_00000016784506373935734180000015356762858401013432_);" cx="358.373" cy="372.9" rx="209.54" ry="10.607"/>
		<g>
			
				<linearGradient id="SVGID_00000122718650842807069500000005465466375807784379_" gradientUnits="userSpaceOnUse" x1="770.2625" y1="166.7336" x2="770.2629" y2="173.7201" gradientTransform="matrix(-1 0 0 1 1105.7748 0)">
				<stop  offset="0" style="stop-color:#F9FBFC"/>
				<stop  offset="0.2987" style="stop-color:#F5F8FC"/>
				<stop  offset="0.6027" style="stop-color:#E9EFFD"/>
				<stop  offset="0.9081" style="stop-color:#D4E0FE"/>
				<stop  offset="0.9973" style="stop-color:#CDDBFF"/>
			</linearGradient>
			<polygon style="fill:url(#SVGID_00000122718650842807069500000005465466375807784379_);" points="324.114,173.719 
				346.91,173.719 346.91,166.734 324.114,166.734 			"/>
			<g>
				<g>
					
						<linearGradient id="SVGID_00000110466143790500120970000005567250217396711604_" gradientUnits="userSpaceOnUse" x1="734.216" y1="303.4249" x2="805.0331" y2="303.4249" gradientTransform="matrix(-1 0 0 1 1105.7748 0)">
						<stop  offset="0" style="stop-color:#07154B"/>
						<stop  offset="0.2641" style="stop-color:#0C174E"/>
						<stop  offset="0.5843" style="stop-color:#1B1D57"/>
						<stop  offset="0.9324" style="stop-color:#332767"/>
						<stop  offset="1" style="stop-color:#39296A"/>
					</linearGradient>
					<polygon style="fill:url(#SVGID_00000110466143790500120970000005567250217396711604_);" points="300.742,306.334 
						371.559,306.334 371.559,300.515 300.742,300.515 					"/>
					
						<linearGradient id="SVGID_00000137838068054691299100000017345291524254513804_" gradientUnits="userSpaceOnUse" x1="763.9928" y1="312.9956" x2="775.2563" y2="312.9956" gradientTransform="matrix(-1 0 0 1 1105.7748 0)">
						<stop  offset="0" style="stop-color:#07154B"/>
						<stop  offset="0.2641" style="stop-color:#0C174E"/>
						<stop  offset="0.5843" style="stop-color:#1B1D57"/>
						<stop  offset="0.9324" style="stop-color:#332767"/>
						<stop  offset="1" style="stop-color:#39296A"/>
					</linearGradient>
					<polygon style="fill:url(#SVGID_00000137838068054691299100000017345291524254513804_);" points="330.518,311.235 
						341.782,311.235 341.782,314.757 330.518,314.757 					"/>
					
						<linearGradient id="SVGID_00000174586003669622970740000011366038945379044738_" gradientUnits="userSpaceOnUse" x1="767.3849" y1="325.4427" x2="771.8641" y2="325.4427" gradientTransform="matrix(-1 0 0 1 1105.7748 0)">
						<stop  offset="0" style="stop-color:#07154B"/>
						<stop  offset="0.2641" style="stop-color:#0C174E"/>
						<stop  offset="0.5843" style="stop-color:#1B1D57"/>
						<stop  offset="0.9324" style="stop-color:#332767"/>
						<stop  offset="1" style="stop-color:#39296A"/>
					</linearGradient>
					<polygon style="fill:url(#SVGID_00000174586003669622970740000011366038945379044738_);" points="333.911,336.129 
						338.39,336.129 338.39,314.757 333.911,314.757 					"/>
					
						<linearGradient id="SVGID_00000067918839161623461530000015010857395854029988_" gradientUnits="userSpaceOnUse" x1="766.7533" y1="348.5133" x2="772.4956" y2="348.5133" gradientTransform="matrix(-1 0 0 1 1105.7748 0)">
						<stop  offset="0" style="stop-color:#07154B"/>
						<stop  offset="0.2641" style="stop-color:#0C174E"/>
						<stop  offset="0.5843" style="stop-color:#1B1D57"/>
						<stop  offset="0.9324" style="stop-color:#332767"/>
						<stop  offset="1" style="stop-color:#39296A"/>
					</linearGradient>
					<polygon style="fill:url(#SVGID_00000067918839161623461530000015010857395854029988_);" points="333.279,336.129 
						339.022,336.129 339.022,360.898 333.279,360.898 					"/>
					
						<linearGradient id="SVGID_00000074423769928733249890000006220445206702145168_" gradientUnits="userSpaceOnUse" x1="759.4603" y1="308.7846" x2="779.7888" y2="308.7846" gradientTransform="matrix(-1 0 0 1 1105.7748 0)">
						<stop  offset="0" style="stop-color:#07154B"/>
						<stop  offset="0.2641" style="stop-color:#0C174E"/>
						<stop  offset="0.5843" style="stop-color:#1B1D57"/>
						<stop  offset="0.9324" style="stop-color:#332767"/>
						<stop  offset="1" style="stop-color:#39296A"/>
					</linearGradient>
					<polygon style="fill:url(#SVGID_00000074423769928733249890000006220445206702145168_);" points="333.222,306.335 
						339.079,306.335 346.315,306.335 343.375,311.235 339.079,311.235 333.222,311.235 328.926,311.235 325.986,306.335 					"/>
					<g>
						
							<linearGradient id="SVGID_00000163769739828395779430000006700080551781264555_" gradientUnits="userSpaceOnUse" x1="336.1503" y1="302.6436" x2="336.1503" y2="282.4262">
							<stop  offset="0" style="stop-color:#0064B1"/>
							<stop  offset="0.214" style="stop-color:#0D4685"/>
							<stop  offset="0.4642" style="stop-color:#1A2858"/>
							<stop  offset="0.6876" style="stop-color:#231237"/>
							<stop  offset="0.8738" style="stop-color:#290523"/>
							<stop  offset="1" style="stop-color:#2B001C"/>
						</linearGradient>
						<path style="fill:url(#SVGID_00000163769739828395779430000006700080551781264555_);" d="M339.661,280.399
							c-0.031-0.003-0.062-0.004-0.093-0.005c-0.238-0.012-0.478-0.024-0.71-0.034c-0.386-0.016-0.813-0.029-1.277-0.042
							c-0.098-0.003-0.19-0.003-0.287-0.005c-0.225-0.005-0.466-0.007-0.705-0.01v-0.006c-0.144,0-0.29,0-0.437,0.001
							c-0.147-0.001-0.293-0.001-0.437-0.001v0.006c-0.239,0.002-0.48,0.005-0.705,0.01c-0.097,0.003-0.189,0.003-0.287,0.005
							c-0.465,0.012-0.892,0.026-1.277,0.042c-0.232,0.01-0.472,0.022-0.71,0.034c-0.031,0.001-0.063,0.003-0.094,0.005
							c-11.641,0.579-35.142,3.654-30.712,20.116h33.785h0.875h33.785C374.802,284.054,351.302,280.978,339.661,280.399z"/>
					</g>
				</g>
				<g>
					<g>
						<g>
							
								<linearGradient id="SVGID_00000105421776660760293760000012949769209480944551_" gradientUnits="userSpaceOnUse" x1="739.3094" y1="363.2837" x2="768.0114" y2="363.2837" gradientTransform="matrix(-1 0 0 1 1105.7748 0)">
								<stop  offset="0" style="stop-color:#07154B"/>
								<stop  offset="0.2641" style="stop-color:#0C174E"/>
								<stop  offset="0.5843" style="stop-color:#1B1D57"/>
								<stop  offset="0.9324" style="stop-color:#332767"/>
								<stop  offset="1" style="stop-color:#39296A"/>
							</linearGradient>
							<path style="fill:url(#SVGID_00000105421776660760293760000012949769209480944551_);" d="M337.763,359.6l28.7,13.046
								c0.03-1.45-0.257-3.386-1.624-5.016c-1.967-2.342-16.698-9.22-27.076-13.71V359.6z"/>
						</g>
						
							<linearGradient id="SVGID_00000095308895030348180360000012457209667570436231_" gradientUnits="userSpaceOnUse" x1="740.4212" y1="372.8997" x2="747.5036" y2="372.8997" gradientTransform="matrix(-1 0 0 1 1105.7748 0)">
							<stop  offset="0" style="stop-color:#07154B"/>
							<stop  offset="0.2641" style="stop-color:#0C174E"/>
							<stop  offset="0.5843" style="stop-color:#1B1D57"/>
							<stop  offset="0.9324" style="stop-color:#332767"/>
							<stop  offset="1" style="stop-color:#39296A"/>
						</linearGradient>
						<path style="fill:url(#SVGID_00000095308895030348180360000012457209667570436231_);" d="M358.271,372.9
							c0,1.956,1.585,3.541,3.541,3.541c1.956,0,3.541-1.585,3.541-3.541c0-1.956-1.586-3.541-3.541-3.541
							C359.857,369.359,358.271,370.944,358.271,372.9z"/>
					</g>
					<g>
						<g>
							
								<linearGradient id="SVGID_00000026160924666322514480000011208010441547732892_" gradientUnits="userSpaceOnUse" x1="771.2376" y1="363.2837" x2="799.9396" y2="363.2837" gradientTransform="matrix(-1 0 0 1 1105.7748 0)">
								<stop  offset="0" style="stop-color:#07154B"/>
								<stop  offset="0.2641" style="stop-color:#0C174E"/>
								<stop  offset="0.5843" style="stop-color:#1B1D57"/>
								<stop  offset="0.9324" style="stop-color:#332767"/>
								<stop  offset="1" style="stop-color:#39296A"/>
							</linearGradient>
							<path style="fill:url(#SVGID_00000026160924666322514480000011208010441547732892_);" d="M334.537,353.921
								c-10.378,4.49-25.109,11.368-27.076,13.71c-1.367,1.629-1.655,3.566-1.624,5.016l28.7-13.046V353.921z"/>
						</g>
						
							<linearGradient id="SVGID_00000150065370108873116010000010289239492304018054_" gradientUnits="userSpaceOnUse" x1="791.7455" y1="372.8997" x2="798.8278" y2="372.8997" gradientTransform="matrix(-1 0 0 1 1105.7748 0)">
							<stop  offset="0" style="stop-color:#07154B"/>
							<stop  offset="0.2641" style="stop-color:#0C174E"/>
							<stop  offset="0.5843" style="stop-color:#1B1D57"/>
							<stop  offset="0.9324" style="stop-color:#332767"/>
							<stop  offset="1" style="stop-color:#39296A"/>
						</linearGradient>
						<path style="fill:url(#SVGID_00000150065370108873116010000010289239492304018054_);" d="M314.029,372.9
							c0,1.956-1.585,3.541-3.541,3.541c-1.956,0-3.541-1.585-3.541-3.541c0-1.956,1.585-3.541,3.541-3.541
							C312.444,369.359,314.029,370.944,314.029,372.9z"/>
					</g>
				</g>
			</g>
			<path style="fill:#FFFFFF;" d="M284.632,211.039c2.525-0.753,4.994-1.652,7.44-2.606l-0.001,0.022
				c0,0,29.565-14.424,32.911-22.322c0.082-0.194,2.407-8.482,2.394-9.027l-19.816,2.251c-5.243,2.139-24.983,13.777-30.059,16.188
				c-2.52,1.197-5.28,2.269-7.019,4.456c-1.8,2.264-6.89,3.029-4.089,8.963c1.995,4.227,7.105,3.606,8.729,3.645
				C278.357,212.689,281.55,211.957,284.632,211.039z"/>
			<path style="fill:#FFFFFF;" d="M354.564,175.539c0.543-0.04,8.938,1.864,9.136,1.936c8.057,2.944,20.361,37.023,20.361,37.023
				l-0.002,0c0.629,1.503,1.224,3.021,1.768,4.561c1.073,3.032,1.964,6.184,2.05,9.419c0.043,1.623-0.152,3.346-1.084,4.637
				c-1.722,2.387-5.352,2.291-7.704,0.607c-2.272-1.626-3.17-4.524-4.804-6.785c-4.752-6.574-7.225-10.987-8.766-14.52l-5.854-0.657
				L354.564,175.539z"/>
			<g>
				<g>
					<g>
						<g>
							<path style="fill:#FFC38A;" d="M300.93,360.029c-0.034-0.321-0.078-0.641-0.151-0.953
								C300.857,359.4,300.911,359.719,300.93,360.029z"/>
							<path style="fill:#FFC38A;" d="M279.433,366.21c0.027-0.008,0.054-0.017,0.081-0.026
								C279.487,366.192,279.46,366.201,279.433,366.21z"/>
							<path style="fill:#FFC38A;" d="M279.946,366.029c0.151-0.059,0.302-0.123,0.451-0.191
								C280.244,365.909,280.095,365.97,279.946,366.029z"/>
							<path style="fill:#FFC38A;" d="M274.46,365.21c-0.083-0.063-0.167-0.135-0.25-0.203
								C274.293,365.075,274.374,365.145,274.46,365.21z"/>
							<path style="fill:#FFC38A;" d="M273.845,364.699c0.04,0.036,0.079,0.074,0.12,0.109
								C273.926,364.774,273.885,364.734,273.845,364.699z"/>
						</g>
					</g>
				</g>
				
					<linearGradient id="SVGID_00000047765306582956704120000014534164544942547086_" gradientUnits="userSpaceOnUse" x1="335.5792" y1="260.3339" x2="337.5744" y2="307.4683">
					<stop  offset="0" style="stop-color:#071786"/>
					<stop  offset="0.1509" style="stop-color:#05136B"/>
					<stop  offset="0.3236" style="stop-color:#041055"/>
					<stop  offset="0.5107" style="stop-color:#030E45"/>
					<stop  offset="0.7204" style="stop-color:#020C3B"/>
					<stop  offset="1" style="stop-color:#020C38"/>
				</linearGradient>
				<path style="fill:url(#SVGID_00000047765306582956704120000014534164544942547086_);" d="M278.466,271.296
					c0.091-0.281,0.199-0.552,0.321-0.811c1.757-3.722,6.591-5.265,9.938-6.773c5.661-2.551,11.535-4.516,17.258-6.9
					c6.986-2.91,14.698-5.51,22.293-4.283c2.828,0.457,5.501,1.552,7.874,3.158c2.373-1.606,5.046-2.701,7.874-3.158
					c7.595-1.227,15.307,1.374,22.293,4.283c5.723,2.383,11.597,4.349,17.258,6.9c3.347,1.508,8.181,3.051,9.938,6.773
					c0.123,0.259,0.23,0.53,0.321,0.811c1.124,3.475-0.408,7.289-2.099,10.245c-1.022,1.786-3.984,6.937-6.04,7.37
					c-8.458,1.901-17.219,1.664-25.763,0.592c-5.185-0.651-10.329-1.621-15.45-2.692c-2.617-0.547-5.578-1.055-8.332-2.013
					c-2.753,0.958-5.714,1.466-8.332,2.013c-5.121,1.07-10.265,2.041-15.45,2.692c-8.544,1.072-17.305,1.309-25.763-0.592
					c-2.056-0.433-5.018-5.584-6.04-7.37C278.874,278.585,277.342,274.771,278.466,271.296z"/>
			</g>
			
				<linearGradient id="SVGID_00000178165597509262289390000004619859492746254770_" gradientUnits="userSpaceOnUse" x1="770.1453" y1="192.6237" x2="770.1453" y2="177.4158" gradientTransform="matrix(-1 0 0 1 1105.7748 0)">
				<stop  offset="0" style="stop-color:#F9FBFC"/>
				<stop  offset="0.2923" style="stop-color:#F1F6FD"/>
				<stop  offset="0.733" style="stop-color:#DDE6FE"/>
				<stop  offset="0.9973" style="stop-color:#CDDBFF"/>
			</linearGradient>
			<path style="fill:url(#SVGID_00000178165597509262289390000004619859492746254770_);" d="M335.536,170.764
				c0.031,0,0.063,0.001,0.094,0.002c0.031-0.001,0.063-0.002,0.094,0.004c13.761,0.132,27.976,8.589,27.976,8.589
				c-0.068,1.295-0.135,2.59-0.202,3.885c-0.519,9.962-1.038,19.924-1.557,29.887c-0.317,6.081-0.634,12.163-0.951,18.244
				c-0.338,6.495-0.987,12.121,0.544,18.462c0.467,1.934,1.035,4.096,0.363,5.916c-0.536,1.453-1.711,2.226-2.804,2.896
				c-2.113,1.296-4.229,2.593-6.422,3.615c-10.652,4.96-22.323,3.1-33.425,0.514c-3.537-0.824-7.339-1.916-9.728-5.54
				c-0.395-0.599-0.747-1.271-0.929-2.035c-0.416-1.745,0.106-3.612,0.528-5.354c0.373-1.54,0.67-3.114,0.889-4.708
				c0.987-7.146,0.217-14.678-0.157-21.873c-0.358-6.864-0.715-13.728-1.073-20.592c-0.405-7.773-0.81-15.545-1.215-23.318
				C307.56,179.359,321.774,170.902,335.536,170.764z"/>
			
				<linearGradient id="SVGID_00000004518026189153581480000009789629818473693570_" gradientUnits="userSpaceOnUse" x1="335.5676" y1="174.9003" x2="335.5676" y2="196.6802">
				<stop  offset="0" style="stop-color:#FFD1C1"/>
				<stop  offset="0.3" style="stop-color:#FFC4B1"/>
				<stop  offset="0.8819" style="stop-color:#FFA288"/>
				<stop  offset="1" style="stop-color:#FF9A7F"/>
			</linearGradient>
			<polygon style="fill:url(#SVGID_00000004518026189153581480000009789629818473693570_);" points="335.568,187.352 
				325.748,170.758 345.388,170.758 			"/>
			<g>
				<g>
					
						<linearGradient id="SVGID_00000027572682519010221850000003483455506988942759_" gradientUnits="userSpaceOnUse" x1="6325.0884" y1="-1544.9263" x2="6325.0884" y2="-1563.7209" gradientTransform="matrix(0.8678 0.4969 -0.4969 0.8678 -5918.1226 -1617.8374)">
						<stop  offset="0" style="stop-color:#E7E6FF"/>
						<stop  offset="0.3393" style="stop-color:#C9D2F8"/>
						<stop  offset="0.7637" style="stop-color:#AABDF1"/>
						<stop  offset="1" style="stop-color:#9EB5EE"/>
					</linearGradient>
					<path style="fill:url(#SVGID_00000027572682519010221850000003483455506988942759_);" d="M337.602,183.919l3.951-2.012
						l5.003-14.519C346.556,167.388,337.539,183.659,337.602,183.919z"/>
					
						<linearGradient id="SVGID_00000036240320327087724190000009524074221582639242_" gradientUnits="userSpaceOnUse" x1="6322.6226" y1="-1563.8853" x2="6332.2832" y2="-1547.0118" gradientTransform="matrix(0.8678 0.4969 -0.4969 0.8678 -5918.1226 -1617.8374)">
						<stop  offset="0" style="stop-color:#F9FBFC"/>
						<stop  offset="0.2987" style="stop-color:#F5F8FC"/>
						<stop  offset="0.6027" style="stop-color:#E9EFFD"/>
						<stop  offset="0.9081" style="stop-color:#D4E0FE"/>
						<stop  offset="0.9973" style="stop-color:#CDDBFF"/>
					</linearGradient>
					<polygon style="fill:url(#SVGID_00000036240320327087724190000009524074221582639242_);" points="346.556,167.388 
						341.552,181.907 348.448,186.177 349.935,172.39 346.91,166.734 					"/>
				</g>
			</g>
			<g>
				<g>
					
						<linearGradient id="SVGID_00000042715809084427063720000000881389024331962546_" gradientUnits="userSpaceOnUse" x1="-960.7927" y1="2627.1084" x2="-960.7927" y2="2608.3135" gradientTransform="matrix(-0.8678 0.4969 0.4969 0.8678 -1806.6295 -1617.8374)">
						<stop  offset="0" style="stop-color:#E7E6FF"/>
						<stop  offset="0.3393" style="stop-color:#C9D2F8"/>
						<stop  offset="0.7637" style="stop-color:#AABDF1"/>
						<stop  offset="1" style="stop-color:#9EB5EE"/>
					</linearGradient>
					<path style="fill:url(#SVGID_00000042715809084427063720000000881389024331962546_);" d="M333.658,183.919l-4.477-1.819
						l-4.477-14.711C324.703,167.388,333.721,183.659,333.658,183.919z"/>
					
						<linearGradient id="SVGID_00000054226880944539145800000002868269661649141404_" gradientUnits="userSpaceOnUse" x1="-963.4244" y1="2608.0862" x2="-953.7639" y2="2624.9595" gradientTransform="matrix(-0.8678 0.4969 0.4969 0.8678 -1806.6295 -1617.8374)">
						<stop  offset="0" style="stop-color:#F9FBFC"/>
						<stop  offset="0.2987" style="stop-color:#F5F8FC"/>
						<stop  offset="0.6027" style="stop-color:#E9EFFD"/>
						<stop  offset="0.9081" style="stop-color:#D4E0FE"/>
						<stop  offset="0.9973" style="stop-color:#CDDBFF"/>
					</linearGradient>
					<polygon style="fill:url(#SVGID_00000054226880944539145800000002868269661649141404_);" points="324.703,167.388 
						329.181,182.1 322.811,186.177 321.597,173.232 324.349,166.734 					"/>
				</g>
			</g>
			<g>
				<g>
					
						<linearGradient id="SVGID_00000117642290965133485400000001420006488119215525_" gradientUnits="userSpaceOnUse" x1="824.3062" y1="376.3918" x2="824.3062" y2="335.7168" gradientTransform="matrix(-1 0 0 1 1105.7748 0)">
						<stop  offset="0" style="stop-color:#FFD1C1"/>
						<stop  offset="0.2806" style="stop-color:#FFCEBE"/>
						<stop  offset="0.5104" style="stop-color:#FFC6B4"/>
						<stop  offset="0.7222" style="stop-color:#FFB8A2"/>
						<stop  offset="0.9221" style="stop-color:#FFA48B"/>
						<stop  offset="1" style="stop-color:#FF9A7F"/>
					</linearGradient>
					<path style="fill:url(#SVGID_00000117642290965133485400000001420006488119215525_);" d="M263.385,370.072
						c0.033-0.043,0.066-0.086,0.099-0.127c0.385-0.481,0.823-0.904,1.29-1.289c-0.177,0.106-0.355,0.209-0.53,0.316
						c0.165-0.1,0.348-0.21,0.542-0.326c0.994-0.817,2.135-1.452,3.281-2.019c0.366-0.181,0.735-0.358,1.104-0.536
						c1.685-0.97,3.186-1.825,3.644-2.085c0.063-0.048,0.128-0.092,0.191-0.141c0.001,0.002,0.003,0.003,0.004,0.004
						c0.684-0.749,12.845-13.989,13.459-15.127c1.066-4.943,0.241-12.196,0.241-12.196l10.041-0.829c0,0-1.424,8.979-0.021,15.727
						c0.534,0.704,1.243,1.486,1.669,2.397c0.04,0.086,0.085,0.176,0.129,0.266c-0.055,0.013-0.107,0.029-0.161,0.042
						c0.043,0.011,0.089,0.017,0.128,0.033c1.431,0.58,2.294,4.925,2.505,6.302c0.117,0.766,0.175,1.572-0.075,2.302
						c-0.388,1.135-1.428,1.861-2.448,2.405c-2.082,1.11-4.34,1.803-6.47,2.806c-3.922,1.847-7.783,4.336-11.918,5.859
						c-4.576,1.686-9.47,1.713-14.222,2.459c-1.256,0.197-3.246,0.108-3.855-1.313C261.394,373.561,262.558,371.16,263.385,370.072z
						"/>
					
						<linearGradient id="SVGID_00000111149376290152570240000001879268197307907758_" gradientUnits="userSpaceOnUse" x1="804.675" y1="364.2594" x2="843.9368" y2="364.2594" gradientTransform="matrix(-1 0 0 1 1105.7748 0)">
						<stop  offset="0" style="stop-color:#071786"/>
						<stop  offset="0.1509" style="stop-color:#05136B"/>
						<stop  offset="0.3236" style="stop-color:#041055"/>
						<stop  offset="0.5107" style="stop-color:#030E45"/>
						<stop  offset="0.7204" style="stop-color:#020C3B"/>
						<stop  offset="1" style="stop-color:#020C38"/>
					</linearGradient>
					<path style="fill:url(#SVGID_00000111149376290152570240000001879268197307907758_);" d="M261.859,374.42
						c0.026,0.206,0.075,0.4,0.152,0.58c0.419,0.977,1.491,1.325,2.527,1.382c0.471,0.026,0.936-0.007,1.328-0.069
						c2.376-0.373,4.788-0.566,7.177-0.877c0.896-0.117,1.789-0.25,2.676-0.415c0.316-0.059,0.631-0.123,0.945-0.19
						c0.568-0.122,1.133-0.26,1.694-0.418c0.291-0.082,0.58-0.169,0.868-0.262c0.288-0.093,0.576-0.192,0.862-0.297
						c1.034-0.381,2.05-0.822,3.055-1.298c1.256-0.596,2.493-1.246,3.723-1.903c1.721-0.919,3.425-1.85,5.141-2.658
						c0.532-0.251,1.073-0.482,1.617-0.705c0.544-0.223,1.091-0.439,1.636-0.657c1.091-0.437,2.176-0.888,3.217-1.443
						c0.638-0.34,1.283-0.751,1.772-1.289c0.098-0.108,0.189-0.22,0.273-0.338c0.168-0.236,0.306-0.495,0.403-0.778
						c0.094-0.274,0.144-0.558,0.164-0.847c0.007-0.096,0.01-0.193,0.011-0.29c0.002-0.388-0.042-0.781-0.1-1.165
						c-0.066-0.43-0.195-1.15-0.386-1.955c-0.038-0.161-0.079-0.325-0.122-0.491c-0.079-0.305-0.167-0.615-0.262-0.922
						c-0.07-0.226-0.145-0.449-0.224-0.666c-0.105-0.289-0.217-0.569-0.338-0.826c-0.067-0.142-0.136-0.278-0.207-0.405
						c-0.425-0.759-1.029-1.384-1.502-2.108c-0.061-0.094-0.729-0.904-0.693-0.983c-3.675,3.524-11,4.345-14.427,0.666
						c-3.744,4.401-9.286,10.48-9.83,11.076c-0.031,0.017-0.06,0.036-0.088,0.057c-0.036,0.026-0.072,0.052-0.107,0.079
						c-0.458,0.26-1.958,1.115-3.644,2.085c-0.369,0.178-0.738,0.355-1.104,0.537c-0.264,0.131-0.528,0.267-0.79,0.406
						c-0.045,0.024-0.089,0.048-0.133,0.072c-0.261,0.14-0.519,0.285-0.773,0.437c-0.555,0.332-1.088,0.696-1.585,1.104
						c-0.194,0.116-0.377,0.226-0.542,0.326c0.176-0.107,0.354-0.211,0.53-0.316c-0.179,0.147-0.352,0.301-0.519,0.461
						c-0.069,0.065-0.137,0.13-0.204,0.197c-0.057,0.058-0.114,0.118-0.17,0.178c-0.137,0.146-0.27,0.295-0.396,0.453
						c-0.034,0.043-0.067,0.085-0.1,0.128c-0.051,0.068-0.105,0.141-0.159,0.219c-0.003,0.004-0.006,0.01-0.009,0.014
						c-0.076,0.11-0.153,0.232-0.231,0.358c-0.25,0.408-0.5,0.89-0.703,1.4c-0.045,0.113-0.087,0.227-0.127,0.341
						c-0.079,0.229-0.147,0.461-0.2,0.691c-0.053,0.23-0.09,0.458-0.108,0.681c-0.017,0.215-0.015,0.423,0.008,0.622
						C261.858,374.405,261.858,374.413,261.859,374.42z M272.81,364.009C272.81,364.009,272.81,364.009,272.81,364.009
						c-0.818,0.617-1.705,1.115-2.614,1.576c-0.025,0.013-0.051,0.026-0.076,0.039c-0.295,0.149-0.591,0.294-0.889,0.437
						C270.424,365.375,271.615,364.688,272.81,364.009z"/>
					
						<linearGradient id="SVGID_00000088826734280446645970000010817226744276932480_" gradientUnits="userSpaceOnUse" x1="288.7127" y1="271.2346" x2="289.2116" y2="354.0313">
						<stop  offset="0" style="stop-color:#071786"/>
						<stop  offset="0.1509" style="stop-color:#05136B"/>
						<stop  offset="0.3236" style="stop-color:#041055"/>
						<stop  offset="0.5107" style="stop-color:#030E45"/>
						<stop  offset="0.7204" style="stop-color:#020C3B"/>
						<stop  offset="1" style="stop-color:#020C38"/>
					</linearGradient>
					<path style="fill:url(#SVGID_00000088826734280446645970000010817226744276932480_);" d="M280.202,270.445
						c0,0-2.628,0.063-1.982,7.411c0.647,7.348,7.895,66.707,7.895,66.707l11.436,0.377c0,0,6.226-44.039-3.098-68.947
						C294.452,275.994,289.361,264.883,280.202,270.445z"/>
				</g>
				<g>
					<g>
						
							<linearGradient id="SVGID_00000127003152631782199930000017078918237911760304_" gradientUnits="userSpaceOnUse" x1="714.9429" y1="376.3918" x2="714.9429" y2="335.7168" gradientTransform="matrix(-1 0 0 1 1105.7748 0)">
							<stop  offset="0" style="stop-color:#FFD1C1"/>
							<stop  offset="0.2806" style="stop-color:#FFCEBE"/>
							<stop  offset="0.5104" style="stop-color:#FFC6B4"/>
							<stop  offset="0.7222" style="stop-color:#FFB8A2"/>
							<stop  offset="0.9221" style="stop-color:#FFA48B"/>
							<stop  offset="1" style="stop-color:#FF9A7F"/>
						</linearGradient>
						<path style="fill:url(#SVGID_00000127003152631782199930000017078918237911760304_);" d="M408.916,370.072
							c-0.033-0.043-0.066-0.086-0.099-0.127c-0.385-0.481-0.823-0.904-1.29-1.289c0.177,0.106,0.355,0.209,0.53,0.316
							c-0.165-0.1-0.348-0.21-0.542-0.326c-0.994-0.817-2.135-1.452-3.281-2.019c-0.366-0.181-0.735-0.358-1.104-0.536
							c-1.686-0.97-3.186-1.825-3.644-2.085c-0.063-0.048-0.128-0.092-0.191-0.141c-0.001,0.002-0.003,0.003-0.004,0.004
							c-0.684-0.749-12.845-13.989-13.459-15.127c-1.066-4.943-0.241-12.196-0.241-12.196l-10.041-0.829
							c0,0,1.425,8.979,0.021,15.727c-0.534,0.704-1.242,1.486-1.669,2.397c-0.04,0.086-0.085,0.176-0.129,0.266
							c0.054,0.013,0.107,0.029,0.161,0.042c-0.043,0.011-0.089,0.017-0.128,0.033c-1.432,0.58-2.294,4.925-2.505,6.302
							c-0.117,0.766-0.175,1.572,0.075,2.302c0.388,1.135,1.428,1.861,2.448,2.405c2.082,1.11,4.34,1.803,6.47,2.806
							c3.922,1.847,7.784,4.336,11.918,5.859c4.576,1.686,9.47,1.713,14.222,2.459c1.256,0.197,3.246,0.108,3.855-1.313
							C410.906,373.561,409.743,371.16,408.916,370.072z"/>
						<g>
							<path style="fill:#FFC38A;" d="M371.371,360.029c0.034-0.321,0.078-0.641,0.151-0.953
								C371.443,359.4,371.389,359.719,371.371,360.029z"/>
							<path style="fill:#FFC38A;" d="M392.867,366.21c-0.027-0.008-0.054-0.017-0.081-0.026
								C392.813,366.192,392.84,366.201,392.867,366.21z"/>
							<path style="fill:#FFC38A;" d="M392.355,366.029c-0.151-0.059-0.302-0.123-0.451-0.191
								C392.057,365.909,392.206,365.97,392.355,366.029z"/>
							<path style="fill:#FFC38A;" d="M397.841,365.21c0.083-0.063,0.167-0.135,0.25-0.203
								C398.008,365.075,397.926,365.145,397.841,365.21z"/>
							<path style="fill:#FFC38A;" d="M398.455,364.699c-0.04,0.036-0.079,0.074-0.12,0.109
								C398.375,364.774,398.415,364.734,398.455,364.699z"/>
						</g>
						
							<linearGradient id="SVGID_00000180350181717954501830000000628510747917255317_" gradientUnits="userSpaceOnUse" x1="695.3123" y1="364.2594" x2="734.5742" y2="364.2594" gradientTransform="matrix(-1 0 0 1 1105.7748 0)">
							<stop  offset="0" style="stop-color:#071786"/>
							<stop  offset="0.1509" style="stop-color:#05136B"/>
							<stop  offset="0.3236" style="stop-color:#041055"/>
							<stop  offset="0.5107" style="stop-color:#030E45"/>
							<stop  offset="0.7204" style="stop-color:#020C3B"/>
							<stop  offset="1" style="stop-color:#020C38"/>
						</linearGradient>
						<path style="fill:url(#SVGID_00000180350181717954501830000000628510747917255317_);" d="M410.443,374.398
							c0.023-0.199,0.026-0.407,0.008-0.622c-0.018-0.222-0.055-0.451-0.107-0.681c-0.052-0.23-0.121-0.462-0.2-0.691
							c-0.04-0.115-0.082-0.228-0.127-0.341c-0.203-0.51-0.453-0.993-0.703-1.4c-0.077-0.127-0.155-0.248-0.231-0.358
							c-0.003-0.004-0.006-0.01-0.009-0.014c-0.054-0.078-0.107-0.151-0.159-0.219c-0.033-0.043-0.066-0.085-0.1-0.128
							c-0.126-0.158-0.26-0.307-0.396-0.453c-0.056-0.06-0.112-0.119-0.17-0.178c-0.067-0.067-0.135-0.132-0.204-0.197
							c-0.168-0.16-0.341-0.313-0.519-0.461c0.177,0.105,0.355,0.209,0.53,0.316c-0.165-0.1-0.348-0.21-0.542-0.326
							c-0.497-0.408-1.029-0.772-1.585-1.104c-0.254-0.152-0.512-0.297-0.773-0.437c-0.044-0.024-0.089-0.048-0.133-0.072
							c-0.262-0.139-0.526-0.275-0.79-0.406c-0.366-0.181-0.736-0.358-1.104-0.537c-1.685-0.97-3.186-1.825-3.644-2.085
							c-0.035-0.027-0.071-0.053-0.107-0.079c-0.027-0.021-0.056-0.04-0.087-0.057c-0.544-0.596-6.085-6.675-9.83-11.076
							c-3.426,3.679-10.752,2.858-14.427-0.666c0.036,0.078-0.631,0.889-0.693,0.983c-0.473,0.724-1.077,1.348-1.502,2.108
							c-0.071,0.128-0.141,0.263-0.207,0.405c-0.121,0.257-0.233,0.537-0.338,0.826c-0.079,0.218-0.154,0.44-0.224,0.666
							c-0.095,0.307-0.184,0.617-0.262,0.922c-0.043,0.166-0.084,0.33-0.122,0.491c-0.19,0.804-0.32,1.524-0.386,1.955
							c-0.059,0.383-0.102,0.776-0.1,1.165c0.001,0.097,0.004,0.194,0.011,0.29c0.02,0.289,0.071,0.573,0.164,0.847
							c0.097,0.284,0.235,0.542,0.403,0.778c0.084,0.118,0.175,0.231,0.273,0.338c0.489,0.538,1.135,0.949,1.772,1.289
							c1.041,0.555,2.126,1.006,3.217,1.443c0.546,0.219,1.093,0.434,1.636,0.657c0.544,0.223,1.084,0.455,1.617,0.705
							c1.716,0.808,3.42,1.739,5.141,2.658c1.229,0.656,2.467,1.307,3.722,1.903c1.005,0.477,2.021,0.918,3.055,1.298
							c0.286,0.105,0.573,0.204,0.862,0.297c0.288,0.093,0.578,0.18,0.868,0.262c0.561,0.158,1.126,0.295,1.694,0.418
							c0.314,0.068,0.629,0.132,0.945,0.19c0.887,0.165,1.78,0.298,2.676,0.415c2.389,0.311,4.801,0.504,7.177,0.877
							c0.393,0.062,0.857,0.095,1.328,0.069c1.037-0.058,2.108-0.405,2.527-1.382c0.077-0.18,0.126-0.375,0.152-0.58
							C410.442,374.413,410.442,374.405,410.443,374.398z M403.069,366.061c-0.297-0.144-0.594-0.289-0.889-0.437
							c-0.026-0.013-0.051-0.026-0.076-0.039c-0.908-0.461-1.796-0.959-2.613-1.576c0,0,0,0,0,0
							C400.685,364.688,401.877,365.375,403.069,366.061z"/>
					</g>
					
						<linearGradient id="SVGID_00000111880418138983125720000003474182317347260576_" gradientUnits="userSpaceOnUse" x1="383.3024" y1="270.6648" x2="383.8013" y2="353.4615">
						<stop  offset="0" style="stop-color:#071786"/>
						<stop  offset="0.1509" style="stop-color:#05136B"/>
						<stop  offset="0.3236" style="stop-color:#041055"/>
						<stop  offset="0.5107" style="stop-color:#030E45"/>
						<stop  offset="0.7204" style="stop-color:#020C3B"/>
						<stop  offset="1" style="stop-color:#020C38"/>
					</linearGradient>
					<path style="fill:url(#SVGID_00000111880418138983125720000003474182317347260576_);" d="M392.099,270.445
						c0,0,2.628,0.063,1.982,7.411c-0.646,7.348-7.895,66.707-7.895,66.707l-11.436,0.377c0,0-6.226-44.039,3.098-68.947
						C377.848,275.994,382.94,264.883,392.099,270.445z"/>
				</g>
			</g>
			
				<linearGradient id="SVGID_00000064335389672223637280000005165821839996929921_" gradientUnits="userSpaceOnUse" x1="4168.9395" y1="-2107.2329" x2="4152.1367" y2="-2085.998" gradientTransform="matrix(0.5802 0.8145 -0.8145 0.5802 -3841.9077 -1999.8538)">
				<stop  offset="0" style="stop-color:#FFD1C1"/>
				<stop  offset="0.4889" style="stop-color:#FFCFBF"/>
				<stop  offset="0.665" style="stop-color:#FFCAB8"/>
				<stop  offset="0.7905" style="stop-color:#FFC0AD"/>
				<stop  offset="0.892" style="stop-color:#FFB29C"/>
				<stop  offset="0.9779" style="stop-color:#FFA086"/>
				<stop  offset="1" style="stop-color:#FF9A7F"/>
			</linearGradient>
			<path style="fill:url(#SVGID_00000064335389672223637280000005165821839996929921_);" d="M281.885,187.417
				c0.198-5.233,0.159-9.408,0.159-9.408l2.476-4.227l3.446-3.77l2.197-2.403c0.938-0.806,2.123-1.579,3.462-1.888
				c0,0-0.139-2.154-2.098-1.414c-1.394,0.526-3.174,1.275-4.087,1.665l2.985-7.545c-0.592-0.665-1.29-1.329-2.237-0.786
				c-0.699,0.401-1.184,1.056-1.8,1.548c-0.19,0.152-1.544,1.477-1.773,1.414c-1.022-0.283-1.68-0.885-2.592-0.14
				c-0.576,0.47-1.103,1.047-1.909,1.094c-1.101,0.064-1.777-0.72-2.905-0.385c-0.846,0.251-2.138,0.92-2.289,1.837
				c-0.004,0.022-1.276,14.19-1.276,14.19c-0.166,1.861-1.429,4.067-2.097,5.82c-0.562,1.473-1.154,2.936-1.744,4.398H281.885z"/>
			<path style="fill:#FFFFFF;" d="M336.858,226.705c-0.391-1.109,0.357-1.825,0.238-2.921c-0.087-0.802-0.69-1.3-1.189-1.851
				c-0.79-0.874-0.222-1.562,0.009-2.596c0.052-0.232-1.34-1.518-1.502-1.699c-0.523-0.59-1.201-1.042-1.637-1.72
				c-0.59-0.918,0.039-1.649,0.673-2.273l7.686,2.601c-0.435-0.893-1.274-2.632-1.869-3.998c-0.837-1.92,1.307-2.167,1.307-2.167
				c0.376,1.322,1.208,2.466,2.06,3.363l2.511,2.073l0,0l0,0l3.939,3.252l4.346,2.26c0,0,24.795-1.487,29.444,1.833
				c1.974,1.41,4.597,3.932,4.949,6.565c0.668,5.002-4.567,7.185-8.394,7.643c-5.212,0.625-9.775-2.128-14.568-3.81
				c-1.96-0.688-3.925-1.36-5.899-2.001c-1.785-0.579-4.052-1.729-5.919-1.801c0,0-14.215-0.556-14.236-0.558
				C337.885,228.794,337.152,227.537,336.858,226.705z"/>
			
				<linearGradient id="SVGID_00000127765399590752959940000017875788004326953358_" gradientUnits="userSpaceOnUse" x1="335.8503" y1="173.7161" x2="335.684" y2="163.8237">
				<stop  offset="0" style="stop-color:#FFD1C1"/>
				<stop  offset="0.3" style="stop-color:#FFC4B1"/>
				<stop  offset="0.8819" style="stop-color:#FFA288"/>
				<stop  offset="1" style="stop-color:#FF9A7F"/>
			</linearGradient>
			<path style="fill:url(#SVGID_00000127765399590752959940000017875788004326953358_);" d="M345.896,157.042l-1.087,13.722
				c0,0-4.856,8.043-18.243-0.006l-1.26-10.039L345.896,157.042z"/>
			
				<linearGradient id="SVGID_00000003820058556754359520000010094621616567711880_" gradientUnits="userSpaceOnUse" x1="310.9379" y1="236.4828" x2="351.0963" y2="205.5917">
				<stop  offset="0" style="stop-color:#07154B"/>
				<stop  offset="0.2641" style="stop-color:#0C174E"/>
				<stop  offset="0.5843" style="stop-color:#1B1D57"/>
				<stop  offset="0.9324" style="stop-color:#332767"/>
				<stop  offset="1" style="stop-color:#39296A"/>
			</linearGradient>
			<polygon style="fill:url(#SVGID_00000003820058556754359520000010094621616567711880_);" points="303.553,235.713 
				365.982,235.713 365.982,200.592 303.553,200.592 			"/>
			<g>
				
					<linearGradient id="SVGID_00000060028190764897998040000011839663503970129830_" gradientUnits="userSpaceOnUse" x1="9264.9424" y1="233.9012" x2="9310.3721" y2="233.9012" gradientTransform="matrix(-1 0 0 1 9722.2734 0)">
					<stop  offset="0" style="stop-color:#07154B"/>
					<stop  offset="0.2641" style="stop-color:#0C174E"/>
					<stop  offset="0.5843" style="stop-color:#1B1D57"/>
					<stop  offset="0.9324" style="stop-color:#332767"/>
					<stop  offset="1" style="stop-color:#39296A"/>
				</linearGradient>
				<polygon style="fill:url(#SVGID_00000060028190764897998040000011839663503970129830_);" points="411.924,235.607 
					457.331,235.281 457.308,232.195 411.902,232.522 				"/>
				
					<linearGradient id="SVGID_00000093173258722268463260000015716088146731259052_" gradientUnits="userSpaceOnUse" x1="9307.873" y1="214.4982" x2="9341.8779" y2="214.4982" gradientTransform="matrix(-1 0 0 1 9722.2734 0)">
					<stop  offset="0" style="stop-color:#07154B"/>
					<stop  offset="0.2641" style="stop-color:#0C174E"/>
					<stop  offset="0.5843" style="stop-color:#1B1D57"/>
					<stop  offset="0.9324" style="stop-color:#332767"/>
					<stop  offset="1" style="stop-color:#39296A"/>
				</linearGradient>
				<polygon style="fill:url(#SVGID_00000093173258722268463260000015716088146731259052_);" points="380.395,195.294 
					411.973,235.607 414.4,233.702 382.822,193.39 				"/>
			</g>
			<g>
				<g>
					<g>
						
							<linearGradient id="SVGID_00000159450563329849442510000011405997982364424072_" gradientUnits="userSpaceOnUse" x1="9602.4463" y1="577.2924" x2="9640.6709" y2="577.2924" gradientTransform="matrix(-0.9476 0.3195 0.3195 0.9476 9397.54 -3267.812)">
							<stop  offset="0" style="stop-color:#F4F3F1"/>
							<stop  offset="1" style="stop-color:#FFB2BC"/>
						</linearGradient>
						<path style="fill:url(#SVGID_00000159450563329849442510000011405997982364424072_);" d="M481.836,344.66
							c-0.927-2.01-4.415-3.139-6.31-4.114c-1.717-0.884-4.064-0.776-4.491-1.853c-1.242-3.129-1.703-9.625-1.703-9.625
							l-10.358,3.442c0,0,2.974,7.812,2.575,12.891c-0.4,5.092-2.702,18.943-2.702,18.943s-5.157,9.97-5.3,10.582
							c-0.142,0.612-0.683,1.999-0.425,4.185c0,0,1.57,2.66,11.645-7.294c0,0,4.668-4.09,9.18-12.693
							c1.096-1.781,2.192-3.563,3.289-5.345c1.125-1.829,4.796-7.124,4.79-8.148C482.025,345.237,481.957,344.923,481.836,344.66z"
							/>
						
							<linearGradient id="SVGID_00000073713842272986526120000017418423002857832614_" gradientUnits="userSpaceOnUse" x1="9492.7822" y1="583.8542" x2="9531.0068" y2="583.8542" gradientTransform="matrix(-0.9476 0.3195 0.3195 0.9476 9293.6211 -3232.7795)">
							<stop  offset="0" style="stop-color:#071786"/>
							<stop  offset="0.1509" style="stop-color:#05136B"/>
							<stop  offset="0.3236" style="stop-color:#041055"/>
							<stop  offset="0.5107" style="stop-color:#030E45"/>
							<stop  offset="0.7204" style="stop-color:#020C3B"/>
							<stop  offset="1" style="stop-color:#020C38"/>
						</linearGradient>
						<path style="fill:url(#SVGID_00000073713842272986526120000017418423002857832614_);" d="M477.237,353.781
							c-1.096,1.782-2.192,3.563-3.289,5.345c-4.512,8.604-9.18,12.693-9.18,12.693c-10.075,9.954-11.645,7.294-11.645,7.294
							c-0.258-2.186,0.283-3.573,0.425-4.185c0.142-0.612,5.3-10.582,5.3-10.582l0.005-0.055c3.931,0.573,6.592-0.253,8.458-4.437
							c2.981-6.681,3.267-13.481,8.486-19.178c1.937,0.947,5.151,2.061,6.038,3.983c0.121,0.262,0.189,0.577,0.191,0.972
							C482.033,346.657,478.362,351.953,477.237,353.781z"/>
					</g>
					
						<linearGradient id="SVGID_00000051362215713417066030000003553923445393628862_" gradientUnits="userSpaceOnUse" x1="477.2291" y1="346.9048" x2="465.8232" y2="321.5978">
						<stop  offset="0" style="stop-color:#071786"/>
						<stop  offset="0.1509" style="stop-color:#05136B"/>
						<stop  offset="0.3236" style="stop-color:#041055"/>
						<stop  offset="0.5107" style="stop-color:#030E45"/>
						<stop  offset="0.7204" style="stop-color:#020C3B"/>
						<stop  offset="1" style="stop-color:#020C38"/>
					</linearGradient>
					<path style="fill:url(#SVGID_00000051362215713417066030000003553923445393628862_);" d="M438.449,264.874
						c0,0-2.771,0.657-0.625,7.634c2.146,6.977,21.633,62.88,21.633,62.88l10.64-1.896c0,0-2.166-44.107-16.998-66.14
						C453.099,267.352,447.043,257.405,438.449,264.874z"/>
					
						<linearGradient id="SVGID_00000040549611740565173440000017676135746710165683_" gradientUnits="userSpaceOnUse" x1="9560.8545" y1="355.2424" x2="9599.0791" y2="355.2424" gradientTransform="matrix(-1 0 0 1 10013.3564 0)">
						<stop  offset="0" style="stop-color:#F4F3F1"/>
						<stop  offset="1" style="stop-color:#FFB2BC"/>
					</linearGradient>
					<path style="fill:url(#SVGID_00000040549611740565173440000017676135746710165683_);" d="M452.491,352.545
						c-0.237-2.201-3.18-4.385-4.665-5.914c-1.345-1.386-3.603-2.033-3.664-3.19c-0.178-3.362,1.461-9.664,1.461-9.664
						l-10.915-0.047c0,0,0.323,8.352-1.678,13.039c-2.005,4.698-8.611,17.088-8.611,17.088s-8.072,7.8-8.402,8.335
						c-0.33,0.535-1.286,1.677-1.739,3.83c0,0,0.638,3.022,13.365-3.192c0,0,5.729-2.384,12.754-9.096
						c1.608-1.338,3.216-2.676,4.824-4.014c1.65-1.373,6.82-5.219,7.142-6.191C452.486,353.152,452.522,352.832,452.491,352.545z"/>
					
						<linearGradient id="SVGID_00000169548238884169116900000013143698152930611624_" gradientUnits="userSpaceOnUse" x1="9451.1895" y1="361.7986" x2="9489.4131" y2="361.7986" gradientTransform="matrix(-1 0 0 1 9903.6914 0)">
						<stop  offset="0" style="stop-color:#071786"/>
						<stop  offset="0.1509" style="stop-color:#05136B"/>
						<stop  offset="0.3236" style="stop-color:#041055"/>
						<stop  offset="0.5107" style="stop-color:#030E45"/>
						<stop  offset="0.7204" style="stop-color:#020C3B"/>
						<stop  offset="1" style="stop-color:#020C38"/>
					</linearGradient>
					<path style="fill:url(#SVGID_00000169548238884169116900000013143698152930611624_);" d="M445.22,359.719
						c-1.608,1.338-3.216,2.676-4.824,4.014c-7.024,6.712-12.754,9.096-12.754,9.096c-12.727,6.214-13.365,3.192-13.365,3.192
						c0.454-2.154,1.409-3.295,1.739-3.83c0.33-0.535,8.402-8.335,8.402-8.335l0.023-0.05c3.542,1.799,6.327,1.866,9.432-1.502
						c4.958-5.378,7.402-11.731,14.168-15.462c1.533,1.516,4.223,3.599,4.449,5.703c0.031,0.287-0.005,0.607-0.129,0.983
						C452.04,354.5,446.87,358.346,445.22,359.719z"/>
				</g>
				
					<linearGradient id="SVGID_00000111912498620585059620000004714441798770645937_" gradientUnits="userSpaceOnUse" x1="9459.2627" y1="249.9749" x2="9392.5645" y2="288.4835" gradientTransform="matrix(-1 0 0 1 9903.6914 0)">
					<stop  offset="0" style="stop-color:#071786"/>
					<stop  offset="0.1509" style="stop-color:#05136B"/>
					<stop  offset="0.3236" style="stop-color:#041055"/>
					<stop  offset="0.5107" style="stop-color:#030E45"/>
					<stop  offset="0.7204" style="stop-color:#020C3B"/>
					<stop  offset="1" style="stop-color:#020C38"/>
				</linearGradient>
				<path style="fill:url(#SVGID_00000111912498620585059620000004714441798770645937_);" d="M436.865,263.079
					c12.112-4.296,25.18-6.024,37.948-7.422c6.342-0.695,13.674-2.474,20.06-2.725c12.089-0.475,26.251,4.83,24.585,18.944
					c-0.211,1.786-0.783,3.512-1.681,5.087c-10.56,18.537-39.823,10.883-56.205,7.671c-7.114-1.395-14.215-2.937-21.225-4.76
					C431.376,271.698,436.865,263.079,436.865,263.079z"/>
				
					<linearGradient id="SVGID_00000013914476207356852760000018259322313405293736_" gradientUnits="userSpaceOnUse" x1="9460.7168" y1="262.094" x2="9460.7168" y2="338.2115" gradientTransform="matrix(-1 0 0 1 9903.6914 0)">
					<stop  offset="0" style="stop-color:#071786"/>
					<stop  offset="0.1509" style="stop-color:#05136B"/>
					<stop  offset="0.3236" style="stop-color:#041055"/>
					<stop  offset="0.5107" style="stop-color:#030E45"/>
					<stop  offset="0.7204" style="stop-color:#020C3B"/>
					<stop  offset="1" style="stop-color:#020C38"/>
				</linearGradient>
				<path style="fill:url(#SVGID_00000013914476207356852760000018259322313405293736_);" d="M436.865,263.079
					c0,0-2.836-0.263-3.031,7.035c-0.195,7.297,0.412,66.496,0.412,66.496l10.688,1.602c0,0,12.037-42.488,5.021-68.104
					C449.956,270.107,447.396,258.747,436.865,263.079z"/>
			</g>
			<g>
				<g>
					
						<linearGradient id="SVGID_00000106132785061153960290000011164316311481368499_" gradientUnits="userSpaceOnUse" x1="501.9441" y1="232.8869" x2="564.9144" y2="231.9364">
						<stop  offset="0" style="stop-color:#0064B1"/>
						<stop  offset="0.214" style="stop-color:#0D4685"/>
						<stop  offset="0.4642" style="stop-color:#1A2858"/>
						<stop  offset="0.6876" style="stop-color:#231237"/>
						<stop  offset="0.8738" style="stop-color:#290523"/>
						<stop  offset="1" style="stop-color:#2B001C"/>
					</linearGradient>
					<path style="fill:url(#SVGID_00000106132785061153960290000011164316311481368499_);" d="M528.642,209.799
						c0.12-0.305,0.3-0.571,0.513-0.803c-10.627-3.459-14.414,12.245-15.664,20.126c-0.004,0.021-0.007,0.042-0.01,0.064
						c-0.026,0.163-0.053,0.328-0.076,0.486c-0.04,0.264-0.081,0.557-0.124,0.877c-0.009,0.067-0.016,0.13-0.025,0.197
						c-0.02,0.154-0.04,0.32-0.059,0.484h-0.004c-0.011,0.099-0.022,0.199-0.032,0.301c-0.012,0.101-0.022,0.201-0.033,0.301h0.004
						c-0.016,0.164-0.033,0.33-0.046,0.485c-0.006,0.067-0.013,0.13-0.018,0.198c-0.026,0.32-0.049,0.614-0.067,0.88
						c-0.011,0.16-0.02,0.325-0.03,0.49c-0.001,0.022-0.003,0.044-0.003,0.065c-0.459,7.785,3.49,23.537,14.265,22.543
						C518.396,236.37,528.197,210.927,528.642,209.799z"/>
					
						<linearGradient id="SVGID_00000112599133965354289560000011576343631629410986_" gradientUnits="userSpaceOnUse" x1="-228.1946" y1="257.215" x2="-210.8386" y2="257.215" gradientTransform="matrix(1 0 0 1 751.7483 0)">
						<stop  offset="0" style="stop-color:#07154B"/>
						<stop  offset="0.2641" style="stop-color:#0C174E"/>
						<stop  offset="0.5843" style="stop-color:#1B1D57"/>
						<stop  offset="0.9324" style="stop-color:#332767"/>
						<stop  offset="1" style="stop-color:#39296A"/>
					</linearGradient>
					<path style="fill:url(#SVGID_00000112599133965354289560000011576343631629410986_);" d="M533.654,257.183
						c-10.297-18.393,0.045-45.273,0.151-45.543c0.531-1.358-0.192-2.87-1.617-3.378c-1.101-0.395-2.299-0.064-3.033,0.733
						c-0.213,0.232-0.393,0.498-0.513,0.803c-0.445,1.128-10.245,26.571-1.409,46.691c0.47,1.07,0.979,2.13,1.558,3.165
						c7.562,13.507,7.84,33.573,4.897,38.979c-0.465,0.854-1.447,2.308-2.809,2.47c-1.509,0.179-2.581,1.492-2.392,2.932
						c0.174,1.328,1.362,2.299,2.731,2.299c0.115,0,0.23-0.007,0.346-0.021c2.862-0.34,5.355-2.21,7.017-5.263
						C542.287,294.242,542.199,272.445,533.654,257.183z"/>
				</g>
				<g>
					<g>
						
							<linearGradient id="SVGID_00000067217229449041340370000011477879638265602450_" gradientUnits="userSpaceOnUse" x1="-290.5038" y1="303.4249" x2="-219.6867" y2="303.4249" gradientTransform="matrix(1 0 0 1 751.7483 0)">
							<stop  offset="0" style="stop-color:#07154B"/>
							<stop  offset="0.2641" style="stop-color:#0C174E"/>
							<stop  offset="0.5843" style="stop-color:#1B1D57"/>
							<stop  offset="0.9324" style="stop-color:#332767"/>
							<stop  offset="1" style="stop-color:#39296A"/>
						</linearGradient>
						
							<rect x="461.245" y="300.515" style="fill:url(#SVGID_00000067217229449041340370000011477879638265602450_);" width="70.817" height="5.819"/>
						
							<linearGradient id="SVGID_00000067956621774752405840000012556279895932997806_" gradientUnits="userSpaceOnUse" x1="-260.7269" y1="312.9956" x2="-249.4635" y2="312.9956" gradientTransform="matrix(1 0 0 1 751.7483 0)">
							<stop  offset="0" style="stop-color:#07154B"/>
							<stop  offset="0.2641" style="stop-color:#0C174E"/>
							<stop  offset="0.5843" style="stop-color:#1B1D57"/>
							<stop  offset="0.9324" style="stop-color:#332767"/>
							<stop  offset="1" style="stop-color:#39296A"/>
						</linearGradient>
						
							<rect x="491.021" y="311.235" style="fill:url(#SVGID_00000067956621774752405840000012556279895932997806_);" width="11.263" height="3.522"/>
						
							<linearGradient id="SVGID_00000087381175151343034130000008146060811128439724_" gradientUnits="userSpaceOnUse" x1="-257.3347" y1="325.4427" x2="-252.8555" y2="325.4427" gradientTransform="matrix(1 0 0 1 751.7483 0)">
							<stop  offset="0" style="stop-color:#07154B"/>
							<stop  offset="0.2641" style="stop-color:#0C174E"/>
							<stop  offset="0.5843" style="stop-color:#1B1D57"/>
							<stop  offset="0.9324" style="stop-color:#332767"/>
							<stop  offset="1" style="stop-color:#39296A"/>
						</linearGradient>
						
							<rect x="494.414" y="314.757" style="fill:url(#SVGID_00000087381175151343034130000008146060811128439724_);" width="4.479" height="21.372"/>
						
							<linearGradient id="SVGID_00000062161196877431220050000006775710406499599505_" gradientUnits="userSpaceOnUse" x1="-257.9665" y1="348.5133" x2="-252.224" y2="348.5133" gradientTransform="matrix(1 0 0 1 751.7483 0)">
							<stop  offset="0" style="stop-color:#07154B"/>
							<stop  offset="0.2641" style="stop-color:#0C174E"/>
							<stop  offset="0.5843" style="stop-color:#1B1D57"/>
							<stop  offset="0.9324" style="stop-color:#332767"/>
							<stop  offset="1" style="stop-color:#39296A"/>
						</linearGradient>
						
							<rect x="493.782" y="336.129" style="fill:url(#SVGID_00000062161196877431220050000006775710406499599505_);" width="5.742" height="24.769"/>
						
							<linearGradient id="SVGID_00000069385912986179420300000014464532764594776715_" gradientUnits="userSpaceOnUse" x1="-265.2593" y1="308.7846" x2="-244.931" y2="308.7846" gradientTransform="matrix(1 0 0 1 751.7483 0)">
							<stop  offset="0" style="stop-color:#07154B"/>
							<stop  offset="0.2641" style="stop-color:#0C174E"/>
							<stop  offset="0.5843" style="stop-color:#1B1D57"/>
							<stop  offset="0.9324" style="stop-color:#332767"/>
							<stop  offset="1" style="stop-color:#39296A"/>
						</linearGradient>
						<polygon style="fill:url(#SVGID_00000069385912986179420300000014464532764594776715_);" points="499.582,306.335 
							493.724,306.335 486.489,306.335 489.429,311.235 493.724,311.235 499.582,311.235 503.878,311.235 506.817,306.335 						"/>
						<g>
							
								<linearGradient id="SVGID_00000096039253036325985120000009976913578882468500_" gradientUnits="userSpaceOnUse" x1="496.6531" y1="305.2574" x2="496.6531" y2="268.1874">
								<stop  offset="0" style="stop-color:#0064B1"/>
								<stop  offset="0.214" style="stop-color:#0D4685"/>
								<stop  offset="0.4642" style="stop-color:#1A2858"/>
								<stop  offset="0.6876" style="stop-color:#231237"/>
								<stop  offset="0.8738" style="stop-color:#290523"/>
								<stop  offset="1" style="stop-color:#2B001C"/>
							</linearGradient>
							<path style="fill:url(#SVGID_00000096039253036325985120000009976913578882468500_);" d="M493.143,280.399
								c0.03-0.003,0.062-0.004,0.093-0.005c0.238-0.012,0.478-0.024,0.71-0.034c0.386-0.016,0.813-0.029,1.277-0.042
								c0.098-0.003,0.19-0.003,0.287-0.005c0.225-0.005,0.466-0.007,0.705-0.01v-0.006c0.144,0,0.29,0,0.437,0.001
								c0.147-0.001,0.293-0.001,0.437-0.001v0.006c0.239,0.002,0.48,0.005,0.705,0.01c0.097,0.003,0.189,0.003,0.287,0.005
								c0.464,0.012,0.892,0.026,1.277,0.042c0.232,0.01,0.472,0.022,0.71,0.034c0.031,0.001,0.063,0.003,0.094,0.005
								c11.641,0.579,35.142,3.654,30.712,20.116H497.09h-0.875h-33.785C458.001,284.054,481.502,280.978,493.143,280.399z"/>
						</g>
					</g>
					<g>
						<g>
							<g>
								
									<linearGradient id="SVGID_00000067199074114051454400000010913718118396977085_" gradientUnits="userSpaceOnUse" x1="-285.4102" y1="363.2837" x2="-256.7082" y2="363.2837" gradientTransform="matrix(1 0 0 1 751.7483 0)">
									<stop  offset="0" style="stop-color:#07154B"/>
									<stop  offset="0.2641" style="stop-color:#0C174E"/>
									<stop  offset="0.5843" style="stop-color:#1B1D57"/>
									<stop  offset="0.9324" style="stop-color:#332767"/>
									<stop  offset="1" style="stop-color:#39296A"/>
								</linearGradient>
								<path style="fill:url(#SVGID_00000067199074114051454400000010913718118396977085_);" d="M495.04,353.921
									c-10.378,4.49-25.109,11.368-27.076,13.71c-1.367,1.629-1.655,3.566-1.624,5.016l28.7-13.046V353.921z"/>
							</g>
							
								<linearGradient id="SVGID_00000176012780408150664740000002908974562431101573_" gradientUnits="userSpaceOnUse" x1="-284.2986" y1="372.8997" x2="-277.2162" y2="372.8997" gradientTransform="matrix(1 0 0 1 751.7483 0)">
								<stop  offset="0" style="stop-color:#07154B"/>
								<stop  offset="0.2641" style="stop-color:#0C174E"/>
								<stop  offset="0.5843" style="stop-color:#1B1D57"/>
								<stop  offset="0.9324" style="stop-color:#332767"/>
								<stop  offset="1" style="stop-color:#39296A"/>
							</linearGradient>
							<path style="fill:url(#SVGID_00000176012780408150664740000002908974562431101573_);" d="M474.532,372.9
								c0,1.956-1.585,3.541-3.541,3.541c-1.956,0-3.541-1.585-3.541-3.541c0-1.956,1.586-3.541,3.541-3.541
								C472.947,369.359,474.532,370.944,474.532,372.9z"/>
						</g>
						<g>
							<g>
								
									<linearGradient id="SVGID_00000026844805730424631100000015056128610049579444_" gradientUnits="userSpaceOnUse" x1="-253.482" y1="363.2837" x2="-224.7802" y2="363.2837" gradientTransform="matrix(1 0 0 1 751.7483 0)">
									<stop  offset="0" style="stop-color:#07154B"/>
									<stop  offset="0.2641" style="stop-color:#0C174E"/>
									<stop  offset="0.5843" style="stop-color:#1B1D57"/>
									<stop  offset="0.9324" style="stop-color:#332767"/>
									<stop  offset="1" style="stop-color:#39296A"/>
								</linearGradient>
								<path style="fill:url(#SVGID_00000026844805730424631100000015056128610049579444_);" d="M498.266,359.6l28.7,13.046
									c0.031-1.45-0.257-3.386-1.624-5.016c-1.967-2.342-16.698-9.22-27.076-13.71V359.6z"/>
							</g>
							
								<linearGradient id="SVGID_00000119838026569242785760000002365899480796772243_" gradientUnits="userSpaceOnUse" x1="-232.9743" y1="372.8997" x2="-225.8919" y2="372.8997" gradientTransform="matrix(1 0 0 1 751.7483 0)">
								<stop  offset="0" style="stop-color:#07154B"/>
								<stop  offset="0.2641" style="stop-color:#0C174E"/>
								<stop  offset="0.5843" style="stop-color:#1B1D57"/>
								<stop  offset="0.9324" style="stop-color:#332767"/>
								<stop  offset="1" style="stop-color:#39296A"/>
							</linearGradient>
							<path style="fill:url(#SVGID_00000119838026569242785760000002365899480796772243_);" d="M518.774,372.9
								c0,1.956,1.586,3.541,3.541,3.541s3.541-1.585,3.541-3.541c0-1.956-1.585-3.541-3.541-3.541S518.774,370.944,518.774,372.9z"
								/>
						</g>
					</g>
				</g>
			</g>
			<g>
				<g>
					
						<linearGradient id="SVGID_00000066514265225164434840000000498012162844508309_" gradientUnits="userSpaceOnUse" x1="509.4672" y1="177.8859" x2="496.9978" y2="139.8542">
						<stop  offset="0" style="stop-color:#071786"/>
						<stop  offset="0.1509" style="stop-color:#05136B"/>
						<stop  offset="0.3236" style="stop-color:#041055"/>
						<stop  offset="0.5107" style="stop-color:#030E45"/>
						<stop  offset="0.7204" style="stop-color:#020C3B"/>
						<stop  offset="1" style="stop-color:#020C38"/>
					</linearGradient>
					<path style="fill:url(#SVGID_00000066514265225164434840000000498012162844508309_);" d="M486.834,142.434
						c3.665-3.597,9.648-4.159,14.265-3.843c6.541,0.448,13.6,3.432,16.891,9.655c5.974,11.299-7.048,28.499-18.488,28.149
						c-1.396-0.043-2.846-0.362-3.946-1.277c-1.357-1.129-1.485-2.81-2.166-4.397c-0.354-0.825-0.859-1.557-1.38-2.267
						c-1.866-2.54-3.978-4.867-5.708-7.518c-1.729-2.651-3.085-5.714-3.181-9.017C483.011,148.125,484.458,144.766,486.834,142.434z
						"/>
					<g>
						<g>
							
								<linearGradient id="SVGID_00000012468068419802485590000012809566825476860320_" gradientUnits="userSpaceOnUse" x1="498.7681" y1="183.5583" x2="495.1104" y2="172.9178">
								<stop  offset="0" style="stop-color:#F4F3F1"/>
								<stop  offset="0.2228" style="stop-color:#F8DBDE"/>
								<stop  offset="0.5033" style="stop-color:#FCC5CB"/>
								<stop  offset="0.7684" style="stop-color:#FEB7C0"/>
								<stop  offset="1" style="stop-color:#FFB2BC"/>
							</linearGradient>
							<path style="fill:url(#SVGID_00000012468068419802485590000012809566825476860320_);" d="M498.43,172.218
								c0.985-0.765,1.935-1.572,2.865-2.404c1.194,4.096,2.55,8.284,4.275,12.166c0.192,0.988,0.798,1.531,0.794,2.259
								c0,0-2.499,9.749-12.21,7.552c0,0,1.942-8.445-0.086-15.133C495.445,175.099,496.816,173.555,498.43,172.218z"/>
							
								<linearGradient id="SVGID_00000137821491066417822530000003239581255322617529_" gradientUnits="userSpaceOnUse" x1="9399.1777" y1="240.9405" x2="9416.0977" y2="270.2465" gradientTransform="matrix(-0.9544 -0.2986 -0.2986 0.9544 9546.9307 2727.0591)">
								<stop  offset="0" style="stop-color:#F4F3F1"/>
								<stop  offset="1" style="stop-color:#FFB2BC"/>
							</linearGradient>
							<path style="fill:url(#SVGID_00000137821491066417822530000003239581255322617529_);" d="M486.536,147.098
								c0,0-9.464,21.153-3.671,29.882c0,0,12.106,4.304,20.425-6.08C511.61,160.516,507.371,140.854,486.536,147.098z"/>
						</g>
						<polygon style="fill:#FFB5BE;" points="484.727,157.293 482.793,166.469 478.418,165.547 						"/>
					</g>
				</g>
			</g>
			<g>
				
					<linearGradient id="SVGID_00000098934579655772181780000006249204198562832060_" gradientUnits="userSpaceOnUse" x1="472.6951" y1="193.1245" x2="459.0402" y2="198.1819">
					<stop  offset="0" style="stop-color:#F4F3F1"/>
					<stop  offset="1" style="stop-color:#FFB2BC"/>
				</linearGradient>
				<path style="fill:url(#SVGID_00000098934579655772181780000006249204198562832060_);" d="M449.503,163.635
					c-0.162,0.194-0.27,0.427-0.314,0.675l-2.511,14.287c-0.079,0.452,0.061,0.915,0.378,1.246l7.306,7.652
					c0,0,13.37,33.313,19.091,39.952c2.514,2.918,7.949,1.754,10.446-1.41c1.868-2.366,0.158-5.681-1.073-7.916
					c-1.811-3.287-22.408-34.423-22.46-34.535c-2.314-4.943-6.368-10.373-7.534-11.893c-0.212-0.275-0.31-0.611-0.289-0.957
					l0.286-4.717c0.017-0.279-0.048-0.557-0.186-0.8l-0.778-1.37C451.369,162.971,450.149,162.861,449.503,163.635z"/>
			</g>
			<path style="fill:#FFFFFF;" d="M485.063,236.049c0.074-2.15,0.475-5.439-0.316-7.471c-1.851-4.756-4.296-10.167-4.296-15.739
				c-0.001-12.546,24.989-30.951,25.118-30.859c0.733,0.52,1.383,1.107,1.973,1.74c0.014,0.014,0.029,0.028,0.043,0.042
				c0.201,0.216,0.386,0.444,0.571,0.672c0.073,0.093,0.144,0.17,0.22,0.271c0.262,0.34,0.506,0.691,0.737,1.052
				c0.028,0.042,0.051,0.071,0.08,0.114c0.01,0.015,0.016,0.032,0.026,0.047c0.26,0.419,0.502,0.85,0.723,1.295
				c1.13,2.167,1.794,4.602,2.072,7.003c0.077,0.668,0.124,1.336,0.156,2.005c0.17,2.344,0.113,4.695-0.067,6.882
				c-0.06,0.727-0.132,1.435-0.214,2.12c-0.766,6.441-0.648,12.802-0.19,19.247c0.45,4.78,1.252,9.523,2.408,14.183
				c0.225,0.785,0.45,1.571,0.69,2.351c0.691,2.247,1.439,4.477,2.15,6.718c0.265,0.835,0.463,1.446,0.519,1.969
				c1.379,4.062,2.692,8.141,3.122,12.393c0.086,0.85,0.05,1.882-0.68,2.326c-0.381,0.232-0.853,0.231-1.299,0.223
				c-5.605-0.098-11.211-0.196-16.816-0.294c-4.128-0.072-6.917-2.037-9.923-4.868c-3.338-3.144-7.767-2.443-7.747-7.028
				c0-0.002,0-0.005,0-0.007c-0.049-0.324-0.057-0.659-0.057-0.988C484.065,246.295,484.887,241.194,485.063,236.049z"/>
			
				<linearGradient id="SVGID_00000078030932991061616140000004504966895805417653_" gradientUnits="userSpaceOnUse" x1="517.2056" y1="215.9961" x2="491.6075" y2="137.9218">
				<stop  offset="0" style="stop-color:#071786"/>
				<stop  offset="0.1509" style="stop-color:#05136B"/>
				<stop  offset="0.3236" style="stop-color:#041055"/>
				<stop  offset="0.5107" style="stop-color:#030E45"/>
				<stop  offset="0.7204" style="stop-color:#020C3B"/>
				<stop  offset="1" style="stop-color:#020C38"/>
			</linearGradient>
			<path style="fill:url(#SVGID_00000078030932991061616140000004504966895805417653_);" d="M503.698,163.615
				c0,0,1.577,7.244-4.252,10.678c-5.053,2.977-6.611,13.749-11.363,23.573c0,0,9.52-9.079,15.059-11.681
				c7.597-3.568,8.154,69.639,16.45,63.751c0,0,3.422-86.111-0.654-99.34c-4.076-13.229-31.148-4.209-31.148-4.209L503.698,163.615z
				"/>
			
				<linearGradient id="SVGID_00000126318050557966147840000008065085327045677735_" gradientUnits="userSpaceOnUse" x1="9396.7285" y1="256.4799" x2="9389.7803" y2="256.4799" gradientTransform="matrix(-0.9544 -0.2986 -0.2986 0.9544 9546.9307 2727.0591)">
				<stop  offset="0" style="stop-color:#F4F3F1"/>
				<stop  offset="1" style="stop-color:#FFB2BC"/>
			</linearGradient>
			<path style="fill:url(#SVGID_00000126318050557966147840000008065085327045677735_);" d="M503.022,163.057
				c0,0,4.843-3.755,6.27-0.145c1.221,3.087-1.672,8.957-7.513,9.293L503.022,163.057z"/>
			<g>
				
					<linearGradient id="SVGID_00000049927820590740233260000001173804455087973035_" gradientUnits="userSpaceOnUse" x1="9477.1904" y1="257.7568" x2="9477.1904" y2="202.3543" gradientTransform="matrix(-0.9966 -0.0857 -0.099 1.0535 9970.7744 790.5876)">
					<stop  offset="0" style="stop-color:#F4F3F1"/>
					<stop  offset="1" style="stop-color:#FFB2BC"/>
				</linearGradient>
				<path style="fill:url(#SVGID_00000049927820590740233260000001173804455087973035_);" d="M497.696,199.923
					c0.799-3.579,2.353-6.585,5.416-7.842c6.1-2.504,7.986,4.62,8.364,9.537c0.66,8.585-0.872,17.516-1.762,26.078
					c-0.66,6.355-1.367,14.511-5.319,19.744c-2.19,2.899-5.473,3.716-7.168,0.029c-1.864-4.056-1.429-8.688-1.409-13.085
					c0.026-5.88,0.304-11.758,0.619-17.633C496.733,211.238,496.489,205.334,497.696,199.923z"/>
				<g>
					
						<linearGradient id="SVGID_00000176037646192818714730000015348623035548666518_" gradientUnits="userSpaceOnUse" x1="10389.7236" y1="1238.1544" x2="10368.085" y2="1225.6613" gradientTransform="matrix(-0.9827 -0.185 -0.185 0.9827 10874.2236 942.7539)">
						<stop  offset="0" style="stop-color:#F4F3F1"/>
						<stop  offset="1" style="stop-color:#FFB2BC"/>
					</linearGradient>
					<path style="fill:url(#SVGID_00000176037646192818714730000015348623035548666518_);" d="M459.518,231.278l-1.053-0.721
						c-0.047-0.032-0.095-0.061-0.145-0.087l-9.371-4.911c-0.406-0.213-0.89-0.22-1.302-0.019l-13.039,6.356
						c-0.227,0.111-0.421,0.279-0.562,0.488l0,0c-0.565,0.834-0.123,1.976,0.857,2.212l1.532,0.369
						c0.271,0.065,0.556,0.051,0.82-0.042l4.456-1.577c0.327-0.116,0.677-0.113,1,0.014c1.783,0.701,8.121,3.1,13.51,3.959
						c0.684,0.109,1.341-0.309,1.565-0.964L459.518,231.278z"/>
					
						<linearGradient id="SVGID_00000083777580580428567930000012365086421544683915_" gradientUnits="userSpaceOnUse" x1="10329.2285" y1="1218.7944" x2="10359.9521" y2="1245.1827" gradientTransform="matrix(-0.9827 -0.185 -0.185 0.9827 10874.2236 942.7539)">
						<stop  offset="0" style="stop-color:#F4F3F1"/>
						<stop  offset="1" style="stop-color:#FFB2BC"/>
					</linearGradient>
					<path style="fill:url(#SVGID_00000083777580580428567930000012365086421544683915_);" d="M503.517,248.223
						c-1.759,2.448-5.417,1.719-7.905,1.153c-3.659-0.833-39.363-10.786-39.23-11.286c0-0.001,1.938-7.621,1.938-7.621
						s35.709,3.658,43.669,7.324C505.487,239.405,505.868,244.95,503.517,248.223z"/>
				</g>
			</g>
			<g>
				<g>
					<g>
						
							<linearGradient id="SVGID_00000034796774484871172320000003025769050822721195_" gradientUnits="userSpaceOnUse" x1="644.6529" y1="311.7621" x2="656.781" y2="311.7621" gradientTransform="matrix(-1 0 0 1 1105.7748 0)">
							<stop  offset="0" style="stop-color:#07154B"/>
							<stop  offset="0.2641" style="stop-color:#0C174E"/>
							<stop  offset="0.5843" style="stop-color:#1B1D57"/>
							<stop  offset="0.9324" style="stop-color:#332767"/>
							<stop  offset="1" style="stop-color:#39296A"/>
						</linearGradient>
						<polygon style="fill:url(#SVGID_00000034796774484871172320000003025769050822721195_);" points="461.089,375.542 
							461.122,376.441 456.125,376.441 448.994,247.083 456.028,247.083 						"/>
						
							<linearGradient id="SVGID_00000044890354906027253450000009806198674704117645_" gradientUnits="userSpaceOnUse" x1="876.448" y1="311.7621" x2="888.5758" y2="311.7621" gradientTransform="matrix(-1 0 0 1 1105.7748 0)">
							<stop  offset="0" style="stop-color:#07154B"/>
							<stop  offset="0.2641" style="stop-color:#0C174E"/>
							<stop  offset="0.5843" style="stop-color:#1B1D57"/>
							<stop  offset="0.9324" style="stop-color:#332767"/>
							<stop  offset="1" style="stop-color:#39296A"/>
						</linearGradient>
						<polygon style="fill:url(#SVGID_00000044890354906027253450000009806198674704117645_);" points="222.294,247.083 
							229.327,247.083 222.196,376.441 217.199,376.441 						"/>
					</g>
					<g>
						
							<linearGradient id="SVGID_00000070803433875689142010000014255644419229953692_" gradientUnits="userSpaceOnUse" x1="766.6137" y1="227.3723" x2="766.6137" y2="255.2917" gradientTransform="matrix(-1 0 0 1 1105.7748 0)">
							<stop  offset="0" style="stop-color:#0E090F"/>
							<stop  offset="0.1506" style="stop-color:#160E18"/>
							<stop  offset="0.6857" style="stop-color:#2F1E33"/>
							<stop  offset="1" style="stop-color:#38243D"/>
						</linearGradient>
						<polygon style="fill:url(#SVGID_00000070803433875689142010000014255644419229953692_);" points="213.928,250.263 
							464.394,250.263 464.394,235.695 213.928,235.695 						"/>
					</g>
					
						<linearGradient id="SVGID_00000054245615445728674340000004533623037683897493_" gradientUnits="userSpaceOnUse" x1="334.538" y1="290.7617" x2="338.8368" y2="250.5556">
						<stop  offset="0" style="stop-color:#0E090F"/>
						<stop  offset="0.1506" style="stop-color:#160E18"/>
						<stop  offset="0.6857" style="stop-color:#2F1E33"/>
						<stop  offset="1" style="stop-color:#38243D"/>
					</linearGradient>
					
						<rect x="213.928" y="244.781" style="fill:url(#SVGID_00000054245615445728674340000004533623037683897493_);" width="250.467" height="5.483"/>
				</g>
			</g>
			<g>
				
					<linearGradient id="SVGID_00000005978722155092337760000018249074707554783678_" gradientUnits="userSpaceOnUse" x1="-370.5584" y1="200.9896" x2="-344.4089" y2="200.9896" gradientTransform="matrix(0.9956 -0.0937 0.0937 0.9956 672.9156 -80.5444)">
					<stop  offset="0" style="stop-color:#FFD1C1"/>
					<stop  offset="0.4889" style="stop-color:#FFCFBF"/>
					<stop  offset="0.665" style="stop-color:#FFCAB8"/>
					<stop  offset="0.7905" style="stop-color:#FFC0AD"/>
					<stop  offset="0.892" style="stop-color:#FFB29C"/>
					<stop  offset="0.9779" style="stop-color:#FFA086"/>
					<stop  offset="1" style="stop-color:#FF9A7F"/>
				</linearGradient>
				<path style="fill:url(#SVGID_00000005978722155092337760000018249074707554783678_);" d="M321.572,141.014l1.342,6.842
					l2.048,10.438l0.576,2.936c9.819,8.982,20.852,6.858,23.187,2.132c2.335-4.726-2.538-26.114-2.538-26.114L321.572,141.014z"/>
				
					<linearGradient id="SVGID_00000096028792869424693850000015456958103163513229_" gradientUnits="userSpaceOnUse" x1="-348.1102" y1="200.1579" x2="-342.7729" y2="200.1579" gradientTransform="matrix(0.9956 -0.0937 0.0937 0.9956 672.9156 -80.5444)">
					<stop  offset="0" style="stop-color:#EEA281"/>
					<stop  offset="0.246" style="stop-color:#EE9C7B"/>
					<stop  offset="0.5823" style="stop-color:#ED8A6C"/>
					<stop  offset="0.9693" style="stop-color:#EC6E52"/>
					<stop  offset="1" style="stop-color:#EC6B50"/>
				</linearGradient>
				<polygon style="fill:url(#SVGID_00000096028792869424693850000015456958103163513229_);" points="344.888,146.608 
					345.523,155.934 350.85,155.571 				"/>
			</g>
			
				<linearGradient id="SVGID_00000011745551729726548200000013393476280560508833_" gradientUnits="userSpaceOnUse" x1="342.2809" y1="152.435" x2="321.4985" y2="128.2444">
				<stop  offset="0" style="stop-color:#071786"/>
				<stop  offset="0.1509" style="stop-color:#05136B"/>
				<stop  offset="0.3236" style="stop-color:#041055"/>
				<stop  offset="0.5107" style="stop-color:#030E45"/>
				<stop  offset="0.7204" style="stop-color:#020C3B"/>
				<stop  offset="1" style="stop-color:#020C38"/>
			</linearGradient>
			<path style="fill:url(#SVGID_00000011745551729726548200000013393476280560508833_);" d="M325.728,137.626l1.562,13.735
				l-3.838-4.254l3.036,21.128c0,0-16.204-18.049-12.9-28.045l1.474-1.352c0,0-5.56-8.544,10.284-11.086
				c15.844-2.541,25.895-3.832,26.228,2.938c0.333,6.771-0.892,10.9-0.892,10.9L325.728,137.626z"/>
			
				<linearGradient id="SVGID_00000062172388114157095650000003240186407112828081_" gradientUnits="userSpaceOnUse" x1="-367.4013" y1="197.1008" x2="-373.5125" y2="200.6291" gradientTransform="matrix(0.9956 -0.0937 0.0937 0.9956 672.9156 -80.5444)">
				<stop  offset="0" style="stop-color:#FFD1C1"/>
				<stop  offset="0.2262" style="stop-color:#FFCDBC"/>
				<stop  offset="0.4949" style="stop-color:#FFC1AE"/>
				<stop  offset="0.7841" style="stop-color:#FFAD96"/>
				<stop  offset="1" style="stop-color:#FF9A7F"/>
			</linearGradient>
			<path style="fill:url(#SVGID_00000062172388114157095650000003240186407112828081_);" d="M319.17,148.043
				c-1.547,2.861,0.126,8.307,5.897,9.398l-1.188-9.745C323.061,146.425,320.188,146.161,319.17,148.043z"/>
			
				<linearGradient id="SVGID_00000046305225739120976950000010513510865411358101_" gradientUnits="userSpaceOnUse" x1="341.0017" y1="153.5339" x2="320.2194" y2="129.3432">
				<stop  offset="0" style="stop-color:#071786"/>
				<stop  offset="0.1509" style="stop-color:#05136B"/>
				<stop  offset="0.3236" style="stop-color:#041055"/>
				<stop  offset="0.5107" style="stop-color:#030E45"/>
				<stop  offset="0.7204" style="stop-color:#020C3B"/>
				<stop  offset="1" style="stop-color:#020C38"/>
			</linearGradient>
			<polygon style="fill:url(#SVGID_00000046305225739120976950000010513510865411358101_);" points="321.846,139.684 
				337.99,141.581 330.095,134.363 			"/>
			<g>
				<g>
					<g>
						
							<linearGradient id="SVGID_00000159440376703202968390000005464575217718954649_" gradientUnits="userSpaceOnUse" x1="1159.2147" y1="879.3432" x2="1147.2274" y2="858.5806" gradientTransform="matrix(-0.9979 0.0642 -0.0642 -0.9979 1450.9286 989.7011)">
							<stop  offset="0" style="stop-color:#E6A224"/>
							<stop  offset="0.3506" style="stop-color:#E68349"/>
							<stop  offset="0.7777" style="stop-color:#E56171"/>
							<stop  offset="1" style="stop-color:#E55480"/>
						</linearGradient>
						<path style="fill:url(#SVGID_00000159440376703202968390000005464575217718954649_);" d="M245.985,208.187
							c0.781-0.621,1.587-1.298,2.16-2.354c0.338-0.622,0.576-1.341,0.806-2.053c0.451-1.391,0.898-2.846,0.935-4.292
							c0.028-1.096-0.182-2.154,0.012-3.257c0.163-0.926,0.588-1.748,0.946-2.585c0.497-1.163,0.889-2.468,0.911-3.744
							c0.016-0.897-0.151-1.724-0.288-2.555c-0.353-2.147-0.511-4.416-0.471-6.733c0.017-0.944,0.061-1.939-0.197-2.723
							c-0.086,0.797-0.263,1.596-0.52,2.349c-0.438,1.285-1.094,2.406-1.77,3.46c-1.322,2.061-2.759,3.953-4.001,6.124
							c-1.242,2.171-2.303,4.704-2.624,7.366c-0.149,1.234-0.138,2.479-0.419,3.694c-0.745,3.218-3.32,5.391-3.785,8.657
							c-0.097,0.678-0.091,1.352-0.084,2.018c0.008,0.813-0.249,3.899,0.396,3.665c0.342-0.124,0.961-1.085,1.283-1.414
							c0.423-0.433,0.853-0.844,1.288-1.24c0.891-0.811,1.802-1.551,2.718-2.272C244.093,209.658,245.269,209.089,245.985,208.187z"
							/>
						<path style="fill:#FFFFFF;" d="M240.866,209.271c1.47-1.732,2.623-3.987,3.442-6.408c0.405-1.214,0.752-2.465,1.024-3.734
							c0.274-1.262,0.472-2.561,0.704-3.873c0.12-0.656,0.25-1.316,0.403-1.975c0.154-0.66,0.346-1.321,0.554-1.954
							c0.433-1.262,0.922-2.461,1.413-3.645c0.483-1.188,0.975-2.365,1.368-3.594c0.407-1.222,0.702-2.51,0.801-3.821
							c0.03,1.287-0.219,2.644-0.552,3.934c-0.345,1.294-0.797,2.531-1.25,3.747c-0.449,1.22-0.924,2.412-1.31,3.634
							c-0.189,0.613-0.366,1.216-0.507,1.845c-0.142,0.629-0.262,1.268-0.377,1.913c-0.239,1.289-0.44,2.604-0.745,3.923
							c-0.311,1.308-0.682,2.601-1.149,3.836c-0.464,1.235-1.017,2.415-1.661,3.468
							C242.379,207.618,241.649,208.542,240.866,209.271z"/>
					</g>
					
						<linearGradient id="SVGID_00000059280140230067548610000011796547558322928014_" gradientUnits="userSpaceOnUse" x1="235.9834" y1="274.7068" x2="244.7317" y2="279.9797" gradientTransform="matrix(0.9924 0.1233 -0.1233 0.9924 46.4472 -98.5792)">
						<stop  offset="0" style="stop-color:#E6A224"/>
						<stop  offset="0.3506" style="stop-color:#E68349"/>
						<stop  offset="0.7777" style="stop-color:#E56171"/>
						<stop  offset="1" style="stop-color:#E55480"/>
					</linearGradient>
					<path style="fill:url(#SVGID_00000059280140230067548610000011796547558322928014_);" d="M251.712,196.828
						c-0.916,0.243-1.847,0.521-2.61,1.083c-2.107,1.552-2.271,4.652-3.827,6.756c-1.162,1.573-3.042,2.503-4.181,4.092
						c-0.616,0.859-0.984,1.868-1.344,2.862c-0.379,1.045-0.757,2.091-1.135,3.136c4.526-1.157,8.929-2.794,13.112-4.875
						c0.747-0.372,1.5-0.767,2.085-1.361c1.152-1.168,1.482-2.917,1.502-4.558c0.017-1.39-0.143-2.823,0.306-4.139
						c0.751-2.201,2.721-2.95,4.284-4.393C257.561,194.979,254.005,196.221,251.712,196.828z"/>
					<path style="fill:#FFFFFF;" d="M256.885,196.489c-0.773,0.426-1.557,0.827-2.293,1.3c-0.74,0.463-1.443,0.98-2.042,1.59
						c-0.596,0.615-1.075,1.316-1.391,2.11c-0.33,0.788-0.554,1.632-0.816,2.481c-0.135,0.423-0.283,0.848-0.462,1.265
						c-0.18,0.417-0.395,0.82-0.633,1.205c-0.49,0.764-1.082,1.451-1.737,2.06c-1.305,1.231-2.824,2.16-4.345,3.046
						c0.696-0.543,1.41-1.059,2.085-1.619c0.684-0.548,1.343-1.124,1.945-1.747c0.597-0.627,1.153-1.29,1.589-2.026
						c0.214-0.369,0.416-0.744,0.579-1.138c0.165-0.394,0.302-0.803,0.431-1.219c0.268-0.829,0.497-1.692,0.865-2.523
						c0.364-0.832,0.908-1.606,1.577-2.215C253.58,197.818,255.251,197.124,256.885,196.489z"/>
					
						<linearGradient id="SVGID_00000174560721727671644080000016349600457401211546_" gradientUnits="userSpaceOnUse" x1="226.6889" y1="274.7469" x2="210.8507" y2="247.3144" gradientTransform="matrix(0.9953 0.0967 -0.0967 0.9953 35.4655 -78.2389)">
						<stop  offset="0" style="stop-color:#39C4E2;stop-opacity:0.97"/>
						<stop  offset="1" style="stop-color:#007A68"/>
					</linearGradient>
					<path style="fill:url(#SVGID_00000174560721727671644080000016349600457401211546_);" d="M235.082,199.875
						c-1.134-1.924-2.762-3.626-4.827-4.475c-2.873-1.181-6.373-0.655-8.927-2.422c-0.519-0.359-0.979-0.803-1.521-1.126
						c-1.213-0.722-2.698-0.768-4.11-0.794c-0.2-0.004-0.416-0.002-0.577,0.117c-0.118,0.087-0.186,0.226-0.232,0.365
						c-0.284,0.856,0.165,1.8,0.793,2.447c0.628,0.647,1.428,1.103,2.09,1.716c1.123,1.042,1.792,2.495,2.166,3.98
						c0.374,1.485,0.478,3.023,0.637,4.546c0.063,0.605,0.138,1.221,0.396,1.772c0.407,0.871,1.219,1.476,2.034,1.986
						c1.338,0.837,2.772,1.518,4.266,2.027c3.183,1.083,6.788,1.468,9.262,3.744c0.262,0.241,0.509,0.502,0.795,0.713
						c0.546,0.403,1.245,0.613,1.918,0.518c0.258-0.857-0.124-1.758-0.443-2.594c-0.826-2.158-0.999-4.319-1.404-6.561
						C237.027,203.786,236.134,201.66,235.082,199.875z"/>
					
						<linearGradient id="SVGID_00000131334970161712114090000012301513011089395389_" gradientUnits="userSpaceOnUse" x1="232.2755" y1="267.9162" x2="213.9168" y2="236.118" gradientTransform="matrix(0.9953 0.0967 -0.0967 0.9953 35.4655 -78.2389)">
						<stop  offset="0" style="stop-color:#39C4E2;stop-opacity:0.97"/>
						<stop  offset="1" style="stop-color:#007A68"/>
					</linearGradient>
					<path style="fill:url(#SVGID_00000131334970161712114090000012301513011089395389_);" d="M236.169,182.938
						c1.817,2.426,2.77,5.485,2.653,8.514c-0.106,2.75-1.053,5.557-0.271,8.196c0.381,1.288,1.161,2.456,1.344,3.787
						c0.436,3.163-2.559,5.873-2.71,9.062c-0.609-0.108-0.903-0.78-1.216-1.313c-0.877-1.493-2.514-2.331-3.853-3.429
						c-2.332-1.911-3.843-4.79-4.092-7.794c-0.299-3.606,1.139-7.203,0.738-10.799c-0.138-1.238-0.492-2.441-0.7-3.668
						c-0.288-1.699-0.288-3.445-0.014-5.146c0.222-1.379,0.631-3.88,1.712-4.808C231.694,178.195,234.204,180.314,236.169,182.938z"
						/>
					
						<linearGradient id="SVGID_00000106111889249275068350000017775886182384818849_" gradientUnits="userSpaceOnUse" x1="240.1832" y1="436.2133" x2="226.3784" y2="412.3025" gradientTransform="matrix(0.9874 0.1584 -0.1584 0.9874 78.179 -256.5929)">
						<stop  offset="0" style="stop-color:#39C4E2;stop-opacity:0.97"/>
						<stop  offset="1" style="stop-color:#007A68"/>
					</linearGradient>
					<path style="fill:url(#SVGID_00000106111889249275068350000017775886182384818849_);" d="M241.413,189.827
						c-0.555,0.641-1.222,1.195-1.664,1.919c-0.388,0.636-0.581,1.371-0.703,2.106c-0.204,1.236-0.217,2.503-0.038,3.742
						c0.09,0.623,0.228,1.247,0.184,1.875c-0.17,2.416-2.824,3.9-2.804,6.317c0.007,0.816,0.239,1.611,0.479,2.39
						c0.695,2.254,1.472,4.482,2.331,6.68c0.226-0.965,0.454-1.938,0.879-2.833c0.262-0.553,0.597-1.07,0.838-1.633
						c0.703-1.644,0.543-3.538,0.066-5.262c-0.146-0.527-0.321-1.072-0.223-1.609c0.069-0.376,0.267-0.715,0.484-1.029
						c0.724-1.051,1.743-1.755,2.612-2.662c0.846-0.882,1.209-2.107,1.545-3.282c0.283-0.99,0.568-1.997,0.561-3.027
						c-0.007-0.961-0.268-1.899-0.527-2.824c-0.64-2.284-1.072-4.835-2.004-7.007c-0.368,0.781-0.15,1.927-0.348,2.805
						C242.807,187.717,242.235,188.878,241.413,189.827z"/>
					<path style="fill:#FFFFFF;" d="M230.158,180.178c0.698,2.571,1.61,5.077,2.131,7.721c0.281,1.312,0.386,2.684,0.418,4.021
						c0.024,1.34,0.019,2.672,0.029,3.992c0.011,0.66,0.027,1.319,0.077,1.971c0.042,0.654,0.1,1.304,0.204,1.946
						c0.092,0.644,0.241,1.276,0.405,1.901c0.169,0.619,0.39,1.253,0.608,1.872c0.866,2.497,1.95,4.919,3.12,7.32
						c-1.532-2.19-2.793-4.573-3.805-7.061c-0.245-0.628-0.487-1.244-0.693-1.904c-0.204-0.653-0.358-1.322-0.465-1.995
						c-0.235-1.345-0.284-2.703-0.286-4.045c-0.006-1.343,0.07-2.674,0.094-3.998c0.057-1.326-0.041-2.621-0.235-3.93
						C231.368,185.381,230.611,182.807,230.158,180.178z"/>
					<path style="fill:#FFFFFF;" d="M218.454,194.046c2.118,0.843,4.158,1.979,5.893,3.535c0.872,0.758,1.655,1.678,2.269,2.67
						c0.624,0.989,1.117,2.029,1.642,3.03c0.509,1.008,1.046,1.987,1.717,2.853c0.652,0.877,1.493,1.596,2.385,2.281
						c0.894,0.681,1.844,1.326,2.729,2.066c0.442,0.37,0.862,0.772,1.247,1.201c0.385,0.431,0.712,0.91,0.993,1.406
						c-0.358-0.446-0.741-0.864-1.163-1.237c-0.426-0.369-0.865-0.72-1.334-1.033c-0.924-0.645-1.912-1.205-2.865-1.856
						c-0.241-0.158-0.475-0.332-0.711-0.499c-0.229-0.182-0.463-0.356-0.682-0.553c-0.449-0.379-0.863-0.811-1.239-1.268
						c-0.746-0.923-1.313-1.95-1.843-2.966c-0.517-1.023-1-2.046-1.57-2.999c-0.549-0.97-1.242-1.812-2.035-2.608
						C222.308,196.483,220.417,195.209,218.454,194.046z"/>
					<path style="fill:#FFFFFF;" d="M243.335,189.921c-0.028,1.881-0.386,3.756-0.907,5.565c-0.511,1.815-1.167,3.577-1.743,5.351
						c-0.585,1.771-1.083,3.568-1.488,5.389c-0.396,1.822-0.703,3.667-0.883,5.536c-0.043-1.878,0.117-3.766,0.444-5.623
						c0.319-1.859,0.8-3.688,1.382-5.481c0.594-1.788,1.269-3.535,1.862-5.304C242.589,193.585,243.085,191.784,243.335,189.921z"/>
				</g>
				
					<linearGradient id="SVGID_00000062885131878679233350000015994565985383922873_" gradientUnits="userSpaceOnUse" x1="239.1978" y1="216.7257" x2="239.1978" y2="267.0639">
					<stop  offset="0" style="stop-color:#071786"/>
					<stop  offset="0.1509" style="stop-color:#05136B"/>
					<stop  offset="0.3236" style="stop-color:#041055"/>
					<stop  offset="0.5107" style="stop-color:#030E45"/>
					<stop  offset="0.7204" style="stop-color:#020C3B"/>
					<stop  offset="1" style="stop-color:#020C38"/>
				</linearGradient>
				<path style="fill:url(#SVGID_00000062885131878679233350000015994565985383922873_);" d="M246.064,235.695h-13.732
					c-0.885,0-1.602-0.717-1.602-1.602l-2.69-19.112c0-0.885,0.717-1.602,1.602-1.602h19.112c0.885,0,1.602,0.717,1.602,1.602
					l-2.69,19.112C247.666,234.978,246.949,235.695,246.064,235.695z"/>
			</g>
			<path style="fill:#FFFFFF;" d="M281.232,181.564c-2.966,0-6.196-1.228-8.604-2.595c-0.469,1.251-0.955,2.835-1.372,3.928
				c-0.74,1.939-1.218,3.99-2.004,5.912c-1.921,4.702-4.901,9.12-4.539,14.358c0.265,3.845,2.181,9.184,7.21,8.768
				c2.647-0.219,5.299-2.711,6.806-4.612c2.719-3.428,4.07-19.007,4.155-26.016C282.617,181.32,281.501,181.564,281.232,181.564z"/>
			
				<linearGradient id="SVGID_00000034792681026020480510000016532527616407296417_" gradientUnits="userSpaceOnUse" x1="275.8576" y1="147.2376" x2="275.8576" y2="116.5842">
				<stop  offset="0" style="stop-color:#B2B1B9"/>
				<stop  offset="0.2957" style="stop-color:#89919D"/>
				<stop  offset="0.7729" style="stop-color:#4B6274"/>
				<stop  offset="1" style="stop-color:#334F64"/>
			</linearGradient>
			<path style="fill:url(#SVGID_00000034792681026020480510000016532527616407296417_);" d="M302.066,136.783
				c2.23-2.688,3.498-5.759,3.498-9.021c0-10.58-13.3-19.156-29.707-19.156c-16.406,0-29.707,8.576-29.707,19.156
				c0,10.579,13.3,19.156,29.707,19.156c6.816,0,13.091-1.484,18.104-3.973c5.071,2.036,11.603,4.757,11.603,4.757L302.066,136.783z
				"/>
			<g>
				<rect x="253.822" y="121.934" style="fill:#FFFFFF;" width="44.05" height="2.204"/>
				<rect x="253.822" y="127.824" style="fill:#FFFFFF;" width="44.05" height="2.204"/>
				<rect x="253.822" y="133.714" style="fill:#FFFFFF;" width="33.354" height="2.204"/>
			</g>
			
				<linearGradient id="SVGID_00000036246266028313802510000008168149106297674919_" gradientUnits="userSpaceOnUse" x1="440.1693" y1="147.2376" x2="440.1693" y2="116.5842">
				<stop  offset="0" style="stop-color:#B2B1B9"/>
				<stop  offset="0.2957" style="stop-color:#89919D"/>
				<stop  offset="0.7729" style="stop-color:#4B6274"/>
				<stop  offset="1" style="stop-color:#334F64"/>
			</linearGradient>
			<path style="fill:url(#SVGID_00000036246266028313802510000008168149106297674919_);" d="M466.378,136.783
				c2.23-2.688,3.498-5.759,3.498-9.021c0-10.58-13.3-19.156-29.707-19.156c-16.407,0-29.707,8.576-29.707,19.156
				c0,10.579,13.3,19.156,29.707,19.156c6.816,0,13.091-1.484,18.104-3.973c5.071,2.036,11.603,4.757,11.603,4.757L466.378,136.783z
				"/>
			<g>
				<rect x="418.133" y="121.934" style="fill:#FFFFFF;" width="44.05" height="2.204"/>
				<rect x="418.133" y="127.824" style="fill:#FFFFFF;" width="44.05" height="2.204"/>
				<rect x="418.133" y="133.714" style="fill:#FFFFFF;" width="33.354" height="2.204"/>
			</g>
		</g>
	</g>
</g>
<g id="DESIGNED_BY_FREEPIK">
	<g>
		<path style="fill:#112129;" d="M385.103,467.086c-0.433,0.442-0.804,0.932-1.107,1.452l-0.465-0.24
			c-0.068-0.297-0.351-0.502-0.659-0.467c-0.331,0.039-0.568,0.34-0.53,0.671c0.039,0.33,0.339,0.566,0.67,0.527
			c0.066-0.007,0.127-0.024,0.185-0.051l0.45,0.234c-0.251,0.554-0.433,1.139-0.538,1.742l0.746,0.133
			c0.23-1.307,0.851-2.508,1.792-3.474L385.103,467.086z"/>
		<path style="fill:#112129;" d="M390.591,464.783c-0.171,0-0.341,0.007-0.509,0.018l-0.074-0.626
			c0.188-0.15,0.297-0.389,0.267-0.646c-0.046-0.392-0.403-0.674-0.795-0.628c-0.395,0.046-0.675,0.403-0.628,0.796
			c0.029,0.255,0.189,0.461,0.403,0.563l0.073,0.625c-0.714,0.116-1.402,0.332-2.059,0.645l0.327,0.685
			c0.934-0.448,1.94-0.674,2.994-0.674c0.497,0,0.993,0.053,1.477,0.157l0.16-0.74C391.692,464.843,391.143,464.783,390.591,464.783
			"/>
		<path style="fill:#112129;" d="M397.194,467.331c0.33-0.04,0.565-0.342,0.524-0.673c-0.04-0.331-0.34-0.565-0.672-0.524
			c-0.309,0.038-0.535,0.303-0.53,0.607l-0.416,0.363c-0.418-0.429-0.889-0.811-1.406-1.139l-0.404,0.641
			c1.134,0.715,2.02,1.728,2.563,2.925l0.691-0.312c-0.251-0.554-0.568-1.072-0.943-1.545l0.403-0.352
			C397.064,467.336,397.129,467.34,397.194,467.331"/>
		<path style="fill:#112129;" d="M390.045,474.991c-0.387,0.023-0.775,0.035-1.157,0.035c-0.88,0-1.734-0.06-2.479-0.18
			c-0.39-0.061-0.846-0.154-1.27-0.292c1.047,1.862,3.068,3.125,5.388,3.125c2.857,0,5.263-1.916,5.95-4.502
			c-0.682,0.449-1.505,0.825-2.458,1.122C392.839,474.668,391.464,474.906,390.045,474.991"/>
		<path style="fill:#112129;" d="M390.592,466.301c-3.353,0-6.079,2.666-6.079,5.943c0,0.425,0.046,0.849,0.136,1.261
			c0.674,0.482,2.707,0.89,5.348,0.73c2.88-0.174,5.297-0.958,6.672-2.158c-0.005-0.194-0.02-0.391-0.045-0.581
			C396.243,468.534,393.649,466.301,390.592,466.301 M388.433,472.815c-1.02,0-1.851-0.83-1.851-1.849
			c0-1.021,0.83-1.852,1.851-1.852c1.019,0,1.849,0.83,1.849,1.852C390.281,471.984,389.451,472.815,388.433,472.815
			 M393.17,471.906c-0.75,0-1.36-0.609-1.36-1.359s0.61-1.361,1.36-1.361s1.359,0.611,1.359,1.361S393.92,471.906,393.17,471.906"/>
		<path style="fill:#112129;" d="M406.596,468.168c-0.296-0.116-0.807-0.311-1.384-0.238c-0.551,0.068-0.844,0.34-0.844,1.006v0.867
			h2.229v1.717h-2.229v5.455h-1.931v-5.455h-1.339v-1.717h1.339v-0.89c0-1.68,0.895-2.781,2.567-2.781
			c0.643,0,1.157,0.121,1.591,0.307V468.168z"/>
		<path style="fill:#112129;" d="M411.297,471.498c-0.177-0.028-0.357-0.046-0.525-0.046c-0.896,0-1.51,0.549-1.51,1.613v3.909
			h-1.934v-7.172h1.873v0.784c0.451-0.674,1.141-0.978,2.022-0.978c0.414,0,0.847,0.128,1.095,0.337L411.297,471.498z"/>
		<path style="fill:#112129;" d="M418.965,473.377c0,0.223-0.015,0.488-0.037,0.651h-5.085c0.207,1.037,0.934,1.488,1.844,1.488
			c0.621,0,1.295-0.252,1.813-0.69l1.133,1.243c-0.814,0.748-1.85,1.089-3.056,1.089c-2.199,0-3.725-1.496-3.725-3.753
			c0-2.257,1.482-3.797,3.628-3.797C417.543,469.609,418.958,471.143,418.965,473.377 M413.852,472.711h3.175
			c-0.179-0.918-0.733-1.436-1.563-1.436C414.554,471.274,414.022,471.822,413.852,472.711"/>
		<path style="fill:#112129;" d="M426.618,473.377c0,0.223-0.015,0.488-0.037,0.651h-5.085c0.207,1.037,0.934,1.488,1.844,1.488
			c0.621,0,1.296-0.252,1.813-0.69l1.133,1.243c-0.813,0.748-1.85,1.089-3.057,1.089c-2.199,0-3.724-1.496-3.724-3.753
			c0-2.257,1.481-3.797,3.628-3.797C425.196,469.609,426.611,471.143,426.618,473.377 M421.504,472.711h3.176
			c-0.179-0.918-0.734-1.436-1.563-1.436C422.207,471.274,421.675,471.822,421.504,472.711"/>
		<path style="fill:#112129;" d="M434.965,473.385c0,2.153-1.495,3.774-3.473,3.774c-0.962,0-1.644-0.378-2.108-0.932v3.708h-1.925
			v-10.133h1.888v0.792c0.466-0.585,1.154-0.984,2.138-0.984C433.47,469.61,434.965,471.231,434.965,473.385 M429.287,473.385
			c0,1.133,0.748,1.977,1.844,1.977c1.139,0,1.849-0.881,1.849-1.977s-0.71-1.977-1.849-1.977
			C430.035,471.408,429.287,472.252,429.287,473.385"/>
		<path style="fill:#112129;" d="M438.068,467.455c0,0.697-0.541,1.23-1.237,1.23c-0.696,0-1.228-0.533-1.228-1.23
			c0-0.694,0.531-1.243,1.228-1.243C437.527,466.212,438.068,466.761,438.068,467.455 M437.809,476.975h-1.933v-7.172h1.933V476.975
			z"/>
		<polygon style="fill:#112129;" points="441.032,472.356 443.733,469.802 446.102,469.802 442.624,473.177 446.125,476.974 
			443.749,476.974 441.032,474.073 441.032,476.974 439.1,476.974 439.1,466.316 441.032,466.316 		"/>
		<path style="fill:#112129;" d="M309.412,476.91v-1.056c-0.527,0.718-1.391,1.231-2.387,1.231c-1.846,0-3.15-1.406-3.15-3.706
			c0-2.256,1.289-3.722,3.15-3.722c0.952,0,1.816,0.47,2.387,1.245v-3.765h1.099v9.771H309.412z M309.412,474.99v-3.208
			c-0.395-0.614-1.245-1.143-2.124-1.143c-1.42,0-2.27,1.172-2.27,2.74c0,1.566,0.85,2.724,2.27,2.724
			C308.167,476.103,309.017,475.605,309.412,474.99"/>
		<path style="fill:#112129;" d="M311.931,473.365c0-2.052,1.465-3.706,3.487-3.706c2.138,0,3.398,1.67,3.398,3.794v0.277h-5.727
			c0.087,1.333,1.025,2.446,2.548,2.446c0.806,0,1.626-0.322,2.183-0.893l0.527,0.718c-0.703,0.703-1.655,1.084-2.812,1.084
			C313.44,477.086,311.931,475.577,311.931,473.365 M315.403,470.566c-1.509,0-2.256,1.274-2.314,2.358h4.643
			C317.717,471.871,317.014,470.566,315.403,470.566"/>
		<path style="fill:#112129;" d="M319.607,475.973l0.571-0.791c0.469,0.542,1.363,1.011,2.329,1.011c1.084,0,1.67-0.514,1.67-1.216
			c0-1.715-4.38-0.659-4.38-3.281c0-1.1,0.952-2.037,2.637-2.037c1.201,0,2.051,0.455,2.622,1.026l-0.513,0.762
			c-0.424-0.513-1.201-0.895-2.109-0.895c-0.967,0-1.567,0.483-1.567,1.113c0,1.553,4.379,0.528,4.379,3.282
			c0,1.186-0.952,2.138-2.783,2.138C321.306,477.085,320.325,476.734,319.607,475.973"/>
		<path style="fill:#112129;" d="M326.477,468.091c0-0.409,0.337-0.746,0.732-0.746c0.41,0,0.747,0.337,0.747,0.746
			c0,0.41-0.337,0.732-0.747,0.732C326.814,468.823,326.477,468.501,326.477,468.091 M326.667,469.834h1.099v7.075h-1.099V469.834z"
			/>
		<path style="fill:#112129;" d="M329.582,478.727l0.556-0.821c0.586,0.703,1.289,0.967,2.3,0.967c1.171,0,2.27-0.57,2.27-2.124
			v-1.011c-0.513,0.718-1.377,1.26-2.373,1.26c-1.846,0-3.149-1.377-3.149-3.661c0-2.271,1.289-3.678,3.149-3.678
			c0.952,0,1.802,0.47,2.373,1.245v-1.068h1.099v6.869c0,2.345-1.641,3.076-3.369,3.076
			C331.236,479.78,330.417,479.546,329.582,478.727 M334.708,474.873v-3.091c-0.381-0.614-1.23-1.142-2.109-1.142
			c-1.421,0-2.27,1.128-2.27,2.695c0,1.553,0.849,2.694,2.27,2.694C333.478,476.03,334.328,475.488,334.708,474.873"/>
		<path style="fill:#112129;" d="M342.413,476.91v-4.63c0-1.244-0.63-1.641-1.582-1.641c-0.864,0-1.685,0.528-2.094,1.099v5.172
			h-1.099v-7.075h1.099v1.024c0.497-0.586,1.464-1.201,2.518-1.201c1.479,0,2.256,0.747,2.256,2.285v4.967H342.413z"/>
		<path style="fill:#112129;" d="M344.932,473.365c0-2.052,1.465-3.706,3.487-3.706c2.138,0,3.398,1.67,3.398,3.794v0.277h-5.727
			c0.088,1.333,1.025,2.446,2.548,2.446c0.806,0,1.626-0.322,2.183-0.893l0.527,0.718c-0.703,0.703-1.655,1.084-2.812,1.084
			C346.442,477.086,344.932,475.577,344.932,473.365 M348.404,470.566c-1.509,0-2.256,1.274-2.314,2.358h4.643
			C350.718,471.871,350.015,470.566,348.404,470.566"/>
		<path style="fill:#112129;" d="M358.35,476.91v-1.056c-0.527,0.718-1.392,1.231-2.388,1.231c-1.845,0-3.149-1.406-3.149-3.706
			c0-2.256,1.288-3.722,3.149-3.722c0.952,0,1.817,0.47,2.388,1.245v-3.765h1.098v9.771H358.35z M358.35,474.99v-3.208
			c-0.396-0.614-1.245-1.143-2.124-1.143c-1.421,0-2.271,1.172-2.271,2.74c0,1.566,0.85,2.724,2.271,2.724
			C357.105,476.103,357.954,475.605,358.35,474.99"/>
		<path style="fill:#112129;" d="M364.692,476.91v-9.771h1.099v3.766c0.571-0.777,1.421-1.245,2.387-1.245
			c1.846,0,3.15,1.465,3.15,3.72c0,2.3-1.304,3.707-3.15,3.707c-0.996,0-1.86-0.513-2.387-1.23v1.055H364.692z M367.9,476.103
			c1.436,0,2.285-1.156,2.285-2.725c0-1.567-0.849-2.739-2.285-2.739c-0.864,0-1.729,0.528-2.109,1.144v3.208
			C366.171,475.606,367.036,476.103,367.9,476.103"/>
		<path style="fill:#112129;" d="M372.528,478.682c0.161,0.073,0.425,0.117,0.601,0.117c0.483,0,0.806-0.161,1.055-0.747
			l0.469-1.068l-2.959-7.149h1.188l2.358,5.801l2.344-5.801h1.2l-3.544,8.511c-0.425,1.024-1.143,1.421-2.08,1.437
			c-0.234,0-0.602-0.044-0.806-0.105L372.528,478.682z"/>
	</g>
</g>
</svg>
