<?xml version="1.0" encoding="utf-8"?>
<!-- Generator: Adobe Illustrator 27.5.0, SVG Export Plug-In . SVG Version: 6.00 Build 0)  -->
<svg version="1.1" xmlns="http://www.w3.org/2000/svg" xmlns:xlink="http://www.w3.org/1999/xlink" x="0px" y="0px"
	 viewBox="0 0 3710 3710" style="enable-background:new 0 0 3710 3710;" xml:space="preserve">
<g id="Background">
	<g>
		<g>
			<rect style="fill:#FFFFFF;" width="3710" height="3710"/>
		</g>
	</g>
</g>
<g id="Illustration">
	<g>
		<path style="fill:#F4F7FA;" d="M3213.822,1652.105c-75.893-496.755-387.054-1107.054-1001.787-1170.924
			c0,0-466.734-56.77-926.831,29.272c-273.068,51.065-512.508,203.078-664.016,421.557
			c-151.51,218.481-202.118,484.887-140.698,738.872c39.892,164.964,66.848,335.694,59.451,505.203
			c-9.329,213.78-26.898,438.556,67.607,637.914c138.471,292.088,476.329,378.127,771.132,405.569
			c108.637,10.112,217.676,14.188,326.409,22.785c208.59,16.491,442.511-10.196,643.553-64.503
			C3373.194,2901.088,3289.715,2148.858,3213.822,1652.105z"/>
		<path style="fill:#D8DEE8;" d="M2958.095,1298.111l-80.404-10.545c-1.665-38.933-6.562-77.155-14.828-114.246l74.594-31.232
			c20.97-8.776,30.893-33.006,22.158-54.101l-54.481-131.689c-8.695-21.018-32.703-30.978-53.64-22.25l-75.006,31.277
			c-20.428-32.081-43.564-62.307-69.22-90.279l49.56-64.695c13.786-18.004,10.416-43.766-7.515-57.547l-112.044-86.077
			c-17.895-13.75-43.596-10.356-57.414,7.588l-49.879,64.776c-33.083-17.159-68.012-31.442-104.432-42.747l11.123-81.345
			c3.059-22.384-12.606-42.901-34.99-45.834L2261.696,550.8c-22.384-2.933-43.063,12.816-46.186,35.192l-11.45,81.963
			c-38.008,1.737-75.394,6.638-111.77,14.812l-30.978-76.468c-8.452-20.861-32.315-30.756-53.309-22.109l-131.422,54.145
			c-21.038,8.667-31.285,32.642-22.873,53.56l31.143,77.438c-31.838,20.275-61.955,43.236-89.943,68.683l-66.081-51.216
			c-17.818-13.81-43.681-10.396-57.774,7.636l-88.295,112.957c-14.141,18.097-11.159,44.02,6.687,57.891l66.263,51.515
			c-17.649,33.143-32.481,68.157-44.448,104.658l-84.085-11.03c-22.574-2.958-43.608,13.063-46.978,35.798l-21.135,142.48
			c-3.386,22.828,12.222,43.757,34.861,46.727l84.335,11.063c1.002,38.461,5.204,76.303,12.679,113.119l-79.135,32.998
			c-21.341,8.897-31.822,33.438-23.41,54.824l52.723,133.972c8.448,21.463,32.638,31.616,54.02,22.663l79.184-33.151
			c19.903,32.396,42.618,62.941,67.826,91.329l-52.755,68.509c-14.283,18.553-11.224,45.083,6.844,59.256l113.119,88.739
			c18.105,14.21,44.355,10.63,58.61-7.988l52.133-68.056c33.297,17.737,68.533,32.489,105.285,44.258l-11.867,84.945
			c-3.249,23.253,12.626,44.541,35.467,47.539l142.808,18.731c22.836,2.994,43.927-13.45,47.107-36.711l11.527-84.303
			c38.828-1.657,76.994-6.675,114.117-15.051l31.325,77.891c8.695,21.624,33.034,31.838,54.355,22.8l133.184-56.432
			c21.269-9.01,31.422-33.81,22.687-55.382l-31.329-77.329c32.513-20.978,63.131-44.816,91.535-71.168l65.087,50.606
			c18.19,14.146,44.279,10.586,58.25-7.939l87.216-115.616c13.923-18.456,10.473-44.824-7.685-58.905l-64.509-49.996
			c17.592-34.089,32.178-70.093,43.774-107.555l80.646,10.578c22.642,2.97,43.378-13.192,46.311-36.085l18.303-142.848
			C2996.608,1321.942,2980.673,1301.073,2958.095,1298.111z M2736.002,1382.968c-37.632,283.611-296.541,484.852-578.083,447.926
			c-281.547-36.929-476.609-297.713-435.91-580.924c40.453-281.503,298.824-478.86,577.312-442.33
			C2577.805,844.165,2773.4,1101.061,2736.002,1382.968z"/>
		<g>
			<g>
				
					<linearGradient id="SVGID_1_" gradientUnits="userSpaceOnUse" x1="4094.2319" y1="2681.1321" x2="4562.3174" y2="2681.1321" gradientTransform="matrix(-1 0 0 1 6799.4097 0)">
					<stop  offset="0" style="stop-color:#FF9085"/>
					<stop  offset="1" style="stop-color:#FB6FBB"/>
				</linearGradient>
				<path style="fill:url(#SVGID_1_);" d="M2452.464,3115.577c0.324,0.052,0.648,0.104,0.976,0.156
					c52.9,8.446,119.198,2.543,162.04-32.663c22.574-18.551,37.865-43.017,42.559-71.992c2.784-17.185,4.297-35.32,1.608-52.61
					c-2.815-18.102-9.814-35.586-18.825-51.46c-5.032-8.865-10.771-17.426-16.862-25.598
					c-17.448-23.408-58.669-56.297-39.555-89.485c11.554-20.062,38.189-32.415,55.781-46.482
					c37.604-30.071,64.611-73.427,64.99-122.936c0.298-38.893-24.087-77.394-51.599-103.544
					c-111.957-106.412-29.475-289.42-188.043-275.048c-158.568,14.372-192.97,172.619-133.581,320.367
					c19.883,49.465,44.081,100.03,57.587,151.726c10.632,40.696-4.394,68.84-37.535,92.889
					c-17.831,12.938-43.893,21.758-59.382,37.002c-34.6,34.052-62.319,81.781-54.059,131.735
					c8.193,49.552,50.432,85.951,94.947,104.777C2372.002,3098.69,2411.291,3108.983,2452.464,3115.577z"/>
				<g style="opacity:0.8;">
					<path style="fill:#FFFFFF;" d="M2471.135,3073.062c0.371,0,0.749-0.065,1.118-0.199c1.69-0.617,2.56-2.489,1.942-4.179
						c-0.669-1.835-66.373-185.281-8.846-332.296c58.468-149.417-6.934-309.373-7.601-310.971c-0.693-1.659-2.6-2.441-4.263-1.751
						c-1.661,0.694-2.446,2.602-1.753,4.263c0.656,1.575,65.034,159.171,7.546,306.086c-58.437,149.338,8.115,335.049,8.795,336.906
						C2468.557,3072.242,2469.806,3073.062,2471.135,3073.062z"/>
				</g>
			</g>
			<g>
				
					<linearGradient id="SVGID_00000016796879891031503550000002987337536085333437_" gradientUnits="userSpaceOnUse" x1="3680.9146" y1="2563.6157" x2="4427.1025" y2="2563.6157" gradientTransform="matrix(-1 0 0 1 6799.4097 0)">
					<stop  offset="0" style="stop-color:#FFC444"/>
					<stop  offset="0.9964" style="stop-color:#F36F56"/>
				</linearGradient>
				<path style="fill:url(#SVGID_00000016796879891031503550000002987337536085333437_);" d="M2419.028,2840.033
					c13.275-21.011,28.465-40.777,44.322-58.655c53.578-60.41,91.186-124.54,115.251-201.913
					c18.956-60.947,18.549-130.631,30.312-193.56c8.523-45.598,23.961-89.729,40.005-133.147
					c34.16-92.442,85.439-199.695,171.506-255.208c39.849-25.703,98.936-28.239,142.887-9.826
					c56.935,23.853,107.277,70.329,110.929,134.952c5.022,88.866-72.599,188.484-8.405,270.202
					c98.295,125.128,52.346,264.143-82.789,332.182c-44.038,22.173-95.646,42.727-132.441,76.781
					c-36.907,34.156-14.908,92.432-10.807,135.697c3.848,40.598,8.09,87.767-17.782,122.477
					c-43.65,58.563-149.053,84.083-217.568,89.87c-66.295,5.599-141.625-1.722-188.059-54.801
					C2346.418,3015.102,2369.258,2918.811,2419.028,2840.033z"/>
				<g style="opacity:0.8;">
					<path style="fill:#FFFFFF;" d="M2526.919,3094.789c1.316,0,2.557-0.803,3.049-2.107
						c2.151-5.688,216.523-571.42,338.845-799.402c0.851-1.586,0.255-3.562-1.331-4.412c-1.587-0.85-3.562-0.256-4.412,1.332
						c-122.523,228.355-337.045,794.484-339.198,800.176c-0.637,1.684,0.211,3.565,1.895,4.201
						C2526.146,3094.721,2526.536,3094.789,2526.919,3094.789z"/>
				</g>
			</g>
			<g>
				
					<linearGradient id="SVGID_00000130633330805590735430000014554496228063837573_" gradientUnits="userSpaceOnUse" x1="3576.0964" y1="2954.6426" x2="4324.6357" y2="2954.6426" gradientTransform="matrix(-1 0 0 1 6799.4097 0)">
					<stop  offset="0.0036" style="stop-color:#E38DDD"/>
					<stop  offset="1" style="stop-color:#9571F6"/>
				</linearGradient>
				<path style="fill:url(#SVGID_00000130633330805590735430000014554496228063837573_);" d="M2619.575,3174.809
					c-14.267-2.02-28.487-4.363-42.65-6.635c-39.581-6.35-88.611-18.679-101.06-62.846c-3.546-12.579,2.56-35.034,4.029-48.107
					c1.496-13.317,3.394-26.629,6.492-39.678c4.281-18.032,11.14-34.985,20.037-51.213c15.415-28.117,33.036-49.273,65.842-55.642
					c23.921-4.644,50.421-5.725,74.733-4.927c132.537,4.345,148.832-43.455,221.619-145.573s551.874,63.009,262.901,244.433
					c0,0-43.454,28.245-202.061,9.778c-29.013-3.378-65.703-5.624-90.297,13.139c-43.379,33.094,0.239,103.231-43.562,130.75
					c-25.54,16.045-66.586,20.765-95.926,21.892C2672.86,3181.208,2646.137,3178.57,2619.575,3174.809z"/>
				<g style="opacity:0.8;">
					<path style="fill:#FFFFFF;" d="M2531.115,3120.136c1.009,0,2.004-0.467,2.642-1.345
						c0.834-1.149,84.734-115.211,203.767-142.136c46.56-10.532,86.804-34.099,125.722-56.89
						c65.625-38.43,127.611-74.731,219.095-56.077c1.769,0.362,3.485-0.78,3.845-2.542c0.36-1.764-0.779-3.485-2.542-3.845
						c-93.927-19.156-159.896,19.48-223.691,56.84c-38.491,22.54-78.292,45.848-123.868,56.157
						c-121.466,27.475-206.758,143.497-207.605,144.666c-1.057,1.457-0.732,3.494,0.726,4.551
						C2529.782,3119.935,2530.451,3120.136,2531.115,3120.136z"/>
				</g>
			</g>
		</g>
		<g>
			<g>
				<g>
					<g>
						
							<ellipse transform="matrix(0.7071 -0.7071 0.7071 0.7071 -317.8878 2383.4805)" style="fill:#FFFFFF;" cx="2718.172" cy="1575.465" rx="229.344" ry="229.343"/>
						
							<linearGradient id="SVGID_00000177469090949030640980000018130170005255903388_" gradientUnits="userSpaceOnUse" x1="2514.4463" y1="1575.465" x2="2921.8967" y2="1575.465">
							<stop  offset="0" style="stop-color:#FF9085"/>
							<stop  offset="1" style="stop-color:#FB6FBB"/>
						</linearGradient>
						
							<circle style="fill:url(#SVGID_00000177469090949030640980000018130170005255903388_);" cx="2718.172" cy="1575.465" r="203.725"/>
					</g>
				</g>
			</g>
			<g>
				<path style="fill:#F4F7FA;" d="M2713.427,1557.132c2.489,1.293,6.238,1.292,8.725,0.002l112.133-57.491
					c-4.044-3.339-9.425-4.669-15.352-4.669h-202.291c-5.908,0-11.271,1.316-15.31,4.634L2713.427,1557.132z"/>
				<path style="fill:#F4F7FA;" d="M2731.309,1572.099c-4.255,2.209-8.887,3.314-13.764,3.314c-4.881,0-10.513-1.106-14.77-3.319
					l-110.59-57.077v121.145c0,11.254,11.917,23.294,24.456,23.294h202.291c12.54,0,21.727-12.04,21.727-23.294v-121.09
					L2731.309,1572.099z"/>
			</g>
		</g>
		<g>
			<g>
				<g>
					<g>
						
							<ellipse transform="matrix(0.7071 -0.7071 0.7071 0.7071 1.9423 2033.66)" style="fill:#FFFFFF;" cx="2455.816" cy="1014.485" rx="229.344" ry="229.343"/>
						
							<linearGradient id="SVGID_00000005233390493388538450000012196953830141047476_" gradientUnits="userSpaceOnUse" x1="2296.8105" y1="1231.7094" x2="1852.3583" y2="1838.894">
							<stop  offset="0" style="stop-color:#FFC444"/>
							<stop  offset="0.9964" style="stop-color:#F36F56"/>
						</linearGradient>
						
							<circle style="fill:url(#SVGID_00000005233390493388538450000012196953830141047476_);" cx="2455.816" cy="1014.485" r="203.725"/>
					</g>
				</g>
			</g>
			<g>
				<path style="fill:#FFFFFF;" d="M2478.859,1044.515l-7.487-0.205c-0.725-7.605-2.465-14.912-5.079-21.762l6.534-3.802
					c3.705-2.155,5.038-7.155,2.981-11.173l-0.902-1.761c-2.06-4.024-6.742-5.552-10.462-3.405l-6.588,3.803
					c-4.126-6.164-9.057-11.702-14.641-16.431l3.89-6.852c2.205-3.883,1.008-9.016-2.677-11.47l-1.616-1.077
					c-3.694-2.461-8.49-1.306-10.709,2.587l-3.919,6.876c-6.391-3.196-13.283-5.48-20.529-6.686l0.118-8.16
					c0.067-4.629-3.422-8.546-7.802-8.749l-1.921-0.089c-4.392-0.203-8.012,3.4-8.079,8.047l-0.118,8.214
					c-7.35,0.609-14.416,2.342-21.037,5.048l-3.813-7.281c-2.169-4.143-7.089-5.748-10.991-3.577l-1.712,0.952
					c-3.912,2.176-5.314,7.313-3.129,11.466l3.856,7.329c-5.947,4.393-11.265,9.683-15.773,15.701l-6.825-4.39
					c-3.882-2.497-8.917-1.284-11.24,2.716l-1.019,1.753c-2.327,4.005-1.05,9.274,2.848,11.762l6.86,4.379
					c-2.969,6.894-5.025,14.329-6.011,22.141l-8-0.218c-4.551-0.124-8.298,3.605-8.361,8.329l-0.028,2.069
					c-0.064,4.723,3.58,8.637,8.129,8.743l8.021,0.186c0.79,7.849,2.659,15.371,5.452,22.395l-6.952,4.014
					c-3.959,2.286-5.377,7.478-3.164,11.59l0.969,1.8c2.21,4.106,7.202,5.568,11.146,3.274l6.954-4.046
					c4.348,6.216,9.52,11.746,15.344,16.41l-4.04,7.088c-2.295,4.027-1.039,9.214,2.803,11.578l1.681,1.035
					c3.832,2.358,8.784,1.008,11.064-3.009l4.019-7.079c6.535,3.012,13.54,5.073,20.859,6.032l-0.117,8.164
					c-0.066,4.63,3.441,8.399,7.827,8.418l1.918,0.008c4.374,0.019,7.967-3.705,8.034-8.317l0.119-8.153
					c7.261-0.854,14.199-2.802,20.663-5.681l3.698,7.028c2.098,3.988,6.848,5.38,10.606,3.116l1.644-0.991
					c3.749-2.259,5.096-7.311,3.012-11.291l-3.688-7.044c5.702-4.447,10.78-9.73,15.07-15.68l6.443,4.113
					c3.647,2.328,8.367,1.041,10.546-2.868l0.954-1.711c2.176-3.904,0.997-8.958-2.636-11.296l-6.426-4.134
					c2.802-6.711,4.743-13.924,5.682-21.486l7.466,0.173c4.224,0.098,7.699-3.502,7.769-8.042l0.031-1.988
					C2486.446,1048.405,2483.084,1044.63,2478.859,1044.515z M2397.19,1088.539c-19.294-0.331-34.823-17.176-34.534-37.63
					c0.288-20.462,16.292-36.53,35.596-35.887c19.142,0.638,34.301,17.493,34.002,37.644
					C2431.956,1072.809,2416.323,1088.868,2397.19,1088.539z"/>
				<path style="fill:#FFFFFF;" d="M2600.547,955.127l-5.584-0.153c-0.541-5.672-1.839-11.122-3.788-16.23l4.874-2.836
					c2.763-1.607,3.757-5.336,2.223-8.333l-0.672-1.314c-1.537-3.001-5.029-4.141-7.803-2.539l-4.914,2.837
					c-3.077-4.597-6.755-8.728-10.919-12.255l2.901-5.11c1.644-2.896,0.752-6.724-1.997-8.555l-1.205-0.803
					c-2.755-1.835-6.332-0.974-7.987,1.929l-2.923,5.128c-4.766-2.384-9.906-4.087-15.311-4.987l0.089-6.086
					c0.05-3.453-2.553-6.374-5.819-6.525l-1.433-0.066c-3.275-0.151-5.976,2.536-6.026,6.002l-0.088,6.126
					c-5.482,0.454-10.751,1.746-15.69,3.765l-2.843-5.43c-1.618-3.09-5.287-4.287-8.198-2.668l-1.277,0.71
					c-2.917,1.623-3.964,5.454-2.334,8.551l2.876,5.466c-4.436,3.276-8.402,7.222-11.764,11.71l-5.09-3.274
					c-2.895-1.862-6.65-0.958-8.383,2.025l-0.76,1.308c-1.735,2.987-0.783,6.917,2.124,8.772l5.117,3.266
					c-2.214,5.142-3.748,10.687-4.483,16.513l-5.967-0.163c-3.394-0.093-6.189,2.689-6.236,6.212l-0.021,1.543
					c-0.048,3.523,2.67,6.442,6.063,6.521l5.982,0.138c0.589,5.854,1.983,11.464,4.066,16.703l-5.185,2.993
					c-2.953,1.705-4.011,5.577-2.359,8.644l0.723,1.342c1.649,3.062,5.372,4.153,8.313,2.442l5.187-3.018
					c3.243,4.636,7.1,8.761,11.444,12.239l-3.013,5.286c-1.712,3.004-0.775,6.872,2.091,8.635l1.254,0.772
					c2.858,1.759,6.551,0.752,8.252-2.244l2.997-5.28c4.874,2.246,10.099,3.784,15.557,4.498l-0.087,6.089
					c-0.05,3.453,2.567,6.264,5.837,6.278l1.431,0.006c3.262,0.014,5.942-2.763,5.992-6.203l0.088-6.081
					c5.416-0.637,10.59-2.09,15.411-4.237l2.758,5.242c1.565,2.974,5.108,4.012,7.91,2.324l1.226-0.739
					c2.796-1.685,3.801-5.453,2.247-8.421l-2.751-5.254c4.253-3.316,8.04-7.257,11.239-11.695l4.805,3.067
					c2.72,1.736,6.24,0.777,7.865-2.139l0.711-1.276c1.623-2.912,0.744-6.682-1.966-8.425l-4.793-3.083
					c2.09-5.005,3.538-10.385,4.238-16.025l5.568,0.129c3.151,0.073,5.742-2.612,5.794-5.997l0.023-1.483
					C2606.205,958.028,2603.698,955.213,2600.547,955.127z M2539.636,987.961c-14.39-0.247-25.971-12.81-25.757-28.065
					c0.215-15.261,12.151-27.245,26.549-26.766c14.277,0.476,25.582,13.046,25.36,28.076
					C2565.565,976.229,2553.905,988.206,2539.636,987.961z"/>
			</g>
		</g>
		<g>
			
				<linearGradient id="SVGID_00000114779745046005032250000006447122219191886736_" gradientUnits="userSpaceOnUse" x1="824.8386" y1="865.8856" x2="1209.7855" y2="1088.7498">
				<stop  offset="0" style="stop-color:#444B8C"/>
				<stop  offset="0.9964" style="stop-color:#26264F"/>
			</linearGradient>
			<path style="fill:url(#SVGID_00000114779745046005032250000006447122219191886736_);" d="M1274.725,953.945
				c0.391,176.863-93.619,321.197-261.042,325.945c-2.588,0.073-45.315-0.007-47.919-0.001
				c-171.031,0.417-310-144.838-310.397-324.435s137.93-325.527,308.961-325.944c3.999-0.01,41.542,0.361,45.505,0.509
				C1175.343,636.206,1274.338,778.547,1274.725,953.945z"/>
			
				<linearGradient id="SVGID_00000121977573959481300800000000782336563315866753_" gradientUnits="userSpaceOnUse" x1="1150.8958" y1="765.3759" x2="531.486" y2="1695.9456">
				<stop  offset="0.0036" style="stop-color:#E38DDD"/>
				<stop  offset="1" style="stop-color:#9571F6"/>
			</linearGradient>
			
				<ellipse style="fill:url(#SVGID_00000121977573959481300800000000782336563315866753_);" cx="1022.942" cy="957.607" rx="309.68" ry="325.191"/>
			
				<linearGradient id="SVGID_00000021821557935670548780000006248639239453861036_" gradientUnits="userSpaceOnUse" x1="1180.6337" y1="737.0848" x2="994.5479" y2="997.3145">
				<stop  offset="0.0036" style="stop-color:#E38DDD"/>
				<stop  offset="1" style="stop-color:#9571F6"/>
			</linearGradient>
			
				<ellipse style="fill:url(#SVGID_00000021821557935670548780000006248639239453861036_);" cx="1022.942" cy="957.607" rx="301.878" ry="316.998"/>
			
				<linearGradient id="SVGID_00000047739081870862707420000006371788192333106571_" gradientUnits="userSpaceOnUse" x1="829.2891" y1="439.5098" x2="1109.7202" y2="1189.7725">
				<stop  offset="0.0036" style="stop-color:#E38DDD"/>
				<stop  offset="1" style="stop-color:#9571F6"/>
			</linearGradient>
			
				<ellipse style="fill:url(#SVGID_00000047739081870862707420000006371788192333106571_);" cx="1022.942" cy="957.607" rx="292.764" ry="307.428"/>
			
				<linearGradient id="SVGID_00000008109043077070311240000015337599438740494012_" gradientUnits="userSpaceOnUse" x1="660.3467" y1="1918.0192" x2="1218.772" y2="412.9304">
				<stop  offset="0.0036" style="stop-color:#EBEFF2"/>
				<stop  offset="1" style="stop-color:#FFFFFF"/>
			</linearGradient>
			
				<ellipse style="fill:url(#SVGID_00000008109043077070311240000015337599438740494012_);" cx="1016.683" cy="957.607" rx="286.506" ry="300.856"/>
			<g>
				
					<linearGradient id="SVGID_00000029734938814473491010000000234110891994212268_" gradientUnits="userSpaceOnUse" x1="1223.4376" y1="733.4982" x2="891.2593" y2="1401.6302">
					<stop  offset="0.0036" style="stop-color:#E38DDD"/>
					<stop  offset="1" style="stop-color:#9571F6"/>
				</linearGradient>
				<path style="fill:url(#SVGID_00000029734938814473491010000000234110891994212268_);" d="M1046.933,948.991l218.244,84.63
					c7.105-23.909,10.937-49.336,10.937-75.703c0-135.766-101.511-246.633-229.18-253.479V948.991z"/>
			</g>
			<g style="opacity:0.54;">
				<path style="fill:#D8DEE8;" d="M944.747,950.781c-22.658-73.38,59.26-126.335,46.344-211.865
					c-5.699-37.741-27.877-68.664-55.151-93.473c-128.941,39.56-223.004,164.778-222.677,312.918
					c0.396,179.597,139.366,324.852,310.397,324.436c41.936-0.102,81.896-8.971,118.336-24.921
					c-5.28-103.792-37.118-162.422-70.975-197.745C1018.839,1005.69,962.024,1006.735,944.747,950.781z"/>
			</g>
			
				<linearGradient id="SVGID_00000128455524753736099890000001894797331361341078_" gradientUnits="userSpaceOnUse" x1="858.4239" y1="668.7905" x2="1215.2032" y2="1333.8967">
				<stop  offset="0" style="stop-color:#FF9085"/>
				<stop  offset="1" style="stop-color:#FB6FBB"/>
			</linearGradient>
			
				<ellipse style="fill:url(#SVGID_00000128455524753736099890000001894797331361341078_);" cx="1015.878" cy="962.316" rx="18.216" ry="19.129"/>
			
				<linearGradient id="SVGID_00000014612504362344966650000012891747219572409785_" gradientUnits="userSpaceOnUse" x1="890.0314" y1="651.8351" x2="1246.811" y2="1316.942">
				<stop  offset="0" style="stop-color:#FF9085"/>
				<stop  offset="1" style="stop-color:#FB6FBB"/>
			</linearGradient>
			<path style="fill:url(#SVGID_00000014612504362344966650000012891747219572409785_);" d="M1015.878,809.877
				c-6.358,0-11.512,5.412-11.512,12.089v128.945c0,6.676,5.154,12.089,11.512,12.089c6.358,0,11.512-5.412,11.512-12.089V821.966
				C1027.39,815.289,1022.236,809.877,1015.878,809.877z"/>
			
				<linearGradient id="SVGID_00000070810227279652681670000003718222692088863127_" gradientUnits="userSpaceOnUse" x1="518.4225" y1="200.4134" x2="1333.3987" y2="1719.6879">
				<stop  offset="0" style="stop-color:#FF9085"/>
				<stop  offset="1" style="stop-color:#FB6FBB"/>
			</linearGradient>
			<path style="fill:url(#SVGID_00000070810227279652681670000003718222692088863127_);" d="M1018.853,960.511l-206.253-60.637
				c-3.635-1.11-7.63,0.906-8.922,4.502c-1.292,3.596,0.608,7.411,4.244,8.522l206.253,60.637c3.635,1.11,7.63-0.906,8.922-4.502
				C1024.388,965.436,1022.488,961.621,1018.853,960.511z"/>
		</g>
		<g>
			
				<linearGradient id="SVGID_00000023993302945049852820000013964183830014592388_" gradientUnits="userSpaceOnUse" x1="4995.7603" y1="1031.2963" x2="4232.7598" y2="4689.5054" gradientTransform="matrix(1 0 0 1 -2947.9055 0)">
				<stop  offset="0" style="stop-color:#FF9085"/>
				<stop  offset="1" style="stop-color:#FB6FBB"/>
			</linearGradient>
			<path style="fill:url(#SVGID_00000023993302945049852820000013964183830014592388_);" d="M2218.168,2080.065
				c66.381-70.874-117.386-337.136-215.745-453.808c-85.928-101.926-174.246-206.69-282.7-193.426
				c-95.22,11.646-187.876,112.063-193.426,208.305C1511.364,1900.044,2123.798,2180.822,2218.168,2080.065z"/>
			
				<linearGradient id="SVGID_00000161631760693195866570000010167612245454733736_" gradientUnits="userSpaceOnUse" x1="4731.5698" y1="976.193" x2="3968.571" y2="4634.394" gradientTransform="matrix(1 0 0 1 -2947.9055 0)">
				<stop  offset="0" style="stop-color:#FF9085"/>
				<stop  offset="1" style="stop-color:#FB6FBB"/>
			</linearGradient>
			<path style="fill:url(#SVGID_00000161631760693195866570000010167612245454733736_);" d="M1030.453,1491.281
				c89.517-25.173,220.71-54.612,381.382-63.693c229.16-12.953,343.741-19.429,424.936,35.142
				c187.531,126.041,42.345,416.943,119.108,1138.065c10.963,102.981,13.422,206.696,21.359,309.954
				c13.146,170.966,16.139,180.248,4.243,197.574c-74.598,108.638-352.913-55.225-760.842,9.548
				c-228.244,36.242-331.761,119.739-394.292,59.516c-72.924-70.232-10.371-259.134,43.474-421.75
				c61.808-186.659,99.99-189.061,135.073-329.637c36.671-146.932,14.49-222.586,8.78-454.288
				C1010.943,1860.845,1011.524,1695.852,1030.453,1491.281z"/>
			<g style="opacity:0.3;">
				
					<linearGradient id="SVGID_00000134246106270173920470000002187172622640986298_" gradientUnits="userSpaceOnUse" x1="4075.3962" y1="4104.8198" x2="4364.9717" y2="2729.3418" gradientTransform="matrix(1 0 0 1 -2947.9055 0)">
					<stop  offset="0" style="stop-color:#FF9085"/>
					<stop  offset="1" style="stop-color:#FB6FBB"/>
				</linearGradient>
				<path style="fill:url(#SVGID_00000134246106270173920470000002187172622640986298_);" d="M1585.173,2845.091
					c-106.619-8.343-175.786,51.935-267.821,4.959c-126.202-64.416-166.752-264.84-158.71-406.691
					c12.22-215.525,135.287-272.336,114.073-411.651c-11.472-75.341-65.262-175.367-258.391-277.56
					c-2.576,86.009-2.085,159.32-0.65,217.564c5.71,231.702,27.891,307.356-8.78,454.288
					c-35.083,140.576-73.265,142.978-135.073,329.637c-53.845,162.616-116.398,351.518-43.474,421.75
					c62.531,60.223,166.048-23.274,394.292-59.516c351.493-55.812,606.615,57.981,718.239,21.076
					C1803.995,2916.055,1681.654,2852.64,1585.173,2845.091z"/>
			</g>
			
				<linearGradient id="SVGID_00000067217379386341557090000007215470006781338558_" gradientUnits="userSpaceOnUse" x1="4208.8862" y1="867.1764" x2="3445.8872" y2="4525.3794" gradientTransform="matrix(1 0 0 1 -2947.9055 0)">
				<stop  offset="0" style="stop-color:#FF9085"/>
				<stop  offset="1" style="stop-color:#FB6FBB"/>
			</linearGradient>
			<path style="fill:url(#SVGID_00000067217379386341557090000007215470006781338558_);" d="M1175.886,1506.077
				c-76.146-62.567-229.258,8.257-270.186,27.188c-228.241,105.575-433.168,390.069-382.392,690.722
				c7.614,45.092,42.926,255.994,221.513,358.186c161.14,92.207,378.726,68.493,553.06-62.104
				c23.822-21.142,47.652-42.278,71.478-63.42c23.437-25.334,46.882-50.671,70.319-76.009
				c-36.845-30.648-99.448-74.86-187.371-103.231c-115.918-37.405-200.31,29.713-254.093-21.315
				c-37.117-35.216-37.201-97.415-28.036-135.112c18.475-75.977,85.449-97.343,141.35-151.269
				C1242.863,1843.019,1267.06,1580.993,1175.886,1506.077z"/>
			<g>
				
					<linearGradient id="SVGID_00000151504245560271993480000009048435146254428034_" gradientUnits="userSpaceOnUse" x1="4859.3823" y1="2909.5391" x2="4735.915" y2="2559.7144" gradientTransform="matrix(1 0 0 1 -2947.9055 0)">
					<stop  offset="0" style="stop-color:#311944"/>
					<stop  offset="1" style="stop-color:#893976"/>
				</linearGradient>
				<polygon style="fill:url(#SVGID_00000151504245560271993480000009048435146254428034_);" points="2270.187,2487.575 
					1249.533,2472.339 1520.942,2603.324 2272.797,2554.117 				"/>
				
					<linearGradient id="SVGID_00000101808910670818970880000012713290200402545556_" gradientUnits="userSpaceOnUse" x1="4320.0088" y1="2402.6968" x2="4365.2798" y2="2715.4817" gradientTransform="matrix(1 0 0 1 -2947.9055 0)">
					<stop  offset="0" style="stop-color:#311944"/>
					<stop  offset="1" style="stop-color:#893976"/>
				</linearGradient>
				<path style="fill:url(#SVGID_00000101808910670818970880000012713290200402545556_);" d="M1213.513,2499.462v0.004
					c0,19.1,11.953,36.162,29.903,42.69l326.132,127.854l1.486-88.639l-321.501-109.033
					C1231.493,2467.153,1213.513,2480.695,1213.513,2499.462z"/>
			</g>
			
				<linearGradient id="SVGID_00000075870329765724072500000004029366372706589877_" gradientUnits="userSpaceOnUse" x1="2177.1465" y1="2451.7954" x2="2433.0083" y2="2451.7954" gradientTransform="matrix(-1 0 0 1 3542.2561 0)">
				<stop  offset="0" style="stop-color:#FFC444"/>
				<stop  offset="0.9964" style="stop-color:#F36F56"/>
			</linearGradient>
			<path style="fill:url(#SVGID_00000075870329765724072500000004029366372706589877_);" d="M1370.676,2439.071
				c-6.264-1.399,30.516-74.685,59.392-66.229c28.868,8.459,170.091,90.303,182.927,124.003
				c12.838,33.699,12.838,33.699,12.838,33.699s-61.602,4.815-99.805-8.021C1487.822,2509.684,1421.613,2450.428,1370.676,2439.071z
				"/>
			<g>
				
					<linearGradient id="SVGID_00000055697702862369124640000001614186625662442405_" gradientUnits="userSpaceOnUse" x1="1287.382" y1="573.9347" x2="1471.6965" y2="1689.1492">
					<stop  offset="0" style="stop-color:#FFC444"/>
					<stop  offset="0.9964" style="stop-color:#F36F56"/>
				</linearGradient>
				<path style="fill:url(#SVGID_00000055697702862369124640000001614186625662442405_);" d="M1663.505,1464.319
					c-5.135-27.539-96.373-12.763-123.567-62.587c-18.917-34.66,2.288-83.865,27.353-124.615
					c-24.277-45.488-114.071-54.412-138.346-99.898c0.571,67.937-7.01,121.817-14.18,158.715
					c-8.213,42.276-14.132,53.198-21.685,62.06c-11.37,13.341-28.6,24.53-125.952,48.673
					c-52.976,13.132-59.791,12.775-60.962,18.031c-5.706,25.646,138.751,113.054,287.995,91.987
					C1585.5,1543.795,1668.606,1491.685,1663.505,1464.319z"/>
				
					<linearGradient id="SVGID_00000065041509503112184510000002575369297642379137_" gradientUnits="userSpaceOnUse" x1="2494.9678" y1="887.4109" x2="2374.4016" y2="1245.9368" gradientTransform="matrix(0.862 -0.507 0.507 0.862 -1163.6344 1237.7108)">
					<stop  offset="0" style="stop-color:#444B8C"/>
					<stop  offset="0.9964" style="stop-color:#26264F"/>
				</linearGradient>
				<path style="fill:url(#SVGID_00000065041509503112184510000002575369297642379137_);" d="M1605.969,1157.235
					c44.935-36.245,75.737-110.054,54.554-143.615c-29.11-46.127-151.673-8.681-213.557,10.226
					c-62.074,18.967-82.375,37.255-90.977,58.27c-8.786,21.472-6.486,49.306,1.091,70.017c4.129,11.287,12.277,25.367,30.456,52.282
					c16.135,23.884,15.039,23.064,19.989,30.012c11.896,16.685,34.896,44.807,77.274,77.616c2.54-12.033,6.494-26.954,13.015-43.201
					c2.508-6.249,12.608-30.684,28.386-51.165C1553.282,1182.519,1578.691,1179.235,1605.969,1157.235z"/>
				
					<linearGradient id="SVGID_00000181086352849916695400000012043594201820797335_" gradientUnits="userSpaceOnUse" x1="1514.6962" y1="1109.7974" x2="1427.3595" y2="1819.7557">
					<stop  offset="0" style="stop-color:#FFC444"/>
					<stop  offset="0.9964" style="stop-color:#F36F56"/>
				</linearGradient>
				<path style="fill:url(#SVGID_00000181086352849916695400000012043594201820797335_);" d="M1430.495,1279.637
					c0,0,43.52,66.695,125.838,58.799c73.71-7.073,79.448-173.024,31.196-206.727c-16.094-11.241-47.762-15.143-73.171-7.176
					c-15.006,4.704-19.937,11.152-44.608,18.367c-22.753,6.65-29.316,4.306-36.059,10.347c-8.439,7.553-14.233,25.619,1.711,73.594
					c-14.525-13.838-31.61-18.792-43.415-12.769c-1.885,0.962-6.852,4.568-9.543,9.881
					C1372.699,1243.192,1390.712,1266.821,1430.495,1279.637z"/>
			</g>
			<g>
				
					<linearGradient id="SVGID_00000119103351035462019750000013056990392598608023_" gradientUnits="userSpaceOnUse" x1="-725.0601" y1="1566.236" x2="-703.2899" y2="1885.1716" gradientTransform="matrix(-0.9999 0.013 0.013 0.9999 736.6608 -191.3752)">
					<stop  offset="0" style="stop-color:#444B8C"/>
					<stop  offset="0.9964" style="stop-color:#26264F"/>
				</linearGradient>
				<path style="fill:url(#SVGID_00000119103351035462019750000013056990392598608023_);" d="M1518.409,1552.988
					c-5.743,12.976-12.196,26.406-19.456,40.167c-3.166,6-6.363,11.829-9.575,17.489c-13.172,1.818-26.349,3.636-39.521,5.454
					c-8.426-19.201-16.852-38.402-25.278-57.603c13.075,1.718,29.202,2.783,47.568,1.676
					C1490.173,1559.085,1505.789,1556.182,1518.409,1552.988z"/>
				
					<linearGradient id="SVGID_00000144298001070708487970000017773796767913211058_" gradientUnits="userSpaceOnUse" x1="-787.6807" y1="2235.4585" x2="-787.6807" y2="1455.535" gradientTransform="matrix(-0.9999 0.013 0.013 0.9999 736.6608 -191.3752)">
					<stop  offset="0" style="stop-color:#444B8C"/>
					<stop  offset="0.9964" style="stop-color:#26264F"/>
				</linearGradient>
				<path style="fill:url(#SVGID_00000144298001070708487970000017773796767913211058_);" d="M1488.984,1606.972
					c0,0,45.318,443.554,184.873,512.848c-3.37,14.265,1.684,129.746,1.684,129.746s-129.737-37.235-137.07-34.568
					s-159.688-242.611-88.617-598.9L1488.984,1606.972z"/>
			</g>
			<g>
				<g>
					
						<linearGradient id="SVGID_00000035509135809736477080000007911636691802609571_" gradientUnits="userSpaceOnUse" x1="5217.04" y1="2430.0923" x2="4976.3232" y2="2088.2747" gradientTransform="matrix(1 0 0 1 -2947.9055 0)">
						<stop  offset="0" style="stop-color:#444B8C"/>
						<stop  offset="0.9964" style="stop-color:#26264F"/>
					</linearGradient>
					<path style="fill:url(#SVGID_00000035509135809736477080000007911636691802609571_);" d="M1598.111,1959.448l-71.944,655.051
						c-2.482,22.603,29.161,56.276,51.873,55.202l1055.409-64.791c17.343-0.825,31.783-13.587,34.719-30.699l132.469-632.665
						c3.952-23.023-37.435-46.802-60.786-46.15l-1106.002,31.098C1615.378,1927.017,1600.125,1941.078,1598.111,1959.448z"/>
					
						<linearGradient id="SVGID_00000114775067573794322150000002283752593606976919_" gradientUnits="userSpaceOnUse" x1="4755.3022" y1="2995.7944" x2="5282.0991" y2="1925.7394" gradientTransform="matrix(1 0 0 1 -2947.9055 0)">
						<stop  offset="0" style="stop-color:#311944"/>
						<stop  offset="1" style="stop-color:#893976"/>
					</linearGradient>
					<path style="fill:url(#SVGID_00000114775067573794322150000002283752593606976919_);" d="M1622.232,1978.546l-71.946,655.057
						c-2.481,22.603,15.817,42.073,38.53,41.003l1068.758-50.597c17.339-0.822,31.78-13.587,34.718-30.696l109.19-635.559
						c3.955-23.028-14.155-43.913-37.507-43.255l-1106.005,31.098C1639.503,1946.113,1624.244,1960.182,1622.232,1978.546z"/>
				</g>
				
					<linearGradient id="SVGID_00000111871400158670970760000001370396667982854820_" gradientUnits="userSpaceOnUse" x1="4497.9668" y1="2308.9976" x2="5655.2651" y2="2308.9976" gradientTransform="matrix(1 0 0 1 -2947.9055 0)">
					<stop  offset="0" style="stop-color:#311944"/>
					<stop  offset="1" style="stop-color:#893976"/>
				</linearGradient>
				<path style="opacity:0.3;fill:url(#SVGID_00000111871400158670970760000001370396667982854820_);" d="M2249.805,2470.514
					c-93.32-39.552-60.382-114.978-170.582-208.963c-145.377-123.988-293.557-70.216-345.432-166.319
					c-16.154-29.933-23.87-76.505,4.269-151.885l-80.09,2.252c-18.467,0.515-33.727,14.584-35.738,32.948l-71.946,655.057
					c-2.478,22.599,15.821,42.073,38.53,41.003l1068.758-50.597c17.339-0.822,31.78-13.584,34.718-30.696l15.068-87.701
					c-32.427-18.046-71.177-34.455-116.391-43.627C2434.173,2430.181,2357.244,2516.049,2249.805,2470.514z"/>
			</g>
			
				<linearGradient id="SVGID_00000024690464838447116460000005716078316037160353_" gradientUnits="userSpaceOnUse" x1="2553.4788" y1="2579.5278" x2="2718.1716" y2="2579.5278">
				<stop  offset="0" style="stop-color:#FFC444"/>
				<stop  offset="0.9964" style="stop-color:#F36F56"/>
			</linearGradient>
			<path style="fill:url(#SVGID_00000024690464838447116460000005716078316037160353_);" d="M2710.168,2518.62
				c-21.945-0.282-72.763,1.205-100.151,19.448c-35.579,23.706-81.132,66.226-40.678,85.257c12.932,7.941,26.517,18.898,42.701,16.9
				c6.548-0.806,13.33-3.64,19.61-5.617c5.061-1.594,10.166-2.84,15.345-3.978c10.22-2.245,20.492-4.569,30.616-7.22
				c2.867-0.75,6.248-1.403,8.876-2.854c5.41-2.989,24.14-66.478,31.356-91.552
				C2719.334,2523.823,2715.561,2518.687,2710.168,2518.62z"/>
		</g>
		<g>
			<g>
				<g>
					
						<ellipse transform="matrix(0.7071 -0.7071 0.7071 0.7071 -402.426 1865.7003)" style="fill:#FFFFFF;" cx="2050.886" cy="1418.621" rx="242.721" ry="242.721"/>
					
						<linearGradient id="SVGID_00000069360279393847981440000001235432476293763759_" gradientUnits="userSpaceOnUse" x1="1835.278" y1="1418.6215" x2="2266.4951" y2="1418.6215">
						<stop  offset="0" style="stop-color:#AA80F9"/>
						<stop  offset="0.9964" style="stop-color:#6165D7"/>
					</linearGradient>
					
						<circle style="fill:url(#SVGID_00000069360279393847981440000001235432476293763759_);" cx="2050.886" cy="1418.621" r="215.609"/>
				</g>
			</g>
			<path style="fill:#FFFFFF;" d="M2056.518,1306.087c-81.631,0-147.806,50.384-147.806,112.533
				c0,21.374,7.826,41.357,21.417,58.376l-14.255,37.908c-1.345,3.578,1.734,7.255,5.494,6.555
				c12.768-2.375,36.965-6.844,52.553-9.503c23.581,12.12,52.004,19.198,82.598,19.198c81.631,0,147.806-50.382,147.806-112.535
				C2204.325,1356.471,2138.149,1306.087,2056.518,1306.087z M2058.741,1458.164h-94.572c-3.132,0-5.673-1.997-5.673-5.131
				c0-3.134,2.541-5.129,5.673-5.129h94.572c3.134,0,5.675,1.995,5.675,5.129
				C2064.417,1456.167,2061.875,1458.164,2058.741,1458.164z M2143.857,1423.963h-179.688c-3.132,0-5.673-1.997-5.673-5.131
				s2.541-5.129,5.673-5.129h179.688c3.134,0,5.673,1.995,5.673,5.129S2146.991,1423.963,2143.857,1423.963z M2143.857,1393.182
				h-179.688c-3.132,0-5.673-3.705-5.673-6.839c0-3.134,2.541-6.841,5.673-6.841h179.688c3.134,0,5.673,3.707,5.673,6.841
				C2149.53,1389.477,2146.991,1393.182,2143.857,1393.182z"/>
		</g>
	</g>
</g>
</svg>
